<?xml version="1.0" encoding="UTF-8"?>
<!DOCTYPE svg PUBLIC "-//W3C//DTD SVG 1.1//EN"
    "http://www.w3.org/Graphics/SVG/1.1/DTD/svg11.dtd"><svg xmlns="http://www.w3.org/2000/svg" height="320.0000" stroke-opacity="1" viewBox="0.0 0.0 320.0 319.99999999999994" font-size="1" width="320.0000" xmlns:xlink="http://www.w3.org/1999/xlink" stroke="rgb(0,0,0)" version="1.1"><defs></defs><g stroke-linejoin="miter" stroke-opacity="1.0" fill-opacity="0.0" opacity="0.2" stroke="rgb(0,0,0)" stroke-width="0.6" fill="rgb(0,0,0)" stroke-linecap="butt" stroke-miterlimit="10.0"><path d="M 6.1538,26.6667 h 307.6923 "/></g><g stroke-linejoin="miter" stroke-opacity="1.0" fill-opacity="0.0" opacity="0.2" stroke="rgb(0,0,0)" stroke-width="0.6" fill="rgb(0,0,0)" stroke-linecap="butt" stroke-miterlimit="10.0"><path d="M 6.1538,47.1795 h 307.6923 "/></g><g stroke-linejoin="miter" stroke-opacity="1.0" fill-opacity="0.0" opacity="0.2" stroke="rgb(0,0,0)" stroke-width="0.6" fill="rgb(0,0,0)" stroke-linecap="butt" stroke-miterlimit="10.0"><path d="M 6.1538,67.6923 h 307.6923 "/></g><g stroke-linejoin="miter" stroke-opacity="1.0" fill-opacity="0.0" opacity="0.2" stroke="rgb(0,0,0)" stroke-width="0.6" fill="rgb(0,0,0)" stroke-linecap="butt" stroke-miterlimit="10.0"><path d="M 6.1538,88.2051 h 307.6923 "/></g><g stroke-linejoin="miter" stroke-opacity="1.0" fill-opacity="0.0" opacity="0.2" stroke="rgb(0,0,0)" stroke-width="0.6" fill="rgb(0,0,0)" stroke-linecap="butt" stroke-miterlimit="10.0"><path d="M 6.1538,129.2308 h 307.6923 "/></g><g stroke-linejoin="miter" stroke-opacity="1.0" fill-opacity="0.0" opacity="0.2" stroke="rgb(0,0,0)" stroke-width="0.6" fill="rgb(0,0,0)" stroke-linecap="butt" stroke-miterlimit="10.0"><path d="M 6.1538,149.7436 h 307.6923 "/></g><g stroke-linejoin="miter" stroke-opacity="1.0" fill-opacity="0.0" opacity="0.2" stroke="rgb(0,0,0)" stroke-width="0.6" fill="rgb(0,0,0)" stroke-linecap="butt" stroke-miterlimit="10.0"><path d="M 6.1538,170.2564 h 307.6923 "/></g><g stroke-linejoin="miter" stroke-opacity="1.0" fill-opacity="0.0" opacity="0.2" stroke="rgb(0,0,0)" stroke-width="0.6" fill="rgb(0,0,0)" stroke-linecap="butt" stroke-miterlimit="10.0"><path d="M 6.1538,190.7692 h 307.6923 "/></g><g stroke-linejoin="miter" stroke-opacity="1.0" fill-opacity="0.0" opacity="0.2" stroke="rgb(0,0,0)" stroke-width="0.6" fill="rgb(0,0,0)" stroke-linecap="butt" stroke-miterlimit="10.0"><path d="M 6.1538,231.7949 h 307.6923 "/></g><g stroke-linejoin="miter" stroke-opacity="1.0" fill-opacity="0.0" opacity="0.2" stroke="rgb(0,0,0)" stroke-width="0.6" fill="rgb(0,0,0)" stroke-linecap="butt" stroke-miterlimit="10.0"><path d="M 6.1538,252.3077 h 307.6923 "/></g><g stroke-linejoin="miter" stroke-opacity="1.0" fill-opacity="0.0" opacity="0.2" stroke="rgb(0,0,0)" stroke-width="0.6" fill="rgb(0,0,0)" stroke-linecap="butt" stroke-miterlimit="10.0"><path d="M 6.1538,272.8205 h 307.6923 "/></g><g stroke-linejoin="miter" stroke-opacity="1.0" fill-opacity="0.0" opacity="0.2" stroke="rgb(0,0,0)" stroke-width="0.6" fill="rgb(0,0,0)" stroke-linecap="butt" stroke-miterlimit="10.0"><path d="M 6.1538,293.3333 h 307.6923 "/></g><g stroke-linejoin="miter" stroke-opacity="1.0" fill-opacity="0.0" opacity="0.2" stroke="rgb(0,0,0)" stroke-width="0.6" fill="rgb(0,0,0)" stroke-linecap="butt" stroke-miterlimit="10.0"><path d="M 293.3333,313.8462 v -307.6923 "/></g><g stroke-linejoin="miter" stroke-opacity="1.0" fill-opacity="0.0" opacity="0.2" stroke="rgb(0,0,0)" stroke-width="0.6" fill="rgb(0,0,0)" stroke-linecap="butt" stroke-miterlimit="10.0"><path d="M 272.8205,313.8462 v -307.6923 "/></g><g stroke-linejoin="miter" stroke-opacity="1.0" fill-opacity="0.0" opacity="0.2" stroke="rgb(0,0,0)" stroke-width="0.6" fill="rgb(0,0,0)" stroke-linecap="butt" stroke-miterlimit="10.0"><path d="M 231.7949,313.8462 v -307.6923 "/></g><g stroke-linejoin="miter" stroke-opacity="1.0" fill-opacity="0.0" opacity="0.2" stroke="rgb(0,0,0)" stroke-width="0.6" fill="rgb(0,0,0)" stroke-linecap="butt" stroke-miterlimit="10.0"><path d="M 211.2821,313.8462 v -307.6923 "/></g><g stroke-linejoin="miter" stroke-opacity="1.0" fill-opacity="0.0" opacity="0.2" stroke="rgb(0,0,0)" stroke-width="0.6" fill="rgb(0,0,0)" stroke-linecap="butt" stroke-miterlimit="10.0"><path d="M 170.2564,313.8462 v -307.6923 "/></g><g stroke-linejoin="miter" stroke-opacity="1.0" fill-opacity="0.0" opacity="0.2" stroke="rgb(0,0,0)" stroke-width="0.6" fill="rgb(0,0,0)" stroke-linecap="butt" stroke-miterlimit="10.0"><path d="M 149.7436,313.8462 v -307.6923 "/></g><g stroke-linejoin="miter" stroke-opacity="1.0" fill-opacity="0.0" opacity="0.2" stroke="rgb(0,0,0)" stroke-width="0.6" fill="rgb(0,0,0)" stroke-linecap="butt" stroke-miterlimit="10.0"><path d="M 108.7179,313.8462 v -307.6923 "/></g><g stroke-linejoin="miter" stroke-opacity="1.0" fill-opacity="0.0" opacity="0.2" stroke="rgb(0,0,0)" stroke-width="0.6" fill="rgb(0,0,0)" stroke-linecap="butt" stroke-miterlimit="10.0"><path d="M 88.2051,313.8462 v -307.6923 "/></g><g stroke-linejoin="miter" stroke-opacity="1.0" fill-opacity="0.0" opacity="0.2" stroke="rgb(0,0,0)" stroke-width="0.6" fill="rgb(0,0,0)" stroke-linecap="butt" stroke-miterlimit="10.0"><path d="M 47.1795,313.8462 v -307.6923 "/></g><g stroke-linejoin="miter" stroke-opacity="1.0" fill-opacity="0.0" opacity="0.2" stroke="rgb(0,0,0)" stroke-width="0.6" fill="rgb(0,0,0)" stroke-linecap="butt" stroke-miterlimit="10.0"><path d="M 26.6667,313.8462 v -307.6923 "/></g><g stroke-linejoin="miter" stroke-opacity="1.0" fill-opacity="0.0" stroke="rgb(0,0,0)" stroke-width="1.0" fill="rgb(0,0,0)" stroke-linecap="butt" stroke-miterlimit="10.0"><path d="M 6.1538,108.7179 h 307.6923 "/></g><g stroke-linejoin="miter" stroke-opacity="1.0" fill-opacity="0.0" stroke="rgb(0,0,0)" stroke-width="1.0" fill="rgb(0,0,0)" stroke-linecap="butt" stroke-miterlimit="10.0"><path d="M 6.1538,211.2821 h 307.6923 "/></g><g stroke-linejoin="miter" stroke-opacity="1.0" fill-opacity="0.0" stroke="rgb(0,0,0)" stroke-width="1.0" fill="rgb(0,0,0)" stroke-linecap="butt" stroke-miterlimit="10.0"><path d="M 252.3077,313.8462 v -307.6923 "/></g><g stroke-linejoin="miter" stroke-opacity="1.0" fill-opacity="0.0" stroke="rgb(0,0,0)" stroke-width="1.0" fill="rgb(0,0,0)" stroke-linecap="butt" stroke-miterlimit="10.0"><path d="M 190.7692,313.8462 v -307.6923 "/></g><g stroke-linejoin="miter" stroke-opacity="1.0" fill-opacity="0.0" stroke="rgb(0,0,0)" stroke-width="1.0" fill="rgb(0,0,0)" stroke-linecap="butt" stroke-miterlimit="10.0"><path d="M 129.2308,313.8462 v -307.6923 "/></g><g stroke-linejoin="miter" stroke-opacity="1.0" fill-opacity="0.0" stroke="rgb(0,0,0)" stroke-width="1.0" fill="rgb(0,0,0)" stroke-linecap="butt" stroke-miterlimit="10.0"><path d="M 67.6923,313.8462 v -307.6923 "/></g><g stroke-linejoin="round" stroke-opacity="1.0" fill-opacity="0.0" stroke="rgb(0,0,0)" stroke-width="1.6" fill="rgb(0,0,0)" stroke-linecap="butt" stroke-miterlimit="10.0"><path d="M 313.8462,313.8462 l -0.0000,-307.6923 h -307.6923 l -0.0000,307.6923 Z"/></g><g stroke-linejoin="miter" stroke-opacity="1.0" fill-opacity="1.0" stroke="rgb(0,0,0)" stroke-width="0.0" fill="rgb(0,126,156)" stroke-linecap="butt" stroke-miterlimit="10.0"><path d="M 266.7233,14.7622 c 0.0000,-1.6993 -1.3776,-3.0769 -3.0769 -3.0769c -1.6993,-0.0000 -3.0769,1.3776 -3.0769 3.0769c -0.0000,1.6993 1.3776,3.0769 3.0769 3.0769c 1.6993,0.0000 3.0769,-1.3776 3.0769 -3.0769Z"/></g><g stroke-linejoin="miter" stroke-opacity="1.0" fill-opacity="1.0" stroke="rgb(0,0,0)" stroke-width="0.0" fill="rgb(0,126,156)" stroke-linecap="butt" stroke-miterlimit="10.0"><path d="M 82.2359,54.0952 c 0.0000,-1.6993 -1.3776,-3.0769 -3.0769 -3.0769c -1.6993,-0.0000 -3.0769,1.3776 -3.0769 3.0769c -0.0000,1.6993 1.3776,3.0769 3.0769 3.0769c 1.6993,0.0000 3.0769,-1.3776 3.0769 -3.0769Z"/></g><g stroke-linejoin="miter" stroke-opacity="1.0" fill-opacity="1.0" stroke="rgb(0,0,0)" stroke-width="0.0" fill="rgb(0,126,156)" stroke-linecap="butt" stroke-miterlimit="10.0"><path d="M 309.9850,121.8654 c 0.0000,-1.6993 -1.3776,-3.0769 -3.0769 -3.0769c -1.6993,-0.0000 -3.0769,1.3776 -3.0769 3.0769c -0.0000,1.6993 1.3776,3.0769 3.0769 3.0769c 1.6993,0.0000 3.0769,-1.3776 3.0769 -3.0769Z"/></g><g stroke-linejoin="miter" stroke-opacity="1.0" fill-opacity="1.0" stroke="rgb(0,0,0)" stroke-width="0.0" fill="rgb(0,126,156)" stroke-linecap="butt" stroke-miterlimit="10.0"><path d="M 188.5313,199.1254 c 0.0000,-1.6993 -1.3776,-3.0769 -3.0769 -3.0769c -1.6993,-0.0000 -3.0769,1.3776 -3.0769 3.0769c -0.0000,1.6993 1.3776,3.0769 3.0769 3.0769c 1.6993,0.0000 3.0769,-1.3776 3.0769 -3.0769Z"/></g><g stroke-linejoin="miter" stroke-opacity="1.0" fill-opacity="1.0" stroke="rgb(0,0,0)" stroke-width="0.0" fill="rgb(0,126,156)" stroke-linecap="butt" stroke-miterlimit="10.0"><path d="M 282.1626,225.1549 c 0.0000,-1.6993 -1.3776,-3.0769 -3.0769 -3.0769c -1.6993,-0.0000 -3.0769,1.3776 -3.0769 3.0769c -0.0000,1.6993 1.3776,3.0769 3.0769 3.0769c 1.6993,0.0000 3.0769,-1.3776 3.0769 -3.0769Z"/></g><g stroke-linejoin="miter" stroke-opacity="1.0" fill-opacity="1.0" stroke="rgb(0,0,0)" stroke-width="0.0" fill="rgb(0,126,156)" stroke-linecap="butt" stroke-miterlimit="10.0"><path d="M 204.8787,38.9066 c 0.0000,-1.6993 -1.3776,-3.0769 -3.0769 -3.0769c -1.6993,-0.0000 -3.0769,1.3776 -3.0769 3.0769c -0.0000,1.6993 1.3776,3.0769 3.0769 3.0769c 1.6993,0.0000 3.0769,-1.3776 3.0769 -3.0769Z"/></g><g stroke-linejoin="miter" stroke-opacity="1.0" fill-opacity="1.0" stroke="rgb(0,0,0)" stroke-width="0.0" fill="rgb(0,126,156)" stroke-linecap="butt" stroke-miterlimit="10.0"><path d="M 139.5860,96.1256 c 0.0000,-1.6993 -1.3776,-3.0769 -3.0769 -3.0769c -1.6993,-0.0000 -3.0769,1.3776 -3.0769 3.0769c -0.0000,1.6993 1.3776,3.0769 3.0769 3.0769c 1.6993,0.0000 3.0769,-1.3776 3.0769 -3.0769Z"/></g><g stroke-linejoin="miter" stroke-opacity="1.0" fill-opacity="1.0" stroke="rgb(0,0,0)" stroke-width="0.0" fill="rgb(0,126,156)" stroke-linecap="butt" stroke-miterlimit="10.0"><path d="M 21.1449,75.7870 c 0.0000,-1.6993 -1.3776,-3.0769 -3.0769 -3.0769c -1.6993,-0.0000 -3.0769,1.3776 -3.0769 3.0769c -0.0000,1.6993 1.3776,3.0769 3.0769 3.0769c 1.6993,0.0000 3.0769,-1.3776 3.0769 -3.0769Z"/></g><g stroke-linejoin="miter" stroke-opacity="1.0" fill-opacity="1.0" stroke="rgb(0,0,0)" stroke-width="0.0" fill="rgb(0,126,156)" stroke-linecap="butt" stroke-miterlimit="10.0"><path d="M 248.9845,137.7997 c 0.0000,-1.6993 -1.3776,-3.0769 -3.0769 -3.0769c -1.6993,-0.0000 -3.0769,1.3776 -3.0769 3.0769c -0.0000,1.6993 1.3776,3.0769 3.0769 3.0769c 1.6993,0.0000 3.0769,-1.3776 3.0769 -3.0769Z"/></g><g stroke-linejoin="miter" stroke-opacity="1.0" fill-opacity="1.0" stroke="rgb(0,0,0)" stroke-width="0.0" fill="rgb(0,126,156)" stroke-linecap="butt" stroke-miterlimit="10.0"><path d="M 228.7190,238.7440 c 0.0000,-1.6993 -1.3776,-3.0769 -3.0769 -3.0769c -1.6993,-0.0000 -3.0769,1.3776 -3.0769 3.0769c -0.0000,1.6993 1.3776,3.0769 3.0769 3.0769c 1.6993,0.0000 3.0769,-1.3776 3.0769 -3.0769Z"/></g><g stroke-linejoin="miter" stroke-opacity="1.0" fill-opacity="1.0" stroke="rgb(0,0,0)" stroke-width="0.0" fill="rgb(0,126,156)" stroke-linecap="butt" stroke-miterlimit="10.0"><path d="M 43.0735,278.7932 c 0.0000,-1.6993 -1.3776,-3.0769 -3.0769 -3.0769c -1.6993,-0.0000 -3.0769,1.3776 -3.0769 3.0769c -0.0000,1.6993 1.3776,3.0769 3.0769 3.0769c 1.6993,0.0000 3.0769,-1.3776 3.0769 -3.0769Z"/></g><g stroke-linejoin="miter" stroke-opacity="1.0" fill-opacity="1.0" stroke="rgb(0,0,0)" stroke-width="0.0" fill="rgb(0,126,156)" stroke-linecap="butt" stroke-miterlimit="10.0"><path d="M 56.9049,178.4467 c 0.0000,-1.6993 -1.3776,-3.0769 -3.0769 -3.0769c -1.6993,-0.0000 -3.0769,1.3776 -3.0769 3.0769c -0.0000,1.6993 1.3776,3.0769 3.0769 3.0769c 1.6993,0.0000 3.0769,-1.3776 3.0769 -3.0769Z"/></g><g stroke-linejoin="miter" stroke-opacity="1.0" fill-opacity="1.0" stroke="rgb(0,0,0)" stroke-width="0.0" fill="rgb(0,126,156)" stroke-linecap="butt" stroke-miterlimit="10.0"><path d="M 104.6049,264.2092 c 0.0000,-1.6993 -1.3776,-3.0769 -3.0769 -3.0769c -1.6993,-0.0000 -3.0769,1.3776 -3.0769 3.0769c -0.0000,1.6993 1.3776,3.0769 3.0769 3.0769c 1.6993,0.0000 3.0769,-1.3776 3.0769 -3.0769Z"/></g><g stroke-linejoin="miter" stroke-opacity="1.0" fill-opacity="1.0" stroke="rgb(0,0,0)" stroke-width="0.0" fill="rgb(0,126,156)" stroke-linecap="butt" stroke-miterlimit="10.0"><path d="M 125.9445,155.8349 c 0.0000,-1.6993 -1.3776,-3.0769 -3.0769 -3.0769c -1.6993,-0.0000 -3.0769,1.3776 -3.0769 3.0769c -0.0000,1.6993 1.3776,3.0769 3.0769 3.0769c 1.6993,0.0000 3.0769,-1.3776 3.0769 -3.0769Z"/></g><g stroke-linejoin="miter" stroke-opacity="1.0" fill-opacity="1.0" stroke="rgb(0,0,0)" stroke-width="0.0" fill="rgb(0,126,156)" stroke-linecap="butt" stroke-miterlimit="10.0"><path d="M 159.7153,301.4784 c 0.0000,-1.6993 -1.3776,-3.0769 -3.0769 -3.0769c -1.6993,-0.0000 -3.0769,1.3776 -3.0769 3.0769c -0.0000,1.6993 1.3776,3.0769 3.0769 3.0769c 1.6993,0.0000 3.0769,-1.3776 3.0769 -3.0769Z"/></g></svg>