<?xml version="1.0" encoding="UTF-8"?>
<!DOCTYPE svg PUBLIC "-//W3C//DTD SVG 1.1//EN"
    "http://www.w3.org/Graphics/SVG/1.1/DTD/svg11.dtd"><svg xmlns="http://www.w3.org/2000/svg" height="320.0000" stroke-opacity="1" viewBox="0.0 0.0 320.0 319.99999999999994" font-size="1" width="320.0000" xmlns:xlink="http://www.w3.org/1999/xlink" stroke="rgb(0,0,0)" version="1.1"><defs></defs><g stroke-linejoin="miter" stroke-opacity="1.0" fill-opacity="0.0" stroke="rgb(207,207,207)" stroke-width="0.6" fill="rgb(0,0,0)" stroke-linecap="butt" stroke-miterlimit="10.0"><path d="M 6.1538,18.4615 h 307.6923 "/></g><g stroke-linejoin="miter" stroke-opacity="1.0" fill-opacity="0.0" stroke="rgb(207,207,207)" stroke-width="0.6" fill="rgb(0,0,0)" stroke-linecap="butt" stroke-miterlimit="10.0"><path d="M 6.1538,30.7692 h 307.6923 "/></g><g stroke-linejoin="miter" stroke-opacity="1.0" fill-opacity="0.0" stroke="rgb(207,207,207)" stroke-width="0.6" fill="rgb(0,0,0)" stroke-linecap="butt" stroke-miterlimit="10.0"><path d="M 6.1538,43.0769 h 307.6923 "/></g><g stroke-linejoin="miter" stroke-opacity="1.0" fill-opacity="0.0" stroke="rgb(207,207,207)" stroke-width="0.6" fill="rgb(0,0,0)" stroke-linecap="butt" stroke-miterlimit="10.0"><path d="M 6.1538,55.3846 h 307.6923 "/></g><g stroke-linejoin="miter" stroke-opacity="1.0" fill-opacity="0.0" stroke="rgb(207,207,207)" stroke-width="0.6" fill="rgb(0,0,0)" stroke-linecap="butt" stroke-miterlimit="10.0"><path d="M 6.1538,80.0000 h 307.6923 "/></g><g stroke-linejoin="miter" stroke-opacity="1.0" fill-opacity="0.0" stroke="rgb(207,207,207)" stroke-width="0.6" fill="rgb(0,0,0)" stroke-linecap="butt" stroke-miterlimit="10.0"><path d="M 6.1538,92.3077 h 307.6923 "/></g><g stroke-linejoin="miter" stroke-opacity="1.0" fill-opacity="0.0" stroke="rgb(207,207,207)" stroke-width="0.6" fill="rgb(0,0,0)" stroke-linecap="butt" stroke-miterlimit="10.0"><path d="M 6.1538,104.6154 h 307.6923 "/></g><g stroke-linejoin="miter" stroke-opacity="1.0" fill-opacity="0.0" stroke="rgb(207,207,207)" stroke-width="0.6" fill="rgb(0,0,0)" stroke-linecap="butt" stroke-miterlimit="10.0"><path d="M 6.1538,116.9231 h 307.6923 "/></g><g stroke-linejoin="miter" stroke-opacity="1.0" fill-opacity="0.0" stroke="rgb(207,207,207)" stroke-width="0.6" fill="rgb(0,0,0)" stroke-linecap="butt" stroke-miterlimit="10.0"><path d="M 6.1538,141.5385 h 307.6923 "/></g><g stroke-linejoin="miter" stroke-opacity="1.0" fill-opacity="0.0" stroke="rgb(207,207,207)" stroke-width="0.6" fill="rgb(0,0,0)" stroke-linecap="butt" stroke-miterlimit="10.0"><path d="M 6.1538,153.8462 h 307.6923 "/></g><g stroke-linejoin="miter" stroke-opacity="1.0" fill-opacity="0.0" stroke="rgb(207,207,207)" stroke-width="0.6" fill="rgb(0,0,0)" stroke-linecap="butt" stroke-miterlimit="10.0"><path d="M 6.1538,166.1538 h 307.6923 "/></g><g stroke-linejoin="miter" stroke-opacity="1.0" fill-opacity="0.0" stroke="rgb(207,207,207)" stroke-width="0.6" fill="rgb(0,0,0)" stroke-linecap="butt" stroke-miterlimit="10.0"><path d="M 6.1538,178.4615 h 307.6923 "/></g><g stroke-linejoin="miter" stroke-opacity="1.0" fill-opacity="0.0" stroke="rgb(207,207,207)" stroke-width="0.6" fill="rgb(0,0,0)" stroke-linecap="butt" stroke-miterlimit="10.0"><path d="M 6.1538,203.0769 h 307.6923 "/></g><g stroke-linejoin="miter" stroke-opacity="1.0" fill-opacity="0.0" stroke="rgb(207,207,207)" stroke-width="0.6" fill="rgb(0,0,0)" stroke-linecap="butt" stroke-miterlimit="10.0"><path d="M 6.1538,215.3846 h 307.6923 "/></g><g stroke-linejoin="miter" stroke-opacity="1.0" fill-opacity="0.0" stroke="rgb(207,207,207)" stroke-width="0.6" fill="rgb(0,0,0)" stroke-linecap="butt" stroke-miterlimit="10.0"><path d="M 6.1538,227.6923 h 307.6923 "/></g><g stroke-linejoin="miter" stroke-opacity="1.0" fill-opacity="0.0" stroke="rgb(207,207,207)" stroke-width="0.6" fill="rgb(0,0,0)" stroke-linecap="butt" stroke-miterlimit="10.0"><path d="M 6.1538,240.0000 h 307.6923 "/></g><g stroke-linejoin="miter" stroke-opacity="1.0" fill-opacity="0.0" stroke="rgb(207,207,207)" stroke-width="0.6" fill="rgb(0,0,0)" stroke-linecap="butt" stroke-miterlimit="10.0"><path d="M 6.1538,264.6154 h 307.6923 "/></g><g stroke-linejoin="miter" stroke-opacity="1.0" fill-opacity="0.0" stroke="rgb(207,207,207)" stroke-width="0.6" fill="rgb(0,0,0)" stroke-linecap="butt" stroke-miterlimit="10.0"><path d="M 6.1538,276.9231 h 307.6923 "/></g><g stroke-linejoin="miter" stroke-opacity="1.0" fill-opacity="0.0" stroke="rgb(207,207,207)" stroke-width="0.6" fill="rgb(0,0,0)" stroke-linecap="butt" stroke-miterlimit="10.0"><path d="M 6.1538,289.2308 h 307.6923 "/></g><g stroke-linejoin="miter" stroke-opacity="1.0" fill-opacity="0.0" stroke="rgb(207,207,207)" stroke-width="0.6" fill="rgb(0,0,0)" stroke-linecap="butt" stroke-miterlimit="10.0"><path d="M 6.1538,301.5385 h 307.6923 "/></g><g stroke-linejoin="miter" stroke-opacity="1.0" fill-opacity="0.0" stroke="rgb(207,207,207)" stroke-width="0.6" fill="rgb(0,0,0)" stroke-linecap="butt" stroke-miterlimit="10.0"><path d="M 301.5385,313.8462 v -307.6923 "/></g><g stroke-linejoin="miter" stroke-opacity="1.0" fill-opacity="0.0" stroke="rgb(207,207,207)" stroke-width="0.6" fill="rgb(0,0,0)" stroke-linecap="butt" stroke-miterlimit="10.0"><path d="M 289.2308,313.8462 v -307.6923 "/></g><g stroke-linejoin="miter" stroke-opacity="1.0" fill-opacity="0.0" stroke="rgb(207,207,207)" stroke-width="0.6" fill="rgb(0,0,0)" stroke-linecap="butt" stroke-miterlimit="10.0"><path d="M 276.9231,313.8462 v -307.6923 "/></g><g stroke-linejoin="miter" stroke-opacity="1.0" fill-opacity="0.0" stroke="rgb(207,207,207)" stroke-width="0.6" fill="rgb(0,0,0)" stroke-linecap="butt" stroke-miterlimit="10.0"><path d="M 264.6154,313.8462 v -307.6923 "/></g><g stroke-linejoin="miter" stroke-opacity="1.0" fill-opacity="0.0" stroke="rgb(207,207,207)" stroke-width="0.6" fill="rgb(0,0,0)" stroke-linecap="butt" stroke-miterlimit="10.0"><path d="M 240.0000,313.8462 v -307.6923 "/></g><g stroke-linejoin="miter" stroke-opacity="1.0" fill-opacity="0.0" stroke="rgb(207,207,207)" stroke-width="0.6" fill="rgb(0,0,0)" stroke-linecap="butt" stroke-miterlimit="10.0"><path d="M 227.6923,313.8462 v -307.6923 "/></g><g stroke-linejoin="miter" stroke-opacity="1.0" fill-opacity="0.0" stroke="rgb(207,207,207)" stroke-width="0.6" fill="rgb(0,0,0)" stroke-linecap="butt" stroke-miterlimit="10.0"><path d="M 215.3846,313.8462 v -307.6923 "/></g><g stroke-linejoin="miter" stroke-opacity="1.0" fill-opacity="0.0" stroke="rgb(207,207,207)" stroke-width="0.6" fill="rgb(0,0,0)" stroke-linecap="butt" stroke-miterlimit="10.0"><path d="M 203.0769,313.8462 v -307.6923 "/></g><g stroke-linejoin="miter" stroke-opacity="1.0" fill-opacity="0.0" stroke="rgb(207,207,207)" stroke-width="0.6" fill="rgb(0,0,0)" stroke-linecap="butt" stroke-miterlimit="10.0"><path d="M 178.4615,313.8462 v -307.6923 "/></g><g stroke-linejoin="miter" stroke-opacity="1.0" fill-opacity="0.0" stroke="rgb(207,207,207)" stroke-width="0.6" fill="rgb(0,0,0)" stroke-linecap="butt" stroke-miterlimit="10.0"><path d="M 166.1538,313.8462 v -307.6923 "/></g><g stroke-linejoin="miter" stroke-opacity="1.0" fill-opacity="0.0" stroke="rgb(207,207,207)" stroke-width="0.6" fill="rgb(0,0,0)" stroke-linecap="butt" stroke-miterlimit="10.0"><path d="M 153.8462,313.8462 v -307.6923 "/></g><g stroke-linejoin="miter" stroke-opacity="1.0" fill-opacity="0.0" stroke="rgb(207,207,207)" stroke-width="0.6" fill="rgb(0,0,0)" stroke-linecap="butt" stroke-miterlimit="10.0"><path d="M 141.5385,313.8462 v -307.6923 "/></g><g stroke-linejoin="miter" stroke-opacity="1.0" fill-opacity="0.0" stroke="rgb(207,207,207)" stroke-width="0.6" fill="rgb(0,0,0)" stroke-linecap="butt" stroke-miterlimit="10.0"><path d="M 116.9231,313.8462 v -307.6923 "/></g><g stroke-linejoin="miter" stroke-opacity="1.0" fill-opacity="0.0" stroke="rgb(207,207,207)" stroke-width="0.6" fill="rgb(0,0,0)" stroke-linecap="butt" stroke-miterlimit="10.0"><path d="M 104.6154,313.8462 v -307.6923 "/></g><g stroke-linejoin="miter" stroke-opacity="1.0" fill-opacity="0.0" stroke="rgb(207,207,207)" stroke-width="0.6" fill="rgb(0,0,0)" stroke-linecap="butt" stroke-miterlimit="10.0"><path d="M 92.3077,313.8462 v -307.6923 "/></g><g stroke-linejoin="miter" stroke-opacity="1.0" fill-opacity="0.0" stroke="rgb(207,207,207)" stroke-width="0.6" fill="rgb(0,0,0)" stroke-linecap="butt" stroke-miterlimit="10.0"><path d="M 80.0000,313.8462 v -307.6923 "/></g><g stroke-linejoin="miter" stroke-opacity="1.0" fill-opacity="0.0" stroke="rgb(207,207,207)" stroke-width="0.6" fill="rgb(0,0,0)" stroke-linecap="butt" stroke-miterlimit="10.0"><path d="M 55.3846,313.8462 v -307.6923 "/></g><g stroke-linejoin="miter" stroke-opacity="1.0" fill-opacity="0.0" stroke="rgb(207,207,207)" stroke-width="0.6" fill="rgb(0,0,0)" stroke-linecap="butt" stroke-miterlimit="10.0"><path d="M 43.0769,313.8462 v -307.6923 "/></g><g stroke-linejoin="miter" stroke-opacity="1.0" fill-opacity="0.0" stroke="rgb(207,207,207)" stroke-width="0.6" fill="rgb(0,0,0)" stroke-linecap="butt" stroke-miterlimit="10.0"><path d="M 30.7692,313.8462 v -307.6923 "/></g><g stroke-linejoin="miter" stroke-opacity="1.0" fill-opacity="0.0" stroke="rgb(207,207,207)" stroke-width="0.6" fill="rgb(0,0,0)" stroke-linecap="butt" stroke-miterlimit="10.0"><path d="M 18.4615,313.8462 v -307.6923 "/></g><g stroke-linejoin="miter" stroke-opacity="1.0" fill-opacity="0.0" stroke="rgb(0,0,0)" stroke-width="1.0" fill="rgb(0,0,0)" stroke-linecap="butt" stroke-miterlimit="10.0"><path d="M 6.1538,67.6923 h 307.6923 "/></g><g stroke-linejoin="miter" stroke-opacity="1.0" fill-opacity="0.0" stroke="rgb(0,0,0)" stroke-width="1.0" fill="rgb(0,0,0)" stroke-linecap="butt" stroke-miterlimit="10.0"><path d="M 6.1538,129.2308 h 307.6923 "/></g><g stroke-linejoin="miter" stroke-opacity="1.0" fill-opacity="0.0" stroke="rgb(0,0,0)" stroke-width="1.0" fill="rgb(0,0,0)" stroke-linecap="butt" stroke-miterlimit="10.0"><path d="M 6.1538,190.7692 h 307.6923 "/></g><g stroke-linejoin="miter" stroke-opacity="1.0" fill-opacity="0.0" stroke="rgb(0,0,0)" stroke-width="1.0" fill="rgb(0,0,0)" stroke-linecap="butt" stroke-miterlimit="10.0"><path d="M 6.1538,252.3077 h 307.6923 "/></g><g stroke-linejoin="miter" stroke-opacity="1.0" fill-opacity="0.0" stroke="rgb(0,0,0)" stroke-width="1.0" fill="rgb(0,0,0)" stroke-linecap="butt" stroke-miterlimit="10.0"><path d="M 252.3077,313.8462 v -307.6923 "/></g><g stroke-linejoin="miter" stroke-opacity="1.0" fill-opacity="0.0" stroke="rgb(0,0,0)" stroke-width="1.0" fill="rgb(0,0,0)" stroke-linecap="butt" stroke-miterlimit="10.0"><path d="M 190.7692,313.8462 v -307.6923 "/></g><g stroke-linejoin="miter" stroke-opacity="1.0" fill-opacity="0.0" stroke="rgb(0,0,0)" stroke-width="1.0" fill="rgb(0,0,0)" stroke-linecap="butt" stroke-miterlimit="10.0"><path d="M 129.2308,313.8462 v -307.6923 "/></g><g stroke-linejoin="miter" stroke-opacity="1.0" fill-opacity="0.0" stroke="rgb(0,0,0)" stroke-width="1.0" fill="rgb(0,0,0)" stroke-linecap="butt" stroke-miterlimit="10.0"><path d="M 67.6923,313.8462 v -307.6923 "/></g><g stroke-linejoin="round" stroke-opacity="1.0" fill-opacity="0.0" stroke="rgb(0,0,0)" stroke-width="1.6" fill="rgb(0,0,0)" stroke-linecap="butt" stroke-miterlimit="10.0"><path d="M 313.8462,313.8462 l -0.0000,-307.6923 h -307.6923 l -0.0000,307.6923 Z"/></g><g stroke-linejoin="miter" stroke-opacity="1.0" fill-opacity="1.0" stroke="rgb(0,0,0)" stroke-width="0.0" fill="rgb(0,126,156)" stroke-linecap="butt" stroke-miterlimit="10.0"><path d="M 66.4595,292.8144 c 0.0000,-1.6993 -1.3776,-3.0769 -3.0769 -3.0769c -1.6993,-0.0000 -3.0769,1.3776 -3.0769 3.0769c -0.0000,1.6993 1.3776,3.0769 3.0769 3.0769c 1.6993,0.0000 3.0769,-1.3776 3.0769 -3.0769Z"/></g><g stroke-linejoin="miter" stroke-opacity="1.0" fill-opacity="1.0" stroke="rgb(0,0,0)" stroke-width="0.0" fill="rgb(0,126,156)" stroke-linecap="butt" stroke-miterlimit="10.0"><path d="M 37.8353,232.6065 c 0.0000,-1.6993 -1.3776,-3.0769 -3.0769 -3.0769c -1.6993,-0.0000 -3.0769,1.3776 -3.0769 3.0769c -0.0000,1.6993 1.3776,3.0769 3.0769 3.0769c 1.6993,0.0000 3.0769,-1.3776 3.0769 -3.0769Z"/></g><g stroke-linejoin="miter" stroke-opacity="1.0" fill-opacity="1.0" stroke="rgb(0,0,0)" stroke-width="0.0" fill="rgb(0,126,156)" stroke-linecap="butt" stroke-miterlimit="10.0"><path d="M 111.4115,95.7086 c 0.0000,-1.6993 -1.3776,-3.0769 -3.0769 -3.0769c -1.6993,-0.0000 -3.0769,1.3776 -3.0769 3.0769c -0.0000,1.6993 1.3776,3.0769 3.0769 3.0769c 1.6993,0.0000 3.0769,-1.3776 3.0769 -3.0769Z"/></g><g stroke-linejoin="miter" stroke-opacity="1.0" fill-opacity="1.0" stroke="rgb(0,0,0)" stroke-width="0.0" fill="rgb(0,126,156)" stroke-linecap="butt" stroke-miterlimit="10.0"><path d="M 226.9291,208.2183 c 0.0000,-1.6993 -1.3776,-3.0769 -3.0769 -3.0769c -1.6993,-0.0000 -3.0769,1.3776 -3.0769 3.0769c -0.0000,1.6993 1.3776,3.0769 3.0769 3.0769c 1.6993,0.0000 3.0769,-1.3776 3.0769 -3.0769Z"/></g><g stroke-linejoin="miter" stroke-opacity="1.0" fill-opacity="1.0" stroke="rgb(0,0,0)" stroke-width="0.0" fill="rgb(0,126,156)" stroke-linecap="butt" stroke-miterlimit="10.0"><path d="M 173.3118,120.4716 c 0.0000,-1.6993 -1.3776,-3.0769 -3.0769 -3.0769c -1.6993,-0.0000 -3.0769,1.3776 -3.0769 3.0769c -0.0000,1.6993 1.3776,3.0769 3.0769 3.0769c 1.6993,0.0000 3.0769,-1.3776 3.0769 -3.0769Z"/></g><g stroke-linejoin="miter" stroke-opacity="1.0" fill-opacity="1.0" stroke="rgb(0,0,0)" stroke-width="0.0" fill="rgb(0,126,156)" stroke-linecap="butt" stroke-miterlimit="10.0"><path d="M 91.4325,34.0420 c 0.0000,-1.6993 -1.3776,-3.0769 -3.0769 -3.0769c -1.6993,-0.0000 -3.0769,1.3776 -3.0769 3.0769c -0.0000,1.6993 1.3776,3.0769 3.0769 3.0769c 1.6993,0.0000 3.0769,-1.3776 3.0769 -3.0769Z"/></g><g stroke-linejoin="miter" stroke-opacity="1.0" fill-opacity="1.0" stroke="rgb(0,0,0)" stroke-width="0.0" fill="rgb(0,126,156)" stroke-linecap="butt" stroke-miterlimit="10.0"><path d="M 127.9937,284.0640 c 0.0000,-1.6993 -1.3776,-3.0769 -3.0769 -3.0769c -1.6993,-0.0000 -3.0769,1.3776 -3.0769 3.0769c -0.0000,1.6993 1.3776,3.0769 3.0769 3.0769c 1.6993,0.0000 3.0769,-1.3776 3.0769 -3.0769Z"/></g><g stroke-linejoin="miter" stroke-opacity="1.0" fill-opacity="1.0" stroke="rgb(0,0,0)" stroke-width="0.0" fill="rgb(0,126,156)" stroke-linecap="butt" stroke-miterlimit="10.0"><path d="M 212.9817,23.5391 c 0.0000,-1.6993 -1.3776,-3.0769 -3.0769 -3.0769c -1.6993,-0.0000 -3.0769,1.3776 -3.0769 3.0769c -0.0000,1.6993 1.3776,3.0769 3.0769 3.0769c 1.6993,0.0000 3.0769,-1.3776 3.0769 -3.0769Z"/></g><g stroke-linejoin="miter" stroke-opacity="1.0" fill-opacity="1.0" stroke="rgb(0,0,0)" stroke-width="0.0" fill="rgb(0,126,156)" stroke-linecap="butt" stroke-miterlimit="10.0"><path d="M 136.6747,183.2139 c 0.0000,-1.6993 -1.3776,-3.0769 -3.0769 -3.0769c -1.6993,-0.0000 -3.0769,1.3776 -3.0769 3.0769c -0.0000,1.6993 1.3776,3.0769 3.0769 3.0769c 1.6993,0.0000 3.0769,-1.3776 3.0769 -3.0769Z"/></g><g stroke-linejoin="miter" stroke-opacity="1.0" fill-opacity="1.0" stroke="rgb(0,0,0)" stroke-width="0.0" fill="rgb(0,126,156)" stroke-linecap="butt" stroke-miterlimit="10.0"><path d="M 16.3793,171.0106 c 0.0000,-1.6993 -1.3776,-3.0769 -3.0769 -3.0769c -1.6993,-0.0000 -3.0769,1.3776 -3.0769 3.0769c -0.0000,1.6993 1.3776,3.0769 3.0769 3.0769c 1.6993,0.0000 3.0769,-1.3776 3.0769 -3.0769Z"/></g><g stroke-linejoin="miter" stroke-opacity="1.0" fill-opacity="1.0" stroke="rgb(0,0,0)" stroke-width="0.0" fill="rgb(0,126,156)" stroke-linecap="butt" stroke-miterlimit="10.0"><path d="M 200.4657,148.8824 c 0.0000,-1.6993 -1.3776,-3.0769 -3.0769 -3.0769c -1.6993,-0.0000 -3.0769,1.3776 -3.0769 3.0769c -0.0000,1.6993 1.3776,3.0769 3.0769 3.0769c 1.6993,0.0000 3.0769,-1.3776 3.0769 -3.0769Z"/></g><g stroke-linejoin="miter" stroke-opacity="1.0" fill-opacity="1.0" stroke="rgb(0,0,0)" stroke-width="0.0" fill="rgb(0,126,156)" stroke-linecap="butt" stroke-miterlimit="10.0"><path d="M 185.6754,306.4255 c 0.0000,-1.6993 -1.3776,-3.0769 -3.0769 -3.0769c -1.6993,-0.0000 -3.0769,1.3776 -3.0769 3.0769c -0.0000,1.6993 1.3776,3.0769 3.0769 3.0769c 1.6993,0.0000 3.0769,-1.3776 3.0769 -3.0769Z"/></g><g stroke-linejoin="miter" stroke-opacity="1.0" fill-opacity="1.0" stroke="rgb(0,0,0)" stroke-width="0.0" fill="rgb(0,126,156)" stroke-linecap="butt" stroke-miterlimit="10.0"><path d="M 166.0418,245.0137 c 0.0000,-1.6993 -1.3776,-3.0769 -3.0769 -3.0769c -1.6993,-0.0000 -3.0769,1.3776 -3.0769 3.0769c -0.0000,1.6993 1.3776,3.0769 3.0769 3.0769c 1.6993,0.0000 3.0769,-1.3776 3.0769 -3.0769Z"/></g><g stroke-linejoin="miter" stroke-opacity="1.0" fill-opacity="1.0" stroke="rgb(0,0,0)" stroke-width="0.0" fill="rgb(0,126,156)" stroke-linecap="butt" stroke-miterlimit="10.0"><path d="M 288.1448,198.6577 c 0.0000,-1.6993 -1.3776,-3.0769 -3.0769 -3.0769c -1.6993,-0.0000 -3.0769,1.3776 -3.0769 3.0769c -0.0000,1.6993 1.3776,3.0769 3.0769 3.0769c 1.6993,0.0000 3.0769,-1.3776 3.0769 -3.0769Z"/></g><g stroke-linejoin="miter" stroke-opacity="1.0" fill-opacity="1.0" stroke="rgb(0,0,0)" stroke-width="0.0" fill="rgb(0,126,156)" stroke-linecap="butt" stroke-miterlimit="10.0"><path d="M 151.2904,61.4915 c 0.0000,-1.6993 -1.3776,-3.0769 -3.0769 -3.0769c -1.6993,-0.0000 -3.0769,1.3776 -3.0769 3.0769c -0.0000,1.6993 1.3776,3.0769 3.0769 3.0769c 1.6993,0.0000 3.0769,-1.3776 3.0769 -3.0769Z"/></g><g stroke-linejoin="miter" stroke-opacity="1.0" fill-opacity="1.0" stroke="rgb(0,0,0)" stroke-width="0.0" fill="rgb(0,126,156)" stroke-linecap="butt" stroke-miterlimit="10.0"><path d="M 270.8546,9.5448 c 0.0000,-1.6993 -1.3776,-3.0769 -3.0769 -3.0769c -1.6993,-0.0000 -3.0769,1.3776 -3.0769 3.0769c -0.0000,1.6993 1.3776,3.0769 3.0769 3.0769c 1.6993,0.0000 3.0769,-1.3776 3.0769 -3.0769Z"/></g><g stroke-linejoin="miter" stroke-opacity="1.0" fill-opacity="1.0" stroke="rgb(0,0,0)" stroke-width="0.0" fill="rgb(0,126,156)" stroke-linecap="butt" stroke-miterlimit="10.0"><path d="M 299.7096,74.9837 c 0.0000,-1.6993 -1.3776,-3.0769 -3.0769 -3.0769c -1.6993,-0.0000 -3.0769,1.3776 -3.0769 3.0769c -0.0000,1.6993 1.3776,3.0769 3.0769 3.0769c 1.6993,0.0000 3.0769,-1.3776 3.0769 -3.0769Z"/></g><g stroke-linejoin="miter" stroke-opacity="1.0" fill-opacity="1.0" stroke="rgb(0,0,0)" stroke-width="0.0" fill="rgb(0,126,156)" stroke-linecap="butt" stroke-miterlimit="10.0"><path d="M 251.6930,268.7849 c 0.0000,-1.6993 -1.3776,-3.0769 -3.0769 -3.0769c -1.6993,-0.0000 -3.0769,1.3776 -3.0769 3.0769c -0.0000,1.6993 1.3776,3.0769 3.0769 3.0769c 1.6993,0.0000 3.0769,-1.3776 3.0769 -3.0769Z"/></g><g stroke-linejoin="miter" stroke-opacity="1.0" fill-opacity="1.0" stroke="rgb(0,0,0)" stroke-width="0.0" fill="rgb(0,126,156)" stroke-linecap="butt" stroke-miterlimit="10.0"><path d="M 103.8744,219.0394 c 0.0000,-1.6993 -1.3776,-3.0769 -3.0769 -3.0769c -1.6993,-0.0000 -3.0769,1.3776 -3.0769 3.0769c -0.0000,1.6993 1.3776,3.0769 3.0769 3.0769c 1.6993,0.0000 3.0769,-1.3776 3.0769 -3.0769Z"/></g><g stroke-linejoin="miter" stroke-opacity="1.0" fill-opacity="1.0" stroke="rgb(0,0,0)" stroke-width="0.0" fill="rgb(0,126,156)" stroke-linecap="butt" stroke-miterlimit="10.0"><path d="M 262.1878,134.3958 c 0.0000,-1.6993 -1.3776,-3.0769 -3.0769 -3.0769c -1.6993,-0.0000 -3.0769,1.3776 -3.0769 3.0769c -0.0000,1.6993 1.3776,3.0769 3.0769 3.0769c 1.6993,0.0000 3.0769,-1.3776 3.0769 -3.0769Z"/></g><g stroke-linejoin="miter" stroke-opacity="1.0" fill-opacity="1.0" stroke="rgb(0,0,0)" stroke-width="0.0" fill="rgb(0,126,156)" stroke-linecap="butt" stroke-miterlimit="10.0"><path d="M 77.6492,157.9956 c 0.0000,-1.6993 -1.3776,-3.0769 -3.0769 -3.0769c -1.6993,-0.0000 -3.0769,1.3776 -3.0769 3.0769c -0.0000,1.6993 1.3776,3.0769 3.0769 3.0769c 1.6993,0.0000 3.0769,-1.3776 3.0769 -3.0769Z"/></g><g stroke-linejoin="miter" stroke-opacity="1.0" fill-opacity="1.0" stroke="rgb(0,0,0)" stroke-width="0.0" fill="rgb(0,126,156)" stroke-linecap="butt" stroke-miterlimit="10.0"><path d="M 238.1317,86.5458 c 0.0000,-1.6993 -1.3776,-3.0769 -3.0769 -3.0769c -1.6993,-0.0000 -3.0769,1.3776 -3.0769 3.0769c -0.0000,1.6993 1.3776,3.0769 3.0769 3.0769c 1.6993,0.0000 3.0769,-1.3776 3.0769 -3.0769Z"/></g><g stroke-linejoin="miter" stroke-opacity="1.0" fill-opacity="1.0" stroke="rgb(0,0,0)" stroke-width="0.0" fill="rgb(0,126,156)" stroke-linecap="butt" stroke-miterlimit="10.0"><path d="M 308.3745,260.6314 c 0.0000,-1.6993 -1.3776,-3.0769 -3.0769 -3.0769c -1.6993,-0.0000 -3.0769,1.3776 -3.0769 3.0769c -0.0000,1.6993 1.3776,3.0769 3.0769 3.0769c 1.6993,0.0000 3.0769,-1.3776 3.0769 -3.0769Z"/></g><g stroke-linejoin="miter" stroke-opacity="1.0" fill-opacity="1.0" stroke="rgb(0,0,0)" stroke-width="0.0" fill="rgb(0,126,156)" stroke-linecap="butt" stroke-miterlimit="10.0"><path d="M 50.4343,110.6421 c 0.0000,-1.6993 -1.3776,-3.0769 -3.0769 -3.0769c -1.6993,-0.0000 -3.0769,1.3776 -3.0769 3.0769c -0.0000,1.6993 1.3776,3.0769 3.0769 3.0769c 1.6993,0.0000 3.0769,-1.3776 3.0769 -3.0769Z"/></g><g stroke-linejoin="miter" stroke-opacity="1.0" fill-opacity="1.0" stroke="rgb(0,0,0)" stroke-width="0.0" fill="rgb(0,126,156)" stroke-linecap="butt" stroke-miterlimit="10.0"><path d="M 25.7412,49.8408 c 0.0000,-1.6993 -1.3776,-3.0769 -3.0769 -3.0769c -1.6993,-0.0000 -3.0769,1.3776 -3.0769 3.0769c -0.0000,1.6993 1.3776,3.0769 3.0769 3.0769c 1.6993,0.0000 3.0769,-1.3776 3.0769 -3.0769Z"/></g></svg>