<?xml version="1.0" encoding="UTF-8"?>
<!DOCTYPE svg PUBLIC "-//W3C//DTD SVG 1.1//EN"
    "http://www.w3.org/Graphics/SVG/1.1/DTD/svg11.dtd"><svg xmlns="http://www.w3.org/2000/svg" height="240.7921" stroke-opacity="1" viewBox="0.0 0.0 320.0 240.79207920792084" font-size="1" width="320.0000" xmlns:xlink="http://www.w3.org/1999/xlink" stroke="rgb(0,0,0)" version="1.1"><defs></defs><g stroke-linejoin="miter" stroke-opacity="1.0" fill-opacity="0.0" opacity="0.2" stroke="rgb(0,0,0)" stroke-width="0.6" fill="rgb(0,0,0)" stroke-linecap="butt" stroke-miterlimit="10.0"><path d="M 1.5842,21.3861 h 316.8317 "/></g><g stroke-linejoin="miter" stroke-opacity="1.0" fill-opacity="0.0" opacity="0.2" stroke="rgb(0,0,0)" stroke-width="0.6" fill="rgb(0,0,0)" stroke-linecap="butt" stroke-miterlimit="10.0"><path d="M 1.5842,41.1881 h 316.8317 "/></g><g stroke-linejoin="miter" stroke-opacity="1.0" fill-opacity="0.0" opacity="0.2" stroke="rgb(0,0,0)" stroke-width="0.6" fill="rgb(0,0,0)" stroke-linecap="butt" stroke-miterlimit="10.0"><path d="M 1.5842,60.9901 h 316.8317 "/></g><g stroke-linejoin="miter" stroke-opacity="1.0" fill-opacity="0.0" opacity="0.2" stroke="rgb(0,0,0)" stroke-width="0.6" fill="rgb(0,0,0)" stroke-linecap="butt" stroke-miterlimit="10.0"><path d="M 1.5842,100.5941 h 316.8317 "/></g><g stroke-linejoin="miter" stroke-opacity="1.0" fill-opacity="0.0" opacity="0.2" stroke="rgb(0,0,0)" stroke-width="0.6" fill="rgb(0,0,0)" stroke-linecap="butt" stroke-miterlimit="10.0"><path d="M 1.5842,120.3960 h 316.8317 "/></g><g stroke-linejoin="miter" stroke-opacity="1.0" fill-opacity="0.0" opacity="0.2" stroke="rgb(0,0,0)" stroke-width="0.6" fill="rgb(0,0,0)" stroke-linecap="butt" stroke-miterlimit="10.0"><path d="M 1.5842,140.1980 h 316.8317 "/></g><g stroke-linejoin="miter" stroke-opacity="1.0" fill-opacity="0.0" opacity="0.2" stroke="rgb(0,0,0)" stroke-width="0.6" fill="rgb(0,0,0)" stroke-linecap="butt" stroke-miterlimit="10.0"><path d="M 1.5842,179.8020 h 316.8317 "/></g><g stroke-linejoin="miter" stroke-opacity="1.0" fill-opacity="0.0" opacity="0.2" stroke="rgb(0,0,0)" stroke-width="0.6" fill="rgb(0,0,0)" stroke-linecap="butt" stroke-miterlimit="10.0"><path d="M 1.5842,199.6040 h 316.8317 "/></g><g stroke-linejoin="miter" stroke-opacity="1.0" fill-opacity="0.0" opacity="0.2" stroke="rgb(0,0,0)" stroke-width="0.6" fill="rgb(0,0,0)" stroke-linecap="butt" stroke-miterlimit="10.0"><path d="M 1.5842,219.4059 h 316.8317 "/></g><g stroke-linejoin="miter" stroke-opacity="1.0" fill-opacity="0.0" opacity="0.2" stroke="rgb(0,0,0)" stroke-width="0.6" fill="rgb(0,0,0)" stroke-linecap="butt" stroke-miterlimit="10.0"><path d="M 298.6139,239.2079 v -237.6238 "/></g><g stroke-linejoin="miter" stroke-opacity="1.0" fill-opacity="0.0" opacity="0.2" stroke="rgb(0,0,0)" stroke-width="0.6" fill="rgb(0,0,0)" stroke-linecap="butt" stroke-miterlimit="10.0"><path d="M 278.8119,239.2079 v -237.6238 "/></g><g stroke-linejoin="miter" stroke-opacity="1.0" fill-opacity="0.0" opacity="0.2" stroke="rgb(0,0,0)" stroke-width="0.6" fill="rgb(0,0,0)" stroke-linecap="butt" stroke-miterlimit="10.0"><path d="M 259.0099,239.2079 v -237.6238 "/></g><g stroke-linejoin="miter" stroke-opacity="1.0" fill-opacity="0.0" opacity="0.2" stroke="rgb(0,0,0)" stroke-width="0.6" fill="rgb(0,0,0)" stroke-linecap="butt" stroke-miterlimit="10.0"><path d="M 219.4059,239.2079 v -237.6238 "/></g><g stroke-linejoin="miter" stroke-opacity="1.0" fill-opacity="0.0" opacity="0.2" stroke="rgb(0,0,0)" stroke-width="0.6" fill="rgb(0,0,0)" stroke-linecap="butt" stroke-miterlimit="10.0"><path d="M 199.6040,239.2079 v -237.6238 "/></g><g stroke-linejoin="miter" stroke-opacity="1.0" fill-opacity="0.0" opacity="0.2" stroke="rgb(0,0,0)" stroke-width="0.6" fill="rgb(0,0,0)" stroke-linecap="butt" stroke-miterlimit="10.0"><path d="M 179.8020,239.2079 v -237.6238 "/></g><g stroke-linejoin="miter" stroke-opacity="1.0" fill-opacity="0.0" opacity="0.2" stroke="rgb(0,0,0)" stroke-width="0.6" fill="rgb(0,0,0)" stroke-linecap="butt" stroke-miterlimit="10.0"><path d="M 140.1980,239.2079 v -237.6238 "/></g><g stroke-linejoin="miter" stroke-opacity="1.0" fill-opacity="0.0" opacity="0.2" stroke="rgb(0,0,0)" stroke-width="0.6" fill="rgb(0,0,0)" stroke-linecap="butt" stroke-miterlimit="10.0"><path d="M 120.3960,239.2079 v -237.6238 "/></g><g stroke-linejoin="miter" stroke-opacity="1.0" fill-opacity="0.0" opacity="0.2" stroke="rgb(0,0,0)" stroke-width="0.6" fill="rgb(0,0,0)" stroke-linecap="butt" stroke-miterlimit="10.0"><path d="M 100.5941,239.2079 v -237.6238 "/></g><g stroke-linejoin="miter" stroke-opacity="1.0" fill-opacity="0.0" opacity="0.2" stroke="rgb(0,0,0)" stroke-width="0.6" fill="rgb(0,0,0)" stroke-linecap="butt" stroke-miterlimit="10.0"><path d="M 60.9901,239.2079 v -237.6238 "/></g><g stroke-linejoin="miter" stroke-opacity="1.0" fill-opacity="0.0" opacity="0.2" stroke="rgb(0,0,0)" stroke-width="0.6" fill="rgb(0,0,0)" stroke-linecap="butt" stroke-miterlimit="10.0"><path d="M 41.1881,239.2079 v -237.6238 "/></g><g stroke-linejoin="miter" stroke-opacity="1.0" fill-opacity="0.0" opacity="0.2" stroke="rgb(0,0,0)" stroke-width="0.6" fill="rgb(0,0,0)" stroke-linecap="butt" stroke-miterlimit="10.0"><path d="M 21.3861,239.2079 v -237.6238 "/></g><g stroke-linejoin="miter" stroke-opacity="1.0" fill-opacity="0.0" stroke="rgb(0,0,0)" stroke-width="1.0" fill="rgb(0,0,0)" stroke-linecap="butt" stroke-miterlimit="10.0"><path d="M 1.5842,80.7921 h 316.8317 "/></g><g stroke-linejoin="miter" stroke-opacity="1.0" fill-opacity="0.0" stroke="rgb(0,0,0)" stroke-width="1.0" fill="rgb(0,0,0)" stroke-linecap="butt" stroke-miterlimit="10.0"><path d="M 1.5842,160.0000 h 316.8317 "/></g><g stroke-linejoin="miter" stroke-opacity="1.0" fill-opacity="0.0" stroke="rgb(0,0,0)" stroke-width="1.0" fill="rgb(0,0,0)" stroke-linecap="butt" stroke-miterlimit="10.0"><path d="M 239.2079,239.2079 v -237.6238 "/></g><g stroke-linejoin="miter" stroke-opacity="1.0" fill-opacity="0.0" stroke="rgb(0,0,0)" stroke-width="1.0" fill="rgb(0,0,0)" stroke-linecap="butt" stroke-miterlimit="10.0"><path d="M 160.0000,239.2079 v -237.6238 "/></g><g stroke-linejoin="miter" stroke-opacity="1.0" fill-opacity="0.0" stroke="rgb(0,0,0)" stroke-width="1.0" fill="rgb(0,0,0)" stroke-linecap="butt" stroke-miterlimit="10.0"><path d="M 80.7921,239.2079 v -237.6238 "/></g><g stroke-linejoin="round" stroke-opacity="1.0" fill-opacity="0.0" stroke="rgb(0,0,0)" stroke-width="1.6" fill="rgb(0,0,0)" stroke-linecap="butt" stroke-miterlimit="10.0"><path d="M 318.4158,239.2079 l -0.0000,-237.6238 h -316.8317 l -0.0000,237.6238 Z"/></g><g stroke-linejoin="miter" stroke-opacity="1.0" fill-opacity="1.0" stroke="rgb(0,0,0)" stroke-width="0.0" fill="rgb(0,126,156)" stroke-linecap="butt" stroke-miterlimit="10.0"><path d="M 313.7734,4.7688 c 0.0000,-1.3124 -1.0639,-2.3762 -2.3762 -2.3762c -1.3124,-0.0000 -2.3762,1.0639 -2.3762 2.3762c -0.0000,1.3124 1.0639,2.3762 2.3762 2.3762c 1.3124,0.0000 2.3762,-1.0639 2.3762 -2.3762Z"/></g><g stroke-linejoin="miter" stroke-opacity="1.0" fill-opacity="1.0" stroke="rgb(0,0,0)" stroke-width="0.0" fill="rgb(0,126,156)" stroke-linecap="butt" stroke-miterlimit="10.0"><path d="M 295.6987,10.7178 c 0.0000,-1.3124 -1.0639,-2.3762 -2.3762 -2.3762c -1.3124,-0.0000 -2.3762,1.0639 -2.3762 2.3762c -0.0000,1.3124 1.0639,2.3762 2.3762 2.3762c 1.3124,0.0000 2.3762,-1.0639 2.3762 -2.3762Z"/></g><g stroke-linejoin="miter" stroke-opacity="1.0" fill-opacity="1.0" stroke="rgb(0,0,0)" stroke-width="0.0" fill="rgb(0,126,156)" stroke-linecap="butt" stroke-miterlimit="10.0"><path d="M 270.4432,8.8074 c 0.0000,-1.3124 -1.0639,-2.3762 -2.3762 -2.3762c -1.3124,-0.0000 -2.3762,1.0639 -2.3762 2.3762c -0.0000,1.3124 1.0639,2.3762 2.3762 2.3762c 1.3124,0.0000 2.3762,-1.0639 2.3762 -2.3762Z"/></g><g stroke-linejoin="miter" stroke-opacity="1.0" fill-opacity="1.0" stroke="rgb(0,0,0)" stroke-width="0.0" fill="rgb(0,126,156)" stroke-linecap="butt" stroke-miterlimit="10.0"><path d="M 257.3634,14.1022 c 0.0000,-1.3124 -1.0639,-2.3762 -2.3762 -2.3762c -1.3124,-0.0000 -2.3762,1.0639 -2.3762 2.3762c -0.0000,1.3124 1.0639,2.3762 2.3762 2.3762c 1.3124,0.0000 2.3762,-1.0639 2.3762 -2.3762Z"/></g><g stroke-linejoin="miter" stroke-opacity="1.0" fill-opacity="1.0" stroke="rgb(0,0,0)" stroke-width="0.0" fill="rgb(0,126,156)" stroke-linecap="butt" stroke-miterlimit="10.0"><path d="M 311.0779,34.1020 c 0.0000,-1.3124 -1.0639,-2.3762 -2.3762 -2.3762c -1.3124,-0.0000 -2.3762,1.0639 -2.3762 2.3762c -0.0000,1.3124 1.0639,2.3762 2.3762 2.3762c 1.3124,0.0000 2.3762,-1.0639 2.3762 -2.3762Z"/></g><g stroke-linejoin="miter" stroke-opacity="1.0" fill-opacity="1.0" stroke="rgb(0,0,0)" stroke-width="0.0" fill="rgb(0,126,156)" stroke-linecap="butt" stroke-miterlimit="10.0"><path d="M 284.7280,37.9203 c 0.0000,-1.3124 -1.0639,-2.3762 -2.3762 -2.3762c -1.3124,-0.0000 -2.3762,1.0639 -2.3762 2.3762c -0.0000,1.3124 1.0639,2.3762 2.3762 2.3762c 1.3124,0.0000 2.3762,-1.0639 2.3762 -2.3762Z"/></g><g stroke-linejoin="miter" stroke-opacity="1.0" fill-opacity="1.0" stroke="rgb(0,0,0)" stroke-width="0.0" fill="rgb(0,126,156)" stroke-linecap="butt" stroke-miterlimit="10.0"><path d="M 274.8253,30.6891 c 0.0000,-1.3124 -1.0639,-2.3762 -2.3762 -2.3762c -1.3124,-0.0000 -2.3762,1.0639 -2.3762 2.3762c -0.0000,1.3124 1.0639,2.3762 2.3762 2.3762c 1.3124,0.0000 2.3762,-1.0639 2.3762 -2.3762Z"/></g><g stroke-linejoin="miter" stroke-opacity="1.0" fill-opacity="1.0" stroke="rgb(0,0,0)" stroke-width="0.0" fill="rgb(0,126,156)" stroke-linecap="butt" stroke-miterlimit="10.0"><path d="M 257.0379,33.2140 c 0.0000,-1.3124 -1.0639,-2.3762 -2.3762 -2.3762c -1.3124,-0.0000 -2.3762,1.0639 -2.3762 2.3762c -0.0000,1.3124 1.0639,2.3762 2.3762 2.3762c 1.3124,0.0000 2.3762,-1.0639 2.3762 -2.3762Z"/></g><g stroke-linejoin="miter" stroke-opacity="1.0" fill-opacity="1.0" stroke="rgb(0,0,0)" stroke-width="0.0" fill="rgb(0,126,156)" stroke-linecap="butt" stroke-miterlimit="10.0"><path d="M 316.8208,47.3267 c 0.0000,-1.3124 -1.0639,-2.3762 -2.3762 -2.3762c -1.3124,-0.0000 -2.3762,1.0639 -2.3762 2.3762c -0.0000,1.3124 1.0639,2.3762 2.3762 2.3762c 1.3124,0.0000 2.3762,-1.0639 2.3762 -2.3762Z"/></g><g stroke-linejoin="miter" stroke-opacity="1.0" fill-opacity="1.0" stroke="rgb(0,0,0)" stroke-width="0.0" fill="rgb(0,126,156)" stroke-linecap="butt" stroke-miterlimit="10.0"><path d="M 291.4982,46.1304 c 0.0000,-1.3124 -1.0639,-2.3762 -2.3762 -2.3762c -1.3124,-0.0000 -2.3762,1.0639 -2.3762 2.3762c -0.0000,1.3124 1.0639,2.3762 2.3762 2.3762c 1.3124,0.0000 2.3762,-1.0639 2.3762 -2.3762Z"/></g><g stroke-linejoin="miter" stroke-opacity="1.0" fill-opacity="1.0" stroke="rgb(0,0,0)" stroke-width="0.0" fill="rgb(0,126,156)" stroke-linecap="butt" stroke-miterlimit="10.0"><path d="M 267.3180,52.3475 c 0.0000,-1.3124 -1.0639,-2.3762 -2.3762 -2.3762c -1.3124,-0.0000 -2.3762,1.0639 -2.3762 2.3762c -0.0000,1.3124 1.0639,2.3762 2.3762 2.3762c 1.3124,0.0000 2.3762,-1.0639 2.3762 -2.3762Z"/></g><g stroke-linejoin="miter" stroke-opacity="1.0" fill-opacity="1.0" stroke="rgb(0,0,0)" stroke-width="0.0" fill="rgb(0,126,156)" stroke-linecap="butt" stroke-miterlimit="10.0"><path d="M 255.9926,44.6424 c 0.0000,-1.3124 -1.0639,-2.3762 -2.3762 -2.3762c -1.3124,-0.0000 -2.3762,1.0639 -2.3762 2.3762c -0.0000,1.3124 1.0639,2.3762 2.3762 2.3762c 1.3124,0.0000 2.3762,-1.0639 2.3762 -2.3762Z"/></g><g stroke-linejoin="miter" stroke-opacity="1.0" fill-opacity="1.0" stroke="rgb(0,0,0)" stroke-width="0.0" fill="rgb(0,126,156)" stroke-linecap="butt" stroke-miterlimit="10.0"><path d="M 308.8279,64.2159 c 0.0000,-1.3124 -1.0639,-2.3762 -2.3762 -2.3762c -1.3124,-0.0000 -2.3762,1.0639 -2.3762 2.3762c -0.0000,1.3124 1.0639,2.3762 2.3762 2.3762c 1.3124,0.0000 2.3762,-1.0639 2.3762 -2.3762Z"/></g><g stroke-linejoin="miter" stroke-opacity="1.0" fill-opacity="1.0" stroke="rgb(0,0,0)" stroke-width="0.0" fill="rgb(0,126,156)" stroke-linecap="butt" stroke-miterlimit="10.0"><path d="M 293.0782,70.0168 c 0.0000,-1.3124 -1.0639,-2.3762 -2.3762 -2.3762c -1.3124,-0.0000 -2.3762,1.0639 -2.3762 2.3762c -0.0000,1.3124 1.0639,2.3762 2.3762 2.3762c 1.3124,0.0000 2.3762,-1.0639 2.3762 -2.3762Z"/></g><g stroke-linejoin="miter" stroke-opacity="1.0" fill-opacity="1.0" stroke="rgb(0,0,0)" stroke-width="0.0" fill="rgb(0,126,156)" stroke-linecap="butt" stroke-miterlimit="10.0"><path d="M 270.6851,75.3701 c 0.0000,-1.3124 -1.0639,-2.3762 -2.3762 -2.3762c -1.3124,-0.0000 -2.3762,1.0639 -2.3762 2.3762c -0.0000,1.3124 1.0639,2.3762 2.3762 2.3762c 1.3124,0.0000 2.3762,-1.0639 2.3762 -2.3762Z"/></g><g stroke-linejoin="miter" stroke-opacity="1.0" fill-opacity="1.0" stroke="rgb(0,0,0)" stroke-width="0.0" fill="rgb(0,126,156)" stroke-linecap="butt" stroke-miterlimit="10.0"><path d="M 255.4515,72.7505 c 0.0000,-1.3124 -1.0639,-2.3762 -2.3762 -2.3762c -1.3124,-0.0000 -2.3762,1.0639 -2.3762 2.3762c -0.0000,1.3124 1.0639,2.3762 2.3762 2.3762c 1.3124,0.0000 2.3762,-1.0639 2.3762 -2.3762Z"/></g><g stroke-linejoin="miter" stroke-opacity="1.0" fill-opacity="1.0" stroke="rgb(0,0,0)" stroke-width="0.0" fill="rgb(0,126,156)" stroke-linecap="butt" stroke-miterlimit="10.0"><path d="M 235.6310,15.6392 c 0.0000,-1.3124 -1.0639,-2.3762 -2.3762 -2.3762c -1.3124,-0.0000 -2.3762,1.0639 -2.3762 2.3762c -0.0000,1.3124 1.0639,2.3762 2.3762 2.3762c 1.3124,0.0000 2.3762,-1.0639 2.3762 -2.3762Z"/></g><g stroke-linejoin="miter" stroke-opacity="1.0" fill-opacity="1.0" stroke="rgb(0,0,0)" stroke-width="0.0" fill="rgb(0,126,156)" stroke-linecap="butt" stroke-miterlimit="10.0"><path d="M 205.4194,8.2030 c 0.0000,-1.3124 -1.0639,-2.3762 -2.3762 -2.3762c -1.3124,-0.0000 -2.3762,1.0639 -2.3762 2.3762c -0.0000,1.3124 1.0639,2.3762 2.3762 2.3762c 1.3124,0.0000 2.3762,-1.0639 2.3762 -2.3762Z"/></g><g stroke-linejoin="miter" stroke-opacity="1.0" fill-opacity="1.0" stroke="rgb(0,0,0)" stroke-width="0.0" fill="rgb(0,126,156)" stroke-linecap="butt" stroke-miterlimit="10.0"><path d="M 195.0852,8.1031 c 0.0000,-1.3124 -1.0639,-2.3762 -2.3762 -2.3762c -1.3124,-0.0000 -2.3762,1.0639 -2.3762 2.3762c -0.0000,1.3124 1.0639,2.3762 2.3762 2.3762c 1.3124,0.0000 2.3762,-1.0639 2.3762 -2.3762Z"/></g><g stroke-linejoin="miter" stroke-opacity="1.0" fill-opacity="1.0" stroke="rgb(0,0,0)" stroke-width="0.0" fill="rgb(0,126,156)" stroke-linecap="butt" stroke-miterlimit="10.0"><path d="M 167.4055,14.1405 c 0.0000,-1.3124 -1.0639,-2.3762 -2.3762 -2.3762c -1.3124,-0.0000 -2.3762,1.0639 -2.3762 2.3762c -0.0000,1.3124 1.0639,2.3762 2.3762 2.3762c 1.3124,0.0000 2.3762,-1.0639 2.3762 -2.3762Z"/></g><g stroke-linejoin="miter" stroke-opacity="1.0" fill-opacity="1.0" stroke="rgb(0,0,0)" stroke-width="0.0" fill="rgb(0,126,156)" stroke-linecap="butt" stroke-miterlimit="10.0"><path d="M 234.0927,24.9216 c 0.0000,-1.3124 -1.0639,-2.3762 -2.3762 -2.3762c -1.3124,-0.0000 -2.3762,1.0639 -2.3762 2.3762c -0.0000,1.3124 1.0639,2.3762 2.3762 2.3762c 1.3124,0.0000 2.3762,-1.0639 2.3762 -2.3762Z"/></g><g stroke-linejoin="miter" stroke-opacity="1.0" fill-opacity="1.0" stroke="rgb(0,0,0)" stroke-width="0.0" fill="rgb(0,126,156)" stroke-linecap="butt" stroke-miterlimit="10.0"><path d="M 205.4807,32.6186 c 0.0000,-1.3124 -1.0639,-2.3762 -2.3762 -2.3762c -1.3124,-0.0000 -2.3762,1.0639 -2.3762 2.3762c -0.0000,1.3124 1.0639,2.3762 2.3762 2.3762c 1.3124,0.0000 2.3762,-1.0639 2.3762 -2.3762Z"/></g><g stroke-linejoin="miter" stroke-opacity="1.0" fill-opacity="1.0" stroke="rgb(0,0,0)" stroke-width="0.0" fill="rgb(0,126,156)" stroke-linecap="butt" stroke-miterlimit="10.0"><path d="M 187.8477,36.0673 c 0.0000,-1.3124 -1.0639,-2.3762 -2.3762 -2.3762c -1.3124,-0.0000 -2.3762,1.0639 -2.3762 2.3762c -0.0000,1.3124 1.0639,2.3762 2.3762 2.3762c 1.3124,0.0000 2.3762,-1.0639 2.3762 -2.3762Z"/></g><g stroke-linejoin="miter" stroke-opacity="1.0" fill-opacity="1.0" stroke="rgb(0,0,0)" stroke-width="0.0" fill="rgb(0,126,156)" stroke-linecap="butt" stroke-miterlimit="10.0"><path d="M 172.1511,37.8348 c 0.0000,-1.3124 -1.0639,-2.3762 -2.3762 -2.3762c -1.3124,-0.0000 -2.3762,1.0639 -2.3762 2.3762c -0.0000,1.3124 1.0639,2.3762 2.3762 2.3762c 1.3124,0.0000 2.3762,-1.0639 2.3762 -2.3762Z"/></g><g stroke-linejoin="miter" stroke-opacity="1.0" fill-opacity="1.0" stroke="rgb(0,0,0)" stroke-width="0.0" fill="rgb(0,126,156)" stroke-linecap="butt" stroke-miterlimit="10.0"><path d="M 235.1388,47.9578 c 0.0000,-1.3124 -1.0639,-2.3762 -2.3762 -2.3762c -1.3124,-0.0000 -2.3762,1.0639 -2.3762 2.3762c -0.0000,1.3124 1.0639,2.3762 2.3762 2.3762c 1.3124,0.0000 2.3762,-1.0639 2.3762 -2.3762Z"/></g><g stroke-linejoin="miter" stroke-opacity="1.0" fill-opacity="1.0" stroke="rgb(0,0,0)" stroke-width="0.0" fill="rgb(0,126,156)" stroke-linecap="butt" stroke-miterlimit="10.0"><path d="M 212.9556,51.6665 c 0.0000,-1.3124 -1.0639,-2.3762 -2.3762 -2.3762c -1.3124,-0.0000 -2.3762,1.0639 -2.3762 2.3762c -0.0000,1.3124 1.0639,2.3762 2.3762 2.3762c 1.3124,0.0000 2.3762,-1.0639 2.3762 -2.3762Z"/></g><g stroke-linejoin="miter" stroke-opacity="1.0" fill-opacity="1.0" stroke="rgb(0,0,0)" stroke-width="0.0" fill="rgb(0,126,156)" stroke-linecap="butt" stroke-miterlimit="10.0"><path d="M 196.4522,45.6263 c 0.0000,-1.3124 -1.0639,-2.3762 -2.3762 -2.3762c -1.3124,-0.0000 -2.3762,1.0639 -2.3762 2.3762c -0.0000,1.3124 1.0639,2.3762 2.3762 2.3762c 1.3124,0.0000 2.3762,-1.0639 2.3762 -2.3762Z"/></g><g stroke-linejoin="miter" stroke-opacity="1.0" fill-opacity="1.0" stroke="rgb(0,0,0)" stroke-width="0.0" fill="rgb(0,126,156)" stroke-linecap="butt" stroke-miterlimit="10.0"><path d="M 170.5391,55.3692 c 0.0000,-1.3124 -1.0639,-2.3762 -2.3762 -2.3762c -1.3124,-0.0000 -2.3762,1.0639 -2.3762 2.3762c -0.0000,1.3124 1.0639,2.3762 2.3762 2.3762c 1.3124,0.0000 2.3762,-1.0639 2.3762 -2.3762Z"/></g><g stroke-linejoin="miter" stroke-opacity="1.0" fill-opacity="1.0" stroke="rgb(0,0,0)" stroke-width="0.0" fill="rgb(0,126,156)" stroke-linecap="butt" stroke-miterlimit="10.0"><path d="M 229.2929,64.9820 c 0.0000,-1.3124 -1.0639,-2.3762 -2.3762 -2.3762c -1.3124,-0.0000 -2.3762,1.0639 -2.3762 2.3762c -0.0000,1.3124 1.0639,2.3762 2.3762 2.3762c 1.3124,0.0000 2.3762,-1.0639 2.3762 -2.3762Z"/></g><g stroke-linejoin="miter" stroke-opacity="1.0" fill-opacity="1.0" stroke="rgb(0,0,0)" stroke-width="0.0" fill="rgb(0,126,156)" stroke-linecap="butt" stroke-miterlimit="10.0"><path d="M 216.1668,75.9532 c 0.0000,-1.3124 -1.0639,-2.3762 -2.3762 -2.3762c -1.3124,-0.0000 -2.3762,1.0639 -2.3762 2.3762c -0.0000,1.3124 1.0639,2.3762 2.3762 2.3762c 1.3124,0.0000 2.3762,-1.0639 2.3762 -2.3762Z"/></g><g stroke-linejoin="miter" stroke-opacity="1.0" fill-opacity="1.0" stroke="rgb(0,0,0)" stroke-width="0.0" fill="rgb(0,126,156)" stroke-linecap="butt" stroke-miterlimit="10.0"><path d="M 188.1246,67.3511 c 0.0000,-1.3124 -1.0639,-2.3762 -2.3762 -2.3762c -1.3124,-0.0000 -2.3762,1.0639 -2.3762 2.3762c -0.0000,1.3124 1.0639,2.3762 2.3762 2.3762c 1.3124,0.0000 2.3762,-1.0639 2.3762 -2.3762Z"/></g><g stroke-linejoin="miter" stroke-opacity="1.0" fill-opacity="1.0" stroke="rgb(0,0,0)" stroke-width="0.0" fill="rgb(0,126,156)" stroke-linecap="butt" stroke-miterlimit="10.0"><path d="M 168.9885,65.2551 c 0.0000,-1.3124 -1.0639,-2.3762 -2.3762 -2.3762c -1.3124,-0.0000 -2.3762,1.0639 -2.3762 2.3762c -0.0000,1.3124 1.0639,2.3762 2.3762 2.3762c 1.3124,0.0000 2.3762,-1.0639 2.3762 -2.3762Z"/></g><g stroke-linejoin="miter" stroke-opacity="1.0" fill-opacity="1.0" stroke="rgb(0,0,0)" stroke-width="0.0" fill="rgb(0,126,156)" stroke-linecap="butt" stroke-miterlimit="10.0"><path d="M 158.8305,10.5941 c 0.0000,-1.3124 -1.0639,-2.3762 -2.3762 -2.3762c -1.3124,-0.0000 -2.3762,1.0639 -2.3762 2.3762c -0.0000,1.3124 1.0639,2.3762 2.3762 2.3762c 1.3124,0.0000 2.3762,-1.0639 2.3762 -2.3762Z"/></g><g stroke-linejoin="miter" stroke-opacity="1.0" fill-opacity="1.0" stroke="rgb(0,0,0)" stroke-width="0.0" fill="rgb(0,126,156)" stroke-linecap="butt" stroke-miterlimit="10.0"><path d="M 138.6817,9.1310 c 0.0000,-1.3124 -1.0639,-2.3762 -2.3762 -2.3762c -1.3124,-0.0000 -2.3762,1.0639 -2.3762 2.3762c -0.0000,1.3124 1.0639,2.3762 2.3762 2.3762c 1.3124,0.0000 2.3762,-1.0639 2.3762 -2.3762Z"/></g><g stroke-linejoin="miter" stroke-opacity="1.0" fill-opacity="1.0" stroke="rgb(0,0,0)" stroke-width="0.0" fill="rgb(0,126,156)" stroke-linecap="butt" stroke-miterlimit="10.0"><path d="M 116.0784,17.8734 c 0.0000,-1.3124 -1.0639,-2.3762 -2.3762 -2.3762c -1.3124,-0.0000 -2.3762,1.0639 -2.3762 2.3762c -0.0000,1.3124 1.0639,2.3762 2.3762 2.3762c 1.3124,0.0000 2.3762,-1.0639 2.3762 -2.3762Z"/></g><g stroke-linejoin="miter" stroke-opacity="1.0" fill-opacity="1.0" stroke="rgb(0,0,0)" stroke-width="0.0" fill="rgb(0,126,156)" stroke-linecap="butt" stroke-miterlimit="10.0"><path d="M 92.6214,7.3978 c 0.0000,-1.3124 -1.0639,-2.3762 -2.3762 -2.3762c -1.3124,-0.0000 -2.3762,1.0639 -2.3762 2.3762c -0.0000,1.3124 1.0639,2.3762 2.3762 2.3762c 1.3124,0.0000 2.3762,-1.0639 2.3762 -2.3762Z"/></g><g stroke-linejoin="miter" stroke-opacity="1.0" fill-opacity="1.0" stroke="rgb(0,0,0)" stroke-width="0.0" fill="rgb(0,126,156)" stroke-linecap="butt" stroke-miterlimit="10.0"><path d="M 155.3362,29.1731 c 0.0000,-1.3124 -1.0639,-2.3762 -2.3762 -2.3762c -1.3124,-0.0000 -2.3762,1.0639 -2.3762 2.3762c -0.0000,1.3124 1.0639,2.3762 2.3762 2.3762c 1.3124,0.0000 2.3762,-1.0639 2.3762 -2.3762Z"/></g><g stroke-linejoin="miter" stroke-opacity="1.0" fill-opacity="1.0" stroke="rgb(0,0,0)" stroke-width="0.0" fill="rgb(0,126,156)" stroke-linecap="butt" stroke-miterlimit="10.0"><path d="M 127.5080,24.8724 c 0.0000,-1.3124 -1.0639,-2.3762 -2.3762 -2.3762c -1.3124,-0.0000 -2.3762,1.0639 -2.3762 2.3762c -0.0000,1.3124 1.0639,2.3762 2.3762 2.3762c 1.3124,0.0000 2.3762,-1.0639 2.3762 -2.3762Z"/></g><g stroke-linejoin="miter" stroke-opacity="1.0" fill-opacity="1.0" stroke="rgb(0,0,0)" stroke-width="0.0" fill="rgb(0,126,156)" stroke-linecap="butt" stroke-miterlimit="10.0"><path d="M 113.3695,35.7238 c 0.0000,-1.3124 -1.0639,-2.3762 -2.3762 -2.3762c -1.3124,-0.0000 -2.3762,1.0639 -2.3762 2.3762c -0.0000,1.3124 1.0639,2.3762 2.3762 2.3762c 1.3124,0.0000 2.3762,-1.0639 2.3762 -2.3762Z"/></g><g stroke-linejoin="miter" stroke-opacity="1.0" fill-opacity="1.0" stroke="rgb(0,0,0)" stroke-width="0.0" fill="rgb(0,126,156)" stroke-linecap="butt" stroke-miterlimit="10.0"><path d="M 99.6731,32.2350 c 0.0000,-1.3124 -1.0639,-2.3762 -2.3762 -2.3762c -1.3124,-0.0000 -2.3762,1.0639 -2.3762 2.3762c -0.0000,1.3124 1.0639,2.3762 2.3762 2.3762c 1.3124,0.0000 2.3762,-1.0639 2.3762 -2.3762Z"/></g><g stroke-linejoin="miter" stroke-opacity="1.0" fill-opacity="1.0" stroke="rgb(0,0,0)" stroke-width="0.0" fill="rgb(0,126,156)" stroke-linecap="butt" stroke-miterlimit="10.0"><path d="M 151.1938,47.4482 c 0.0000,-1.3124 -1.0639,-2.3762 -2.3762 -2.3762c -1.3124,-0.0000 -2.3762,1.0639 -2.3762 2.3762c -0.0000,1.3124 1.0639,2.3762 2.3762 2.3762c 1.3124,0.0000 2.3762,-1.0639 2.3762 -2.3762Z"/></g><g stroke-linejoin="miter" stroke-opacity="1.0" fill-opacity="1.0" stroke="rgb(0,0,0)" stroke-width="0.0" fill="rgb(0,126,156)" stroke-linecap="butt" stroke-miterlimit="10.0"><path d="M 126.7786,46.2088 c 0.0000,-1.3124 -1.0639,-2.3762 -2.3762 -2.3762c -1.3124,-0.0000 -2.3762,1.0639 -2.3762 2.3762c -0.0000,1.3124 1.0639,2.3762 2.3762 2.3762c 1.3124,0.0000 2.3762,-1.0639 2.3762 -2.3762Z"/></g><g stroke-linejoin="miter" stroke-opacity="1.0" fill-opacity="1.0" stroke="rgb(0,0,0)" stroke-width="0.0" fill="rgb(0,126,156)" stroke-linecap="butt" stroke-miterlimit="10.0"><path d="M 115.1722,50.0446 c 0.0000,-1.3124 -1.0639,-2.3762 -2.3762 -2.3762c -1.3124,-0.0000 -2.3762,1.0639 -2.3762 2.3762c -0.0000,1.3124 1.0639,2.3762 2.3762 2.3762c 1.3124,0.0000 2.3762,-1.0639 2.3762 -2.3762Z"/></g><g stroke-linejoin="miter" stroke-opacity="1.0" fill-opacity="1.0" stroke="rgb(0,0,0)" stroke-width="0.0" fill="rgb(0,126,156)" stroke-linecap="butt" stroke-miterlimit="10.0"><path d="M 96.4851,56.5006 c 0.0000,-1.3124 -1.0639,-2.3762 -2.3762 -2.3762c -1.3124,-0.0000 -2.3762,1.0639 -2.3762 2.3762c -0.0000,1.3124 1.0639,2.3762 2.3762 2.3762c 1.3124,0.0000 2.3762,-1.0639 2.3762 -2.3762Z"/></g><g stroke-linejoin="miter" stroke-opacity="1.0" fill-opacity="1.0" stroke="rgb(0,0,0)" stroke-width="0.0" fill="rgb(0,126,156)" stroke-linecap="butt" stroke-miterlimit="10.0"><path d="M 152.3212,74.1630 c 0.0000,-1.3124 -1.0639,-2.3762 -2.3762 -2.3762c -1.3124,-0.0000 -2.3762,1.0639 -2.3762 2.3762c -0.0000,1.3124 1.0639,2.3762 2.3762 2.3762c 1.3124,0.0000 2.3762,-1.0639 2.3762 -2.3762Z"/></g><g stroke-linejoin="miter" stroke-opacity="1.0" fill-opacity="1.0" stroke="rgb(0,0,0)" stroke-width="0.0" fill="rgb(0,126,156)" stroke-linecap="butt" stroke-miterlimit="10.0"><path d="M 127.1619,73.0671 c 0.0000,-1.3124 -1.0639,-2.3762 -2.3762 -2.3762c -1.3124,-0.0000 -2.3762,1.0639 -2.3762 2.3762c -0.0000,1.3124 1.0639,2.3762 2.3762 2.3762c 1.3124,0.0000 2.3762,-1.0639 2.3762 -2.3762Z"/></g><g stroke-linejoin="miter" stroke-opacity="1.0" fill-opacity="1.0" stroke="rgb(0,0,0)" stroke-width="0.0" fill="rgb(0,126,156)" stroke-linecap="butt" stroke-miterlimit="10.0"><path d="M 108.6446,64.1369 c 0.0000,-1.3124 -1.0639,-2.3762 -2.3762 -2.3762c -1.3124,-0.0000 -2.3762,1.0639 -2.3762 2.3762c -0.0000,1.3124 1.0639,2.3762 2.3762 2.3762c 1.3124,0.0000 2.3762,-1.0639 2.3762 -2.3762Z"/></g><g stroke-linejoin="miter" stroke-opacity="1.0" fill-opacity="1.0" stroke="rgb(0,0,0)" stroke-width="0.0" fill="rgb(0,126,156)" stroke-linecap="butt" stroke-miterlimit="10.0"><path d="M 93.7895,77.4588 c 0.0000,-1.3124 -1.0639,-2.3762 -2.3762 -2.3762c -1.3124,-0.0000 -2.3762,1.0639 -2.3762 2.3762c -0.0000,1.3124 1.0639,2.3762 2.3762 2.3762c 1.3124,0.0000 2.3762,-1.0639 2.3762 -2.3762Z"/></g><g stroke-linejoin="miter" stroke-opacity="1.0" fill-opacity="1.0" stroke="rgb(0,0,0)" stroke-width="0.0" fill="rgb(0,126,156)" stroke-linecap="butt" stroke-miterlimit="10.0"><path d="M 77.8198,16.6138 c 0.0000,-1.3124 -1.0639,-2.3762 -2.3762 -2.3762c -1.3124,-0.0000 -2.3762,1.0639 -2.3762 2.3762c -0.0000,1.3124 1.0639,2.3762 2.3762 2.3762c 1.3124,0.0000 2.3762,-1.0639 2.3762 -2.3762Z"/></g><g stroke-linejoin="miter" stroke-opacity="1.0" fill-opacity="1.0" stroke="rgb(0,0,0)" stroke-width="0.0" fill="rgb(0,126,156)" stroke-linecap="butt" stroke-miterlimit="10.0"><path d="M 56.0032,8.3878 c 0.0000,-1.3124 -1.0639,-2.3762 -2.3762 -2.3762c -1.3124,-0.0000 -2.3762,1.0639 -2.3762 2.3762c -0.0000,1.3124 1.0639,2.3762 2.3762 2.3762c 1.3124,0.0000 2.3762,-1.0639 2.3762 -2.3762Z"/></g><g stroke-linejoin="miter" stroke-opacity="1.0" fill-opacity="1.0" stroke="rgb(0,0,0)" stroke-width="0.0" fill="rgb(0,126,156)" stroke-linecap="butt" stroke-miterlimit="10.0"><path d="M 40.3853,10.1316 c 0.0000,-1.3124 -1.0639,-2.3762 -2.3762 -2.3762c -1.3124,-0.0000 -2.3762,1.0639 -2.3762 2.3762c -0.0000,1.3124 1.0639,2.3762 2.3762 2.3762c 1.3124,0.0000 2.3762,-1.0639 2.3762 -2.3762Z"/></g><g stroke-linejoin="miter" stroke-opacity="1.0" fill-opacity="1.0" stroke="rgb(0,0,0)" stroke-width="0.0" fill="rgb(0,126,156)" stroke-linecap="butt" stroke-miterlimit="10.0"><path d="M 13.5573,15.6789 c 0.0000,-1.3124 -1.0639,-2.3762 -2.3762 -2.3762c -1.3124,-0.0000 -2.3762,1.0639 -2.3762 2.3762c -0.0000,1.3124 1.0639,2.3762 2.3762 2.3762c 1.3124,0.0000 2.3762,-1.0639 2.3762 -2.3762Z"/></g><g stroke-linejoin="miter" stroke-opacity="1.0" fill-opacity="1.0" stroke="rgb(0,0,0)" stroke-width="0.0" fill="rgb(0,126,156)" stroke-linecap="butt" stroke-miterlimit="10.0"><path d="M 66.5834,30.5556 c 0.0000,-1.3124 -1.0639,-2.3762 -2.3762 -2.3762c -1.3124,-0.0000 -2.3762,1.0639 -2.3762 2.3762c -0.0000,1.3124 1.0639,2.3762 2.3762 2.3762c 1.3124,0.0000 2.3762,-1.0639 2.3762 -2.3762Z"/></g><g stroke-linejoin="miter" stroke-opacity="1.0" fill-opacity="1.0" stroke="rgb(0,0,0)" stroke-width="0.0" fill="rgb(0,126,156)" stroke-linecap="butt" stroke-miterlimit="10.0"><path d="M 56.3282,32.3090 c 0.0000,-1.3124 -1.0639,-2.3762 -2.3762 -2.3762c -1.3124,-0.0000 -2.3762,1.0639 -2.3762 2.3762c -0.0000,1.3124 1.0639,2.3762 2.3762 2.3762c 1.3124,0.0000 2.3762,-1.0639 2.3762 -2.3762Z"/></g><g stroke-linejoin="miter" stroke-opacity="1.0" fill-opacity="1.0" stroke="rgb(0,0,0)" stroke-width="0.0" fill="rgb(0,126,156)" stroke-linecap="butt" stroke-miterlimit="10.0"><path d="M 27.6330,34.7887 c 0.0000,-1.3124 -1.0639,-2.3762 -2.3762 -2.3762c -1.3124,-0.0000 -2.3762,1.0639 -2.3762 2.3762c -0.0000,1.3124 1.0639,2.3762 2.3762 2.3762c 1.3124,0.0000 2.3762,-1.0639 2.3762 -2.3762Z"/></g><g stroke-linejoin="miter" stroke-opacity="1.0" fill-opacity="1.0" stroke="rgb(0,0,0)" stroke-width="0.0" fill="rgb(0,126,156)" stroke-linecap="butt" stroke-miterlimit="10.0"><path d="M 16.3582,25.7812 c 0.0000,-1.3124 -1.0639,-2.3762 -2.3762 -2.3762c -1.3124,-0.0000 -2.3762,1.0639 -2.3762 2.3762c -0.0000,1.3124 1.0639,2.3762 2.3762 2.3762c 1.3124,0.0000 2.3762,-1.0639 2.3762 -2.3762Z"/></g><g stroke-linejoin="miter" stroke-opacity="1.0" fill-opacity="1.0" stroke="rgb(0,0,0)" stroke-width="0.0" fill="rgb(0,126,156)" stroke-linecap="butt" stroke-miterlimit="10.0"><path d="M 73.6474,52.4446 c 0.0000,-1.3124 -1.0639,-2.3762 -2.3762 -2.3762c -1.3124,-0.0000 -2.3762,1.0639 -2.3762 2.3762c -0.0000,1.3124 1.0639,2.3762 2.3762 2.3762c 1.3124,0.0000 2.3762,-1.0639 2.3762 -2.3762Z"/></g><g stroke-linejoin="miter" stroke-opacity="1.0" fill-opacity="1.0" stroke="rgb(0,0,0)" stroke-width="0.0" fill="rgb(0,126,156)" stroke-linecap="butt" stroke-miterlimit="10.0"><path d="M 54.7173,51.9213 c 0.0000,-1.3124 -1.0639,-2.3762 -2.3762 -2.3762c -1.3124,-0.0000 -2.3762,1.0639 -2.3762 2.3762c -0.0000,1.3124 1.0639,2.3762 2.3762 2.3762c 1.3124,0.0000 2.3762,-1.0639 2.3762 -2.3762Z"/></g><g stroke-linejoin="miter" stroke-opacity="1.0" fill-opacity="1.0" stroke="rgb(0,0,0)" stroke-width="0.0" fill="rgb(0,126,156)" stroke-linecap="butt" stroke-miterlimit="10.0"><path d="M 28.7604,57.6111 c 0.0000,-1.3124 -1.0639,-2.3762 -2.3762 -2.3762c -1.3124,-0.0000 -2.3762,1.0639 -2.3762 2.3762c -0.0000,1.3124 1.0639,2.3762 2.3762 2.3762c 1.3124,0.0000 2.3762,-1.0639 2.3762 -2.3762Z"/></g><g stroke-linejoin="miter" stroke-opacity="1.0" fill-opacity="1.0" stroke="rgb(0,0,0)" stroke-width="0.0" fill="rgb(0,126,156)" stroke-linecap="butt" stroke-miterlimit="10.0"><path d="M 9.0046,55.2501 c 0.0000,-1.3124 -1.0639,-2.3762 -2.3762 -2.3762c -1.3124,-0.0000 -2.3762,1.0639 -2.3762 2.3762c -0.0000,1.3124 1.0639,2.3762 2.3762 2.3762c 1.3124,0.0000 2.3762,-1.0639 2.3762 -2.3762Z"/></g><g stroke-linejoin="miter" stroke-opacity="1.0" fill-opacity="1.0" stroke="rgb(0,0,0)" stroke-width="0.0" fill="rgb(0,126,156)" stroke-linecap="butt" stroke-miterlimit="10.0"><path d="M 78.2205,70.0045 c 0.0000,-1.3124 -1.0639,-2.3762 -2.3762 -2.3762c -1.3124,-0.0000 -2.3762,1.0639 -2.3762 2.3762c -0.0000,1.3124 1.0639,2.3762 2.3762 2.3762c 1.3124,0.0000 2.3762,-1.0639 2.3762 -2.3762Z"/></g><g stroke-linejoin="miter" stroke-opacity="1.0" fill-opacity="1.0" stroke="rgb(0,0,0)" stroke-width="0.0" fill="rgb(0,126,156)" stroke-linecap="butt" stroke-miterlimit="10.0"><path d="M 58.3218,65.6423 c 0.0000,-1.3124 -1.0639,-2.3762 -2.3762 -2.3762c -1.3124,-0.0000 -2.3762,1.0639 -2.3762 2.3762c -0.0000,1.3124 1.0639,2.3762 2.3762 2.3762c 1.3124,0.0000 2.3762,-1.0639 2.3762 -2.3762Z"/></g><g stroke-linejoin="miter" stroke-opacity="1.0" fill-opacity="1.0" stroke="rgb(0,0,0)" stroke-width="0.0" fill="rgb(0,126,156)" stroke-linecap="butt" stroke-miterlimit="10.0"><path d="M 38.6699,75.7530 c 0.0000,-1.3124 -1.0639,-2.3762 -2.3762 -2.3762c -1.3124,-0.0000 -2.3762,1.0639 -2.3762 2.3762c -0.0000,1.3124 1.0639,2.3762 2.3762 2.3762c 1.3124,0.0000 2.3762,-1.0639 2.3762 -2.3762Z"/></g><g stroke-linejoin="miter" stroke-opacity="1.0" fill-opacity="1.0" stroke="rgb(0,0,0)" stroke-width="0.0" fill="rgb(0,126,156)" stroke-linecap="butt" stroke-miterlimit="10.0"><path d="M 11.3152,66.0807 c 0.0000,-1.3124 -1.0639,-2.3762 -2.3762 -2.3762c -1.3124,-0.0000 -2.3762,1.0639 -2.3762 2.3762c -0.0000,1.3124 1.0639,2.3762 2.3762 2.3762c 1.3124,0.0000 2.3762,-1.0639 2.3762 -2.3762Z"/></g><g stroke-linejoin="miter" stroke-opacity="1.0" fill-opacity="1.0" stroke="rgb(0,0,0)" stroke-width="0.0" fill="rgb(0,126,156)" stroke-linecap="butt" stroke-miterlimit="10.0"><path d="M 307.3574,87.8298 c 0.0000,-1.3124 -1.0639,-2.3762 -2.3762 -2.3762c -1.3124,-0.0000 -2.3762,1.0639 -2.3762 2.3762c -0.0000,1.3124 1.0639,2.3762 2.3762 2.3762c 1.3124,0.0000 2.3762,-1.0639 2.3762 -2.3762Z"/></g><g stroke-linejoin="miter" stroke-opacity="1.0" fill-opacity="1.0" stroke="rgb(0,0,0)" stroke-width="0.0" fill="rgb(0,126,156)" stroke-linecap="butt" stroke-miterlimit="10.0"><path d="M 291.3657,85.1459 c 0.0000,-1.3124 -1.0639,-2.3762 -2.3762 -2.3762c -1.3124,-0.0000 -2.3762,1.0639 -2.3762 2.3762c -0.0000,1.3124 1.0639,2.3762 2.3762 2.3762c 1.3124,0.0000 2.3762,-1.0639 2.3762 -2.3762Z"/></g><g stroke-linejoin="miter" stroke-opacity="1.0" fill-opacity="1.0" stroke="rgb(0,0,0)" stroke-width="0.0" fill="rgb(0,126,156)" stroke-linecap="butt" stroke-miterlimit="10.0"><path d="M 272.3020,90.7992 c 0.0000,-1.3124 -1.0639,-2.3762 -2.3762 -2.3762c -1.3124,-0.0000 -2.3762,1.0639 -2.3762 2.3762c -0.0000,1.3124 1.0639,2.3762 2.3762 2.3762c 1.3124,0.0000 2.3762,-1.0639 2.3762 -2.3762Z"/></g><g stroke-linejoin="miter" stroke-opacity="1.0" fill-opacity="1.0" stroke="rgb(0,0,0)" stroke-width="0.0" fill="rgb(0,126,156)" stroke-linecap="butt" stroke-miterlimit="10.0"><path d="M 252.4261,85.2006 c 0.0000,-1.3124 -1.0639,-2.3762 -2.3762 -2.3762c -1.3124,-0.0000 -2.3762,1.0639 -2.3762 2.3762c -0.0000,1.3124 1.0639,2.3762 2.3762 2.3762c 1.3124,0.0000 2.3762,-1.0639 2.3762 -2.3762Z"/></g><g stroke-linejoin="miter" stroke-opacity="1.0" fill-opacity="1.0" stroke="rgb(0,0,0)" stroke-width="0.0" fill="rgb(0,126,156)" stroke-linecap="butt" stroke-miterlimit="10.0"><path d="M 308.5402,107.9893 c 0.0000,-1.3124 -1.0639,-2.3762 -2.3762 -2.3762c -1.3124,-0.0000 -2.3762,1.0639 -2.3762 2.3762c -0.0000,1.3124 1.0639,2.3762 2.3762 2.3762c 1.3124,0.0000 2.3762,-1.0639 2.3762 -2.3762Z"/></g><g stroke-linejoin="miter" stroke-opacity="1.0" fill-opacity="1.0" stroke="rgb(0,0,0)" stroke-width="0.0" fill="rgb(0,126,156)" stroke-linecap="butt" stroke-miterlimit="10.0"><path d="M 293.8323,109.9282 c 0.0000,-1.3124 -1.0639,-2.3762 -2.3762 -2.3762c -1.3124,-0.0000 -2.3762,1.0639 -2.3762 2.3762c -0.0000,1.3124 1.0639,2.3762 2.3762 2.3762c 1.3124,0.0000 2.3762,-1.0639 2.3762 -2.3762Z"/></g><g stroke-linejoin="miter" stroke-opacity="1.0" fill-opacity="1.0" stroke="rgb(0,0,0)" stroke-width="0.0" fill="rgb(0,126,156)" stroke-linecap="butt" stroke-miterlimit="10.0"><path d="M 272.9129,107.0517 c 0.0000,-1.3124 -1.0639,-2.3762 -2.3762 -2.3762c -1.3124,-0.0000 -2.3762,1.0639 -2.3762 2.3762c -0.0000,1.3124 1.0639,2.3762 2.3762 2.3762c 1.3124,0.0000 2.3762,-1.0639 2.3762 -2.3762Z"/></g><g stroke-linejoin="miter" stroke-opacity="1.0" fill-opacity="1.0" stroke="rgb(0,0,0)" stroke-width="0.0" fill="rgb(0,126,156)" stroke-linecap="butt" stroke-miterlimit="10.0"><path d="M 245.7185,111.7100 c 0.0000,-1.3124 -1.0639,-2.3762 -2.3762 -2.3762c -1.3124,-0.0000 -2.3762,1.0639 -2.3762 2.3762c -0.0000,1.3124 1.0639,2.3762 2.3762 2.3762c 1.3124,0.0000 2.3762,-1.0639 2.3762 -2.3762Z"/></g><g stroke-linejoin="miter" stroke-opacity="1.0" fill-opacity="1.0" stroke="rgb(0,0,0)" stroke-width="0.0" fill="rgb(0,126,156)" stroke-linecap="butt" stroke-miterlimit="10.0"><path d="M 306.9626,124.3983 c 0.0000,-1.3124 -1.0639,-2.3762 -2.3762 -2.3762c -1.3124,-0.0000 -2.3762,1.0639 -2.3762 2.3762c -0.0000,1.3124 1.0639,2.3762 2.3762 2.3762c 1.3124,0.0000 2.3762,-1.0639 2.3762 -2.3762Z"/></g><g stroke-linejoin="miter" stroke-opacity="1.0" fill-opacity="1.0" stroke="rgb(0,0,0)" stroke-width="0.0" fill="rgb(0,126,156)" stroke-linecap="butt" stroke-miterlimit="10.0"><path d="M 297.6157,130.2697 c 0.0000,-1.3124 -1.0639,-2.3762 -2.3762 -2.3762c -1.3124,-0.0000 -2.3762,1.0639 -2.3762 2.3762c -0.0000,1.3124 1.0639,2.3762 2.3762 2.3762c 1.3124,0.0000 2.3762,-1.0639 2.3762 -2.3762Z"/></g><g stroke-linejoin="miter" stroke-opacity="1.0" fill-opacity="1.0" stroke="rgb(0,0,0)" stroke-width="0.0" fill="rgb(0,126,156)" stroke-linecap="butt" stroke-miterlimit="10.0"><path d="M 271.2108,131.4472 c 0.0000,-1.3124 -1.0639,-2.3762 -2.3762 -2.3762c -1.3124,-0.0000 -2.3762,1.0639 -2.3762 2.3762c -0.0000,1.3124 1.0639,2.3762 2.3762 2.3762c 1.3124,0.0000 2.3762,-1.0639 2.3762 -2.3762Z"/></g><g stroke-linejoin="miter" stroke-opacity="1.0" fill-opacity="1.0" stroke="rgb(0,0,0)" stroke-width="0.0" fill="rgb(0,126,156)" stroke-linecap="butt" stroke-miterlimit="10.0"><path d="M 245.8376,136.6308 c 0.0000,-1.3124 -1.0639,-2.3762 -2.3762 -2.3762c -1.3124,-0.0000 -2.3762,1.0639 -2.3762 2.3762c -0.0000,1.3124 1.0639,2.3762 2.3762 2.3762c 1.3124,0.0000 2.3762,-1.0639 2.3762 -2.3762Z"/></g><g stroke-linejoin="miter" stroke-opacity="1.0" fill-opacity="1.0" stroke="rgb(0,0,0)" stroke-width="0.0" fill="rgb(0,126,156)" stroke-linecap="butt" stroke-miterlimit="10.0"><path d="M 307.4333,155.3968 c 0.0000,-1.3124 -1.0639,-2.3762 -2.3762 -2.3762c -1.3124,-0.0000 -2.3762,1.0639 -2.3762 2.3762c -0.0000,1.3124 1.0639,2.3762 2.3762 2.3762c 1.3124,0.0000 2.3762,-1.0639 2.3762 -2.3762Z"/></g><g stroke-linejoin="miter" stroke-opacity="1.0" fill-opacity="1.0" stroke="rgb(0,0,0)" stroke-width="0.0" fill="rgb(0,126,156)" stroke-linecap="butt" stroke-miterlimit="10.0"><path d="M 291.5400,147.1051 c 0.0000,-1.3124 -1.0639,-2.3762 -2.3762 -2.3762c -1.3124,-0.0000 -2.3762,1.0639 -2.3762 2.3762c -0.0000,1.3124 1.0639,2.3762 2.3762 2.3762c 1.3124,0.0000 2.3762,-1.0639 2.3762 -2.3762Z"/></g><g stroke-linejoin="miter" stroke-opacity="1.0" fill-opacity="1.0" stroke="rgb(0,0,0)" stroke-width="0.0" fill="rgb(0,126,156)" stroke-linecap="butt" stroke-miterlimit="10.0"><path d="M 276.6089,150.7485 c 0.0000,-1.3124 -1.0639,-2.3762 -2.3762 -2.3762c -1.3124,-0.0000 -2.3762,1.0639 -2.3762 2.3762c -0.0000,1.3124 1.0639,2.3762 2.3762 2.3762c 1.3124,0.0000 2.3762,-1.0639 2.3762 -2.3762Z"/></g><g stroke-linejoin="miter" stroke-opacity="1.0" fill-opacity="1.0" stroke="rgb(0,0,0)" stroke-width="0.0" fill="rgb(0,126,156)" stroke-linecap="butt" stroke-miterlimit="10.0"><path d="M 253.6729,155.8683 c 0.0000,-1.3124 -1.0639,-2.3762 -2.3762 -2.3762c -1.3124,-0.0000 -2.3762,1.0639 -2.3762 2.3762c -0.0000,1.3124 1.0639,2.3762 2.3762 2.3762c 1.3124,0.0000 2.3762,-1.0639 2.3762 -2.3762Z"/></g><g stroke-linejoin="miter" stroke-opacity="1.0" fill-opacity="1.0" stroke="rgb(0,0,0)" stroke-width="0.0" fill="rgb(0,126,156)" stroke-linecap="butt" stroke-miterlimit="10.0"><path d="M 238.0384,89.8020 c 0.0000,-1.3124 -1.0639,-2.3762 -2.3762 -2.3762c -1.3124,-0.0000 -2.3762,1.0639 -2.3762 2.3762c -0.0000,1.3124 1.0639,2.3762 2.3762 2.3762c 1.3124,0.0000 2.3762,-1.0639 2.3762 -2.3762Z"/></g><g stroke-linejoin="miter" stroke-opacity="1.0" fill-opacity="1.0" stroke="rgb(0,0,0)" stroke-width="0.0" fill="rgb(0,126,156)" stroke-linecap="butt" stroke-miterlimit="10.0"><path d="M 217.8896,88.3389 c 0.0000,-1.3124 -1.0639,-2.3762 -2.3762 -2.3762c -1.3124,-0.0000 -2.3762,1.0639 -2.3762 2.3762c -0.0000,1.3124 1.0639,2.3762 2.3762 2.3762c 1.3124,0.0000 2.3762,-1.0639 2.3762 -2.3762Z"/></g><g stroke-linejoin="miter" stroke-opacity="1.0" fill-opacity="1.0" stroke="rgb(0,0,0)" stroke-width="0.0" fill="rgb(0,126,156)" stroke-linecap="butt" stroke-miterlimit="10.0"><path d="M 195.2863,97.0813 c 0.0000,-1.3124 -1.0639,-2.3762 -2.3762 -2.3762c -1.3124,-0.0000 -2.3762,1.0639 -2.3762 2.3762c -0.0000,1.3124 1.0639,2.3762 2.3762 2.3762c 1.3124,0.0000 2.3762,-1.0639 2.3762 -2.3762Z"/></g><g stroke-linejoin="miter" stroke-opacity="1.0" fill-opacity="1.0" stroke="rgb(0,0,0)" stroke-width="0.0" fill="rgb(0,126,156)" stroke-linecap="butt" stroke-miterlimit="10.0"><path d="M 171.8293,86.6057 c 0.0000,-1.3124 -1.0639,-2.3762 -2.3762 -2.3762c -1.3124,-0.0000 -2.3762,1.0639 -2.3762 2.3762c -0.0000,1.3124 1.0639,2.3762 2.3762 2.3762c 1.3124,0.0000 2.3762,-1.0639 2.3762 -2.3762Z"/></g><g stroke-linejoin="miter" stroke-opacity="1.0" fill-opacity="1.0" stroke="rgb(0,0,0)" stroke-width="0.0" fill="rgb(0,126,156)" stroke-linecap="butt" stroke-miterlimit="10.0"><path d="M 234.5441,108.3811 c 0.0000,-1.3124 -1.0639,-2.3762 -2.3762 -2.3762c -1.3124,-0.0000 -2.3762,1.0639 -2.3762 2.3762c -0.0000,1.3124 1.0639,2.3762 2.3762 2.3762c 1.3124,0.0000 2.3762,-1.0639 2.3762 -2.3762Z"/></g><g stroke-linejoin="miter" stroke-opacity="1.0" fill-opacity="1.0" stroke="rgb(0,0,0)" stroke-width="0.0" fill="rgb(0,126,156)" stroke-linecap="butt" stroke-miterlimit="10.0"><path d="M 206.7159,104.0803 c 0.0000,-1.3124 -1.0639,-2.3762 -2.3762 -2.3762c -1.3124,-0.0000 -2.3762,1.0639 -2.3762 2.3762c -0.0000,1.3124 1.0639,2.3762 2.3762 2.3762c 1.3124,0.0000 2.3762,-1.0639 2.3762 -2.3762Z"/></g><g stroke-linejoin="miter" stroke-opacity="1.0" fill-opacity="1.0" stroke="rgb(0,0,0)" stroke-width="0.0" fill="rgb(0,126,156)" stroke-linecap="butt" stroke-miterlimit="10.0"><path d="M 192.5774,114.9318 c 0.0000,-1.3124 -1.0639,-2.3762 -2.3762 -2.3762c -1.3124,-0.0000 -2.3762,1.0639 -2.3762 2.3762c -0.0000,1.3124 1.0639,2.3762 2.3762 2.3762c 1.3124,0.0000 2.3762,-1.0639 2.3762 -2.3762Z"/></g><g stroke-linejoin="miter" stroke-opacity="1.0" fill-opacity="1.0" stroke="rgb(0,0,0)" stroke-width="0.0" fill="rgb(0,126,156)" stroke-linecap="butt" stroke-miterlimit="10.0"><path d="M 178.8810,111.4429 c 0.0000,-1.3124 -1.0639,-2.3762 -2.3762 -2.3762c -1.3124,-0.0000 -2.3762,1.0639 -2.3762 2.3762c -0.0000,1.3124 1.0639,2.3762 2.3762 2.3762c 1.3124,0.0000 2.3762,-1.0639 2.3762 -2.3762Z"/></g><g stroke-linejoin="miter" stroke-opacity="1.0" fill-opacity="1.0" stroke="rgb(0,0,0)" stroke-width="0.0" fill="rgb(0,126,156)" stroke-linecap="butt" stroke-miterlimit="10.0"><path d="M 230.4017,126.6562 c 0.0000,-1.3124 -1.0639,-2.3762 -2.3762 -2.3762c -1.3124,-0.0000 -2.3762,1.0639 -2.3762 2.3762c -0.0000,1.3124 1.0639,2.3762 2.3762 2.3762c 1.3124,0.0000 2.3762,-1.0639 2.3762 -2.3762Z"/></g><g stroke-linejoin="miter" stroke-opacity="1.0" fill-opacity="1.0" stroke="rgb(0,0,0)" stroke-width="0.0" fill="rgb(0,126,156)" stroke-linecap="butt" stroke-miterlimit="10.0"><path d="M 205.9865,125.4168 c 0.0000,-1.3124 -1.0639,-2.3762 -2.3762 -2.3762c -1.3124,-0.0000 -2.3762,1.0639 -2.3762 2.3762c -0.0000,1.3124 1.0639,2.3762 2.3762 2.3762c 1.3124,0.0000 2.3762,-1.0639 2.3762 -2.3762Z"/></g><g stroke-linejoin="miter" stroke-opacity="1.0" fill-opacity="1.0" stroke="rgb(0,0,0)" stroke-width="0.0" fill="rgb(0,126,156)" stroke-linecap="butt" stroke-miterlimit="10.0"><path d="M 194.3802,129.2526 c 0.0000,-1.3124 -1.0639,-2.3762 -2.3762 -2.3762c -1.3124,-0.0000 -2.3762,1.0639 -2.3762 2.3762c -0.0000,1.3124 1.0639,2.3762 2.3762 2.3762c 1.3124,0.0000 2.3762,-1.0639 2.3762 -2.3762Z"/></g><g stroke-linejoin="miter" stroke-opacity="1.0" fill-opacity="1.0" stroke="rgb(0,0,0)" stroke-width="0.0" fill="rgb(0,126,156)" stroke-linecap="butt" stroke-miterlimit="10.0"><path d="M 175.6930,135.7085 c 0.0000,-1.3124 -1.0639,-2.3762 -2.3762 -2.3762c -1.3124,-0.0000 -2.3762,1.0639 -2.3762 2.3762c -0.0000,1.3124 1.0639,2.3762 2.3762 2.3762c 1.3124,0.0000 2.3762,-1.0639 2.3762 -2.3762Z"/></g><g stroke-linejoin="miter" stroke-opacity="1.0" fill-opacity="1.0" stroke="rgb(0,0,0)" stroke-width="0.0" fill="rgb(0,126,156)" stroke-linecap="butt" stroke-miterlimit="10.0"><path d="M 231.5291,153.3710 c 0.0000,-1.3124 -1.0639,-2.3762 -2.3762 -2.3762c -1.3124,-0.0000 -2.3762,1.0639 -2.3762 2.3762c -0.0000,1.3124 1.0639,2.3762 2.3762 2.3762c 1.3124,0.0000 2.3762,-1.0639 2.3762 -2.3762Z"/></g><g stroke-linejoin="miter" stroke-opacity="1.0" fill-opacity="1.0" stroke="rgb(0,0,0)" stroke-width="0.0" fill="rgb(0,126,156)" stroke-linecap="butt" stroke-miterlimit="10.0"><path d="M 206.3699,152.2751 c 0.0000,-1.3124 -1.0639,-2.3762 -2.3762 -2.3762c -1.3124,-0.0000 -2.3762,1.0639 -2.3762 2.3762c -0.0000,1.3124 1.0639,2.3762 2.3762 2.3762c 1.3124,0.0000 2.3762,-1.0639 2.3762 -2.3762Z"/></g><g stroke-linejoin="miter" stroke-opacity="1.0" fill-opacity="1.0" stroke="rgb(0,0,0)" stroke-width="0.0" fill="rgb(0,126,156)" stroke-linecap="butt" stroke-miterlimit="10.0"><path d="M 187.8525,143.3448 c 0.0000,-1.3124 -1.0639,-2.3762 -2.3762 -2.3762c -1.3124,-0.0000 -2.3762,1.0639 -2.3762 2.3762c -0.0000,1.3124 1.0639,2.3762 2.3762 2.3762c 1.3124,0.0000 2.3762,-1.0639 2.3762 -2.3762Z"/></g><g stroke-linejoin="miter" stroke-opacity="1.0" fill-opacity="1.0" stroke="rgb(0,0,0)" stroke-width="0.0" fill="rgb(0,126,156)" stroke-linecap="butt" stroke-miterlimit="10.0"><path d="M 172.9975,156.6668 c 0.0000,-1.3124 -1.0639,-2.3762 -2.3762 -2.3762c -1.3124,-0.0000 -2.3762,1.0639 -2.3762 2.3762c -0.0000,1.3124 1.0639,2.3762 2.3762 2.3762c 1.3124,0.0000 2.3762,-1.0639 2.3762 -2.3762Z"/></g><g stroke-linejoin="miter" stroke-opacity="1.0" fill-opacity="1.0" stroke="rgb(0,0,0)" stroke-width="0.0" fill="rgb(0,126,156)" stroke-linecap="butt" stroke-miterlimit="10.0"><path d="M 148.3422,96.0812 c 0.0000,-1.3124 -1.0639,-2.3762 -2.3762 -2.3762c -1.3124,-0.0000 -2.3762,1.0639 -2.3762 2.3762c -0.0000,1.3124 1.0639,2.3762 2.3762 2.3762c 1.3124,0.0000 2.3762,-1.0639 2.3762 -2.3762Z"/></g><g stroke-linejoin="miter" stroke-opacity="1.0" fill-opacity="1.0" stroke="rgb(0,0,0)" stroke-width="0.0" fill="rgb(0,126,156)" stroke-linecap="butt" stroke-miterlimit="10.0"><path d="M 130.7047,85.1289 c 0.0000,-1.3124 -1.0639,-2.3762 -2.3762 -2.3762c -1.3124,-0.0000 -2.3762,1.0639 -2.3762 2.3762c -0.0000,1.3124 1.0639,2.3762 2.3762 2.3762c 1.3124,0.0000 2.3762,-1.0639 2.3762 -2.3762Z"/></g><g stroke-linejoin="miter" stroke-opacity="1.0" fill-opacity="1.0" stroke="rgb(0,0,0)" stroke-width="0.0" fill="rgb(0,126,156)" stroke-linecap="butt" stroke-miterlimit="10.0"><path d="M 110.5941,89.6539 c 0.0000,-1.3124 -1.0639,-2.3762 -2.3762 -2.3762c -1.3124,-0.0000 -2.3762,1.0639 -2.3762 2.3762c -0.0000,1.3124 1.0639,2.3762 2.3762 2.3762c 1.3124,0.0000 2.3762,-1.0639 2.3762 -2.3762Z"/></g><g stroke-linejoin="miter" stroke-opacity="1.0" fill-opacity="1.0" stroke="rgb(0,0,0)" stroke-width="0.0" fill="rgb(0,126,156)" stroke-linecap="butt" stroke-miterlimit="10.0"><path d="M 99.9442,94.7288 c 0.0000,-1.3124 -1.0639,-2.3762 -2.3762 -2.3762c -1.3124,-0.0000 -2.3762,1.0639 -2.3762 2.3762c -0.0000,1.3124 1.0639,2.3762 2.3762 2.3762c 1.3124,0.0000 2.3762,-1.0639 2.3762 -2.3762Z"/></g><g stroke-linejoin="miter" stroke-opacity="1.0" fill-opacity="1.0" stroke="rgb(0,0,0)" stroke-width="0.0" fill="rgb(0,126,156)" stroke-linecap="butt" stroke-miterlimit="10.0"><path d="M 157.4943,113.8562 c 0.0000,-1.3124 -1.0639,-2.3762 -2.3762 -2.3762c -1.3124,-0.0000 -2.3762,1.0639 -2.3762 2.3762c -0.0000,1.3124 1.0639,2.3762 2.3762 2.3762c 1.3124,0.0000 2.3762,-1.0639 2.3762 -2.3762Z"/></g><g stroke-linejoin="miter" stroke-opacity="1.0" fill-opacity="1.0" stroke="rgb(0,0,0)" stroke-width="0.0" fill="rgb(0,126,156)" stroke-linecap="butt" stroke-miterlimit="10.0"><path d="M 134.9114,107.8841 c 0.0000,-1.3124 -1.0639,-2.3762 -2.3762 -2.3762c -1.3124,-0.0000 -2.3762,1.0639 -2.3762 2.3762c -0.0000,1.3124 1.0639,2.3762 2.3762 2.3762c 1.3124,0.0000 2.3762,-1.0639 2.3762 -2.3762Z"/></g><g stroke-linejoin="miter" stroke-opacity="1.0" fill-opacity="1.0" stroke="rgb(0,0,0)" stroke-width="0.0" fill="rgb(0,126,156)" stroke-linecap="butt" stroke-miterlimit="10.0"><path d="M 112.3109,115.7556 c 0.0000,-1.3124 -1.0639,-2.3762 -2.3762 -2.3762c -1.3124,-0.0000 -2.3762,1.0639 -2.3762 2.3762c -0.0000,1.3124 1.0639,2.3762 2.3762 2.3762c 1.3124,0.0000 2.3762,-1.0639 2.3762 -2.3762Z"/></g><g stroke-linejoin="miter" stroke-opacity="1.0" fill-opacity="1.0" stroke="rgb(0,0,0)" stroke-width="0.0" fill="rgb(0,126,156)" stroke-linecap="butt" stroke-miterlimit="10.0"><path d="M 98.7301,106.9660 c 0.0000,-1.3124 -1.0639,-2.3762 -2.3762 -2.3762c -1.3124,-0.0000 -2.3762,1.0639 -2.3762 2.3762c -0.0000,1.3124 1.0639,2.3762 2.3762 2.3762c 1.3124,0.0000 2.3762,-1.0639 2.3762 -2.3762Z"/></g><g stroke-linejoin="miter" stroke-opacity="1.0" fill-opacity="1.0" stroke="rgb(0,0,0)" stroke-width="0.0" fill="rgb(0,126,156)" stroke-linecap="butt" stroke-miterlimit="10.0"><path d="M 152.6355,136.7504 c 0.0000,-1.3124 -1.0639,-2.3762 -2.3762 -2.3762c -1.3124,-0.0000 -2.3762,1.0639 -2.3762 2.3762c -0.0000,1.3124 1.0639,2.3762 2.3762 2.3762c 1.3124,0.0000 2.3762,-1.0639 2.3762 -2.3762Z"/></g><g stroke-linejoin="miter" stroke-opacity="1.0" fill-opacity="1.0" stroke="rgb(0,0,0)" stroke-width="0.0" fill="rgb(0,126,156)" stroke-linecap="butt" stroke-miterlimit="10.0"><path d="M 128.2011,125.0458 c 0.0000,-1.3124 -1.0639,-2.3762 -2.3762 -2.3762c -1.3124,-0.0000 -2.3762,1.0639 -2.3762 2.3762c -0.0000,1.3124 1.0639,2.3762 2.3762 2.3762c 1.3124,0.0000 2.3762,-1.0639 2.3762 -2.3762Z"/></g><g stroke-linejoin="miter" stroke-opacity="1.0" fill-opacity="1.0" stroke="rgb(0,0,0)" stroke-width="0.0" fill="rgb(0,126,156)" stroke-linecap="butt" stroke-miterlimit="10.0"><path d="M 116.2410,134.8801 c 0.0000,-1.3124 -1.0639,-2.3762 -2.3762 -2.3762c -1.3124,-0.0000 -2.3762,1.0639 -2.3762 2.3762c -0.0000,1.3124 1.0639,2.3762 2.3762 2.3762c 1.3124,0.0000 2.3762,-1.0639 2.3762 -2.3762Z"/></g><g stroke-linejoin="miter" stroke-opacity="1.0" fill-opacity="1.0" stroke="rgb(0,0,0)" stroke-width="0.0" fill="rgb(0,126,156)" stroke-linecap="butt" stroke-miterlimit="10.0"><path d="M 90.0828,129.0709 c 0.0000,-1.3124 -1.0639,-2.3762 -2.3762 -2.3762c -1.3124,-0.0000 -2.3762,1.0639 -2.3762 2.3762c -0.0000,1.3124 1.0639,2.3762 2.3762 2.3762c 1.3124,0.0000 2.3762,-1.0639 2.3762 -2.3762Z"/></g><g stroke-linejoin="miter" stroke-opacity="1.0" fill-opacity="1.0" stroke="rgb(0,0,0)" stroke-width="0.0" fill="rgb(0,126,156)" stroke-linecap="butt" stroke-miterlimit="10.0"><path d="M 153.9361,144.6815 c 0.0000,-1.3124 -1.0639,-2.3762 -2.3762 -2.3762c -1.3124,-0.0000 -2.3762,1.0639 -2.3762 2.3762c -0.0000,1.3124 1.0639,2.3762 2.3762 2.3762c 1.3124,0.0000 2.3762,-1.0639 2.3762 -2.3762Z"/></g><g stroke-linejoin="miter" stroke-opacity="1.0" fill-opacity="1.0" stroke="rgb(0,0,0)" stroke-width="0.0" fill="rgb(0,126,156)" stroke-linecap="butt" stroke-miterlimit="10.0"><path d="M 129.9534,149.9440 c 0.0000,-1.3124 -1.0639,-2.3762 -2.3762 -2.3762c -1.3124,-0.0000 -2.3762,1.0639 -2.3762 2.3762c -0.0000,1.3124 1.0639,2.3762 2.3762 2.3762c 1.3124,0.0000 2.3762,-1.0639 2.3762 -2.3762Z"/></g><g stroke-linejoin="miter" stroke-opacity="1.0" fill-opacity="1.0" stroke="rgb(0,0,0)" stroke-width="0.0" fill="rgb(0,126,156)" stroke-linecap="butt" stroke-miterlimit="10.0"><path d="M 114.7483,149.3054 c 0.0000,-1.3124 -1.0639,-2.3762 -2.3762 -2.3762c -1.3124,-0.0000 -2.3762,1.0639 -2.3762 2.3762c -0.0000,1.3124 1.0639,2.3762 2.3762 2.3762c 1.3124,0.0000 2.3762,-1.0639 2.3762 -2.3762Z"/></g><g stroke-linejoin="miter" stroke-opacity="1.0" fill-opacity="1.0" stroke="rgb(0,0,0)" stroke-width="0.0" fill="rgb(0,126,156)" stroke-linecap="butt" stroke-miterlimit="10.0"><path d="M 92.5019,152.0662 c 0.0000,-1.3124 -1.0639,-2.3762 -2.3762 -2.3762c -1.3124,-0.0000 -2.3762,1.0639 -2.3762 2.3762c -0.0000,1.3124 1.0639,2.3762 2.3762 2.3762c 1.3124,0.0000 2.3762,-1.0639 2.3762 -2.3762Z"/></g><g stroke-linejoin="miter" stroke-opacity="1.0" fill-opacity="1.0" stroke="rgb(0,0,0)" stroke-width="0.0" fill="rgb(0,126,156)" stroke-linecap="butt" stroke-miterlimit="10.0"><path d="M 75.7369,96.3550 c 0.0000,-1.3124 -1.0639,-2.3762 -2.3762 -2.3762c -1.3124,-0.0000 -2.3762,1.0639 -2.3762 2.3762c -0.0000,1.3124 1.0639,2.3762 2.3762 2.3762c 1.3124,0.0000 2.3762,-1.0639 2.3762 -2.3762Z"/></g><g stroke-linejoin="miter" stroke-opacity="1.0" fill-opacity="1.0" stroke="rgb(0,0,0)" stroke-width="0.0" fill="rgb(0,126,156)" stroke-linecap="butt" stroke-miterlimit="10.0"><path d="M 52.1785,96.7654 c 0.0000,-1.3124 -1.0639,-2.3762 -2.3762 -2.3762c -1.3124,-0.0000 -2.3762,1.0639 -2.3762 2.3762c -0.0000,1.3124 1.0639,2.3762 2.3762 2.3762c 1.3124,0.0000 2.3762,-1.0639 2.3762 -2.3762Z"/></g><g stroke-linejoin="miter" stroke-opacity="1.0" fill-opacity="1.0" stroke="rgb(0,0,0)" stroke-width="0.0" fill="rgb(0,126,156)" stroke-linecap="butt" stroke-miterlimit="10.0"><path d="M 28.5452,93.0581 c 0.0000,-1.3124 -1.0639,-2.3762 -2.3762 -2.3762c -1.3124,-0.0000 -2.3762,1.0639 -2.3762 2.3762c -0.0000,1.3124 1.0639,2.3762 2.3762 2.3762c 1.3124,0.0000 2.3762,-1.0639 2.3762 -2.3762Z"/></g><g stroke-linejoin="miter" stroke-opacity="1.0" fill-opacity="1.0" stroke="rgb(0,0,0)" stroke-width="0.0" fill="rgb(0,126,156)" stroke-linecap="butt" stroke-miterlimit="10.0"><path d="M 13.8917,84.4695 c 0.0000,-1.3124 -1.0639,-2.3762 -2.3762 -2.3762c -1.3124,-0.0000 -2.3762,1.0639 -2.3762 2.3762c -0.0000,1.3124 1.0639,2.3762 2.3762 2.3762c 1.3124,0.0000 2.3762,-1.0639 2.3762 -2.3762Z"/></g><g stroke-linejoin="miter" stroke-opacity="1.0" fill-opacity="1.0" stroke="rgb(0,0,0)" stroke-width="0.0" fill="rgb(0,126,156)" stroke-linecap="butt" stroke-miterlimit="10.0"><path d="M 68.5804,108.4686 c 0.0000,-1.3124 -1.0639,-2.3762 -2.3762 -2.3762c -1.3124,-0.0000 -2.3762,1.0639 -2.3762 2.3762c -0.0000,1.3124 1.0639,2.3762 2.3762 2.3762c 1.3124,0.0000 2.3762,-1.0639 2.3762 -2.3762Z"/></g><g stroke-linejoin="miter" stroke-opacity="1.0" fill-opacity="1.0" stroke="rgb(0,0,0)" stroke-width="0.0" fill="rgb(0,126,156)" stroke-linecap="butt" stroke-miterlimit="10.0"><path d="M 46.9762,111.2801 c 0.0000,-1.3124 -1.0639,-2.3762 -2.3762 -2.3762c -1.3124,-0.0000 -2.3762,1.0639 -2.3762 2.3762c -0.0000,1.3124 1.0639,2.3762 2.3762 2.3762c 1.3124,0.0000 2.3762,-1.0639 2.3762 -2.3762Z"/></g><g stroke-linejoin="miter" stroke-opacity="1.0" fill-opacity="1.0" stroke="rgb(0,0,0)" stroke-width="0.0" fill="rgb(0,126,156)" stroke-linecap="butt" stroke-miterlimit="10.0"><path d="M 29.4248,108.5063 c 0.0000,-1.3124 -1.0639,-2.3762 -2.3762 -2.3762c -1.3124,-0.0000 -2.3762,1.0639 -2.3762 2.3762c -0.0000,1.3124 1.0639,2.3762 2.3762 2.3762c 1.3124,0.0000 2.3762,-1.0639 2.3762 -2.3762Z"/></g><g stroke-linejoin="miter" stroke-opacity="1.0" fill-opacity="1.0" stroke="rgb(0,0,0)" stroke-width="0.0" fill="rgb(0,126,156)" stroke-linecap="butt" stroke-miterlimit="10.0"><path d="M 14.8535,108.1025 c 0.0000,-1.3124 -1.0639,-2.3762 -2.3762 -2.3762c -1.3124,-0.0000 -2.3762,1.0639 -2.3762 2.3762c -0.0000,1.3124 1.0639,2.3762 2.3762 2.3762c 1.3124,0.0000 2.3762,-1.0639 2.3762 -2.3762Z"/></g><g stroke-linejoin="miter" stroke-opacity="1.0" fill-opacity="1.0" stroke="rgb(0,0,0)" stroke-width="0.0" fill="rgb(0,126,156)" stroke-linecap="butt" stroke-miterlimit="10.0"><path d="M 78.7832,132.8747 c 0.0000,-1.3124 -1.0639,-2.3762 -2.3762 -2.3762c -1.3124,-0.0000 -2.3762,1.0639 -2.3762 2.3762c -0.0000,1.3124 1.0639,2.3762 2.3762 2.3762c 1.3124,0.0000 2.3762,-1.0639 2.3762 -2.3762Z"/></g><g stroke-linejoin="miter" stroke-opacity="1.0" fill-opacity="1.0" stroke="rgb(0,0,0)" stroke-width="0.0" fill="rgb(0,126,156)" stroke-linecap="butt" stroke-miterlimit="10.0"><path d="M 57.0789,132.7080 c 0.0000,-1.3124 -1.0639,-2.3762 -2.3762 -2.3762c -1.3124,-0.0000 -2.3762,1.0639 -2.3762 2.3762c -0.0000,1.3124 1.0639,2.3762 2.3762 2.3762c 1.3124,0.0000 2.3762,-1.0639 2.3762 -2.3762Z"/></g><g stroke-linejoin="miter" stroke-opacity="1.0" fill-opacity="1.0" stroke="rgb(0,0,0)" stroke-width="0.0" fill="rgb(0,126,156)" stroke-linecap="butt" stroke-miterlimit="10.0"><path d="M 40.3116,136.8901 c 0.0000,-1.3124 -1.0639,-2.3762 -2.3762 -2.3762c -1.3124,-0.0000 -2.3762,1.0639 -2.3762 2.3762c -0.0000,1.3124 1.0639,2.3762 2.3762 2.3762c 1.3124,0.0000 2.3762,-1.0639 2.3762 -2.3762Z"/></g><g stroke-linejoin="miter" stroke-opacity="1.0" fill-opacity="1.0" stroke="rgb(0,0,0)" stroke-width="0.0" fill="rgb(0,126,156)" stroke-linecap="butt" stroke-miterlimit="10.0"><path d="M 14.4437,127.6600 c 0.0000,-1.3124 -1.0639,-2.3762 -2.3762 -2.3762c -1.3124,-0.0000 -2.3762,1.0639 -2.3762 2.3762c -0.0000,1.3124 1.0639,2.3762 2.3762 2.3762c 1.3124,0.0000 2.3762,-1.0639 2.3762 -2.3762Z"/></g><g stroke-linejoin="miter" stroke-opacity="1.0" fill-opacity="1.0" stroke="rgb(0,0,0)" stroke-width="0.0" fill="rgb(0,126,156)" stroke-linecap="butt" stroke-miterlimit="10.0"><path d="M 70.6712,153.2861 c 0.0000,-1.3124 -1.0639,-2.3762 -2.3762 -2.3762c -1.3124,-0.0000 -2.3762,1.0639 -2.3762 2.3762c -0.0000,1.3124 1.0639,2.3762 2.3762 2.3762c 1.3124,0.0000 2.3762,-1.0639 2.3762 -2.3762Z"/></g><g stroke-linejoin="miter" stroke-opacity="1.0" fill-opacity="1.0" stroke="rgb(0,0,0)" stroke-width="0.0" fill="rgb(0,126,156)" stroke-linecap="butt" stroke-miterlimit="10.0"><path d="M 50.4560,145.4780 c 0.0000,-1.3124 -1.0639,-2.3762 -2.3762 -2.3762c -1.3124,-0.0000 -2.3762,1.0639 -2.3762 2.3762c -0.0000,1.3124 1.0639,2.3762 2.3762 2.3762c 1.3124,0.0000 2.3762,-1.0639 2.3762 -2.3762Z"/></g><g stroke-linejoin="miter" stroke-opacity="1.0" fill-opacity="1.0" stroke="rgb(0,0,0)" stroke-width="0.0" fill="rgb(0,126,156)" stroke-linecap="butt" stroke-miterlimit="10.0"><path d="M 37.3823,156.9879 c 0.0000,-1.3124 -1.0639,-2.3762 -2.3762 -2.3762c -1.3124,-0.0000 -2.3762,1.0639 -2.3762 2.3762c -0.0000,1.3124 1.0639,2.3762 2.3762 2.3762c 1.3124,0.0000 2.3762,-1.0639 2.3762 -2.3762Z"/></g><g stroke-linejoin="miter" stroke-opacity="1.0" fill-opacity="1.0" stroke="rgb(0,0,0)" stroke-width="0.0" fill="rgb(0,126,156)" stroke-linecap="butt" stroke-miterlimit="10.0"><path d="M 11.6900,144.2242 c 0.0000,-1.3124 -1.0639,-2.3762 -2.3762 -2.3762c -1.3124,-0.0000 -2.3762,1.0639 -2.3762 2.3762c -0.0000,1.3124 1.0639,2.3762 2.3762 2.3762c 1.3124,0.0000 2.3762,-1.0639 2.3762 -2.3762Z"/></g><g stroke-linejoin="miter" stroke-opacity="1.0" fill-opacity="1.0" stroke="rgb(0,0,0)" stroke-width="0.0" fill="rgb(0,126,156)" stroke-linecap="butt" stroke-miterlimit="10.0"><path d="M 315.8432,175.7907 c 0.0000,-1.3124 -1.0639,-2.3762 -2.3762 -2.3762c -1.3124,-0.0000 -2.3762,1.0639 -2.3762 2.3762c -0.0000,1.3124 1.0639,2.3762 2.3762 2.3762c 1.3124,0.0000 2.3762,-1.0639 2.3762 -2.3762Z"/></g><g stroke-linejoin="miter" stroke-opacity="1.0" fill-opacity="1.0" stroke="rgb(0,0,0)" stroke-width="0.0" fill="rgb(0,126,156)" stroke-linecap="butt" stroke-miterlimit="10.0"><path d="M 296.3842,168.4150 c 0.0000,-1.3124 -1.0639,-2.3762 -2.3762 -2.3762c -1.3124,-0.0000 -2.3762,1.0639 -2.3762 2.3762c -0.0000,1.3124 1.0639,2.3762 2.3762 2.3762c 1.3124,0.0000 2.3762,-1.0639 2.3762 -2.3762Z"/></g><g stroke-linejoin="miter" stroke-opacity="1.0" fill-opacity="1.0" stroke="rgb(0,0,0)" stroke-width="0.0" fill="rgb(0,126,156)" stroke-linecap="butt" stroke-miterlimit="10.0"><path d="M 266.7903,173.6135 c 0.0000,-1.3124 -1.0639,-2.3762 -2.3762 -2.3762c -1.3124,-0.0000 -2.3762,1.0639 -2.3762 2.3762c -0.0000,1.3124 1.0639,2.3762 2.3762 2.3762c 1.3124,0.0000 2.3762,-1.0639 2.3762 -2.3762Z"/></g><g stroke-linejoin="miter" stroke-opacity="1.0" fill-opacity="1.0" stroke="rgb(0,0,0)" stroke-width="0.0" fill="rgb(0,126,156)" stroke-linecap="butt" stroke-miterlimit="10.0"><path d="M 250.0254,172.9118 c 0.0000,-1.3124 -1.0639,-2.3762 -2.3762 -2.3762c -1.3124,-0.0000 -2.3762,1.0639 -2.3762 2.3762c -0.0000,1.3124 1.0639,2.3762 2.3762 2.3762c 1.3124,0.0000 2.3762,-1.0639 2.3762 -2.3762Z"/></g><g stroke-linejoin="miter" stroke-opacity="1.0" fill-opacity="1.0" stroke="rgb(0,0,0)" stroke-width="0.0" fill="rgb(0,126,156)" stroke-linecap="butt" stroke-miterlimit="10.0"><path d="M 309.8945,184.3976 c 0.0000,-1.3124 -1.0639,-2.3762 -2.3762 -2.3762c -1.3124,-0.0000 -2.3762,1.0639 -2.3762 2.3762c -0.0000,1.3124 1.0639,2.3762 2.3762 2.3762c 1.3124,0.0000 2.3762,-1.0639 2.3762 -2.3762Z"/></g><g stroke-linejoin="miter" stroke-opacity="1.0" fill-opacity="1.0" stroke="rgb(0,0,0)" stroke-width="0.0" fill="rgb(0,126,156)" stroke-linecap="butt" stroke-miterlimit="10.0"><path d="M 289.4616,186.4743 c 0.0000,-1.3124 -1.0639,-2.3762 -2.3762 -2.3762c -1.3124,-0.0000 -2.3762,1.0639 -2.3762 2.3762c -0.0000,1.3124 1.0639,2.3762 2.3762 2.3762c 1.3124,0.0000 2.3762,-1.0639 2.3762 -2.3762Z"/></g><g stroke-linejoin="miter" stroke-opacity="1.0" fill-opacity="1.0" stroke="rgb(0,0,0)" stroke-width="0.0" fill="rgb(0,126,156)" stroke-linecap="butt" stroke-miterlimit="10.0"><path d="M 265.9957,193.3022 c 0.0000,-1.3124 -1.0639,-2.3762 -2.3762 -2.3762c -1.3124,-0.0000 -2.3762,1.0639 -2.3762 2.3762c -0.0000,1.3124 1.0639,2.3762 2.3762 2.3762c 1.3124,0.0000 2.3762,-1.0639 2.3762 -2.3762Z"/></g><g stroke-linejoin="miter" stroke-opacity="1.0" fill-opacity="1.0" stroke="rgb(0,0,0)" stroke-width="0.0" fill="rgb(0,126,156)" stroke-linecap="butt" stroke-miterlimit="10.0"><path d="M 247.8501,185.1222 c 0.0000,-1.3124 -1.0639,-2.3762 -2.3762 -2.3762c -1.3124,-0.0000 -2.3762,1.0639 -2.3762 2.3762c -0.0000,1.3124 1.0639,2.3762 2.3762 2.3762c 1.3124,0.0000 2.3762,-1.0639 2.3762 -2.3762Z"/></g><g stroke-linejoin="miter" stroke-opacity="1.0" fill-opacity="1.0" stroke="rgb(0,0,0)" stroke-width="0.0" fill="rgb(0,126,156)" stroke-linecap="butt" stroke-miterlimit="10.0"><path d="M 304.3067,205.3344 c 0.0000,-1.3124 -1.0639,-2.3762 -2.3762 -2.3762c -1.3124,-0.0000 -2.3762,1.0639 -2.3762 2.3762c -0.0000,1.3124 1.0639,2.3762 2.3762 2.3762c 1.3124,0.0000 2.3762,-1.0639 2.3762 -2.3762Z"/></g><g stroke-linejoin="miter" stroke-opacity="1.0" fill-opacity="1.0" stroke="rgb(0,0,0)" stroke-width="0.0" fill="rgb(0,126,156)" stroke-linecap="butt" stroke-miterlimit="10.0"><path d="M 288.2307,214.2622 c 0.0000,-1.3124 -1.0639,-2.3762 -2.3762 -2.3762c -1.3124,-0.0000 -2.3762,1.0639 -2.3762 2.3762c -0.0000,1.3124 1.0639,2.3762 2.3762 2.3762c 1.3124,0.0000 2.3762,-1.0639 2.3762 -2.3762Z"/></g><g stroke-linejoin="miter" stroke-opacity="1.0" fill-opacity="1.0" stroke="rgb(0,0,0)" stroke-width="0.0" fill="rgb(0,126,156)" stroke-linecap="butt" stroke-miterlimit="10.0"><path d="M 274.2899,205.5438 c 0.0000,-1.3124 -1.0639,-2.3762 -2.3762 -2.3762c -1.3124,-0.0000 -2.3762,1.0639 -2.3762 2.3762c -0.0000,1.3124 1.0639,2.3762 2.3762 2.3762c 1.3124,0.0000 2.3762,-1.0639 2.3762 -2.3762Z"/></g><g stroke-linejoin="miter" stroke-opacity="1.0" fill-opacity="1.0" stroke="rgb(0,0,0)" stroke-width="0.0" fill="rgb(0,126,156)" stroke-linecap="butt" stroke-miterlimit="10.0"><path d="M 247.4302,210.9516 c 0.0000,-1.3124 -1.0639,-2.3762 -2.3762 -2.3762c -1.3124,-0.0000 -2.3762,1.0639 -2.3762 2.3762c -0.0000,1.3124 1.0639,2.3762 2.3762 2.3762c 1.3124,0.0000 2.3762,-1.0639 2.3762 -2.3762Z"/></g><g stroke-linejoin="miter" stroke-opacity="1.0" fill-opacity="1.0" stroke="rgb(0,0,0)" stroke-width="0.0" fill="rgb(0,126,156)" stroke-linecap="butt" stroke-miterlimit="10.0"><path d="M 306.2201,226.4433 c 0.0000,-1.3124 -1.0639,-2.3762 -2.3762 -2.3762c -1.3124,-0.0000 -2.3762,1.0639 -2.3762 2.3762c -0.0000,1.3124 1.0639,2.3762 2.3762 2.3762c 1.3124,0.0000 2.3762,-1.0639 2.3762 -2.3762Z"/></g><g stroke-linejoin="miter" stroke-opacity="1.0" fill-opacity="1.0" stroke="rgb(0,0,0)" stroke-width="0.0" fill="rgb(0,126,156)" stroke-linecap="butt" stroke-miterlimit="10.0"><path d="M 294.6490,227.1527 c 0.0000,-1.3124 -1.0639,-2.3762 -2.3762 -2.3762c -1.3124,-0.0000 -2.3762,1.0639 -2.3762 2.3762c -0.0000,1.3124 1.0639,2.3762 2.3762 2.3762c 1.3124,0.0000 2.3762,-1.0639 2.3762 -2.3762Z"/></g><g stroke-linejoin="miter" stroke-opacity="1.0" fill-opacity="1.0" stroke="rgb(0,0,0)" stroke-width="0.0" fill="rgb(0,126,156)" stroke-linecap="butt" stroke-miterlimit="10.0"><path d="M 275.7294,226.9022 c 0.0000,-1.3124 -1.0639,-2.3762 -2.3762 -2.3762c -1.3124,-0.0000 -2.3762,1.0639 -2.3762 2.3762c -0.0000,1.3124 1.0639,2.3762 2.3762 2.3762c 1.3124,0.0000 2.3762,-1.0639 2.3762 -2.3762Z"/></g><g stroke-linejoin="miter" stroke-opacity="1.0" fill-opacity="1.0" stroke="rgb(0,0,0)" stroke-width="0.0" fill="rgb(0,126,156)" stroke-linecap="butt" stroke-miterlimit="10.0"><path d="M 251.2479,222.8390 c 0.0000,-1.3124 -1.0639,-2.3762 -2.3762 -2.3762c -1.3124,-0.0000 -2.3762,1.0639 -2.3762 2.3762c -0.0000,1.3124 1.0639,2.3762 2.3762 2.3762c 1.3124,0.0000 2.3762,-1.0639 2.3762 -2.3762Z"/></g><g stroke-linejoin="miter" stroke-opacity="1.0" fill-opacity="1.0" stroke="rgb(0,0,0)" stroke-width="0.0" fill="rgb(0,126,156)" stroke-linecap="butt" stroke-miterlimit="10.0"><path d="M 236.2356,175.0296 c 0.0000,-1.3124 -1.0639,-2.3762 -2.3762 -2.3762c -1.3124,-0.0000 -2.3762,1.0639 -2.3762 2.3762c -0.0000,1.3124 1.0639,2.3762 2.3762 2.3762c 1.3124,0.0000 2.3762,-1.0639 2.3762 -2.3762Z"/></g><g stroke-linejoin="miter" stroke-opacity="1.0" fill-opacity="1.0" stroke="rgb(0,0,0)" stroke-width="0.0" fill="rgb(0,126,156)" stroke-linecap="butt" stroke-miterlimit="10.0"><path d="M 214.4190,166.8036 c 0.0000,-1.3124 -1.0639,-2.3762 -2.3762 -2.3762c -1.3124,-0.0000 -2.3762,1.0639 -2.3762 2.3762c -0.0000,1.3124 1.0639,2.3762 2.3762 2.3762c 1.3124,0.0000 2.3762,-1.0639 2.3762 -2.3762Z"/></g><g stroke-linejoin="miter" stroke-opacity="1.0" fill-opacity="1.0" stroke="rgb(0,0,0)" stroke-width="0.0" fill="rgb(0,126,156)" stroke-linecap="butt" stroke-miterlimit="10.0"><path d="M 198.8011,168.5475 c 0.0000,-1.3124 -1.0639,-2.3762 -2.3762 -2.3762c -1.3124,-0.0000 -2.3762,1.0639 -2.3762 2.3762c -0.0000,1.3124 1.0639,2.3762 2.3762 2.3762c 1.3124,0.0000 2.3762,-1.0639 2.3762 -2.3762Z"/></g><g stroke-linejoin="miter" stroke-opacity="1.0" fill-opacity="1.0" stroke="rgb(0,0,0)" stroke-width="0.0" fill="rgb(0,126,156)" stroke-linecap="butt" stroke-miterlimit="10.0"><path d="M 171.9731,174.0948 c 0.0000,-1.3124 -1.0639,-2.3762 -2.3762 -2.3762c -1.3124,-0.0000 -2.3762,1.0639 -2.3762 2.3762c -0.0000,1.3124 1.0639,2.3762 2.3762 2.3762c 1.3124,0.0000 2.3762,-1.0639 2.3762 -2.3762Z"/></g><g stroke-linejoin="miter" stroke-opacity="1.0" fill-opacity="1.0" stroke="rgb(0,0,0)" stroke-width="0.0" fill="rgb(0,126,156)" stroke-linecap="butt" stroke-miterlimit="10.0"><path d="M 224.9993,188.9715 c 0.0000,-1.3124 -1.0639,-2.3762 -2.3762 -2.3762c -1.3124,-0.0000 -2.3762,1.0639 -2.3762 2.3762c -0.0000,1.3124 1.0639,2.3762 2.3762 2.3762c 1.3124,0.0000 2.3762,-1.0639 2.3762 -2.3762Z"/></g><g stroke-linejoin="miter" stroke-opacity="1.0" fill-opacity="1.0" stroke="rgb(0,0,0)" stroke-width="0.0" fill="rgb(0,126,156)" stroke-linecap="butt" stroke-miterlimit="10.0"><path d="M 214.7440,190.7248 c 0.0000,-1.3124 -1.0639,-2.3762 -2.3762 -2.3762c -1.3124,-0.0000 -2.3762,1.0639 -2.3762 2.3762c -0.0000,1.3124 1.0639,2.3762 2.3762 2.3762c 1.3124,0.0000 2.3762,-1.0639 2.3762 -2.3762Z"/></g><g stroke-linejoin="miter" stroke-opacity="1.0" fill-opacity="1.0" stroke="rgb(0,0,0)" stroke-width="0.0" fill="rgb(0,126,156)" stroke-linecap="butt" stroke-miterlimit="10.0"><path d="M 186.0489,193.2045 c 0.0000,-1.3124 -1.0639,-2.3762 -2.3762 -2.3762c -1.3124,-0.0000 -2.3762,1.0639 -2.3762 2.3762c -0.0000,1.3124 1.0639,2.3762 2.3762 2.3762c 1.3124,0.0000 2.3762,-1.0639 2.3762 -2.3762Z"/></g><g stroke-linejoin="miter" stroke-opacity="1.0" fill-opacity="1.0" stroke="rgb(0,0,0)" stroke-width="0.0" fill="rgb(0,126,156)" stroke-linecap="butt" stroke-miterlimit="10.0"><path d="M 174.7741,184.1970 c 0.0000,-1.3124 -1.0639,-2.3762 -2.3762 -2.3762c -1.3124,-0.0000 -2.3762,1.0639 -2.3762 2.3762c -0.0000,1.3124 1.0639,2.3762 2.3762 2.3762c 1.3124,0.0000 2.3762,-1.0639 2.3762 -2.3762Z"/></g><g stroke-linejoin="miter" stroke-opacity="1.0" fill-opacity="1.0" stroke="rgb(0,0,0)" stroke-width="0.0" fill="rgb(0,126,156)" stroke-linecap="butt" stroke-miterlimit="10.0"><path d="M 232.0633,210.8604 c 0.0000,-1.3124 -1.0639,-2.3762 -2.3762 -2.3762c -1.3124,-0.0000 -2.3762,1.0639 -2.3762 2.3762c -0.0000,1.3124 1.0639,2.3762 2.3762 2.3762c 1.3124,0.0000 2.3762,-1.0639 2.3762 -2.3762Z"/></g><g stroke-linejoin="miter" stroke-opacity="1.0" fill-opacity="1.0" stroke="rgb(0,0,0)" stroke-width="0.0" fill="rgb(0,126,156)" stroke-linecap="butt" stroke-miterlimit="10.0"><path d="M 213.1331,210.3371 c 0.0000,-1.3124 -1.0639,-2.3762 -2.3762 -2.3762c -1.3124,-0.0000 -2.3762,1.0639 -2.3762 2.3762c -0.0000,1.3124 1.0639,2.3762 2.3762 2.3762c 1.3124,0.0000 2.3762,-1.0639 2.3762 -2.3762Z"/></g><g stroke-linejoin="miter" stroke-opacity="1.0" fill-opacity="1.0" stroke="rgb(0,0,0)" stroke-width="0.0" fill="rgb(0,126,156)" stroke-linecap="butt" stroke-miterlimit="10.0"><path d="M 187.1762,216.0270 c 0.0000,-1.3124 -1.0639,-2.3762 -2.3762 -2.3762c -1.3124,-0.0000 -2.3762,1.0639 -2.3762 2.3762c -0.0000,1.3124 1.0639,2.3762 2.3762 2.3762c 1.3124,0.0000 2.3762,-1.0639 2.3762 -2.3762Z"/></g><g stroke-linejoin="miter" stroke-opacity="1.0" fill-opacity="1.0" stroke="rgb(0,0,0)" stroke-width="0.0" fill="rgb(0,126,156)" stroke-linecap="butt" stroke-miterlimit="10.0"><path d="M 167.4205,213.6659 c 0.0000,-1.3124 -1.0639,-2.3762 -2.3762 -2.3762c -1.3124,-0.0000 -2.3762,1.0639 -2.3762 2.3762c -0.0000,1.3124 1.0639,2.3762 2.3762 2.3762c 1.3124,0.0000 2.3762,-1.0639 2.3762 -2.3762Z"/></g><g stroke-linejoin="miter" stroke-opacity="1.0" fill-opacity="1.0" stroke="rgb(0,0,0)" stroke-width="0.0" fill="rgb(0,126,156)" stroke-linecap="butt" stroke-miterlimit="10.0"><path d="M 236.6363,228.4203 c 0.0000,-1.3124 -1.0639,-2.3762 -2.3762 -2.3762c -1.3124,-0.0000 -2.3762,1.0639 -2.3762 2.3762c -0.0000,1.3124 1.0639,2.3762 2.3762 2.3762c 1.3124,0.0000 2.3762,-1.0639 2.3762 -2.3762Z"/></g><g stroke-linejoin="miter" stroke-opacity="1.0" fill-opacity="1.0" stroke="rgb(0,0,0)" stroke-width="0.0" fill="rgb(0,126,156)" stroke-linecap="butt" stroke-miterlimit="10.0"><path d="M 216.7377,224.0581 c 0.0000,-1.3124 -1.0639,-2.3762 -2.3762 -2.3762c -1.3124,-0.0000 -2.3762,1.0639 -2.3762 2.3762c -0.0000,1.3124 1.0639,2.3762 2.3762 2.3762c 1.3124,0.0000 2.3762,-1.0639 2.3762 -2.3762Z"/></g><g stroke-linejoin="miter" stroke-opacity="1.0" fill-opacity="1.0" stroke="rgb(0,0,0)" stroke-width="0.0" fill="rgb(0,126,156)" stroke-linecap="butt" stroke-miterlimit="10.0"><path d="M 197.0857,234.1688 c 0.0000,-1.3124 -1.0639,-2.3762 -2.3762 -2.3762c -1.3124,-0.0000 -2.3762,1.0639 -2.3762 2.3762c -0.0000,1.3124 1.0639,2.3762 2.3762 2.3762c 1.3124,0.0000 2.3762,-1.0639 2.3762 -2.3762Z"/></g><g stroke-linejoin="miter" stroke-opacity="1.0" fill-opacity="1.0" stroke="rgb(0,0,0)" stroke-width="0.0" fill="rgb(0,126,156)" stroke-linecap="butt" stroke-miterlimit="10.0"><path d="M 169.7311,224.4965 c 0.0000,-1.3124 -1.0639,-2.3762 -2.3762 -2.3762c -1.3124,-0.0000 -2.3762,1.0639 -2.3762 2.3762c -0.0000,1.3124 1.0639,2.3762 2.3762 2.3762c 1.3124,0.0000 2.3762,-1.0639 2.3762 -2.3762Z"/></g><g stroke-linejoin="miter" stroke-opacity="1.0" fill-opacity="1.0" stroke="rgb(0,0,0)" stroke-width="0.0" fill="rgb(0,126,156)" stroke-linecap="butt" stroke-miterlimit="10.0"><path d="M 154.9448,175.5630 c 0.0000,-1.3124 -1.0639,-2.3762 -2.3762 -2.3762c -1.3124,-0.0000 -2.3762,1.0639 -2.3762 2.3762c -0.0000,1.3124 1.0639,2.3762 2.3762 2.3762c 1.3124,0.0000 2.3762,-1.0639 2.3762 -2.3762Z"/></g><g stroke-linejoin="miter" stroke-opacity="1.0" fill-opacity="1.0" stroke="rgb(0,0,0)" stroke-width="0.0" fill="rgb(0,126,156)" stroke-linecap="butt" stroke-miterlimit="10.0"><path d="M 131.3864,175.9733 c 0.0000,-1.3124 -1.0639,-2.3762 -2.3762 -2.3762c -1.3124,-0.0000 -2.3762,1.0639 -2.3762 2.3762c -0.0000,1.3124 1.0639,2.3762 2.3762 2.3762c 1.3124,0.0000 2.3762,-1.0639 2.3762 -2.3762Z"/></g><g stroke-linejoin="miter" stroke-opacity="1.0" fill-opacity="1.0" stroke="rgb(0,0,0)" stroke-width="0.0" fill="rgb(0,126,156)" stroke-linecap="butt" stroke-miterlimit="10.0"><path d="M 107.7531,172.2660 c 0.0000,-1.3124 -1.0639,-2.3762 -2.3762 -2.3762c -1.3124,-0.0000 -2.3762,1.0639 -2.3762 2.3762c -0.0000,1.3124 1.0639,2.3762 2.3762 2.3762c 1.3124,0.0000 2.3762,-1.0639 2.3762 -2.3762Z"/></g><g stroke-linejoin="miter" stroke-opacity="1.0" fill-opacity="1.0" stroke="rgb(0,0,0)" stroke-width="0.0" fill="rgb(0,126,156)" stroke-linecap="butt" stroke-miterlimit="10.0"><path d="M 93.0996,163.6774 c 0.0000,-1.3124 -1.0639,-2.3762 -2.3762 -2.3762c -1.3124,-0.0000 -2.3762,1.0639 -2.3762 2.3762c -0.0000,1.3124 1.0639,2.3762 2.3762 2.3762c 1.3124,0.0000 2.3762,-1.0639 2.3762 -2.3762Z"/></g><g stroke-linejoin="miter" stroke-opacity="1.0" fill-opacity="1.0" stroke="rgb(0,0,0)" stroke-width="0.0" fill="rgb(0,126,156)" stroke-linecap="butt" stroke-miterlimit="10.0"><path d="M 147.7883,187.6765 c 0.0000,-1.3124 -1.0639,-2.3762 -2.3762 -2.3762c -1.3124,-0.0000 -2.3762,1.0639 -2.3762 2.3762c -0.0000,1.3124 1.0639,2.3762 2.3762 2.3762c 1.3124,0.0000 2.3762,-1.0639 2.3762 -2.3762Z"/></g><g stroke-linejoin="miter" stroke-opacity="1.0" fill-opacity="1.0" stroke="rgb(0,0,0)" stroke-width="0.0" fill="rgb(0,126,156)" stroke-linecap="butt" stroke-miterlimit="10.0"><path d="M 126.1841,190.4880 c 0.0000,-1.3124 -1.0639,-2.3762 -2.3762 -2.3762c -1.3124,-0.0000 -2.3762,1.0639 -2.3762 2.3762c -0.0000,1.3124 1.0639,2.3762 2.3762 2.3762c 1.3124,0.0000 2.3762,-1.0639 2.3762 -2.3762Z"/></g><g stroke-linejoin="miter" stroke-opacity="1.0" fill-opacity="1.0" stroke="rgb(0,0,0)" stroke-width="0.0" fill="rgb(0,126,156)" stroke-linecap="butt" stroke-miterlimit="10.0"><path d="M 108.6327,187.7142 c 0.0000,-1.3124 -1.0639,-2.3762 -2.3762 -2.3762c -1.3124,-0.0000 -2.3762,1.0639 -2.3762 2.3762c -0.0000,1.3124 1.0639,2.3762 2.3762 2.3762c 1.3124,0.0000 2.3762,-1.0639 2.3762 -2.3762Z"/></g><g stroke-linejoin="miter" stroke-opacity="1.0" fill-opacity="1.0" stroke="rgb(0,0,0)" stroke-width="0.0" fill="rgb(0,126,156)" stroke-linecap="butt" stroke-miterlimit="10.0"><path d="M 94.0615,187.3104 c 0.0000,-1.3124 -1.0639,-2.3762 -2.3762 -2.3762c -1.3124,-0.0000 -2.3762,1.0639 -2.3762 2.3762c -0.0000,1.3124 1.0639,2.3762 2.3762 2.3762c 1.3124,0.0000 2.3762,-1.0639 2.3762 -2.3762Z"/></g><g stroke-linejoin="miter" stroke-opacity="1.0" fill-opacity="1.0" stroke="rgb(0,0,0)" stroke-width="0.0" fill="rgb(0,126,156)" stroke-linecap="butt" stroke-miterlimit="10.0"><path d="M 157.9911,212.0826 c 0.0000,-1.3124 -1.0639,-2.3762 -2.3762 -2.3762c -1.3124,-0.0000 -2.3762,1.0639 -2.3762 2.3762c -0.0000,1.3124 1.0639,2.3762 2.3762 2.3762c 1.3124,0.0000 2.3762,-1.0639 2.3762 -2.3762Z"/></g><g stroke-linejoin="miter" stroke-opacity="1.0" fill-opacity="1.0" stroke="rgb(0,0,0)" stroke-width="0.0" fill="rgb(0,126,156)" stroke-linecap="butt" stroke-miterlimit="10.0"><path d="M 136.2869,211.9159 c 0.0000,-1.3124 -1.0639,-2.3762 -2.3762 -2.3762c -1.3124,-0.0000 -2.3762,1.0639 -2.3762 2.3762c -0.0000,1.3124 1.0639,2.3762 2.3762 2.3762c 1.3124,0.0000 2.3762,-1.0639 2.3762 -2.3762Z"/></g><g stroke-linejoin="miter" stroke-opacity="1.0" fill-opacity="1.0" stroke="rgb(0,0,0)" stroke-width="0.0" fill="rgb(0,126,156)" stroke-linecap="butt" stroke-miterlimit="10.0"><path d="M 119.5195,216.0981 c 0.0000,-1.3124 -1.0639,-2.3762 -2.3762 -2.3762c -1.3124,-0.0000 -2.3762,1.0639 -2.3762 2.3762c -0.0000,1.3124 1.0639,2.3762 2.3762 2.3762c 1.3124,0.0000 2.3762,-1.0639 2.3762 -2.3762Z"/></g><g stroke-linejoin="miter" stroke-opacity="1.0" fill-opacity="1.0" stroke="rgb(0,0,0)" stroke-width="0.0" fill="rgb(0,126,156)" stroke-linecap="butt" stroke-miterlimit="10.0"><path d="M 93.6516,206.8679 c 0.0000,-1.3124 -1.0639,-2.3762 -2.3762 -2.3762c -1.3124,-0.0000 -2.3762,1.0639 -2.3762 2.3762c -0.0000,1.3124 1.0639,2.3762 2.3762 2.3762c 1.3124,0.0000 2.3762,-1.0639 2.3762 -2.3762Z"/></g><g stroke-linejoin="miter" stroke-opacity="1.0" fill-opacity="1.0" stroke="rgb(0,0,0)" stroke-width="0.0" fill="rgb(0,126,156)" stroke-linecap="butt" stroke-miterlimit="10.0"><path d="M 149.8791,232.4941 c 0.0000,-1.3124 -1.0639,-2.3762 -2.3762 -2.3762c -1.3124,-0.0000 -2.3762,1.0639 -2.3762 2.3762c -0.0000,1.3124 1.0639,2.3762 2.3762 2.3762c 1.3124,0.0000 2.3762,-1.0639 2.3762 -2.3762Z"/></g><g stroke-linejoin="miter" stroke-opacity="1.0" fill-opacity="1.0" stroke="rgb(0,0,0)" stroke-width="0.0" fill="rgb(0,126,156)" stroke-linecap="butt" stroke-miterlimit="10.0"><path d="M 129.6639,224.6859 c 0.0000,-1.3124 -1.0639,-2.3762 -2.3762 -2.3762c -1.3124,-0.0000 -2.3762,1.0639 -2.3762 2.3762c -0.0000,1.3124 1.0639,2.3762 2.3762 2.3762c 1.3124,0.0000 2.3762,-1.0639 2.3762 -2.3762Z"/></g><g stroke-linejoin="miter" stroke-opacity="1.0" fill-opacity="1.0" stroke="rgb(0,0,0)" stroke-width="0.0" fill="rgb(0,126,156)" stroke-linecap="butt" stroke-miterlimit="10.0"><path d="M 116.5902,236.1958 c 0.0000,-1.3124 -1.0639,-2.3762 -2.3762 -2.3762c -1.3124,-0.0000 -2.3762,1.0639 -2.3762 2.3762c -0.0000,1.3124 1.0639,2.3762 2.3762 2.3762c 1.3124,0.0000 2.3762,-1.0639 2.3762 -2.3762Z"/></g><g stroke-linejoin="miter" stroke-opacity="1.0" fill-opacity="1.0" stroke="rgb(0,0,0)" stroke-width="0.0" fill="rgb(0,126,156)" stroke-linecap="butt" stroke-miterlimit="10.0"><path d="M 90.8979,223.4321 c 0.0000,-1.3124 -1.0639,-2.3762 -2.3762 -2.3762c -1.3124,-0.0000 -2.3762,1.0639 -2.3762 2.3762c -0.0000,1.3124 1.0639,2.3762 2.3762 2.3762c 1.3124,0.0000 2.3762,-1.0639 2.3762 -2.3762Z"/></g><g stroke-linejoin="miter" stroke-opacity="1.0" fill-opacity="1.0" stroke="rgb(0,0,0)" stroke-width="0.0" fill="rgb(0,126,156)" stroke-linecap="butt" stroke-miterlimit="10.0"><path d="M 73.2803,166.5757 c 0.0000,-1.3124 -1.0639,-2.3762 -2.3762 -2.3762c -1.3124,-0.0000 -2.3762,1.0639 -2.3762 2.3762c -0.0000,1.3124 1.0639,2.3762 2.3762 2.3762c 1.3124,0.0000 2.3762,-1.0639 2.3762 -2.3762Z"/></g><g stroke-linejoin="miter" stroke-opacity="1.0" fill-opacity="1.0" stroke="rgb(0,0,0)" stroke-width="0.0" fill="rgb(0,126,156)" stroke-linecap="butt" stroke-miterlimit="10.0"><path d="M 46.5543,164.4564 c 0.0000,-1.3124 -1.0639,-2.3762 -2.3762 -2.3762c -1.3124,-0.0000 -2.3762,1.0639 -2.3762 2.3762c -0.0000,1.3124 1.0639,2.3762 2.3762 2.3762c 1.3124,0.0000 2.3762,-1.0639 2.3762 -2.3762Z"/></g><g stroke-linejoin="miter" stroke-opacity="1.0" fill-opacity="1.0" stroke="rgb(0,0,0)" stroke-width="0.0" fill="rgb(0,126,156)" stroke-linecap="butt" stroke-miterlimit="10.0"><path d="M 36.8187,173.9129 c 0.0000,-1.3124 -1.0639,-2.3762 -2.3762 -2.3762c -1.3124,-0.0000 -2.3762,1.0639 -2.3762 2.3762c -0.0000,1.3124 1.0639,2.3762 2.3762 2.3762c 1.3124,0.0000 2.3762,-1.0639 2.3762 -2.3762Z"/></g><g stroke-linejoin="miter" stroke-opacity="1.0" fill-opacity="1.0" stroke="rgb(0,0,0)" stroke-width="0.0" fill="rgb(0,126,156)" stroke-linecap="butt" stroke-miterlimit="10.0"><path d="M 13.4044,171.1728 c 0.0000,-1.3124 -1.0639,-2.3762 -2.3762 -2.3762c -1.3124,-0.0000 -2.3762,1.0639 -2.3762 2.3762c -0.0000,1.3124 1.0639,2.3762 2.3762 2.3762c 1.3124,0.0000 2.3762,-1.0639 2.3762 -2.3762Z"/></g><g stroke-linejoin="miter" stroke-opacity="1.0" fill-opacity="1.0" stroke="rgb(0,0,0)" stroke-width="0.0" fill="rgb(0,126,156)" stroke-linecap="butt" stroke-miterlimit="10.0"><path d="M 66.4307,192.4367 c 0.0000,-1.3124 -1.0639,-2.3762 -2.3762 -2.3762c -1.3124,-0.0000 -2.3762,1.0639 -2.3762 2.3762c -0.0000,1.3124 1.0639,2.3762 2.3762 2.3762c 1.3124,0.0000 2.3762,-1.0639 2.3762 -2.3762Z"/></g><g stroke-linejoin="miter" stroke-opacity="1.0" fill-opacity="1.0" stroke="rgb(0,0,0)" stroke-width="0.0" fill="rgb(0,126,156)" stroke-linecap="butt" stroke-miterlimit="10.0"><path d="M 56.4933,184.8757 c 0.0000,-1.3124 -1.0639,-2.3762 -2.3762 -2.3762c -1.3124,-0.0000 -2.3762,1.0639 -2.3762 2.3762c -0.0000,1.3124 1.0639,2.3762 2.3762 2.3762c 1.3124,0.0000 2.3762,-1.0639 2.3762 -2.3762Z"/></g><g stroke-linejoin="miter" stroke-opacity="1.0" fill-opacity="1.0" stroke="rgb(0,0,0)" stroke-width="0.0" fill="rgb(0,126,156)" stroke-linecap="butt" stroke-miterlimit="10.0"><path d="M 39.6394,195.8214 c 0.0000,-1.3124 -1.0639,-2.3762 -2.3762 -2.3762c -1.3124,-0.0000 -2.3762,1.0639 -2.3762 2.3762c -0.0000,1.3124 1.0639,2.3762 2.3762 2.3762c 1.3124,0.0000 2.3762,-1.0639 2.3762 -2.3762Z"/></g><g stroke-linejoin="miter" stroke-opacity="1.0" fill-opacity="1.0" stroke="rgb(0,0,0)" stroke-width="0.0" fill="rgb(0,126,156)" stroke-linecap="butt" stroke-miterlimit="10.0"><path d="M 7.5589,191.4453 c 0.0000,-1.3124 -1.0639,-2.3762 -2.3762 -2.3762c -1.3124,-0.0000 -2.3762,1.0639 -2.3762 2.3762c -0.0000,1.3124 1.0639,2.3762 2.3762 2.3762c 1.3124,0.0000 2.3762,-1.0639 2.3762 -2.3762Z"/></g><g stroke-linejoin="miter" stroke-opacity="1.0" fill-opacity="1.0" stroke="rgb(0,0,0)" stroke-width="0.0" fill="rgb(0,126,156)" stroke-linecap="butt" stroke-miterlimit="10.0"><path d="M 79.0308,216.0864 c 0.0000,-1.3124 -1.0639,-2.3762 -2.3762 -2.3762c -1.3124,-0.0000 -2.3762,1.0639 -2.3762 2.3762c -0.0000,1.3124 1.0639,2.3762 2.3762 2.3762c 1.3124,0.0000 2.3762,-1.0639 2.3762 -2.3762Z"/></g><g stroke-linejoin="miter" stroke-opacity="1.0" fill-opacity="1.0" stroke="rgb(0,0,0)" stroke-width="0.0" fill="rgb(0,126,156)" stroke-linecap="butt" stroke-miterlimit="10.0"><path d="M 53.1135,206.9458 c 0.0000,-1.3124 -1.0639,-2.3762 -2.3762 -2.3762c -1.3124,-0.0000 -2.3762,1.0639 -2.3762 2.3762c -0.0000,1.3124 1.0639,2.3762 2.3762 2.3762c 1.3124,0.0000 2.3762,-1.0639 2.3762 -2.3762Z"/></g><g stroke-linejoin="miter" stroke-opacity="1.0" fill-opacity="1.0" stroke="rgb(0,0,0)" stroke-width="0.0" fill="rgb(0,126,156)" stroke-linecap="butt" stroke-miterlimit="10.0"><path d="M 37.1576,206.2122 c 0.0000,-1.3124 -1.0639,-2.3762 -2.3762 -2.3762c -1.3124,-0.0000 -2.3762,1.0639 -2.3762 2.3762c -0.0000,1.3124 1.0639,2.3762 2.3762 2.3762c 1.3124,0.0000 2.3762,-1.0639 2.3762 -2.3762Z"/></g><g stroke-linejoin="miter" stroke-opacity="1.0" fill-opacity="1.0" stroke="rgb(0,0,0)" stroke-width="0.0" fill="rgb(0,126,156)" stroke-linecap="butt" stroke-miterlimit="10.0"><path d="M 12.1638,205.8130 c 0.0000,-1.3124 -1.0639,-2.3762 -2.3762 -2.3762c -1.3124,-0.0000 -2.3762,1.0639 -2.3762 2.3762c -0.0000,1.3124 1.0639,2.3762 2.3762 2.3762c 1.3124,0.0000 2.3762,-1.0639 2.3762 -2.3762Z"/></g><g stroke-linejoin="miter" stroke-opacity="1.0" fill-opacity="1.0" stroke="rgb(0,0,0)" stroke-width="0.0" fill="rgb(0,126,156)" stroke-linecap="butt" stroke-miterlimit="10.0"><path d="M 76.7713,227.8501 c 0.0000,-1.3124 -1.0639,-2.3762 -2.3762 -2.3762c -1.3124,-0.0000 -2.3762,1.0639 -2.3762 2.3762c -0.0000,1.3124 1.0639,2.3762 2.3762 2.3762c 1.3124,0.0000 2.3762,-1.0639 2.3762 -2.3762Z"/></g><g stroke-linejoin="miter" stroke-opacity="1.0" fill-opacity="1.0" stroke="rgb(0,0,0)" stroke-width="0.0" fill="rgb(0,126,156)" stroke-linecap="butt" stroke-miterlimit="10.0"><path d="M 48.9238,232.0406 c 0.0000,-1.3124 -1.0639,-2.3762 -2.3762 -2.3762c -1.3124,-0.0000 -2.3762,1.0639 -2.3762 2.3762c -0.0000,1.3124 1.0639,2.3762 2.3762 2.3762c 1.3124,0.0000 2.3762,-1.0639 2.3762 -2.3762Z"/></g><g stroke-linejoin="miter" stroke-opacity="1.0" fill-opacity="1.0" stroke="rgb(0,0,0)" stroke-width="0.0" fill="rgb(0,126,156)" stroke-linecap="butt" stroke-miterlimit="10.0"><path d="M 27.9221,225.9128 c 0.0000,-1.3124 -1.0639,-2.3762 -2.3762 -2.3762c -1.3124,-0.0000 -2.3762,1.0639 -2.3762 2.3762c -0.0000,1.3124 1.0639,2.3762 2.3762 2.3762c 1.3124,0.0000 2.3762,-1.0639 2.3762 -2.3762Z"/></g><g stroke-linejoin="miter" stroke-opacity="1.0" fill-opacity="1.0" stroke="rgb(0,0,0)" stroke-width="0.0" fill="rgb(0,126,156)" stroke-linecap="butt" stroke-miterlimit="10.0"><path d="M 14.6103,228.8032 c 0.0000,-1.3124 -1.0639,-2.3762 -2.3762 -2.3762c -1.3124,-0.0000 -2.3762,1.0639 -2.3762 2.3762c -0.0000,1.3124 1.0639,2.3762 2.3762 2.3762c 1.3124,0.0000 2.3762,-1.0639 2.3762 -2.3762Z"/></g></svg>