<?xml version="1.0" encoding="UTF-8"?>
<!DOCTYPE svg PUBLIC "-//W3C//DTD SVG 1.1//EN"
    "http://www.w3.org/Graphics/SVG/1.1/DTD/svg11.dtd"><svg xmlns="http://www.w3.org/2000/svg" height="240.7921" stroke-opacity="1" viewBox="0.0 0.0 320.0 240.79207920792084" font-size="1" width="320.0000" xmlns:xlink="http://www.w3.org/1999/xlink" stroke="rgb(0,0,0)" version="1.1"><defs></defs><g stroke-linejoin="miter" stroke-opacity="1.0" fill-opacity="0.0" opacity="0.2" stroke="rgb(0,0,0)" stroke-width="0.6" fill="rgb(0,0,0)" stroke-linecap="butt" stroke-miterlimit="10.0"><path d="M 1.5842,21.3861 h 316.8317 "/></g><g stroke-linejoin="miter" stroke-opacity="1.0" fill-opacity="0.0" opacity="0.2" stroke="rgb(0,0,0)" stroke-width="0.6" fill="rgb(0,0,0)" stroke-linecap="butt" stroke-miterlimit="10.0"><path d="M 1.5842,41.1881 h 316.8317 "/></g><g stroke-linejoin="miter" stroke-opacity="1.0" fill-opacity="0.0" opacity="0.2" stroke="rgb(0,0,0)" stroke-width="0.6" fill="rgb(0,0,0)" stroke-linecap="butt" stroke-miterlimit="10.0"><path d="M 1.5842,60.9901 h 316.8317 "/></g><g stroke-linejoin="miter" stroke-opacity="1.0" fill-opacity="0.0" opacity="0.2" stroke="rgb(0,0,0)" stroke-width="0.6" fill="rgb(0,0,0)" stroke-linecap="butt" stroke-miterlimit="10.0"><path d="M 1.5842,100.5941 h 316.8317 "/></g><g stroke-linejoin="miter" stroke-opacity="1.0" fill-opacity="0.0" opacity="0.2" stroke="rgb(0,0,0)" stroke-width="0.6" fill="rgb(0,0,0)" stroke-linecap="butt" stroke-miterlimit="10.0"><path d="M 1.5842,120.3960 h 316.8317 "/></g><g stroke-linejoin="miter" stroke-opacity="1.0" fill-opacity="0.0" opacity="0.2" stroke="rgb(0,0,0)" stroke-width="0.6" fill="rgb(0,0,0)" stroke-linecap="butt" stroke-miterlimit="10.0"><path d="M 1.5842,140.1980 h 316.8317 "/></g><g stroke-linejoin="miter" stroke-opacity="1.0" fill-opacity="0.0" opacity="0.2" stroke="rgb(0,0,0)" stroke-width="0.6" fill="rgb(0,0,0)" stroke-linecap="butt" stroke-miterlimit="10.0"><path d="M 1.5842,179.8020 h 316.8317 "/></g><g stroke-linejoin="miter" stroke-opacity="1.0" fill-opacity="0.0" opacity="0.2" stroke="rgb(0,0,0)" stroke-width="0.6" fill="rgb(0,0,0)" stroke-linecap="butt" stroke-miterlimit="10.0"><path d="M 1.5842,199.6040 h 316.8317 "/></g><g stroke-linejoin="miter" stroke-opacity="1.0" fill-opacity="0.0" opacity="0.2" stroke="rgb(0,0,0)" stroke-width="0.6" fill="rgb(0,0,0)" stroke-linecap="butt" stroke-miterlimit="10.0"><path d="M 1.5842,219.4059 h 316.8317 "/></g><g stroke-linejoin="miter" stroke-opacity="1.0" fill-opacity="0.0" opacity="0.2" stroke="rgb(0,0,0)" stroke-width="0.6" fill="rgb(0,0,0)" stroke-linecap="butt" stroke-miterlimit="10.0"><path d="M 298.6139,239.2079 v -237.6238 "/></g><g stroke-linejoin="miter" stroke-opacity="1.0" fill-opacity="0.0" opacity="0.2" stroke="rgb(0,0,0)" stroke-width="0.6" fill="rgb(0,0,0)" stroke-linecap="butt" stroke-miterlimit="10.0"><path d="M 278.8119,239.2079 v -237.6238 "/></g><g stroke-linejoin="miter" stroke-opacity="1.0" fill-opacity="0.0" opacity="0.2" stroke="rgb(0,0,0)" stroke-width="0.6" fill="rgb(0,0,0)" stroke-linecap="butt" stroke-miterlimit="10.0"><path d="M 259.0099,239.2079 v -237.6238 "/></g><g stroke-linejoin="miter" stroke-opacity="1.0" fill-opacity="0.0" opacity="0.2" stroke="rgb(0,0,0)" stroke-width="0.6" fill="rgb(0,0,0)" stroke-linecap="butt" stroke-miterlimit="10.0"><path d="M 219.4059,239.2079 v -237.6238 "/></g><g stroke-linejoin="miter" stroke-opacity="1.0" fill-opacity="0.0" opacity="0.2" stroke="rgb(0,0,0)" stroke-width="0.6" fill="rgb(0,0,0)" stroke-linecap="butt" stroke-miterlimit="10.0"><path d="M 199.6040,239.2079 v -237.6238 "/></g><g stroke-linejoin="miter" stroke-opacity="1.0" fill-opacity="0.0" opacity="0.2" stroke="rgb(0,0,0)" stroke-width="0.6" fill="rgb(0,0,0)" stroke-linecap="butt" stroke-miterlimit="10.0"><path d="M 179.8020,239.2079 v -237.6238 "/></g><g stroke-linejoin="miter" stroke-opacity="1.0" fill-opacity="0.0" opacity="0.2" stroke="rgb(0,0,0)" stroke-width="0.6" fill="rgb(0,0,0)" stroke-linecap="butt" stroke-miterlimit="10.0"><path d="M 140.1980,239.2079 v -237.6238 "/></g><g stroke-linejoin="miter" stroke-opacity="1.0" fill-opacity="0.0" opacity="0.2" stroke="rgb(0,0,0)" stroke-width="0.6" fill="rgb(0,0,0)" stroke-linecap="butt" stroke-miterlimit="10.0"><path d="M 120.3960,239.2079 v -237.6238 "/></g><g stroke-linejoin="miter" stroke-opacity="1.0" fill-opacity="0.0" opacity="0.2" stroke="rgb(0,0,0)" stroke-width="0.6" fill="rgb(0,0,0)" stroke-linecap="butt" stroke-miterlimit="10.0"><path d="M 100.5941,239.2079 v -237.6238 "/></g><g stroke-linejoin="miter" stroke-opacity="1.0" fill-opacity="0.0" opacity="0.2" stroke="rgb(0,0,0)" stroke-width="0.6" fill="rgb(0,0,0)" stroke-linecap="butt" stroke-miterlimit="10.0"><path d="M 60.9901,239.2079 v -237.6238 "/></g><g stroke-linejoin="miter" stroke-opacity="1.0" fill-opacity="0.0" opacity="0.2" stroke="rgb(0,0,0)" stroke-width="0.6" fill="rgb(0,0,0)" stroke-linecap="butt" stroke-miterlimit="10.0"><path d="M 41.1881,239.2079 v -237.6238 "/></g><g stroke-linejoin="miter" stroke-opacity="1.0" fill-opacity="0.0" opacity="0.2" stroke="rgb(0,0,0)" stroke-width="0.6" fill="rgb(0,0,0)" stroke-linecap="butt" stroke-miterlimit="10.0"><path d="M 21.3861,239.2079 v -237.6238 "/></g><g stroke-linejoin="miter" stroke-opacity="1.0" fill-opacity="0.0" stroke="rgb(0,0,0)" stroke-width="1.0" fill="rgb(0,0,0)" stroke-linecap="butt" stroke-miterlimit="10.0"><path d="M 1.5842,80.7921 h 316.8317 "/></g><g stroke-linejoin="miter" stroke-opacity="1.0" fill-opacity="0.0" stroke="rgb(0,0,0)" stroke-width="1.0" fill="rgb(0,0,0)" stroke-linecap="butt" stroke-miterlimit="10.0"><path d="M 1.5842,160.0000 h 316.8317 "/></g><g stroke-linejoin="miter" stroke-opacity="1.0" fill-opacity="0.0" stroke="rgb(0,0,0)" stroke-width="1.0" fill="rgb(0,0,0)" stroke-linecap="butt" stroke-miterlimit="10.0"><path d="M 239.2079,239.2079 v -237.6238 "/></g><g stroke-linejoin="miter" stroke-opacity="1.0" fill-opacity="0.0" stroke="rgb(0,0,0)" stroke-width="1.0" fill="rgb(0,0,0)" stroke-linecap="butt" stroke-miterlimit="10.0"><path d="M 160.0000,239.2079 v -237.6238 "/></g><g stroke-linejoin="miter" stroke-opacity="1.0" fill-opacity="0.0" stroke="rgb(0,0,0)" stroke-width="1.0" fill="rgb(0,0,0)" stroke-linecap="butt" stroke-miterlimit="10.0"><path d="M 80.7921,239.2079 v -237.6238 "/></g><g stroke-linejoin="round" stroke-opacity="1.0" fill-opacity="0.0" stroke="rgb(0,0,0)" stroke-width="1.6" fill="rgb(0,0,0)" stroke-linecap="butt" stroke-miterlimit="10.0"><path d="M 318.4158,239.2079 l -0.0000,-237.6238 h -316.8317 l -0.0000,237.6238 Z"/></g><g stroke-linejoin="miter" stroke-opacity="1.0" fill-opacity="1.0" stroke="rgb(0,0,0)" stroke-width="0.0" fill="rgb(0,126,156)" stroke-linecap="butt" stroke-miterlimit="10.0"><path d="M 310.8911,11.4851 c 0.0000,-1.3124 -1.0639,-2.3762 -2.3762 -2.3762c -1.3124,-0.0000 -2.3762,1.0639 -2.3762 2.3762c -0.0000,1.3124 1.0639,2.3762 2.3762 2.3762c 1.3124,0.0000 2.3762,-1.0639 2.3762 -2.3762Z"/></g><g stroke-linejoin="miter" stroke-opacity="1.0" fill-opacity="1.0" stroke="rgb(0,0,0)" stroke-width="0.0" fill="rgb(0,126,156)" stroke-linecap="butt" stroke-miterlimit="10.0"><path d="M 291.0891,11.4851 c 0.0000,-1.3124 -1.0639,-2.3762 -2.3762 -2.3762c -1.3124,-0.0000 -2.3762,1.0639 -2.3762 2.3762c -0.0000,1.3124 1.0639,2.3762 2.3762 2.3762c 1.3124,0.0000 2.3762,-1.0639 2.3762 -2.3762Z"/></g><g stroke-linejoin="miter" stroke-opacity="1.0" fill-opacity="1.0" stroke="rgb(0,0,0)" stroke-width="0.0" fill="rgb(0,126,156)" stroke-linecap="butt" stroke-miterlimit="10.0"><path d="M 271.2871,11.4851 c 0.0000,-1.3124 -1.0639,-2.3762 -2.3762 -2.3762c -1.3124,-0.0000 -2.3762,1.0639 -2.3762 2.3762c -0.0000,1.3124 1.0639,2.3762 2.3762 2.3762c 1.3124,0.0000 2.3762,-1.0639 2.3762 -2.3762Z"/></g><g stroke-linejoin="miter" stroke-opacity="1.0" fill-opacity="1.0" stroke="rgb(0,0,0)" stroke-width="0.0" fill="rgb(0,126,156)" stroke-linecap="butt" stroke-miterlimit="10.0"><path d="M 251.4851,11.4851 c 0.0000,-1.3124 -1.0639,-2.3762 -2.3762 -2.3762c -1.3124,-0.0000 -2.3762,1.0639 -2.3762 2.3762c -0.0000,1.3124 1.0639,2.3762 2.3762 2.3762c 1.3124,0.0000 2.3762,-1.0639 2.3762 -2.3762Z"/></g><g stroke-linejoin="miter" stroke-opacity="1.0" fill-opacity="1.0" stroke="rgb(0,0,0)" stroke-width="0.0" fill="rgb(0,126,156)" stroke-linecap="butt" stroke-miterlimit="10.0"><path d="M 310.8911,31.2871 c 0.0000,-1.3124 -1.0639,-2.3762 -2.3762 -2.3762c -1.3124,-0.0000 -2.3762,1.0639 -2.3762 2.3762c -0.0000,1.3124 1.0639,2.3762 2.3762 2.3762c 1.3124,0.0000 2.3762,-1.0639 2.3762 -2.3762Z"/></g><g stroke-linejoin="miter" stroke-opacity="1.0" fill-opacity="1.0" stroke="rgb(0,0,0)" stroke-width="0.0" fill="rgb(0,126,156)" stroke-linecap="butt" stroke-miterlimit="10.0"><path d="M 291.0891,31.2871 c 0.0000,-1.3124 -1.0639,-2.3762 -2.3762 -2.3762c -1.3124,-0.0000 -2.3762,1.0639 -2.3762 2.3762c -0.0000,1.3124 1.0639,2.3762 2.3762 2.3762c 1.3124,0.0000 2.3762,-1.0639 2.3762 -2.3762Z"/></g><g stroke-linejoin="miter" stroke-opacity="1.0" fill-opacity="1.0" stroke="rgb(0,0,0)" stroke-width="0.0" fill="rgb(0,126,156)" stroke-linecap="butt" stroke-miterlimit="10.0"><path d="M 271.2871,31.2871 c 0.0000,-1.3124 -1.0639,-2.3762 -2.3762 -2.3762c -1.3124,-0.0000 -2.3762,1.0639 -2.3762 2.3762c -0.0000,1.3124 1.0639,2.3762 2.3762 2.3762c 1.3124,0.0000 2.3762,-1.0639 2.3762 -2.3762Z"/></g><g stroke-linejoin="miter" stroke-opacity="1.0" fill-opacity="1.0" stroke="rgb(0,0,0)" stroke-width="0.0" fill="rgb(0,126,156)" stroke-linecap="butt" stroke-miterlimit="10.0"><path d="M 251.4851,31.2871 c 0.0000,-1.3124 -1.0639,-2.3762 -2.3762 -2.3762c -1.3124,-0.0000 -2.3762,1.0639 -2.3762 2.3762c -0.0000,1.3124 1.0639,2.3762 2.3762 2.3762c 1.3124,0.0000 2.3762,-1.0639 2.3762 -2.3762Z"/></g><g stroke-linejoin="miter" stroke-opacity="1.0" fill-opacity="1.0" stroke="rgb(0,0,0)" stroke-width="0.0" fill="rgb(0,126,156)" stroke-linecap="butt" stroke-miterlimit="10.0"><path d="M 310.8911,51.0891 c 0.0000,-1.3124 -1.0639,-2.3762 -2.3762 -2.3762c -1.3124,-0.0000 -2.3762,1.0639 -2.3762 2.3762c -0.0000,1.3124 1.0639,2.3762 2.3762 2.3762c 1.3124,0.0000 2.3762,-1.0639 2.3762 -2.3762Z"/></g><g stroke-linejoin="miter" stroke-opacity="1.0" fill-opacity="1.0" stroke="rgb(0,0,0)" stroke-width="0.0" fill="rgb(0,126,156)" stroke-linecap="butt" stroke-miterlimit="10.0"><path d="M 291.0891,51.0891 c 0.0000,-1.3124 -1.0639,-2.3762 -2.3762 -2.3762c -1.3124,-0.0000 -2.3762,1.0639 -2.3762 2.3762c -0.0000,1.3124 1.0639,2.3762 2.3762 2.3762c 1.3124,0.0000 2.3762,-1.0639 2.3762 -2.3762Z"/></g><g stroke-linejoin="miter" stroke-opacity="1.0" fill-opacity="1.0" stroke="rgb(0,0,0)" stroke-width="0.0" fill="rgb(0,126,156)" stroke-linecap="butt" stroke-miterlimit="10.0"><path d="M 271.2871,51.0891 c 0.0000,-1.3124 -1.0639,-2.3762 -2.3762 -2.3762c -1.3124,-0.0000 -2.3762,1.0639 -2.3762 2.3762c -0.0000,1.3124 1.0639,2.3762 2.3762 2.3762c 1.3124,0.0000 2.3762,-1.0639 2.3762 -2.3762Z"/></g><g stroke-linejoin="miter" stroke-opacity="1.0" fill-opacity="1.0" stroke="rgb(0,0,0)" stroke-width="0.0" fill="rgb(0,126,156)" stroke-linecap="butt" stroke-miterlimit="10.0"><path d="M 251.4851,51.0891 c 0.0000,-1.3124 -1.0639,-2.3762 -2.3762 -2.3762c -1.3124,-0.0000 -2.3762,1.0639 -2.3762 2.3762c -0.0000,1.3124 1.0639,2.3762 2.3762 2.3762c 1.3124,0.0000 2.3762,-1.0639 2.3762 -2.3762Z"/></g><g stroke-linejoin="miter" stroke-opacity="1.0" fill-opacity="1.0" stroke="rgb(0,0,0)" stroke-width="0.0" fill="rgb(0,126,156)" stroke-linecap="butt" stroke-miterlimit="10.0"><path d="M 310.8911,70.8911 c 0.0000,-1.3124 -1.0639,-2.3762 -2.3762 -2.3762c -1.3124,-0.0000 -2.3762,1.0639 -2.3762 2.3762c -0.0000,1.3124 1.0639,2.3762 2.3762 2.3762c 1.3124,0.0000 2.3762,-1.0639 2.3762 -2.3762Z"/></g><g stroke-linejoin="miter" stroke-opacity="1.0" fill-opacity="1.0" stroke="rgb(0,0,0)" stroke-width="0.0" fill="rgb(0,126,156)" stroke-linecap="butt" stroke-miterlimit="10.0"><path d="M 291.0891,70.8911 c 0.0000,-1.3124 -1.0639,-2.3762 -2.3762 -2.3762c -1.3124,-0.0000 -2.3762,1.0639 -2.3762 2.3762c -0.0000,1.3124 1.0639,2.3762 2.3762 2.3762c 1.3124,0.0000 2.3762,-1.0639 2.3762 -2.3762Z"/></g><g stroke-linejoin="miter" stroke-opacity="1.0" fill-opacity="1.0" stroke="rgb(0,0,0)" stroke-width="0.0" fill="rgb(0,126,156)" stroke-linecap="butt" stroke-miterlimit="10.0"><path d="M 271.2871,70.8911 c 0.0000,-1.3124 -1.0639,-2.3762 -2.3762 -2.3762c -1.3124,-0.0000 -2.3762,1.0639 -2.3762 2.3762c -0.0000,1.3124 1.0639,2.3762 2.3762 2.3762c 1.3124,0.0000 2.3762,-1.0639 2.3762 -2.3762Z"/></g><g stroke-linejoin="miter" stroke-opacity="1.0" fill-opacity="1.0" stroke="rgb(0,0,0)" stroke-width="0.0" fill="rgb(0,126,156)" stroke-linecap="butt" stroke-miterlimit="10.0"><path d="M 251.4851,70.8911 c 0.0000,-1.3124 -1.0639,-2.3762 -2.3762 -2.3762c -1.3124,-0.0000 -2.3762,1.0639 -2.3762 2.3762c -0.0000,1.3124 1.0639,2.3762 2.3762 2.3762c 1.3124,0.0000 2.3762,-1.0639 2.3762 -2.3762Z"/></g><g stroke-linejoin="miter" stroke-opacity="1.0" fill-opacity="1.0" stroke="rgb(0,0,0)" stroke-width="0.0" fill="rgb(0,126,156)" stroke-linecap="butt" stroke-miterlimit="10.0"><path d="M 231.6832,11.4851 c 0.0000,-1.3124 -1.0639,-2.3762 -2.3762 -2.3762c -1.3124,-0.0000 -2.3762,1.0639 -2.3762 2.3762c -0.0000,1.3124 1.0639,2.3762 2.3762 2.3762c 1.3124,0.0000 2.3762,-1.0639 2.3762 -2.3762Z"/></g><g stroke-linejoin="miter" stroke-opacity="1.0" fill-opacity="1.0" stroke="rgb(0,0,0)" stroke-width="0.0" fill="rgb(0,126,156)" stroke-linecap="butt" stroke-miterlimit="10.0"><path d="M 211.8812,11.4851 c 0.0000,-1.3124 -1.0639,-2.3762 -2.3762 -2.3762c -1.3124,-0.0000 -2.3762,1.0639 -2.3762 2.3762c -0.0000,1.3124 1.0639,2.3762 2.3762 2.3762c 1.3124,0.0000 2.3762,-1.0639 2.3762 -2.3762Z"/></g><g stroke-linejoin="miter" stroke-opacity="1.0" fill-opacity="1.0" stroke="rgb(0,0,0)" stroke-width="0.0" fill="rgb(0,126,156)" stroke-linecap="butt" stroke-miterlimit="10.0"><path d="M 192.0792,11.4851 c 0.0000,-1.3124 -1.0639,-2.3762 -2.3762 -2.3762c -1.3124,-0.0000 -2.3762,1.0639 -2.3762 2.3762c -0.0000,1.3124 1.0639,2.3762 2.3762 2.3762c 1.3124,0.0000 2.3762,-1.0639 2.3762 -2.3762Z"/></g><g stroke-linejoin="miter" stroke-opacity="1.0" fill-opacity="1.0" stroke="rgb(0,0,0)" stroke-width="0.0" fill="rgb(0,126,156)" stroke-linecap="butt" stroke-miterlimit="10.0"><path d="M 172.2772,11.4851 c 0.0000,-1.3124 -1.0639,-2.3762 -2.3762 -2.3762c -1.3124,-0.0000 -2.3762,1.0639 -2.3762 2.3762c -0.0000,1.3124 1.0639,2.3762 2.3762 2.3762c 1.3124,0.0000 2.3762,-1.0639 2.3762 -2.3762Z"/></g><g stroke-linejoin="miter" stroke-opacity="1.0" fill-opacity="1.0" stroke="rgb(0,0,0)" stroke-width="0.0" fill="rgb(0,126,156)" stroke-linecap="butt" stroke-miterlimit="10.0"><path d="M 231.6832,31.2871 c 0.0000,-1.3124 -1.0639,-2.3762 -2.3762 -2.3762c -1.3124,-0.0000 -2.3762,1.0639 -2.3762 2.3762c -0.0000,1.3124 1.0639,2.3762 2.3762 2.3762c 1.3124,0.0000 2.3762,-1.0639 2.3762 -2.3762Z"/></g><g stroke-linejoin="miter" stroke-opacity="1.0" fill-opacity="1.0" stroke="rgb(0,0,0)" stroke-width="0.0" fill="rgb(0,126,156)" stroke-linecap="butt" stroke-miterlimit="10.0"><path d="M 211.8812,31.2871 c 0.0000,-1.3124 -1.0639,-2.3762 -2.3762 -2.3762c -1.3124,-0.0000 -2.3762,1.0639 -2.3762 2.3762c -0.0000,1.3124 1.0639,2.3762 2.3762 2.3762c 1.3124,0.0000 2.3762,-1.0639 2.3762 -2.3762Z"/></g><g stroke-linejoin="miter" stroke-opacity="1.0" fill-opacity="1.0" stroke="rgb(0,0,0)" stroke-width="0.0" fill="rgb(0,126,156)" stroke-linecap="butt" stroke-miterlimit="10.0"><path d="M 192.0792,31.2871 c 0.0000,-1.3124 -1.0639,-2.3762 -2.3762 -2.3762c -1.3124,-0.0000 -2.3762,1.0639 -2.3762 2.3762c -0.0000,1.3124 1.0639,2.3762 2.3762 2.3762c 1.3124,0.0000 2.3762,-1.0639 2.3762 -2.3762Z"/></g><g stroke-linejoin="miter" stroke-opacity="1.0" fill-opacity="1.0" stroke="rgb(0,0,0)" stroke-width="0.0" fill="rgb(0,126,156)" stroke-linecap="butt" stroke-miterlimit="10.0"><path d="M 172.2772,31.2871 c 0.0000,-1.3124 -1.0639,-2.3762 -2.3762 -2.3762c -1.3124,-0.0000 -2.3762,1.0639 -2.3762 2.3762c -0.0000,1.3124 1.0639,2.3762 2.3762 2.3762c 1.3124,0.0000 2.3762,-1.0639 2.3762 -2.3762Z"/></g><g stroke-linejoin="miter" stroke-opacity="1.0" fill-opacity="1.0" stroke="rgb(0,0,0)" stroke-width="0.0" fill="rgb(0,126,156)" stroke-linecap="butt" stroke-miterlimit="10.0"><path d="M 231.6832,51.0891 c 0.0000,-1.3124 -1.0639,-2.3762 -2.3762 -2.3762c -1.3124,-0.0000 -2.3762,1.0639 -2.3762 2.3762c -0.0000,1.3124 1.0639,2.3762 2.3762 2.3762c 1.3124,0.0000 2.3762,-1.0639 2.3762 -2.3762Z"/></g><g stroke-linejoin="miter" stroke-opacity="1.0" fill-opacity="1.0" stroke="rgb(0,0,0)" stroke-width="0.0" fill="rgb(0,126,156)" stroke-linecap="butt" stroke-miterlimit="10.0"><path d="M 211.8812,51.0891 c 0.0000,-1.3124 -1.0639,-2.3762 -2.3762 -2.3762c -1.3124,-0.0000 -2.3762,1.0639 -2.3762 2.3762c -0.0000,1.3124 1.0639,2.3762 2.3762 2.3762c 1.3124,0.0000 2.3762,-1.0639 2.3762 -2.3762Z"/></g><g stroke-linejoin="miter" stroke-opacity="1.0" fill-opacity="1.0" stroke="rgb(0,0,0)" stroke-width="0.0" fill="rgb(0,126,156)" stroke-linecap="butt" stroke-miterlimit="10.0"><path d="M 192.0792,51.0891 c 0.0000,-1.3124 -1.0639,-2.3762 -2.3762 -2.3762c -1.3124,-0.0000 -2.3762,1.0639 -2.3762 2.3762c -0.0000,1.3124 1.0639,2.3762 2.3762 2.3762c 1.3124,0.0000 2.3762,-1.0639 2.3762 -2.3762Z"/></g><g stroke-linejoin="miter" stroke-opacity="1.0" fill-opacity="1.0" stroke="rgb(0,0,0)" stroke-width="0.0" fill="rgb(0,126,156)" stroke-linecap="butt" stroke-miterlimit="10.0"><path d="M 172.2772,51.0891 c 0.0000,-1.3124 -1.0639,-2.3762 -2.3762 -2.3762c -1.3124,-0.0000 -2.3762,1.0639 -2.3762 2.3762c -0.0000,1.3124 1.0639,2.3762 2.3762 2.3762c 1.3124,0.0000 2.3762,-1.0639 2.3762 -2.3762Z"/></g><g stroke-linejoin="miter" stroke-opacity="1.0" fill-opacity="1.0" stroke="rgb(0,0,0)" stroke-width="0.0" fill="rgb(0,126,156)" stroke-linecap="butt" stroke-miterlimit="10.0"><path d="M 231.6832,70.8911 c 0.0000,-1.3124 -1.0639,-2.3762 -2.3762 -2.3762c -1.3124,-0.0000 -2.3762,1.0639 -2.3762 2.3762c -0.0000,1.3124 1.0639,2.3762 2.3762 2.3762c 1.3124,0.0000 2.3762,-1.0639 2.3762 -2.3762Z"/></g><g stroke-linejoin="miter" stroke-opacity="1.0" fill-opacity="1.0" stroke="rgb(0,0,0)" stroke-width="0.0" fill="rgb(0,126,156)" stroke-linecap="butt" stroke-miterlimit="10.0"><path d="M 211.8812,70.8911 c 0.0000,-1.3124 -1.0639,-2.3762 -2.3762 -2.3762c -1.3124,-0.0000 -2.3762,1.0639 -2.3762 2.3762c -0.0000,1.3124 1.0639,2.3762 2.3762 2.3762c 1.3124,0.0000 2.3762,-1.0639 2.3762 -2.3762Z"/></g><g stroke-linejoin="miter" stroke-opacity="1.0" fill-opacity="1.0" stroke="rgb(0,0,0)" stroke-width="0.0" fill="rgb(0,126,156)" stroke-linecap="butt" stroke-miterlimit="10.0"><path d="M 192.0792,70.8911 c 0.0000,-1.3124 -1.0639,-2.3762 -2.3762 -2.3762c -1.3124,-0.0000 -2.3762,1.0639 -2.3762 2.3762c -0.0000,1.3124 1.0639,2.3762 2.3762 2.3762c 1.3124,0.0000 2.3762,-1.0639 2.3762 -2.3762Z"/></g><g stroke-linejoin="miter" stroke-opacity="1.0" fill-opacity="1.0" stroke="rgb(0,0,0)" stroke-width="0.0" fill="rgb(0,126,156)" stroke-linecap="butt" stroke-miterlimit="10.0"><path d="M 172.2772,70.8911 c 0.0000,-1.3124 -1.0639,-2.3762 -2.3762 -2.3762c -1.3124,-0.0000 -2.3762,1.0639 -2.3762 2.3762c -0.0000,1.3124 1.0639,2.3762 2.3762 2.3762c 1.3124,0.0000 2.3762,-1.0639 2.3762 -2.3762Z"/></g><g stroke-linejoin="miter" stroke-opacity="1.0" fill-opacity="1.0" stroke="rgb(0,0,0)" stroke-width="0.0" fill="rgb(0,126,156)" stroke-linecap="butt" stroke-miterlimit="10.0"><path d="M 152.4752,11.4851 c 0.0000,-1.3124 -1.0639,-2.3762 -2.3762 -2.3762c -1.3124,-0.0000 -2.3762,1.0639 -2.3762 2.3762c -0.0000,1.3124 1.0639,2.3762 2.3762 2.3762c 1.3124,0.0000 2.3762,-1.0639 2.3762 -2.3762Z"/></g><g stroke-linejoin="miter" stroke-opacity="1.0" fill-opacity="1.0" stroke="rgb(0,0,0)" stroke-width="0.0" fill="rgb(0,126,156)" stroke-linecap="butt" stroke-miterlimit="10.0"><path d="M 132.6733,11.4851 c 0.0000,-1.3124 -1.0639,-2.3762 -2.3762 -2.3762c -1.3124,-0.0000 -2.3762,1.0639 -2.3762 2.3762c -0.0000,1.3124 1.0639,2.3762 2.3762 2.3762c 1.3124,0.0000 2.3762,-1.0639 2.3762 -2.3762Z"/></g><g stroke-linejoin="miter" stroke-opacity="1.0" fill-opacity="1.0" stroke="rgb(0,0,0)" stroke-width="0.0" fill="rgb(0,126,156)" stroke-linecap="butt" stroke-miterlimit="10.0"><path d="M 112.8713,11.4851 c 0.0000,-1.3124 -1.0639,-2.3762 -2.3762 -2.3762c -1.3124,-0.0000 -2.3762,1.0639 -2.3762 2.3762c -0.0000,1.3124 1.0639,2.3762 2.3762 2.3762c 1.3124,0.0000 2.3762,-1.0639 2.3762 -2.3762Z"/></g><g stroke-linejoin="miter" stroke-opacity="1.0" fill-opacity="1.0" stroke="rgb(0,0,0)" stroke-width="0.0" fill="rgb(0,126,156)" stroke-linecap="butt" stroke-miterlimit="10.0"><path d="M 93.0693,11.4851 c 0.0000,-1.3124 -1.0639,-2.3762 -2.3762 -2.3762c -1.3124,-0.0000 -2.3762,1.0639 -2.3762 2.3762c -0.0000,1.3124 1.0639,2.3762 2.3762 2.3762c 1.3124,0.0000 2.3762,-1.0639 2.3762 -2.3762Z"/></g><g stroke-linejoin="miter" stroke-opacity="1.0" fill-opacity="1.0" stroke="rgb(0,0,0)" stroke-width="0.0" fill="rgb(0,126,156)" stroke-linecap="butt" stroke-miterlimit="10.0"><path d="M 152.4752,31.2871 c 0.0000,-1.3124 -1.0639,-2.3762 -2.3762 -2.3762c -1.3124,-0.0000 -2.3762,1.0639 -2.3762 2.3762c -0.0000,1.3124 1.0639,2.3762 2.3762 2.3762c 1.3124,0.0000 2.3762,-1.0639 2.3762 -2.3762Z"/></g><g stroke-linejoin="miter" stroke-opacity="1.0" fill-opacity="1.0" stroke="rgb(0,0,0)" stroke-width="0.0" fill="rgb(0,126,156)" stroke-linecap="butt" stroke-miterlimit="10.0"><path d="M 132.6733,31.2871 c 0.0000,-1.3124 -1.0639,-2.3762 -2.3762 -2.3762c -1.3124,-0.0000 -2.3762,1.0639 -2.3762 2.3762c -0.0000,1.3124 1.0639,2.3762 2.3762 2.3762c 1.3124,0.0000 2.3762,-1.0639 2.3762 -2.3762Z"/></g><g stroke-linejoin="miter" stroke-opacity="1.0" fill-opacity="1.0" stroke="rgb(0,0,0)" stroke-width="0.0" fill="rgb(0,126,156)" stroke-linecap="butt" stroke-miterlimit="10.0"><path d="M 112.8713,31.2871 c 0.0000,-1.3124 -1.0639,-2.3762 -2.3762 -2.3762c -1.3124,-0.0000 -2.3762,1.0639 -2.3762 2.3762c -0.0000,1.3124 1.0639,2.3762 2.3762 2.3762c 1.3124,0.0000 2.3762,-1.0639 2.3762 -2.3762Z"/></g><g stroke-linejoin="miter" stroke-opacity="1.0" fill-opacity="1.0" stroke="rgb(0,0,0)" stroke-width="0.0" fill="rgb(0,126,156)" stroke-linecap="butt" stroke-miterlimit="10.0"><path d="M 93.0693,31.2871 c 0.0000,-1.3124 -1.0639,-2.3762 -2.3762 -2.3762c -1.3124,-0.0000 -2.3762,1.0639 -2.3762 2.3762c -0.0000,1.3124 1.0639,2.3762 2.3762 2.3762c 1.3124,0.0000 2.3762,-1.0639 2.3762 -2.3762Z"/></g><g stroke-linejoin="miter" stroke-opacity="1.0" fill-opacity="1.0" stroke="rgb(0,0,0)" stroke-width="0.0" fill="rgb(0,126,156)" stroke-linecap="butt" stroke-miterlimit="10.0"><path d="M 152.4752,51.0891 c 0.0000,-1.3124 -1.0639,-2.3762 -2.3762 -2.3762c -1.3124,-0.0000 -2.3762,1.0639 -2.3762 2.3762c -0.0000,1.3124 1.0639,2.3762 2.3762 2.3762c 1.3124,0.0000 2.3762,-1.0639 2.3762 -2.3762Z"/></g><g stroke-linejoin="miter" stroke-opacity="1.0" fill-opacity="1.0" stroke="rgb(0,0,0)" stroke-width="0.0" fill="rgb(0,126,156)" stroke-linecap="butt" stroke-miterlimit="10.0"><path d="M 132.6733,51.0891 c 0.0000,-1.3124 -1.0639,-2.3762 -2.3762 -2.3762c -1.3124,-0.0000 -2.3762,1.0639 -2.3762 2.3762c -0.0000,1.3124 1.0639,2.3762 2.3762 2.3762c 1.3124,0.0000 2.3762,-1.0639 2.3762 -2.3762Z"/></g><g stroke-linejoin="miter" stroke-opacity="1.0" fill-opacity="1.0" stroke="rgb(0,0,0)" stroke-width="0.0" fill="rgb(0,126,156)" stroke-linecap="butt" stroke-miterlimit="10.0"><path d="M 112.8713,51.0891 c 0.0000,-1.3124 -1.0639,-2.3762 -2.3762 -2.3762c -1.3124,-0.0000 -2.3762,1.0639 -2.3762 2.3762c -0.0000,1.3124 1.0639,2.3762 2.3762 2.3762c 1.3124,0.0000 2.3762,-1.0639 2.3762 -2.3762Z"/></g><g stroke-linejoin="miter" stroke-opacity="1.0" fill-opacity="1.0" stroke="rgb(0,0,0)" stroke-width="0.0" fill="rgb(0,126,156)" stroke-linecap="butt" stroke-miterlimit="10.0"><path d="M 93.0693,51.0891 c 0.0000,-1.3124 -1.0639,-2.3762 -2.3762 -2.3762c -1.3124,-0.0000 -2.3762,1.0639 -2.3762 2.3762c -0.0000,1.3124 1.0639,2.3762 2.3762 2.3762c 1.3124,0.0000 2.3762,-1.0639 2.3762 -2.3762Z"/></g><g stroke-linejoin="miter" stroke-opacity="1.0" fill-opacity="1.0" stroke="rgb(0,0,0)" stroke-width="0.0" fill="rgb(0,126,156)" stroke-linecap="butt" stroke-miterlimit="10.0"><path d="M 152.4752,70.8911 c 0.0000,-1.3124 -1.0639,-2.3762 -2.3762 -2.3762c -1.3124,-0.0000 -2.3762,1.0639 -2.3762 2.3762c -0.0000,1.3124 1.0639,2.3762 2.3762 2.3762c 1.3124,0.0000 2.3762,-1.0639 2.3762 -2.3762Z"/></g><g stroke-linejoin="miter" stroke-opacity="1.0" fill-opacity="1.0" stroke="rgb(0,0,0)" stroke-width="0.0" fill="rgb(0,126,156)" stroke-linecap="butt" stroke-miterlimit="10.0"><path d="M 132.6733,70.8911 c 0.0000,-1.3124 -1.0639,-2.3762 -2.3762 -2.3762c -1.3124,-0.0000 -2.3762,1.0639 -2.3762 2.3762c -0.0000,1.3124 1.0639,2.3762 2.3762 2.3762c 1.3124,0.0000 2.3762,-1.0639 2.3762 -2.3762Z"/></g><g stroke-linejoin="miter" stroke-opacity="1.0" fill-opacity="1.0" stroke="rgb(0,0,0)" stroke-width="0.0" fill="rgb(0,126,156)" stroke-linecap="butt" stroke-miterlimit="10.0"><path d="M 112.8713,70.8911 c 0.0000,-1.3124 -1.0639,-2.3762 -2.3762 -2.3762c -1.3124,-0.0000 -2.3762,1.0639 -2.3762 2.3762c -0.0000,1.3124 1.0639,2.3762 2.3762 2.3762c 1.3124,0.0000 2.3762,-1.0639 2.3762 -2.3762Z"/></g><g stroke-linejoin="miter" stroke-opacity="1.0" fill-opacity="1.0" stroke="rgb(0,0,0)" stroke-width="0.0" fill="rgb(0,126,156)" stroke-linecap="butt" stroke-miterlimit="10.0"><path d="M 93.0693,70.8911 c 0.0000,-1.3124 -1.0639,-2.3762 -2.3762 -2.3762c -1.3124,-0.0000 -2.3762,1.0639 -2.3762 2.3762c -0.0000,1.3124 1.0639,2.3762 2.3762 2.3762c 1.3124,0.0000 2.3762,-1.0639 2.3762 -2.3762Z"/></g><g stroke-linejoin="miter" stroke-opacity="1.0" fill-opacity="1.0" stroke="rgb(0,0,0)" stroke-width="0.0" fill="rgb(0,126,156)" stroke-linecap="butt" stroke-miterlimit="10.0"><path d="M 73.2673,11.4851 c 0.0000,-1.3124 -1.0639,-2.3762 -2.3762 -2.3762c -1.3124,-0.0000 -2.3762,1.0639 -2.3762 2.3762c -0.0000,1.3124 1.0639,2.3762 2.3762 2.3762c 1.3124,0.0000 2.3762,-1.0639 2.3762 -2.3762Z"/></g><g stroke-linejoin="miter" stroke-opacity="1.0" fill-opacity="1.0" stroke="rgb(0,0,0)" stroke-width="0.0" fill="rgb(0,126,156)" stroke-linecap="butt" stroke-miterlimit="10.0"><path d="M 53.4653,11.4851 c 0.0000,-1.3124 -1.0639,-2.3762 -2.3762 -2.3762c -1.3124,-0.0000 -2.3762,1.0639 -2.3762 2.3762c -0.0000,1.3124 1.0639,2.3762 2.3762 2.3762c 1.3124,0.0000 2.3762,-1.0639 2.3762 -2.3762Z"/></g><g stroke-linejoin="miter" stroke-opacity="1.0" fill-opacity="1.0" stroke="rgb(0,0,0)" stroke-width="0.0" fill="rgb(0,126,156)" stroke-linecap="butt" stroke-miterlimit="10.0"><path d="M 33.6634,11.4851 c 0.0000,-1.3124 -1.0639,-2.3762 -2.3762 -2.3762c -1.3124,-0.0000 -2.3762,1.0639 -2.3762 2.3762c -0.0000,1.3124 1.0639,2.3762 2.3762 2.3762c 1.3124,0.0000 2.3762,-1.0639 2.3762 -2.3762Z"/></g><g stroke-linejoin="miter" stroke-opacity="1.0" fill-opacity="1.0" stroke="rgb(0,0,0)" stroke-width="0.0" fill="rgb(0,126,156)" stroke-linecap="butt" stroke-miterlimit="10.0"><path d="M 13.8614,11.4851 c 0.0000,-1.3124 -1.0639,-2.3762 -2.3762 -2.3762c -1.3124,-0.0000 -2.3762,1.0639 -2.3762 2.3762c -0.0000,1.3124 1.0639,2.3762 2.3762 2.3762c 1.3124,0.0000 2.3762,-1.0639 2.3762 -2.3762Z"/></g><g stroke-linejoin="miter" stroke-opacity="1.0" fill-opacity="1.0" stroke="rgb(0,0,0)" stroke-width="0.0" fill="rgb(0,126,156)" stroke-linecap="butt" stroke-miterlimit="10.0"><path d="M 73.2673,31.2871 c 0.0000,-1.3124 -1.0639,-2.3762 -2.3762 -2.3762c -1.3124,-0.0000 -2.3762,1.0639 -2.3762 2.3762c -0.0000,1.3124 1.0639,2.3762 2.3762 2.3762c 1.3124,0.0000 2.3762,-1.0639 2.3762 -2.3762Z"/></g><g stroke-linejoin="miter" stroke-opacity="1.0" fill-opacity="1.0" stroke="rgb(0,0,0)" stroke-width="0.0" fill="rgb(0,126,156)" stroke-linecap="butt" stroke-miterlimit="10.0"><path d="M 53.4653,31.2871 c 0.0000,-1.3124 -1.0639,-2.3762 -2.3762 -2.3762c -1.3124,-0.0000 -2.3762,1.0639 -2.3762 2.3762c -0.0000,1.3124 1.0639,2.3762 2.3762 2.3762c 1.3124,0.0000 2.3762,-1.0639 2.3762 -2.3762Z"/></g><g stroke-linejoin="miter" stroke-opacity="1.0" fill-opacity="1.0" stroke="rgb(0,0,0)" stroke-width="0.0" fill="rgb(0,126,156)" stroke-linecap="butt" stroke-miterlimit="10.0"><path d="M 33.6634,31.2871 c 0.0000,-1.3124 -1.0639,-2.3762 -2.3762 -2.3762c -1.3124,-0.0000 -2.3762,1.0639 -2.3762 2.3762c -0.0000,1.3124 1.0639,2.3762 2.3762 2.3762c 1.3124,0.0000 2.3762,-1.0639 2.3762 -2.3762Z"/></g><g stroke-linejoin="miter" stroke-opacity="1.0" fill-opacity="1.0" stroke="rgb(0,0,0)" stroke-width="0.0" fill="rgb(0,126,156)" stroke-linecap="butt" stroke-miterlimit="10.0"><path d="M 13.8614,31.2871 c 0.0000,-1.3124 -1.0639,-2.3762 -2.3762 -2.3762c -1.3124,-0.0000 -2.3762,1.0639 -2.3762 2.3762c -0.0000,1.3124 1.0639,2.3762 2.3762 2.3762c 1.3124,0.0000 2.3762,-1.0639 2.3762 -2.3762Z"/></g><g stroke-linejoin="miter" stroke-opacity="1.0" fill-opacity="1.0" stroke="rgb(0,0,0)" stroke-width="0.0" fill="rgb(0,126,156)" stroke-linecap="butt" stroke-miterlimit="10.0"><path d="M 73.2673,51.0891 c 0.0000,-1.3124 -1.0639,-2.3762 -2.3762 -2.3762c -1.3124,-0.0000 -2.3762,1.0639 -2.3762 2.3762c -0.0000,1.3124 1.0639,2.3762 2.3762 2.3762c 1.3124,0.0000 2.3762,-1.0639 2.3762 -2.3762Z"/></g><g stroke-linejoin="miter" stroke-opacity="1.0" fill-opacity="1.0" stroke="rgb(0,0,0)" stroke-width="0.0" fill="rgb(0,126,156)" stroke-linecap="butt" stroke-miterlimit="10.0"><path d="M 53.4653,51.0891 c 0.0000,-1.3124 -1.0639,-2.3762 -2.3762 -2.3762c -1.3124,-0.0000 -2.3762,1.0639 -2.3762 2.3762c -0.0000,1.3124 1.0639,2.3762 2.3762 2.3762c 1.3124,0.0000 2.3762,-1.0639 2.3762 -2.3762Z"/></g><g stroke-linejoin="miter" stroke-opacity="1.0" fill-opacity="1.0" stroke="rgb(0,0,0)" stroke-width="0.0" fill="rgb(0,126,156)" stroke-linecap="butt" stroke-miterlimit="10.0"><path d="M 33.6634,51.0891 c 0.0000,-1.3124 -1.0639,-2.3762 -2.3762 -2.3762c -1.3124,-0.0000 -2.3762,1.0639 -2.3762 2.3762c -0.0000,1.3124 1.0639,2.3762 2.3762 2.3762c 1.3124,0.0000 2.3762,-1.0639 2.3762 -2.3762Z"/></g><g stroke-linejoin="miter" stroke-opacity="1.0" fill-opacity="1.0" stroke="rgb(0,0,0)" stroke-width="0.0" fill="rgb(0,126,156)" stroke-linecap="butt" stroke-miterlimit="10.0"><path d="M 13.8614,51.0891 c 0.0000,-1.3124 -1.0639,-2.3762 -2.3762 -2.3762c -1.3124,-0.0000 -2.3762,1.0639 -2.3762 2.3762c -0.0000,1.3124 1.0639,2.3762 2.3762 2.3762c 1.3124,0.0000 2.3762,-1.0639 2.3762 -2.3762Z"/></g><g stroke-linejoin="miter" stroke-opacity="1.0" fill-opacity="1.0" stroke="rgb(0,0,0)" stroke-width="0.0" fill="rgb(0,126,156)" stroke-linecap="butt" stroke-miterlimit="10.0"><path d="M 73.2673,70.8911 c 0.0000,-1.3124 -1.0639,-2.3762 -2.3762 -2.3762c -1.3124,-0.0000 -2.3762,1.0639 -2.3762 2.3762c -0.0000,1.3124 1.0639,2.3762 2.3762 2.3762c 1.3124,0.0000 2.3762,-1.0639 2.3762 -2.3762Z"/></g><g stroke-linejoin="miter" stroke-opacity="1.0" fill-opacity="1.0" stroke="rgb(0,0,0)" stroke-width="0.0" fill="rgb(0,126,156)" stroke-linecap="butt" stroke-miterlimit="10.0"><path d="M 53.4653,70.8911 c 0.0000,-1.3124 -1.0639,-2.3762 -2.3762 -2.3762c -1.3124,-0.0000 -2.3762,1.0639 -2.3762 2.3762c -0.0000,1.3124 1.0639,2.3762 2.3762 2.3762c 1.3124,0.0000 2.3762,-1.0639 2.3762 -2.3762Z"/></g><g stroke-linejoin="miter" stroke-opacity="1.0" fill-opacity="1.0" stroke="rgb(0,0,0)" stroke-width="0.0" fill="rgb(0,126,156)" stroke-linecap="butt" stroke-miterlimit="10.0"><path d="M 33.6634,70.8911 c 0.0000,-1.3124 -1.0639,-2.3762 -2.3762 -2.3762c -1.3124,-0.0000 -2.3762,1.0639 -2.3762 2.3762c -0.0000,1.3124 1.0639,2.3762 2.3762 2.3762c 1.3124,0.0000 2.3762,-1.0639 2.3762 -2.3762Z"/></g><g stroke-linejoin="miter" stroke-opacity="1.0" fill-opacity="1.0" stroke="rgb(0,0,0)" stroke-width="0.0" fill="rgb(0,126,156)" stroke-linecap="butt" stroke-miterlimit="10.0"><path d="M 13.8614,70.8911 c 0.0000,-1.3124 -1.0639,-2.3762 -2.3762 -2.3762c -1.3124,-0.0000 -2.3762,1.0639 -2.3762 2.3762c -0.0000,1.3124 1.0639,2.3762 2.3762 2.3762c 1.3124,0.0000 2.3762,-1.0639 2.3762 -2.3762Z"/></g><g stroke-linejoin="miter" stroke-opacity="1.0" fill-opacity="1.0" stroke="rgb(0,0,0)" stroke-width="0.0" fill="rgb(0,126,156)" stroke-linecap="butt" stroke-miterlimit="10.0"><path d="M 310.8911,90.6931 c 0.0000,-1.3124 -1.0639,-2.3762 -2.3762 -2.3762c -1.3124,-0.0000 -2.3762,1.0639 -2.3762 2.3762c -0.0000,1.3124 1.0639,2.3762 2.3762 2.3762c 1.3124,0.0000 2.3762,-1.0639 2.3762 -2.3762Z"/></g><g stroke-linejoin="miter" stroke-opacity="1.0" fill-opacity="1.0" stroke="rgb(0,0,0)" stroke-width="0.0" fill="rgb(0,126,156)" stroke-linecap="butt" stroke-miterlimit="10.0"><path d="M 291.0891,90.6931 c 0.0000,-1.3124 -1.0639,-2.3762 -2.3762 -2.3762c -1.3124,-0.0000 -2.3762,1.0639 -2.3762 2.3762c -0.0000,1.3124 1.0639,2.3762 2.3762 2.3762c 1.3124,0.0000 2.3762,-1.0639 2.3762 -2.3762Z"/></g><g stroke-linejoin="miter" stroke-opacity="1.0" fill-opacity="1.0" stroke="rgb(0,0,0)" stroke-width="0.0" fill="rgb(0,126,156)" stroke-linecap="butt" stroke-miterlimit="10.0"><path d="M 271.2871,90.6931 c 0.0000,-1.3124 -1.0639,-2.3762 -2.3762 -2.3762c -1.3124,-0.0000 -2.3762,1.0639 -2.3762 2.3762c -0.0000,1.3124 1.0639,2.3762 2.3762 2.3762c 1.3124,0.0000 2.3762,-1.0639 2.3762 -2.3762Z"/></g><g stroke-linejoin="miter" stroke-opacity="1.0" fill-opacity="1.0" stroke="rgb(0,0,0)" stroke-width="0.0" fill="rgb(0,126,156)" stroke-linecap="butt" stroke-miterlimit="10.0"><path d="M 251.4851,90.6931 c 0.0000,-1.3124 -1.0639,-2.3762 -2.3762 -2.3762c -1.3124,-0.0000 -2.3762,1.0639 -2.3762 2.3762c -0.0000,1.3124 1.0639,2.3762 2.3762 2.3762c 1.3124,0.0000 2.3762,-1.0639 2.3762 -2.3762Z"/></g><g stroke-linejoin="miter" stroke-opacity="1.0" fill-opacity="1.0" stroke="rgb(0,0,0)" stroke-width="0.0" fill="rgb(0,126,156)" stroke-linecap="butt" stroke-miterlimit="10.0"><path d="M 310.8911,110.4950 c 0.0000,-1.3124 -1.0639,-2.3762 -2.3762 -2.3762c -1.3124,-0.0000 -2.3762,1.0639 -2.3762 2.3762c -0.0000,1.3124 1.0639,2.3762 2.3762 2.3762c 1.3124,0.0000 2.3762,-1.0639 2.3762 -2.3762Z"/></g><g stroke-linejoin="miter" stroke-opacity="1.0" fill-opacity="1.0" stroke="rgb(0,0,0)" stroke-width="0.0" fill="rgb(0,126,156)" stroke-linecap="butt" stroke-miterlimit="10.0"><path d="M 291.0891,110.4950 c 0.0000,-1.3124 -1.0639,-2.3762 -2.3762 -2.3762c -1.3124,-0.0000 -2.3762,1.0639 -2.3762 2.3762c -0.0000,1.3124 1.0639,2.3762 2.3762 2.3762c 1.3124,0.0000 2.3762,-1.0639 2.3762 -2.3762Z"/></g><g stroke-linejoin="miter" stroke-opacity="1.0" fill-opacity="1.0" stroke="rgb(0,0,0)" stroke-width="0.0" fill="rgb(0,126,156)" stroke-linecap="butt" stroke-miterlimit="10.0"><path d="M 271.2871,110.4950 c 0.0000,-1.3124 -1.0639,-2.3762 -2.3762 -2.3762c -1.3124,-0.0000 -2.3762,1.0639 -2.3762 2.3762c -0.0000,1.3124 1.0639,2.3762 2.3762 2.3762c 1.3124,0.0000 2.3762,-1.0639 2.3762 -2.3762Z"/></g><g stroke-linejoin="miter" stroke-opacity="1.0" fill-opacity="1.0" stroke="rgb(0,0,0)" stroke-width="0.0" fill="rgb(0,126,156)" stroke-linecap="butt" stroke-miterlimit="10.0"><path d="M 251.4851,110.4950 c 0.0000,-1.3124 -1.0639,-2.3762 -2.3762 -2.3762c -1.3124,-0.0000 -2.3762,1.0639 -2.3762 2.3762c -0.0000,1.3124 1.0639,2.3762 2.3762 2.3762c 1.3124,0.0000 2.3762,-1.0639 2.3762 -2.3762Z"/></g><g stroke-linejoin="miter" stroke-opacity="1.0" fill-opacity="1.0" stroke="rgb(0,0,0)" stroke-width="0.0" fill="rgb(0,126,156)" stroke-linecap="butt" stroke-miterlimit="10.0"><path d="M 310.8911,130.2970 c 0.0000,-1.3124 -1.0639,-2.3762 -2.3762 -2.3762c -1.3124,-0.0000 -2.3762,1.0639 -2.3762 2.3762c -0.0000,1.3124 1.0639,2.3762 2.3762 2.3762c 1.3124,0.0000 2.3762,-1.0639 2.3762 -2.3762Z"/></g><g stroke-linejoin="miter" stroke-opacity="1.0" fill-opacity="1.0" stroke="rgb(0,0,0)" stroke-width="0.0" fill="rgb(0,126,156)" stroke-linecap="butt" stroke-miterlimit="10.0"><path d="M 291.0891,130.2970 c 0.0000,-1.3124 -1.0639,-2.3762 -2.3762 -2.3762c -1.3124,-0.0000 -2.3762,1.0639 -2.3762 2.3762c -0.0000,1.3124 1.0639,2.3762 2.3762 2.3762c 1.3124,0.0000 2.3762,-1.0639 2.3762 -2.3762Z"/></g><g stroke-linejoin="miter" stroke-opacity="1.0" fill-opacity="1.0" stroke="rgb(0,0,0)" stroke-width="0.0" fill="rgb(0,126,156)" stroke-linecap="butt" stroke-miterlimit="10.0"><path d="M 271.2871,130.2970 c 0.0000,-1.3124 -1.0639,-2.3762 -2.3762 -2.3762c -1.3124,-0.0000 -2.3762,1.0639 -2.3762 2.3762c -0.0000,1.3124 1.0639,2.3762 2.3762 2.3762c 1.3124,0.0000 2.3762,-1.0639 2.3762 -2.3762Z"/></g><g stroke-linejoin="miter" stroke-opacity="1.0" fill-opacity="1.0" stroke="rgb(0,0,0)" stroke-width="0.0" fill="rgb(0,126,156)" stroke-linecap="butt" stroke-miterlimit="10.0"><path d="M 251.4851,130.2970 c 0.0000,-1.3124 -1.0639,-2.3762 -2.3762 -2.3762c -1.3124,-0.0000 -2.3762,1.0639 -2.3762 2.3762c -0.0000,1.3124 1.0639,2.3762 2.3762 2.3762c 1.3124,0.0000 2.3762,-1.0639 2.3762 -2.3762Z"/></g><g stroke-linejoin="miter" stroke-opacity="1.0" fill-opacity="1.0" stroke="rgb(0,0,0)" stroke-width="0.0" fill="rgb(0,126,156)" stroke-linecap="butt" stroke-miterlimit="10.0"><path d="M 310.8911,150.0990 c 0.0000,-1.3124 -1.0639,-2.3762 -2.3762 -2.3762c -1.3124,-0.0000 -2.3762,1.0639 -2.3762 2.3762c -0.0000,1.3124 1.0639,2.3762 2.3762 2.3762c 1.3124,0.0000 2.3762,-1.0639 2.3762 -2.3762Z"/></g><g stroke-linejoin="miter" stroke-opacity="1.0" fill-opacity="1.0" stroke="rgb(0,0,0)" stroke-width="0.0" fill="rgb(0,126,156)" stroke-linecap="butt" stroke-miterlimit="10.0"><path d="M 291.0891,150.0990 c 0.0000,-1.3124 -1.0639,-2.3762 -2.3762 -2.3762c -1.3124,-0.0000 -2.3762,1.0639 -2.3762 2.3762c -0.0000,1.3124 1.0639,2.3762 2.3762 2.3762c 1.3124,0.0000 2.3762,-1.0639 2.3762 -2.3762Z"/></g><g stroke-linejoin="miter" stroke-opacity="1.0" fill-opacity="1.0" stroke="rgb(0,0,0)" stroke-width="0.0" fill="rgb(0,126,156)" stroke-linecap="butt" stroke-miterlimit="10.0"><path d="M 271.2871,150.0990 c 0.0000,-1.3124 -1.0639,-2.3762 -2.3762 -2.3762c -1.3124,-0.0000 -2.3762,1.0639 -2.3762 2.3762c -0.0000,1.3124 1.0639,2.3762 2.3762 2.3762c 1.3124,0.0000 2.3762,-1.0639 2.3762 -2.3762Z"/></g><g stroke-linejoin="miter" stroke-opacity="1.0" fill-opacity="1.0" stroke="rgb(0,0,0)" stroke-width="0.0" fill="rgb(0,126,156)" stroke-linecap="butt" stroke-miterlimit="10.0"><path d="M 251.4851,150.0990 c 0.0000,-1.3124 -1.0639,-2.3762 -2.3762 -2.3762c -1.3124,-0.0000 -2.3762,1.0639 -2.3762 2.3762c -0.0000,1.3124 1.0639,2.3762 2.3762 2.3762c 1.3124,0.0000 2.3762,-1.0639 2.3762 -2.3762Z"/></g><g stroke-linejoin="miter" stroke-opacity="1.0" fill-opacity="1.0" stroke="rgb(0,0,0)" stroke-width="0.0" fill="rgb(0,126,156)" stroke-linecap="butt" stroke-miterlimit="10.0"><path d="M 231.6832,90.6931 c 0.0000,-1.3124 -1.0639,-2.3762 -2.3762 -2.3762c -1.3124,-0.0000 -2.3762,1.0639 -2.3762 2.3762c -0.0000,1.3124 1.0639,2.3762 2.3762 2.3762c 1.3124,0.0000 2.3762,-1.0639 2.3762 -2.3762Z"/></g><g stroke-linejoin="miter" stroke-opacity="1.0" fill-opacity="1.0" stroke="rgb(0,0,0)" stroke-width="0.0" fill="rgb(0,126,156)" stroke-linecap="butt" stroke-miterlimit="10.0"><path d="M 211.8812,90.6931 c 0.0000,-1.3124 -1.0639,-2.3762 -2.3762 -2.3762c -1.3124,-0.0000 -2.3762,1.0639 -2.3762 2.3762c -0.0000,1.3124 1.0639,2.3762 2.3762 2.3762c 1.3124,0.0000 2.3762,-1.0639 2.3762 -2.3762Z"/></g><g stroke-linejoin="miter" stroke-opacity="1.0" fill-opacity="1.0" stroke="rgb(0,0,0)" stroke-width="0.0" fill="rgb(0,126,156)" stroke-linecap="butt" stroke-miterlimit="10.0"><path d="M 192.0792,90.6931 c 0.0000,-1.3124 -1.0639,-2.3762 -2.3762 -2.3762c -1.3124,-0.0000 -2.3762,1.0639 -2.3762 2.3762c -0.0000,1.3124 1.0639,2.3762 2.3762 2.3762c 1.3124,0.0000 2.3762,-1.0639 2.3762 -2.3762Z"/></g><g stroke-linejoin="miter" stroke-opacity="1.0" fill-opacity="1.0" stroke="rgb(0,0,0)" stroke-width="0.0" fill="rgb(0,126,156)" stroke-linecap="butt" stroke-miterlimit="10.0"><path d="M 172.2772,90.6931 c 0.0000,-1.3124 -1.0639,-2.3762 -2.3762 -2.3762c -1.3124,-0.0000 -2.3762,1.0639 -2.3762 2.3762c -0.0000,1.3124 1.0639,2.3762 2.3762 2.3762c 1.3124,0.0000 2.3762,-1.0639 2.3762 -2.3762Z"/></g><g stroke-linejoin="miter" stroke-opacity="1.0" fill-opacity="1.0" stroke="rgb(0,0,0)" stroke-width="0.0" fill="rgb(0,126,156)" stroke-linecap="butt" stroke-miterlimit="10.0"><path d="M 231.6832,110.4950 c 0.0000,-1.3124 -1.0639,-2.3762 -2.3762 -2.3762c -1.3124,-0.0000 -2.3762,1.0639 -2.3762 2.3762c -0.0000,1.3124 1.0639,2.3762 2.3762 2.3762c 1.3124,0.0000 2.3762,-1.0639 2.3762 -2.3762Z"/></g><g stroke-linejoin="miter" stroke-opacity="1.0" fill-opacity="1.0" stroke="rgb(0,0,0)" stroke-width="0.0" fill="rgb(0,126,156)" stroke-linecap="butt" stroke-miterlimit="10.0"><path d="M 211.8812,110.4950 c 0.0000,-1.3124 -1.0639,-2.3762 -2.3762 -2.3762c -1.3124,-0.0000 -2.3762,1.0639 -2.3762 2.3762c -0.0000,1.3124 1.0639,2.3762 2.3762 2.3762c 1.3124,0.0000 2.3762,-1.0639 2.3762 -2.3762Z"/></g><g stroke-linejoin="miter" stroke-opacity="1.0" fill-opacity="1.0" stroke="rgb(0,0,0)" stroke-width="0.0" fill="rgb(0,126,156)" stroke-linecap="butt" stroke-miterlimit="10.0"><path d="M 192.0792,110.4950 c 0.0000,-1.3124 -1.0639,-2.3762 -2.3762 -2.3762c -1.3124,-0.0000 -2.3762,1.0639 -2.3762 2.3762c -0.0000,1.3124 1.0639,2.3762 2.3762 2.3762c 1.3124,0.0000 2.3762,-1.0639 2.3762 -2.3762Z"/></g><g stroke-linejoin="miter" stroke-opacity="1.0" fill-opacity="1.0" stroke="rgb(0,0,0)" stroke-width="0.0" fill="rgb(0,126,156)" stroke-linecap="butt" stroke-miterlimit="10.0"><path d="M 172.2772,110.4950 c 0.0000,-1.3124 -1.0639,-2.3762 -2.3762 -2.3762c -1.3124,-0.0000 -2.3762,1.0639 -2.3762 2.3762c -0.0000,1.3124 1.0639,2.3762 2.3762 2.3762c 1.3124,0.0000 2.3762,-1.0639 2.3762 -2.3762Z"/></g><g stroke-linejoin="miter" stroke-opacity="1.0" fill-opacity="1.0" stroke="rgb(0,0,0)" stroke-width="0.0" fill="rgb(0,126,156)" stroke-linecap="butt" stroke-miterlimit="10.0"><path d="M 231.6832,130.2970 c 0.0000,-1.3124 -1.0639,-2.3762 -2.3762 -2.3762c -1.3124,-0.0000 -2.3762,1.0639 -2.3762 2.3762c -0.0000,1.3124 1.0639,2.3762 2.3762 2.3762c 1.3124,0.0000 2.3762,-1.0639 2.3762 -2.3762Z"/></g><g stroke-linejoin="miter" stroke-opacity="1.0" fill-opacity="1.0" stroke="rgb(0,0,0)" stroke-width="0.0" fill="rgb(0,126,156)" stroke-linecap="butt" stroke-miterlimit="10.0"><path d="M 211.8812,130.2970 c 0.0000,-1.3124 -1.0639,-2.3762 -2.3762 -2.3762c -1.3124,-0.0000 -2.3762,1.0639 -2.3762 2.3762c -0.0000,1.3124 1.0639,2.3762 2.3762 2.3762c 1.3124,0.0000 2.3762,-1.0639 2.3762 -2.3762Z"/></g><g stroke-linejoin="miter" stroke-opacity="1.0" fill-opacity="1.0" stroke="rgb(0,0,0)" stroke-width="0.0" fill="rgb(0,126,156)" stroke-linecap="butt" stroke-miterlimit="10.0"><path d="M 192.0792,130.2970 c 0.0000,-1.3124 -1.0639,-2.3762 -2.3762 -2.3762c -1.3124,-0.0000 -2.3762,1.0639 -2.3762 2.3762c -0.0000,1.3124 1.0639,2.3762 2.3762 2.3762c 1.3124,0.0000 2.3762,-1.0639 2.3762 -2.3762Z"/></g><g stroke-linejoin="miter" stroke-opacity="1.0" fill-opacity="1.0" stroke="rgb(0,0,0)" stroke-width="0.0" fill="rgb(0,126,156)" stroke-linecap="butt" stroke-miterlimit="10.0"><path d="M 172.2772,130.2970 c 0.0000,-1.3124 -1.0639,-2.3762 -2.3762 -2.3762c -1.3124,-0.0000 -2.3762,1.0639 -2.3762 2.3762c -0.0000,1.3124 1.0639,2.3762 2.3762 2.3762c 1.3124,0.0000 2.3762,-1.0639 2.3762 -2.3762Z"/></g><g stroke-linejoin="miter" stroke-opacity="1.0" fill-opacity="1.0" stroke="rgb(0,0,0)" stroke-width="0.0" fill="rgb(0,126,156)" stroke-linecap="butt" stroke-miterlimit="10.0"><path d="M 231.6832,150.0990 c 0.0000,-1.3124 -1.0639,-2.3762 -2.3762 -2.3762c -1.3124,-0.0000 -2.3762,1.0639 -2.3762 2.3762c -0.0000,1.3124 1.0639,2.3762 2.3762 2.3762c 1.3124,0.0000 2.3762,-1.0639 2.3762 -2.3762Z"/></g><g stroke-linejoin="miter" stroke-opacity="1.0" fill-opacity="1.0" stroke="rgb(0,0,0)" stroke-width="0.0" fill="rgb(0,126,156)" stroke-linecap="butt" stroke-miterlimit="10.0"><path d="M 211.8812,150.0990 c 0.0000,-1.3124 -1.0639,-2.3762 -2.3762 -2.3762c -1.3124,-0.0000 -2.3762,1.0639 -2.3762 2.3762c -0.0000,1.3124 1.0639,2.3762 2.3762 2.3762c 1.3124,0.0000 2.3762,-1.0639 2.3762 -2.3762Z"/></g><g stroke-linejoin="miter" stroke-opacity="1.0" fill-opacity="1.0" stroke="rgb(0,0,0)" stroke-width="0.0" fill="rgb(0,126,156)" stroke-linecap="butt" stroke-miterlimit="10.0"><path d="M 192.0792,150.0990 c 0.0000,-1.3124 -1.0639,-2.3762 -2.3762 -2.3762c -1.3124,-0.0000 -2.3762,1.0639 -2.3762 2.3762c -0.0000,1.3124 1.0639,2.3762 2.3762 2.3762c 1.3124,0.0000 2.3762,-1.0639 2.3762 -2.3762Z"/></g><g stroke-linejoin="miter" stroke-opacity="1.0" fill-opacity="1.0" stroke="rgb(0,0,0)" stroke-width="0.0" fill="rgb(0,126,156)" stroke-linecap="butt" stroke-miterlimit="10.0"><path d="M 172.2772,150.0990 c 0.0000,-1.3124 -1.0639,-2.3762 -2.3762 -2.3762c -1.3124,-0.0000 -2.3762,1.0639 -2.3762 2.3762c -0.0000,1.3124 1.0639,2.3762 2.3762 2.3762c 1.3124,0.0000 2.3762,-1.0639 2.3762 -2.3762Z"/></g><g stroke-linejoin="miter" stroke-opacity="1.0" fill-opacity="1.0" stroke="rgb(0,0,0)" stroke-width="0.0" fill="rgb(0,126,156)" stroke-linecap="butt" stroke-miterlimit="10.0"><path d="M 152.4752,90.6931 c 0.0000,-1.3124 -1.0639,-2.3762 -2.3762 -2.3762c -1.3124,-0.0000 -2.3762,1.0639 -2.3762 2.3762c -0.0000,1.3124 1.0639,2.3762 2.3762 2.3762c 1.3124,0.0000 2.3762,-1.0639 2.3762 -2.3762Z"/></g><g stroke-linejoin="miter" stroke-opacity="1.0" fill-opacity="1.0" stroke="rgb(0,0,0)" stroke-width="0.0" fill="rgb(0,126,156)" stroke-linecap="butt" stroke-miterlimit="10.0"><path d="M 132.6733,90.6931 c 0.0000,-1.3124 -1.0639,-2.3762 -2.3762 -2.3762c -1.3124,-0.0000 -2.3762,1.0639 -2.3762 2.3762c -0.0000,1.3124 1.0639,2.3762 2.3762 2.3762c 1.3124,0.0000 2.3762,-1.0639 2.3762 -2.3762Z"/></g><g stroke-linejoin="miter" stroke-opacity="1.0" fill-opacity="1.0" stroke="rgb(0,0,0)" stroke-width="0.0" fill="rgb(0,126,156)" stroke-linecap="butt" stroke-miterlimit="10.0"><path d="M 112.8713,90.6931 c 0.0000,-1.3124 -1.0639,-2.3762 -2.3762 -2.3762c -1.3124,-0.0000 -2.3762,1.0639 -2.3762 2.3762c -0.0000,1.3124 1.0639,2.3762 2.3762 2.3762c 1.3124,0.0000 2.3762,-1.0639 2.3762 -2.3762Z"/></g><g stroke-linejoin="miter" stroke-opacity="1.0" fill-opacity="1.0" stroke="rgb(0,0,0)" stroke-width="0.0" fill="rgb(0,126,156)" stroke-linecap="butt" stroke-miterlimit="10.0"><path d="M 93.0693,90.6931 c 0.0000,-1.3124 -1.0639,-2.3762 -2.3762 -2.3762c -1.3124,-0.0000 -2.3762,1.0639 -2.3762 2.3762c -0.0000,1.3124 1.0639,2.3762 2.3762 2.3762c 1.3124,0.0000 2.3762,-1.0639 2.3762 -2.3762Z"/></g><g stroke-linejoin="miter" stroke-opacity="1.0" fill-opacity="1.0" stroke="rgb(0,0,0)" stroke-width="0.0" fill="rgb(0,126,156)" stroke-linecap="butt" stroke-miterlimit="10.0"><path d="M 152.4752,110.4950 c 0.0000,-1.3124 -1.0639,-2.3762 -2.3762 -2.3762c -1.3124,-0.0000 -2.3762,1.0639 -2.3762 2.3762c -0.0000,1.3124 1.0639,2.3762 2.3762 2.3762c 1.3124,0.0000 2.3762,-1.0639 2.3762 -2.3762Z"/></g><g stroke-linejoin="miter" stroke-opacity="1.0" fill-opacity="1.0" stroke="rgb(0,0,0)" stroke-width="0.0" fill="rgb(0,126,156)" stroke-linecap="butt" stroke-miterlimit="10.0"><path d="M 132.6733,110.4950 c 0.0000,-1.3124 -1.0639,-2.3762 -2.3762 -2.3762c -1.3124,-0.0000 -2.3762,1.0639 -2.3762 2.3762c -0.0000,1.3124 1.0639,2.3762 2.3762 2.3762c 1.3124,0.0000 2.3762,-1.0639 2.3762 -2.3762Z"/></g><g stroke-linejoin="miter" stroke-opacity="1.0" fill-opacity="1.0" stroke="rgb(0,0,0)" stroke-width="0.0" fill="rgb(0,126,156)" stroke-linecap="butt" stroke-miterlimit="10.0"><path d="M 112.8713,110.4950 c 0.0000,-1.3124 -1.0639,-2.3762 -2.3762 -2.3762c -1.3124,-0.0000 -2.3762,1.0639 -2.3762 2.3762c -0.0000,1.3124 1.0639,2.3762 2.3762 2.3762c 1.3124,0.0000 2.3762,-1.0639 2.3762 -2.3762Z"/></g><g stroke-linejoin="miter" stroke-opacity="1.0" fill-opacity="1.0" stroke="rgb(0,0,0)" stroke-width="0.0" fill="rgb(0,126,156)" stroke-linecap="butt" stroke-miterlimit="10.0"><path d="M 93.0693,110.4950 c 0.0000,-1.3124 -1.0639,-2.3762 -2.3762 -2.3762c -1.3124,-0.0000 -2.3762,1.0639 -2.3762 2.3762c -0.0000,1.3124 1.0639,2.3762 2.3762 2.3762c 1.3124,0.0000 2.3762,-1.0639 2.3762 -2.3762Z"/></g><g stroke-linejoin="miter" stroke-opacity="1.0" fill-opacity="1.0" stroke="rgb(0,0,0)" stroke-width="0.0" fill="rgb(0,126,156)" stroke-linecap="butt" stroke-miterlimit="10.0"><path d="M 152.4752,130.2970 c 0.0000,-1.3124 -1.0639,-2.3762 -2.3762 -2.3762c -1.3124,-0.0000 -2.3762,1.0639 -2.3762 2.3762c -0.0000,1.3124 1.0639,2.3762 2.3762 2.3762c 1.3124,0.0000 2.3762,-1.0639 2.3762 -2.3762Z"/></g><g stroke-linejoin="miter" stroke-opacity="1.0" fill-opacity="1.0" stroke="rgb(0,0,0)" stroke-width="0.0" fill="rgb(0,126,156)" stroke-linecap="butt" stroke-miterlimit="10.0"><path d="M 132.6733,130.2970 c 0.0000,-1.3124 -1.0639,-2.3762 -2.3762 -2.3762c -1.3124,-0.0000 -2.3762,1.0639 -2.3762 2.3762c -0.0000,1.3124 1.0639,2.3762 2.3762 2.3762c 1.3124,0.0000 2.3762,-1.0639 2.3762 -2.3762Z"/></g><g stroke-linejoin="miter" stroke-opacity="1.0" fill-opacity="1.0" stroke="rgb(0,0,0)" stroke-width="0.0" fill="rgb(0,126,156)" stroke-linecap="butt" stroke-miterlimit="10.0"><path d="M 112.8713,130.2970 c 0.0000,-1.3124 -1.0639,-2.3762 -2.3762 -2.3762c -1.3124,-0.0000 -2.3762,1.0639 -2.3762 2.3762c -0.0000,1.3124 1.0639,2.3762 2.3762 2.3762c 1.3124,0.0000 2.3762,-1.0639 2.3762 -2.3762Z"/></g><g stroke-linejoin="miter" stroke-opacity="1.0" fill-opacity="1.0" stroke="rgb(0,0,0)" stroke-width="0.0" fill="rgb(0,126,156)" stroke-linecap="butt" stroke-miterlimit="10.0"><path d="M 93.0693,130.2970 c 0.0000,-1.3124 -1.0639,-2.3762 -2.3762 -2.3762c -1.3124,-0.0000 -2.3762,1.0639 -2.3762 2.3762c -0.0000,1.3124 1.0639,2.3762 2.3762 2.3762c 1.3124,0.0000 2.3762,-1.0639 2.3762 -2.3762Z"/></g><g stroke-linejoin="miter" stroke-opacity="1.0" fill-opacity="1.0" stroke="rgb(0,0,0)" stroke-width="0.0" fill="rgb(0,126,156)" stroke-linecap="butt" stroke-miterlimit="10.0"><path d="M 152.4752,150.0990 c 0.0000,-1.3124 -1.0639,-2.3762 -2.3762 -2.3762c -1.3124,-0.0000 -2.3762,1.0639 -2.3762 2.3762c -0.0000,1.3124 1.0639,2.3762 2.3762 2.3762c 1.3124,0.0000 2.3762,-1.0639 2.3762 -2.3762Z"/></g><g stroke-linejoin="miter" stroke-opacity="1.0" fill-opacity="1.0" stroke="rgb(0,0,0)" stroke-width="0.0" fill="rgb(0,126,156)" stroke-linecap="butt" stroke-miterlimit="10.0"><path d="M 132.6733,150.0990 c 0.0000,-1.3124 -1.0639,-2.3762 -2.3762 -2.3762c -1.3124,-0.0000 -2.3762,1.0639 -2.3762 2.3762c -0.0000,1.3124 1.0639,2.3762 2.3762 2.3762c 1.3124,0.0000 2.3762,-1.0639 2.3762 -2.3762Z"/></g><g stroke-linejoin="miter" stroke-opacity="1.0" fill-opacity="1.0" stroke="rgb(0,0,0)" stroke-width="0.0" fill="rgb(0,126,156)" stroke-linecap="butt" stroke-miterlimit="10.0"><path d="M 112.8713,150.0990 c 0.0000,-1.3124 -1.0639,-2.3762 -2.3762 -2.3762c -1.3124,-0.0000 -2.3762,1.0639 -2.3762 2.3762c -0.0000,1.3124 1.0639,2.3762 2.3762 2.3762c 1.3124,0.0000 2.3762,-1.0639 2.3762 -2.3762Z"/></g><g stroke-linejoin="miter" stroke-opacity="1.0" fill-opacity="1.0" stroke="rgb(0,0,0)" stroke-width="0.0" fill="rgb(0,126,156)" stroke-linecap="butt" stroke-miterlimit="10.0"><path d="M 93.0693,150.0990 c 0.0000,-1.3124 -1.0639,-2.3762 -2.3762 -2.3762c -1.3124,-0.0000 -2.3762,1.0639 -2.3762 2.3762c -0.0000,1.3124 1.0639,2.3762 2.3762 2.3762c 1.3124,0.0000 2.3762,-1.0639 2.3762 -2.3762Z"/></g><g stroke-linejoin="miter" stroke-opacity="1.0" fill-opacity="1.0" stroke="rgb(0,0,0)" stroke-width="0.0" fill="rgb(0,126,156)" stroke-linecap="butt" stroke-miterlimit="10.0"><path d="M 73.2673,90.6931 c 0.0000,-1.3124 -1.0639,-2.3762 -2.3762 -2.3762c -1.3124,-0.0000 -2.3762,1.0639 -2.3762 2.3762c -0.0000,1.3124 1.0639,2.3762 2.3762 2.3762c 1.3124,0.0000 2.3762,-1.0639 2.3762 -2.3762Z"/></g><g stroke-linejoin="miter" stroke-opacity="1.0" fill-opacity="1.0" stroke="rgb(0,0,0)" stroke-width="0.0" fill="rgb(0,126,156)" stroke-linecap="butt" stroke-miterlimit="10.0"><path d="M 53.4653,90.6931 c 0.0000,-1.3124 -1.0639,-2.3762 -2.3762 -2.3762c -1.3124,-0.0000 -2.3762,1.0639 -2.3762 2.3762c -0.0000,1.3124 1.0639,2.3762 2.3762 2.3762c 1.3124,0.0000 2.3762,-1.0639 2.3762 -2.3762Z"/></g><g stroke-linejoin="miter" stroke-opacity="1.0" fill-opacity="1.0" stroke="rgb(0,0,0)" stroke-width="0.0" fill="rgb(0,126,156)" stroke-linecap="butt" stroke-miterlimit="10.0"><path d="M 33.6634,90.6931 c 0.0000,-1.3124 -1.0639,-2.3762 -2.3762 -2.3762c -1.3124,-0.0000 -2.3762,1.0639 -2.3762 2.3762c -0.0000,1.3124 1.0639,2.3762 2.3762 2.3762c 1.3124,0.0000 2.3762,-1.0639 2.3762 -2.3762Z"/></g><g stroke-linejoin="miter" stroke-opacity="1.0" fill-opacity="1.0" stroke="rgb(0,0,0)" stroke-width="0.0" fill="rgb(0,126,156)" stroke-linecap="butt" stroke-miterlimit="10.0"><path d="M 13.8614,90.6931 c 0.0000,-1.3124 -1.0639,-2.3762 -2.3762 -2.3762c -1.3124,-0.0000 -2.3762,1.0639 -2.3762 2.3762c -0.0000,1.3124 1.0639,2.3762 2.3762 2.3762c 1.3124,0.0000 2.3762,-1.0639 2.3762 -2.3762Z"/></g><g stroke-linejoin="miter" stroke-opacity="1.0" fill-opacity="1.0" stroke="rgb(0,0,0)" stroke-width="0.0" fill="rgb(0,126,156)" stroke-linecap="butt" stroke-miterlimit="10.0"><path d="M 73.2673,110.4950 c 0.0000,-1.3124 -1.0639,-2.3762 -2.3762 -2.3762c -1.3124,-0.0000 -2.3762,1.0639 -2.3762 2.3762c -0.0000,1.3124 1.0639,2.3762 2.3762 2.3762c 1.3124,0.0000 2.3762,-1.0639 2.3762 -2.3762Z"/></g><g stroke-linejoin="miter" stroke-opacity="1.0" fill-opacity="1.0" stroke="rgb(0,0,0)" stroke-width="0.0" fill="rgb(0,126,156)" stroke-linecap="butt" stroke-miterlimit="10.0"><path d="M 53.4653,110.4950 c 0.0000,-1.3124 -1.0639,-2.3762 -2.3762 -2.3762c -1.3124,-0.0000 -2.3762,1.0639 -2.3762 2.3762c -0.0000,1.3124 1.0639,2.3762 2.3762 2.3762c 1.3124,0.0000 2.3762,-1.0639 2.3762 -2.3762Z"/></g><g stroke-linejoin="miter" stroke-opacity="1.0" fill-opacity="1.0" stroke="rgb(0,0,0)" stroke-width="0.0" fill="rgb(0,126,156)" stroke-linecap="butt" stroke-miterlimit="10.0"><path d="M 33.6634,110.4950 c 0.0000,-1.3124 -1.0639,-2.3762 -2.3762 -2.3762c -1.3124,-0.0000 -2.3762,1.0639 -2.3762 2.3762c -0.0000,1.3124 1.0639,2.3762 2.3762 2.3762c 1.3124,0.0000 2.3762,-1.0639 2.3762 -2.3762Z"/></g><g stroke-linejoin="miter" stroke-opacity="1.0" fill-opacity="1.0" stroke="rgb(0,0,0)" stroke-width="0.0" fill="rgb(0,126,156)" stroke-linecap="butt" stroke-miterlimit="10.0"><path d="M 13.8614,110.4950 c 0.0000,-1.3124 -1.0639,-2.3762 -2.3762 -2.3762c -1.3124,-0.0000 -2.3762,1.0639 -2.3762 2.3762c -0.0000,1.3124 1.0639,2.3762 2.3762 2.3762c 1.3124,0.0000 2.3762,-1.0639 2.3762 -2.3762Z"/></g><g stroke-linejoin="miter" stroke-opacity="1.0" fill-opacity="1.0" stroke="rgb(0,0,0)" stroke-width="0.0" fill="rgb(0,126,156)" stroke-linecap="butt" stroke-miterlimit="10.0"><path d="M 73.2673,130.2970 c 0.0000,-1.3124 -1.0639,-2.3762 -2.3762 -2.3762c -1.3124,-0.0000 -2.3762,1.0639 -2.3762 2.3762c -0.0000,1.3124 1.0639,2.3762 2.3762 2.3762c 1.3124,0.0000 2.3762,-1.0639 2.3762 -2.3762Z"/></g><g stroke-linejoin="miter" stroke-opacity="1.0" fill-opacity="1.0" stroke="rgb(0,0,0)" stroke-width="0.0" fill="rgb(0,126,156)" stroke-linecap="butt" stroke-miterlimit="10.0"><path d="M 53.4653,130.2970 c 0.0000,-1.3124 -1.0639,-2.3762 -2.3762 -2.3762c -1.3124,-0.0000 -2.3762,1.0639 -2.3762 2.3762c -0.0000,1.3124 1.0639,2.3762 2.3762 2.3762c 1.3124,0.0000 2.3762,-1.0639 2.3762 -2.3762Z"/></g><g stroke-linejoin="miter" stroke-opacity="1.0" fill-opacity="1.0" stroke="rgb(0,0,0)" stroke-width="0.0" fill="rgb(0,126,156)" stroke-linecap="butt" stroke-miterlimit="10.0"><path d="M 33.6634,130.2970 c 0.0000,-1.3124 -1.0639,-2.3762 -2.3762 -2.3762c -1.3124,-0.0000 -2.3762,1.0639 -2.3762 2.3762c -0.0000,1.3124 1.0639,2.3762 2.3762 2.3762c 1.3124,0.0000 2.3762,-1.0639 2.3762 -2.3762Z"/></g><g stroke-linejoin="miter" stroke-opacity="1.0" fill-opacity="1.0" stroke="rgb(0,0,0)" stroke-width="0.0" fill="rgb(0,126,156)" stroke-linecap="butt" stroke-miterlimit="10.0"><path d="M 13.8614,130.2970 c 0.0000,-1.3124 -1.0639,-2.3762 -2.3762 -2.3762c -1.3124,-0.0000 -2.3762,1.0639 -2.3762 2.3762c -0.0000,1.3124 1.0639,2.3762 2.3762 2.3762c 1.3124,0.0000 2.3762,-1.0639 2.3762 -2.3762Z"/></g><g stroke-linejoin="miter" stroke-opacity="1.0" fill-opacity="1.0" stroke="rgb(0,0,0)" stroke-width="0.0" fill="rgb(0,126,156)" stroke-linecap="butt" stroke-miterlimit="10.0"><path d="M 73.2673,150.0990 c 0.0000,-1.3124 -1.0639,-2.3762 -2.3762 -2.3762c -1.3124,-0.0000 -2.3762,1.0639 -2.3762 2.3762c -0.0000,1.3124 1.0639,2.3762 2.3762 2.3762c 1.3124,0.0000 2.3762,-1.0639 2.3762 -2.3762Z"/></g><g stroke-linejoin="miter" stroke-opacity="1.0" fill-opacity="1.0" stroke="rgb(0,0,0)" stroke-width="0.0" fill="rgb(0,126,156)" stroke-linecap="butt" stroke-miterlimit="10.0"><path d="M 53.4653,150.0990 c 0.0000,-1.3124 -1.0639,-2.3762 -2.3762 -2.3762c -1.3124,-0.0000 -2.3762,1.0639 -2.3762 2.3762c -0.0000,1.3124 1.0639,2.3762 2.3762 2.3762c 1.3124,0.0000 2.3762,-1.0639 2.3762 -2.3762Z"/></g><g stroke-linejoin="miter" stroke-opacity="1.0" fill-opacity="1.0" stroke="rgb(0,0,0)" stroke-width="0.0" fill="rgb(0,126,156)" stroke-linecap="butt" stroke-miterlimit="10.0"><path d="M 33.6634,150.0990 c 0.0000,-1.3124 -1.0639,-2.3762 -2.3762 -2.3762c -1.3124,-0.0000 -2.3762,1.0639 -2.3762 2.3762c -0.0000,1.3124 1.0639,2.3762 2.3762 2.3762c 1.3124,0.0000 2.3762,-1.0639 2.3762 -2.3762Z"/></g><g stroke-linejoin="miter" stroke-opacity="1.0" fill-opacity="1.0" stroke="rgb(0,0,0)" stroke-width="0.0" fill="rgb(0,126,156)" stroke-linecap="butt" stroke-miterlimit="10.0"><path d="M 13.8614,150.0990 c 0.0000,-1.3124 -1.0639,-2.3762 -2.3762 -2.3762c -1.3124,-0.0000 -2.3762,1.0639 -2.3762 2.3762c -0.0000,1.3124 1.0639,2.3762 2.3762 2.3762c 1.3124,0.0000 2.3762,-1.0639 2.3762 -2.3762Z"/></g><g stroke-linejoin="miter" stroke-opacity="1.0" fill-opacity="1.0" stroke="rgb(0,0,0)" stroke-width="0.0" fill="rgb(0,126,156)" stroke-linecap="butt" stroke-miterlimit="10.0"><path d="M 310.8911,169.9010 c 0.0000,-1.3124 -1.0639,-2.3762 -2.3762 -2.3762c -1.3124,-0.0000 -2.3762,1.0639 -2.3762 2.3762c -0.0000,1.3124 1.0639,2.3762 2.3762 2.3762c 1.3124,0.0000 2.3762,-1.0639 2.3762 -2.3762Z"/></g><g stroke-linejoin="miter" stroke-opacity="1.0" fill-opacity="1.0" stroke="rgb(0,0,0)" stroke-width="0.0" fill="rgb(0,126,156)" stroke-linecap="butt" stroke-miterlimit="10.0"><path d="M 291.0891,169.9010 c 0.0000,-1.3124 -1.0639,-2.3762 -2.3762 -2.3762c -1.3124,-0.0000 -2.3762,1.0639 -2.3762 2.3762c -0.0000,1.3124 1.0639,2.3762 2.3762 2.3762c 1.3124,0.0000 2.3762,-1.0639 2.3762 -2.3762Z"/></g><g stroke-linejoin="miter" stroke-opacity="1.0" fill-opacity="1.0" stroke="rgb(0,0,0)" stroke-width="0.0" fill="rgb(0,126,156)" stroke-linecap="butt" stroke-miterlimit="10.0"><path d="M 271.2871,169.9010 c 0.0000,-1.3124 -1.0639,-2.3762 -2.3762 -2.3762c -1.3124,-0.0000 -2.3762,1.0639 -2.3762 2.3762c -0.0000,1.3124 1.0639,2.3762 2.3762 2.3762c 1.3124,0.0000 2.3762,-1.0639 2.3762 -2.3762Z"/></g><g stroke-linejoin="miter" stroke-opacity="1.0" fill-opacity="1.0" stroke="rgb(0,0,0)" stroke-width="0.0" fill="rgb(0,126,156)" stroke-linecap="butt" stroke-miterlimit="10.0"><path d="M 251.4851,169.9010 c 0.0000,-1.3124 -1.0639,-2.3762 -2.3762 -2.3762c -1.3124,-0.0000 -2.3762,1.0639 -2.3762 2.3762c -0.0000,1.3124 1.0639,2.3762 2.3762 2.3762c 1.3124,0.0000 2.3762,-1.0639 2.3762 -2.3762Z"/></g><g stroke-linejoin="miter" stroke-opacity="1.0" fill-opacity="1.0" stroke="rgb(0,0,0)" stroke-width="0.0" fill="rgb(0,126,156)" stroke-linecap="butt" stroke-miterlimit="10.0"><path d="M 310.8911,189.7030 c 0.0000,-1.3124 -1.0639,-2.3762 -2.3762 -2.3762c -1.3124,-0.0000 -2.3762,1.0639 -2.3762 2.3762c -0.0000,1.3124 1.0639,2.3762 2.3762 2.3762c 1.3124,0.0000 2.3762,-1.0639 2.3762 -2.3762Z"/></g><g stroke-linejoin="miter" stroke-opacity="1.0" fill-opacity="1.0" stroke="rgb(0,0,0)" stroke-width="0.0" fill="rgb(0,126,156)" stroke-linecap="butt" stroke-miterlimit="10.0"><path d="M 291.0891,189.7030 c 0.0000,-1.3124 -1.0639,-2.3762 -2.3762 -2.3762c -1.3124,-0.0000 -2.3762,1.0639 -2.3762 2.3762c -0.0000,1.3124 1.0639,2.3762 2.3762 2.3762c 1.3124,0.0000 2.3762,-1.0639 2.3762 -2.3762Z"/></g><g stroke-linejoin="miter" stroke-opacity="1.0" fill-opacity="1.0" stroke="rgb(0,0,0)" stroke-width="0.0" fill="rgb(0,126,156)" stroke-linecap="butt" stroke-miterlimit="10.0"><path d="M 271.2871,189.7030 c 0.0000,-1.3124 -1.0639,-2.3762 -2.3762 -2.3762c -1.3124,-0.0000 -2.3762,1.0639 -2.3762 2.3762c -0.0000,1.3124 1.0639,2.3762 2.3762 2.3762c 1.3124,0.0000 2.3762,-1.0639 2.3762 -2.3762Z"/></g><g stroke-linejoin="miter" stroke-opacity="1.0" fill-opacity="1.0" stroke="rgb(0,0,0)" stroke-width="0.0" fill="rgb(0,126,156)" stroke-linecap="butt" stroke-miterlimit="10.0"><path d="M 251.4851,189.7030 c 0.0000,-1.3124 -1.0639,-2.3762 -2.3762 -2.3762c -1.3124,-0.0000 -2.3762,1.0639 -2.3762 2.3762c -0.0000,1.3124 1.0639,2.3762 2.3762 2.3762c 1.3124,0.0000 2.3762,-1.0639 2.3762 -2.3762Z"/></g><g stroke-linejoin="miter" stroke-opacity="1.0" fill-opacity="1.0" stroke="rgb(0,0,0)" stroke-width="0.0" fill="rgb(0,126,156)" stroke-linecap="butt" stroke-miterlimit="10.0"><path d="M 310.8911,209.5050 c 0.0000,-1.3124 -1.0639,-2.3762 -2.3762 -2.3762c -1.3124,-0.0000 -2.3762,1.0639 -2.3762 2.3762c -0.0000,1.3124 1.0639,2.3762 2.3762 2.3762c 1.3124,0.0000 2.3762,-1.0639 2.3762 -2.3762Z"/></g><g stroke-linejoin="miter" stroke-opacity="1.0" fill-opacity="1.0" stroke="rgb(0,0,0)" stroke-width="0.0" fill="rgb(0,126,156)" stroke-linecap="butt" stroke-miterlimit="10.0"><path d="M 291.0891,209.5050 c 0.0000,-1.3124 -1.0639,-2.3762 -2.3762 -2.3762c -1.3124,-0.0000 -2.3762,1.0639 -2.3762 2.3762c -0.0000,1.3124 1.0639,2.3762 2.3762 2.3762c 1.3124,0.0000 2.3762,-1.0639 2.3762 -2.3762Z"/></g><g stroke-linejoin="miter" stroke-opacity="1.0" fill-opacity="1.0" stroke="rgb(0,0,0)" stroke-width="0.0" fill="rgb(0,126,156)" stroke-linecap="butt" stroke-miterlimit="10.0"><path d="M 271.2871,209.5050 c 0.0000,-1.3124 -1.0639,-2.3762 -2.3762 -2.3762c -1.3124,-0.0000 -2.3762,1.0639 -2.3762 2.3762c -0.0000,1.3124 1.0639,2.3762 2.3762 2.3762c 1.3124,0.0000 2.3762,-1.0639 2.3762 -2.3762Z"/></g><g stroke-linejoin="miter" stroke-opacity="1.0" fill-opacity="1.0" stroke="rgb(0,0,0)" stroke-width="0.0" fill="rgb(0,126,156)" stroke-linecap="butt" stroke-miterlimit="10.0"><path d="M 251.4851,209.5050 c 0.0000,-1.3124 -1.0639,-2.3762 -2.3762 -2.3762c -1.3124,-0.0000 -2.3762,1.0639 -2.3762 2.3762c -0.0000,1.3124 1.0639,2.3762 2.3762 2.3762c 1.3124,0.0000 2.3762,-1.0639 2.3762 -2.3762Z"/></g><g stroke-linejoin="miter" stroke-opacity="1.0" fill-opacity="1.0" stroke="rgb(0,0,0)" stroke-width="0.0" fill="rgb(0,126,156)" stroke-linecap="butt" stroke-miterlimit="10.0"><path d="M 310.8911,229.3069 c 0.0000,-1.3124 -1.0639,-2.3762 -2.3762 -2.3762c -1.3124,-0.0000 -2.3762,1.0639 -2.3762 2.3762c -0.0000,1.3124 1.0639,2.3762 2.3762 2.3762c 1.3124,0.0000 2.3762,-1.0639 2.3762 -2.3762Z"/></g><g stroke-linejoin="miter" stroke-opacity="1.0" fill-opacity="1.0" stroke="rgb(0,0,0)" stroke-width="0.0" fill="rgb(0,126,156)" stroke-linecap="butt" stroke-miterlimit="10.0"><path d="M 291.0891,229.3069 c 0.0000,-1.3124 -1.0639,-2.3762 -2.3762 -2.3762c -1.3124,-0.0000 -2.3762,1.0639 -2.3762 2.3762c -0.0000,1.3124 1.0639,2.3762 2.3762 2.3762c 1.3124,0.0000 2.3762,-1.0639 2.3762 -2.3762Z"/></g><g stroke-linejoin="miter" stroke-opacity="1.0" fill-opacity="1.0" stroke="rgb(0,0,0)" stroke-width="0.0" fill="rgb(0,126,156)" stroke-linecap="butt" stroke-miterlimit="10.0"><path d="M 271.2871,229.3069 c 0.0000,-1.3124 -1.0639,-2.3762 -2.3762 -2.3762c -1.3124,-0.0000 -2.3762,1.0639 -2.3762 2.3762c -0.0000,1.3124 1.0639,2.3762 2.3762 2.3762c 1.3124,0.0000 2.3762,-1.0639 2.3762 -2.3762Z"/></g><g stroke-linejoin="miter" stroke-opacity="1.0" fill-opacity="1.0" stroke="rgb(0,0,0)" stroke-width="0.0" fill="rgb(0,126,156)" stroke-linecap="butt" stroke-miterlimit="10.0"><path d="M 251.4851,229.3069 c 0.0000,-1.3124 -1.0639,-2.3762 -2.3762 -2.3762c -1.3124,-0.0000 -2.3762,1.0639 -2.3762 2.3762c -0.0000,1.3124 1.0639,2.3762 2.3762 2.3762c 1.3124,0.0000 2.3762,-1.0639 2.3762 -2.3762Z"/></g><g stroke-linejoin="miter" stroke-opacity="1.0" fill-opacity="1.0" stroke="rgb(0,0,0)" stroke-width="0.0" fill="rgb(0,126,156)" stroke-linecap="butt" stroke-miterlimit="10.0"><path d="M 231.6832,169.9010 c 0.0000,-1.3124 -1.0639,-2.3762 -2.3762 -2.3762c -1.3124,-0.0000 -2.3762,1.0639 -2.3762 2.3762c -0.0000,1.3124 1.0639,2.3762 2.3762 2.3762c 1.3124,0.0000 2.3762,-1.0639 2.3762 -2.3762Z"/></g><g stroke-linejoin="miter" stroke-opacity="1.0" fill-opacity="1.0" stroke="rgb(0,0,0)" stroke-width="0.0" fill="rgb(0,126,156)" stroke-linecap="butt" stroke-miterlimit="10.0"><path d="M 211.8812,169.9010 c 0.0000,-1.3124 -1.0639,-2.3762 -2.3762 -2.3762c -1.3124,-0.0000 -2.3762,1.0639 -2.3762 2.3762c -0.0000,1.3124 1.0639,2.3762 2.3762 2.3762c 1.3124,0.0000 2.3762,-1.0639 2.3762 -2.3762Z"/></g><g stroke-linejoin="miter" stroke-opacity="1.0" fill-opacity="1.0" stroke="rgb(0,0,0)" stroke-width="0.0" fill="rgb(0,126,156)" stroke-linecap="butt" stroke-miterlimit="10.0"><path d="M 192.0792,169.9010 c 0.0000,-1.3124 -1.0639,-2.3762 -2.3762 -2.3762c -1.3124,-0.0000 -2.3762,1.0639 -2.3762 2.3762c -0.0000,1.3124 1.0639,2.3762 2.3762 2.3762c 1.3124,0.0000 2.3762,-1.0639 2.3762 -2.3762Z"/></g><g stroke-linejoin="miter" stroke-opacity="1.0" fill-opacity="1.0" stroke="rgb(0,0,0)" stroke-width="0.0" fill="rgb(0,126,156)" stroke-linecap="butt" stroke-miterlimit="10.0"><path d="M 172.2772,169.9010 c 0.0000,-1.3124 -1.0639,-2.3762 -2.3762 -2.3762c -1.3124,-0.0000 -2.3762,1.0639 -2.3762 2.3762c -0.0000,1.3124 1.0639,2.3762 2.3762 2.3762c 1.3124,0.0000 2.3762,-1.0639 2.3762 -2.3762Z"/></g><g stroke-linejoin="miter" stroke-opacity="1.0" fill-opacity="1.0" stroke="rgb(0,0,0)" stroke-width="0.0" fill="rgb(0,126,156)" stroke-linecap="butt" stroke-miterlimit="10.0"><path d="M 231.6832,189.7030 c 0.0000,-1.3124 -1.0639,-2.3762 -2.3762 -2.3762c -1.3124,-0.0000 -2.3762,1.0639 -2.3762 2.3762c -0.0000,1.3124 1.0639,2.3762 2.3762 2.3762c 1.3124,0.0000 2.3762,-1.0639 2.3762 -2.3762Z"/></g><g stroke-linejoin="miter" stroke-opacity="1.0" fill-opacity="1.0" stroke="rgb(0,0,0)" stroke-width="0.0" fill="rgb(0,126,156)" stroke-linecap="butt" stroke-miterlimit="10.0"><path d="M 211.8812,189.7030 c 0.0000,-1.3124 -1.0639,-2.3762 -2.3762 -2.3762c -1.3124,-0.0000 -2.3762,1.0639 -2.3762 2.3762c -0.0000,1.3124 1.0639,2.3762 2.3762 2.3762c 1.3124,0.0000 2.3762,-1.0639 2.3762 -2.3762Z"/></g><g stroke-linejoin="miter" stroke-opacity="1.0" fill-opacity="1.0" stroke="rgb(0,0,0)" stroke-width="0.0" fill="rgb(0,126,156)" stroke-linecap="butt" stroke-miterlimit="10.0"><path d="M 192.0792,189.7030 c 0.0000,-1.3124 -1.0639,-2.3762 -2.3762 -2.3762c -1.3124,-0.0000 -2.3762,1.0639 -2.3762 2.3762c -0.0000,1.3124 1.0639,2.3762 2.3762 2.3762c 1.3124,0.0000 2.3762,-1.0639 2.3762 -2.3762Z"/></g><g stroke-linejoin="miter" stroke-opacity="1.0" fill-opacity="1.0" stroke="rgb(0,0,0)" stroke-width="0.0" fill="rgb(0,126,156)" stroke-linecap="butt" stroke-miterlimit="10.0"><path d="M 172.2772,189.7030 c 0.0000,-1.3124 -1.0639,-2.3762 -2.3762 -2.3762c -1.3124,-0.0000 -2.3762,1.0639 -2.3762 2.3762c -0.0000,1.3124 1.0639,2.3762 2.3762 2.3762c 1.3124,0.0000 2.3762,-1.0639 2.3762 -2.3762Z"/></g><g stroke-linejoin="miter" stroke-opacity="1.0" fill-opacity="1.0" stroke="rgb(0,0,0)" stroke-width="0.0" fill="rgb(0,126,156)" stroke-linecap="butt" stroke-miterlimit="10.0"><path d="M 231.6832,209.5050 c 0.0000,-1.3124 -1.0639,-2.3762 -2.3762 -2.3762c -1.3124,-0.0000 -2.3762,1.0639 -2.3762 2.3762c -0.0000,1.3124 1.0639,2.3762 2.3762 2.3762c 1.3124,0.0000 2.3762,-1.0639 2.3762 -2.3762Z"/></g><g stroke-linejoin="miter" stroke-opacity="1.0" fill-opacity="1.0" stroke="rgb(0,0,0)" stroke-width="0.0" fill="rgb(0,126,156)" stroke-linecap="butt" stroke-miterlimit="10.0"><path d="M 211.8812,209.5050 c 0.0000,-1.3124 -1.0639,-2.3762 -2.3762 -2.3762c -1.3124,-0.0000 -2.3762,1.0639 -2.3762 2.3762c -0.0000,1.3124 1.0639,2.3762 2.3762 2.3762c 1.3124,0.0000 2.3762,-1.0639 2.3762 -2.3762Z"/></g><g stroke-linejoin="miter" stroke-opacity="1.0" fill-opacity="1.0" stroke="rgb(0,0,0)" stroke-width="0.0" fill="rgb(0,126,156)" stroke-linecap="butt" stroke-miterlimit="10.0"><path d="M 192.0792,209.5050 c 0.0000,-1.3124 -1.0639,-2.3762 -2.3762 -2.3762c -1.3124,-0.0000 -2.3762,1.0639 -2.3762 2.3762c -0.0000,1.3124 1.0639,2.3762 2.3762 2.3762c 1.3124,0.0000 2.3762,-1.0639 2.3762 -2.3762Z"/></g><g stroke-linejoin="miter" stroke-opacity="1.0" fill-opacity="1.0" stroke="rgb(0,0,0)" stroke-width="0.0" fill="rgb(0,126,156)" stroke-linecap="butt" stroke-miterlimit="10.0"><path d="M 172.2772,209.5050 c 0.0000,-1.3124 -1.0639,-2.3762 -2.3762 -2.3762c -1.3124,-0.0000 -2.3762,1.0639 -2.3762 2.3762c -0.0000,1.3124 1.0639,2.3762 2.3762 2.3762c 1.3124,0.0000 2.3762,-1.0639 2.3762 -2.3762Z"/></g><g stroke-linejoin="miter" stroke-opacity="1.0" fill-opacity="1.0" stroke="rgb(0,0,0)" stroke-width="0.0" fill="rgb(0,126,156)" stroke-linecap="butt" stroke-miterlimit="10.0"><path d="M 231.6832,229.3069 c 0.0000,-1.3124 -1.0639,-2.3762 -2.3762 -2.3762c -1.3124,-0.0000 -2.3762,1.0639 -2.3762 2.3762c -0.0000,1.3124 1.0639,2.3762 2.3762 2.3762c 1.3124,0.0000 2.3762,-1.0639 2.3762 -2.3762Z"/></g><g stroke-linejoin="miter" stroke-opacity="1.0" fill-opacity="1.0" stroke="rgb(0,0,0)" stroke-width="0.0" fill="rgb(0,126,156)" stroke-linecap="butt" stroke-miterlimit="10.0"><path d="M 211.8812,229.3069 c 0.0000,-1.3124 -1.0639,-2.3762 -2.3762 -2.3762c -1.3124,-0.0000 -2.3762,1.0639 -2.3762 2.3762c -0.0000,1.3124 1.0639,2.3762 2.3762 2.3762c 1.3124,0.0000 2.3762,-1.0639 2.3762 -2.3762Z"/></g><g stroke-linejoin="miter" stroke-opacity="1.0" fill-opacity="1.0" stroke="rgb(0,0,0)" stroke-width="0.0" fill="rgb(0,126,156)" stroke-linecap="butt" stroke-miterlimit="10.0"><path d="M 192.0792,229.3069 c 0.0000,-1.3124 -1.0639,-2.3762 -2.3762 -2.3762c -1.3124,-0.0000 -2.3762,1.0639 -2.3762 2.3762c -0.0000,1.3124 1.0639,2.3762 2.3762 2.3762c 1.3124,0.0000 2.3762,-1.0639 2.3762 -2.3762Z"/></g><g stroke-linejoin="miter" stroke-opacity="1.0" fill-opacity="1.0" stroke="rgb(0,0,0)" stroke-width="0.0" fill="rgb(0,126,156)" stroke-linecap="butt" stroke-miterlimit="10.0"><path d="M 172.2772,229.3069 c 0.0000,-1.3124 -1.0639,-2.3762 -2.3762 -2.3762c -1.3124,-0.0000 -2.3762,1.0639 -2.3762 2.3762c -0.0000,1.3124 1.0639,2.3762 2.3762 2.3762c 1.3124,0.0000 2.3762,-1.0639 2.3762 -2.3762Z"/></g><g stroke-linejoin="miter" stroke-opacity="1.0" fill-opacity="1.0" stroke="rgb(0,0,0)" stroke-width="0.0" fill="rgb(0,126,156)" stroke-linecap="butt" stroke-miterlimit="10.0"><path d="M 152.4752,169.9010 c 0.0000,-1.3124 -1.0639,-2.3762 -2.3762 -2.3762c -1.3124,-0.0000 -2.3762,1.0639 -2.3762 2.3762c -0.0000,1.3124 1.0639,2.3762 2.3762 2.3762c 1.3124,0.0000 2.3762,-1.0639 2.3762 -2.3762Z"/></g><g stroke-linejoin="miter" stroke-opacity="1.0" fill-opacity="1.0" stroke="rgb(0,0,0)" stroke-width="0.0" fill="rgb(0,126,156)" stroke-linecap="butt" stroke-miterlimit="10.0"><path d="M 132.6733,169.9010 c 0.0000,-1.3124 -1.0639,-2.3762 -2.3762 -2.3762c -1.3124,-0.0000 -2.3762,1.0639 -2.3762 2.3762c -0.0000,1.3124 1.0639,2.3762 2.3762 2.3762c 1.3124,0.0000 2.3762,-1.0639 2.3762 -2.3762Z"/></g><g stroke-linejoin="miter" stroke-opacity="1.0" fill-opacity="1.0" stroke="rgb(0,0,0)" stroke-width="0.0" fill="rgb(0,126,156)" stroke-linecap="butt" stroke-miterlimit="10.0"><path d="M 112.8713,169.9010 c 0.0000,-1.3124 -1.0639,-2.3762 -2.3762 -2.3762c -1.3124,-0.0000 -2.3762,1.0639 -2.3762 2.3762c -0.0000,1.3124 1.0639,2.3762 2.3762 2.3762c 1.3124,0.0000 2.3762,-1.0639 2.3762 -2.3762Z"/></g><g stroke-linejoin="miter" stroke-opacity="1.0" fill-opacity="1.0" stroke="rgb(0,0,0)" stroke-width="0.0" fill="rgb(0,126,156)" stroke-linecap="butt" stroke-miterlimit="10.0"><path d="M 93.0693,169.9010 c 0.0000,-1.3124 -1.0639,-2.3762 -2.3762 -2.3762c -1.3124,-0.0000 -2.3762,1.0639 -2.3762 2.3762c -0.0000,1.3124 1.0639,2.3762 2.3762 2.3762c 1.3124,0.0000 2.3762,-1.0639 2.3762 -2.3762Z"/></g><g stroke-linejoin="miter" stroke-opacity="1.0" fill-opacity="1.0" stroke="rgb(0,0,0)" stroke-width="0.0" fill="rgb(0,126,156)" stroke-linecap="butt" stroke-miterlimit="10.0"><path d="M 152.4752,189.7030 c 0.0000,-1.3124 -1.0639,-2.3762 -2.3762 -2.3762c -1.3124,-0.0000 -2.3762,1.0639 -2.3762 2.3762c -0.0000,1.3124 1.0639,2.3762 2.3762 2.3762c 1.3124,0.0000 2.3762,-1.0639 2.3762 -2.3762Z"/></g><g stroke-linejoin="miter" stroke-opacity="1.0" fill-opacity="1.0" stroke="rgb(0,0,0)" stroke-width="0.0" fill="rgb(0,126,156)" stroke-linecap="butt" stroke-miterlimit="10.0"><path d="M 132.6733,189.7030 c 0.0000,-1.3124 -1.0639,-2.3762 -2.3762 -2.3762c -1.3124,-0.0000 -2.3762,1.0639 -2.3762 2.3762c -0.0000,1.3124 1.0639,2.3762 2.3762 2.3762c 1.3124,0.0000 2.3762,-1.0639 2.3762 -2.3762Z"/></g><g stroke-linejoin="miter" stroke-opacity="1.0" fill-opacity="1.0" stroke="rgb(0,0,0)" stroke-width="0.0" fill="rgb(0,126,156)" stroke-linecap="butt" stroke-miterlimit="10.0"><path d="M 112.8713,189.7030 c 0.0000,-1.3124 -1.0639,-2.3762 -2.3762 -2.3762c -1.3124,-0.0000 -2.3762,1.0639 -2.3762 2.3762c -0.0000,1.3124 1.0639,2.3762 2.3762 2.3762c 1.3124,0.0000 2.3762,-1.0639 2.3762 -2.3762Z"/></g><g stroke-linejoin="miter" stroke-opacity="1.0" fill-opacity="1.0" stroke="rgb(0,0,0)" stroke-width="0.0" fill="rgb(0,126,156)" stroke-linecap="butt" stroke-miterlimit="10.0"><path d="M 93.0693,189.7030 c 0.0000,-1.3124 -1.0639,-2.3762 -2.3762 -2.3762c -1.3124,-0.0000 -2.3762,1.0639 -2.3762 2.3762c -0.0000,1.3124 1.0639,2.3762 2.3762 2.3762c 1.3124,0.0000 2.3762,-1.0639 2.3762 -2.3762Z"/></g><g stroke-linejoin="miter" stroke-opacity="1.0" fill-opacity="1.0" stroke="rgb(0,0,0)" stroke-width="0.0" fill="rgb(0,126,156)" stroke-linecap="butt" stroke-miterlimit="10.0"><path d="M 152.4752,209.5050 c 0.0000,-1.3124 -1.0639,-2.3762 -2.3762 -2.3762c -1.3124,-0.0000 -2.3762,1.0639 -2.3762 2.3762c -0.0000,1.3124 1.0639,2.3762 2.3762 2.3762c 1.3124,0.0000 2.3762,-1.0639 2.3762 -2.3762Z"/></g><g stroke-linejoin="miter" stroke-opacity="1.0" fill-opacity="1.0" stroke="rgb(0,0,0)" stroke-width="0.0" fill="rgb(0,126,156)" stroke-linecap="butt" stroke-miterlimit="10.0"><path d="M 132.6733,209.5050 c 0.0000,-1.3124 -1.0639,-2.3762 -2.3762 -2.3762c -1.3124,-0.0000 -2.3762,1.0639 -2.3762 2.3762c -0.0000,1.3124 1.0639,2.3762 2.3762 2.3762c 1.3124,0.0000 2.3762,-1.0639 2.3762 -2.3762Z"/></g><g stroke-linejoin="miter" stroke-opacity="1.0" fill-opacity="1.0" stroke="rgb(0,0,0)" stroke-width="0.0" fill="rgb(0,126,156)" stroke-linecap="butt" stroke-miterlimit="10.0"><path d="M 112.8713,209.5050 c 0.0000,-1.3124 -1.0639,-2.3762 -2.3762 -2.3762c -1.3124,-0.0000 -2.3762,1.0639 -2.3762 2.3762c -0.0000,1.3124 1.0639,2.3762 2.3762 2.3762c 1.3124,0.0000 2.3762,-1.0639 2.3762 -2.3762Z"/></g><g stroke-linejoin="miter" stroke-opacity="1.0" fill-opacity="1.0" stroke="rgb(0,0,0)" stroke-width="0.0" fill="rgb(0,126,156)" stroke-linecap="butt" stroke-miterlimit="10.0"><path d="M 93.0693,209.5050 c 0.0000,-1.3124 -1.0639,-2.3762 -2.3762 -2.3762c -1.3124,-0.0000 -2.3762,1.0639 -2.3762 2.3762c -0.0000,1.3124 1.0639,2.3762 2.3762 2.3762c 1.3124,0.0000 2.3762,-1.0639 2.3762 -2.3762Z"/></g><g stroke-linejoin="miter" stroke-opacity="1.0" fill-opacity="1.0" stroke="rgb(0,0,0)" stroke-width="0.0" fill="rgb(0,126,156)" stroke-linecap="butt" stroke-miterlimit="10.0"><path d="M 152.4752,229.3069 c 0.0000,-1.3124 -1.0639,-2.3762 -2.3762 -2.3762c -1.3124,-0.0000 -2.3762,1.0639 -2.3762 2.3762c -0.0000,1.3124 1.0639,2.3762 2.3762 2.3762c 1.3124,0.0000 2.3762,-1.0639 2.3762 -2.3762Z"/></g><g stroke-linejoin="miter" stroke-opacity="1.0" fill-opacity="1.0" stroke="rgb(0,0,0)" stroke-width="0.0" fill="rgb(0,126,156)" stroke-linecap="butt" stroke-miterlimit="10.0"><path d="M 132.6733,229.3069 c 0.0000,-1.3124 -1.0639,-2.3762 -2.3762 -2.3762c -1.3124,-0.0000 -2.3762,1.0639 -2.3762 2.3762c -0.0000,1.3124 1.0639,2.3762 2.3762 2.3762c 1.3124,0.0000 2.3762,-1.0639 2.3762 -2.3762Z"/></g><g stroke-linejoin="miter" stroke-opacity="1.0" fill-opacity="1.0" stroke="rgb(0,0,0)" stroke-width="0.0" fill="rgb(0,126,156)" stroke-linecap="butt" stroke-miterlimit="10.0"><path d="M 112.8713,229.3069 c 0.0000,-1.3124 -1.0639,-2.3762 -2.3762 -2.3762c -1.3124,-0.0000 -2.3762,1.0639 -2.3762 2.3762c -0.0000,1.3124 1.0639,2.3762 2.3762 2.3762c 1.3124,0.0000 2.3762,-1.0639 2.3762 -2.3762Z"/></g><g stroke-linejoin="miter" stroke-opacity="1.0" fill-opacity="1.0" stroke="rgb(0,0,0)" stroke-width="0.0" fill="rgb(0,126,156)" stroke-linecap="butt" stroke-miterlimit="10.0"><path d="M 93.0693,229.3069 c 0.0000,-1.3124 -1.0639,-2.3762 -2.3762 -2.3762c -1.3124,-0.0000 -2.3762,1.0639 -2.3762 2.3762c -0.0000,1.3124 1.0639,2.3762 2.3762 2.3762c 1.3124,0.0000 2.3762,-1.0639 2.3762 -2.3762Z"/></g><g stroke-linejoin="miter" stroke-opacity="1.0" fill-opacity="1.0" stroke="rgb(0,0,0)" stroke-width="0.0" fill="rgb(0,126,156)" stroke-linecap="butt" stroke-miterlimit="10.0"><path d="M 73.2673,169.9010 c 0.0000,-1.3124 -1.0639,-2.3762 -2.3762 -2.3762c -1.3124,-0.0000 -2.3762,1.0639 -2.3762 2.3762c -0.0000,1.3124 1.0639,2.3762 2.3762 2.3762c 1.3124,0.0000 2.3762,-1.0639 2.3762 -2.3762Z"/></g><g stroke-linejoin="miter" stroke-opacity="1.0" fill-opacity="1.0" stroke="rgb(0,0,0)" stroke-width="0.0" fill="rgb(0,126,156)" stroke-linecap="butt" stroke-miterlimit="10.0"><path d="M 53.4653,169.9010 c 0.0000,-1.3124 -1.0639,-2.3762 -2.3762 -2.3762c -1.3124,-0.0000 -2.3762,1.0639 -2.3762 2.3762c -0.0000,1.3124 1.0639,2.3762 2.3762 2.3762c 1.3124,0.0000 2.3762,-1.0639 2.3762 -2.3762Z"/></g><g stroke-linejoin="miter" stroke-opacity="1.0" fill-opacity="1.0" stroke="rgb(0,0,0)" stroke-width="0.0" fill="rgb(0,126,156)" stroke-linecap="butt" stroke-miterlimit="10.0"><path d="M 33.6634,169.9010 c 0.0000,-1.3124 -1.0639,-2.3762 -2.3762 -2.3762c -1.3124,-0.0000 -2.3762,1.0639 -2.3762 2.3762c -0.0000,1.3124 1.0639,2.3762 2.3762 2.3762c 1.3124,0.0000 2.3762,-1.0639 2.3762 -2.3762Z"/></g><g stroke-linejoin="miter" stroke-opacity="1.0" fill-opacity="1.0" stroke="rgb(0,0,0)" stroke-width="0.0" fill="rgb(0,126,156)" stroke-linecap="butt" stroke-miterlimit="10.0"><path d="M 13.8614,169.9010 c 0.0000,-1.3124 -1.0639,-2.3762 -2.3762 -2.3762c -1.3124,-0.0000 -2.3762,1.0639 -2.3762 2.3762c -0.0000,1.3124 1.0639,2.3762 2.3762 2.3762c 1.3124,0.0000 2.3762,-1.0639 2.3762 -2.3762Z"/></g><g stroke-linejoin="miter" stroke-opacity="1.0" fill-opacity="1.0" stroke="rgb(0,0,0)" stroke-width="0.0" fill="rgb(0,126,156)" stroke-linecap="butt" stroke-miterlimit="10.0"><path d="M 73.2673,189.7030 c 0.0000,-1.3124 -1.0639,-2.3762 -2.3762 -2.3762c -1.3124,-0.0000 -2.3762,1.0639 -2.3762 2.3762c -0.0000,1.3124 1.0639,2.3762 2.3762 2.3762c 1.3124,0.0000 2.3762,-1.0639 2.3762 -2.3762Z"/></g><g stroke-linejoin="miter" stroke-opacity="1.0" fill-opacity="1.0" stroke="rgb(0,0,0)" stroke-width="0.0" fill="rgb(0,126,156)" stroke-linecap="butt" stroke-miterlimit="10.0"><path d="M 53.4653,189.7030 c 0.0000,-1.3124 -1.0639,-2.3762 -2.3762 -2.3762c -1.3124,-0.0000 -2.3762,1.0639 -2.3762 2.3762c -0.0000,1.3124 1.0639,2.3762 2.3762 2.3762c 1.3124,0.0000 2.3762,-1.0639 2.3762 -2.3762Z"/></g><g stroke-linejoin="miter" stroke-opacity="1.0" fill-opacity="1.0" stroke="rgb(0,0,0)" stroke-width="0.0" fill="rgb(0,126,156)" stroke-linecap="butt" stroke-miterlimit="10.0"><path d="M 33.6634,189.7030 c 0.0000,-1.3124 -1.0639,-2.3762 -2.3762 -2.3762c -1.3124,-0.0000 -2.3762,1.0639 -2.3762 2.3762c -0.0000,1.3124 1.0639,2.3762 2.3762 2.3762c 1.3124,0.0000 2.3762,-1.0639 2.3762 -2.3762Z"/></g><g stroke-linejoin="miter" stroke-opacity="1.0" fill-opacity="1.0" stroke="rgb(0,0,0)" stroke-width="0.0" fill="rgb(0,126,156)" stroke-linecap="butt" stroke-miterlimit="10.0"><path d="M 13.8614,189.7030 c 0.0000,-1.3124 -1.0639,-2.3762 -2.3762 -2.3762c -1.3124,-0.0000 -2.3762,1.0639 -2.3762 2.3762c -0.0000,1.3124 1.0639,2.3762 2.3762 2.3762c 1.3124,0.0000 2.3762,-1.0639 2.3762 -2.3762Z"/></g><g stroke-linejoin="miter" stroke-opacity="1.0" fill-opacity="1.0" stroke="rgb(0,0,0)" stroke-width="0.0" fill="rgb(0,126,156)" stroke-linecap="butt" stroke-miterlimit="10.0"><path d="M 73.2673,209.5050 c 0.0000,-1.3124 -1.0639,-2.3762 -2.3762 -2.3762c -1.3124,-0.0000 -2.3762,1.0639 -2.3762 2.3762c -0.0000,1.3124 1.0639,2.3762 2.3762 2.3762c 1.3124,0.0000 2.3762,-1.0639 2.3762 -2.3762Z"/></g><g stroke-linejoin="miter" stroke-opacity="1.0" fill-opacity="1.0" stroke="rgb(0,0,0)" stroke-width="0.0" fill="rgb(0,126,156)" stroke-linecap="butt" stroke-miterlimit="10.0"><path d="M 53.4653,209.5050 c 0.0000,-1.3124 -1.0639,-2.3762 -2.3762 -2.3762c -1.3124,-0.0000 -2.3762,1.0639 -2.3762 2.3762c -0.0000,1.3124 1.0639,2.3762 2.3762 2.3762c 1.3124,0.0000 2.3762,-1.0639 2.3762 -2.3762Z"/></g><g stroke-linejoin="miter" stroke-opacity="1.0" fill-opacity="1.0" stroke="rgb(0,0,0)" stroke-width="0.0" fill="rgb(0,126,156)" stroke-linecap="butt" stroke-miterlimit="10.0"><path d="M 33.6634,209.5050 c 0.0000,-1.3124 -1.0639,-2.3762 -2.3762 -2.3762c -1.3124,-0.0000 -2.3762,1.0639 -2.3762 2.3762c -0.0000,1.3124 1.0639,2.3762 2.3762 2.3762c 1.3124,0.0000 2.3762,-1.0639 2.3762 -2.3762Z"/></g><g stroke-linejoin="miter" stroke-opacity="1.0" fill-opacity="1.0" stroke="rgb(0,0,0)" stroke-width="0.0" fill="rgb(0,126,156)" stroke-linecap="butt" stroke-miterlimit="10.0"><path d="M 13.8614,209.5050 c 0.0000,-1.3124 -1.0639,-2.3762 -2.3762 -2.3762c -1.3124,-0.0000 -2.3762,1.0639 -2.3762 2.3762c -0.0000,1.3124 1.0639,2.3762 2.3762 2.3762c 1.3124,0.0000 2.3762,-1.0639 2.3762 -2.3762Z"/></g><g stroke-linejoin="miter" stroke-opacity="1.0" fill-opacity="1.0" stroke="rgb(0,0,0)" stroke-width="0.0" fill="rgb(0,126,156)" stroke-linecap="butt" stroke-miterlimit="10.0"><path d="M 73.2673,229.3069 c 0.0000,-1.3124 -1.0639,-2.3762 -2.3762 -2.3762c -1.3124,-0.0000 -2.3762,1.0639 -2.3762 2.3762c -0.0000,1.3124 1.0639,2.3762 2.3762 2.3762c 1.3124,0.0000 2.3762,-1.0639 2.3762 -2.3762Z"/></g><g stroke-linejoin="miter" stroke-opacity="1.0" fill-opacity="1.0" stroke="rgb(0,0,0)" stroke-width="0.0" fill="rgb(0,126,156)" stroke-linecap="butt" stroke-miterlimit="10.0"><path d="M 53.4653,229.3069 c 0.0000,-1.3124 -1.0639,-2.3762 -2.3762 -2.3762c -1.3124,-0.0000 -2.3762,1.0639 -2.3762 2.3762c -0.0000,1.3124 1.0639,2.3762 2.3762 2.3762c 1.3124,0.0000 2.3762,-1.0639 2.3762 -2.3762Z"/></g><g stroke-linejoin="miter" stroke-opacity="1.0" fill-opacity="1.0" stroke="rgb(0,0,0)" stroke-width="0.0" fill="rgb(0,126,156)" stroke-linecap="butt" stroke-miterlimit="10.0"><path d="M 33.6634,229.3069 c 0.0000,-1.3124 -1.0639,-2.3762 -2.3762 -2.3762c -1.3124,-0.0000 -2.3762,1.0639 -2.3762 2.3762c -0.0000,1.3124 1.0639,2.3762 2.3762 2.3762c 1.3124,0.0000 2.3762,-1.0639 2.3762 -2.3762Z"/></g><g stroke-linejoin="miter" stroke-opacity="1.0" fill-opacity="1.0" stroke="rgb(0,0,0)" stroke-width="0.0" fill="rgb(0,126,156)" stroke-linecap="butt" stroke-miterlimit="10.0"><path d="M 13.8614,229.3069 c 0.0000,-1.3124 -1.0639,-2.3762 -2.3762 -2.3762c -1.3124,-0.0000 -2.3762,1.0639 -2.3762 2.3762c -0.0000,1.3124 1.0639,2.3762 2.3762 2.3762c 1.3124,0.0000 2.3762,-1.0639 2.3762 -2.3762Z"/></g></svg>