<?xml version="1.0" encoding="UTF-8"?>
<!DOCTYPE svg PUBLIC "-//W3C//DTD SVG 1.1//EN"
    "http://www.w3.org/Graphics/SVG/1.1/DTD/svg11.dtd"><svg xmlns="http://www.w3.org/2000/svg" height="241.1551" stroke-opacity="1" viewBox="0.0 0.0 320.0 241.15512392308455" font-size="1" width="320.0000" xmlns:xlink="http://www.w3.org/1999/xlink" stroke="rgb(0,0,0)" version="1.1"><defs></defs><g stroke-linejoin="miter" stroke-opacity="1.0" fill-opacity="0.0" opacity="0.2" stroke="rgb(0,0,0)" stroke-width="0.6" fill="rgb(0,0,0)" stroke-linecap="butt" stroke-miterlimit="10.0"><path d="M 1.5842,21.3861 h 316.8317 "/></g><g stroke-linejoin="miter" stroke-opacity="1.0" fill-opacity="0.0" opacity="0.2" stroke="rgb(0,0,0)" stroke-width="0.6" fill="rgb(0,0,0)" stroke-linecap="butt" stroke-miterlimit="10.0"><path d="M 1.5842,41.1881 h 316.8317 "/></g><g stroke-linejoin="miter" stroke-opacity="1.0" fill-opacity="0.0" opacity="0.2" stroke="rgb(0,0,0)" stroke-width="0.6" fill="rgb(0,0,0)" stroke-linecap="butt" stroke-miterlimit="10.0"><path d="M 1.5842,60.9901 h 316.8317 "/></g><g stroke-linejoin="miter" stroke-opacity="1.0" fill-opacity="0.0" opacity="0.2" stroke="rgb(0,0,0)" stroke-width="0.6" fill="rgb(0,0,0)" stroke-linecap="butt" stroke-miterlimit="10.0"><path d="M 1.5842,100.5941 h 316.8317 "/></g><g stroke-linejoin="miter" stroke-opacity="1.0" fill-opacity="0.0" opacity="0.2" stroke="rgb(0,0,0)" stroke-width="0.6" fill="rgb(0,0,0)" stroke-linecap="butt" stroke-miterlimit="10.0"><path d="M 1.5842,120.3960 h 316.8317 "/></g><g stroke-linejoin="miter" stroke-opacity="1.0" fill-opacity="0.0" opacity="0.2" stroke="rgb(0,0,0)" stroke-width="0.6" fill="rgb(0,0,0)" stroke-linecap="butt" stroke-miterlimit="10.0"><path d="M 1.5842,140.1980 h 316.8317 "/></g><g stroke-linejoin="miter" stroke-opacity="1.0" fill-opacity="0.0" opacity="0.2" stroke="rgb(0,0,0)" stroke-width="0.6" fill="rgb(0,0,0)" stroke-linecap="butt" stroke-miterlimit="10.0"><path d="M 1.5842,179.8020 h 316.8317 "/></g><g stroke-linejoin="miter" stroke-opacity="1.0" fill-opacity="0.0" opacity="0.2" stroke="rgb(0,0,0)" stroke-width="0.6" fill="rgb(0,0,0)" stroke-linecap="butt" stroke-miterlimit="10.0"><path d="M 1.5842,199.6040 h 316.8317 "/></g><g stroke-linejoin="miter" stroke-opacity="1.0" fill-opacity="0.0" opacity="0.2" stroke="rgb(0,0,0)" stroke-width="0.6" fill="rgb(0,0,0)" stroke-linecap="butt" stroke-miterlimit="10.0"><path d="M 1.5842,219.4059 h 316.8317 "/></g><g stroke-linejoin="miter" stroke-opacity="1.0" fill-opacity="0.0" opacity="0.2" stroke="rgb(0,0,0)" stroke-width="0.6" fill="rgb(0,0,0)" stroke-linecap="butt" stroke-miterlimit="10.0"><path d="M 298.6139,239.2079 v -237.6238 "/></g><g stroke-linejoin="miter" stroke-opacity="1.0" fill-opacity="0.0" opacity="0.2" stroke="rgb(0,0,0)" stroke-width="0.6" fill="rgb(0,0,0)" stroke-linecap="butt" stroke-miterlimit="10.0"><path d="M 278.8119,239.2079 v -237.6238 "/></g><g stroke-linejoin="miter" stroke-opacity="1.0" fill-opacity="0.0" opacity="0.2" stroke="rgb(0,0,0)" stroke-width="0.6" fill="rgb(0,0,0)" stroke-linecap="butt" stroke-miterlimit="10.0"><path d="M 259.0099,239.2079 v -237.6238 "/></g><g stroke-linejoin="miter" stroke-opacity="1.0" fill-opacity="0.0" opacity="0.2" stroke="rgb(0,0,0)" stroke-width="0.6" fill="rgb(0,0,0)" stroke-linecap="butt" stroke-miterlimit="10.0"><path d="M 219.4059,239.2079 v -237.6238 "/></g><g stroke-linejoin="miter" stroke-opacity="1.0" fill-opacity="0.0" opacity="0.2" stroke="rgb(0,0,0)" stroke-width="0.6" fill="rgb(0,0,0)" stroke-linecap="butt" stroke-miterlimit="10.0"><path d="M 199.6040,239.2079 v -237.6238 "/></g><g stroke-linejoin="miter" stroke-opacity="1.0" fill-opacity="0.0" opacity="0.2" stroke="rgb(0,0,0)" stroke-width="0.6" fill="rgb(0,0,0)" stroke-linecap="butt" stroke-miterlimit="10.0"><path d="M 179.8020,239.2079 v -237.6238 "/></g><g stroke-linejoin="miter" stroke-opacity="1.0" fill-opacity="0.0" opacity="0.2" stroke="rgb(0,0,0)" stroke-width="0.6" fill="rgb(0,0,0)" stroke-linecap="butt" stroke-miterlimit="10.0"><path d="M 140.1980,239.2079 v -237.6238 "/></g><g stroke-linejoin="miter" stroke-opacity="1.0" fill-opacity="0.0" opacity="0.2" stroke="rgb(0,0,0)" stroke-width="0.6" fill="rgb(0,0,0)" stroke-linecap="butt" stroke-miterlimit="10.0"><path d="M 120.3960,239.2079 v -237.6238 "/></g><g stroke-linejoin="miter" stroke-opacity="1.0" fill-opacity="0.0" opacity="0.2" stroke="rgb(0,0,0)" stroke-width="0.6" fill="rgb(0,0,0)" stroke-linecap="butt" stroke-miterlimit="10.0"><path d="M 100.5941,239.2079 v -237.6238 "/></g><g stroke-linejoin="miter" stroke-opacity="1.0" fill-opacity="0.0" opacity="0.2" stroke="rgb(0,0,0)" stroke-width="0.6" fill="rgb(0,0,0)" stroke-linecap="butt" stroke-miterlimit="10.0"><path d="M 60.9901,239.2079 v -237.6238 "/></g><g stroke-linejoin="miter" stroke-opacity="1.0" fill-opacity="0.0" opacity="0.2" stroke="rgb(0,0,0)" stroke-width="0.6" fill="rgb(0,0,0)" stroke-linecap="butt" stroke-miterlimit="10.0"><path d="M 41.1881,239.2079 v -237.6238 "/></g><g stroke-linejoin="miter" stroke-opacity="1.0" fill-opacity="0.0" opacity="0.2" stroke="rgb(0,0,0)" stroke-width="0.6" fill="rgb(0,0,0)" stroke-linecap="butt" stroke-miterlimit="10.0"><path d="M 21.3861,239.2079 v -237.6238 "/></g><g stroke-linejoin="miter" stroke-opacity="1.0" fill-opacity="0.0" stroke="rgb(0,0,0)" stroke-width="1.0" fill="rgb(0,0,0)" stroke-linecap="butt" stroke-miterlimit="10.0"><path d="M 1.5842,80.7921 h 316.8317 "/></g><g stroke-linejoin="miter" stroke-opacity="1.0" fill-opacity="0.0" stroke="rgb(0,0,0)" stroke-width="1.0" fill="rgb(0,0,0)" stroke-linecap="butt" stroke-miterlimit="10.0"><path d="M 1.5842,160.0000 h 316.8317 "/></g><g stroke-linejoin="miter" stroke-opacity="1.0" fill-opacity="0.0" stroke="rgb(0,0,0)" stroke-width="1.0" fill="rgb(0,0,0)" stroke-linecap="butt" stroke-miterlimit="10.0"><path d="M 239.2079,239.2079 v -237.6238 "/></g><g stroke-linejoin="miter" stroke-opacity="1.0" fill-opacity="0.0" stroke="rgb(0,0,0)" stroke-width="1.0" fill="rgb(0,0,0)" stroke-linecap="butt" stroke-miterlimit="10.0"><path d="M 160.0000,239.2079 v -237.6238 "/></g><g stroke-linejoin="miter" stroke-opacity="1.0" fill-opacity="0.0" stroke="rgb(0,0,0)" stroke-width="1.0" fill="rgb(0,0,0)" stroke-linecap="butt" stroke-miterlimit="10.0"><path d="M 80.7921,239.2079 v -237.6238 "/></g><g stroke-linejoin="round" stroke-opacity="1.0" fill-opacity="0.0" stroke="rgb(0,0,0)" stroke-width="1.6" fill="rgb(0,0,0)" stroke-linecap="butt" stroke-miterlimit="10.0"><path d="M 318.4158,239.2079 l -0.0000,-237.6238 h -316.8317 l -0.0000,237.6238 Z"/></g><g stroke-linejoin="miter" stroke-opacity="1.0" fill-opacity="1.0" stroke="rgb(0,0,0)" stroke-width="0.0" fill="rgb(0,126,156)" stroke-linecap="butt" stroke-miterlimit="10.0"><path d="M 308.1768,19.1269 c 0.0000,-1.3124 -1.0639,-2.3762 -2.3762 -2.3762c -1.3124,-0.0000 -2.3762,1.0639 -2.3762 2.3762c -0.0000,1.3124 1.0639,2.3762 2.3762 2.3762c 1.3124,0.0000 2.3762,-1.0639 2.3762 -2.3762Z"/></g><g stroke-linejoin="miter" stroke-opacity="1.0" fill-opacity="1.0" stroke="rgb(0,0,0)" stroke-width="0.0" fill="rgb(0,126,156)" stroke-linecap="butt" stroke-miterlimit="10.0"><path d="M 294.5546,18.2671 c 0.0000,-1.3124 -1.0639,-2.3762 -2.3762 -2.3762c -1.3124,-0.0000 -2.3762,1.0639 -2.3762 2.3762c -0.0000,1.3124 1.0639,2.3762 2.3762 2.3762c 1.3124,0.0000 2.3762,-1.0639 2.3762 -2.3762Z"/></g><g stroke-linejoin="miter" stroke-opacity="1.0" fill-opacity="1.0" stroke="rgb(0,0,0)" stroke-width="0.0" fill="rgb(0,126,156)" stroke-linecap="butt" stroke-miterlimit="10.0"><path d="M 269.0088,19.0052 c 0.0000,-1.3124 -1.0639,-2.3762 -2.3762 -2.3762c -1.3124,-0.0000 -2.3762,1.0639 -2.3762 2.3762c -0.0000,1.3124 1.0639,2.3762 2.3762 2.3762c 1.3124,0.0000 2.3762,-1.0639 2.3762 -2.3762Z"/></g><g stroke-linejoin="miter" stroke-opacity="1.0" fill-opacity="1.0" stroke="rgb(0,0,0)" stroke-width="0.0" fill="rgb(0,126,156)" stroke-linecap="butt" stroke-miterlimit="10.0"><path d="M 249.2461,12.2735 c 0.0000,-1.3124 -1.0639,-2.3762 -2.3762 -2.3762c -1.3124,-0.0000 -2.3762,1.0639 -2.3762 2.3762c -0.0000,1.3124 1.0639,2.3762 2.3762 2.3762c 1.3124,0.0000 2.3762,-1.0639 2.3762 -2.3762Z"/></g><g stroke-linejoin="miter" stroke-opacity="1.0" fill-opacity="1.0" stroke="rgb(0,0,0)" stroke-width="0.0" fill="rgb(0,126,156)" stroke-linecap="butt" stroke-miterlimit="10.0"><path d="M 306.0942,35.8774 c 0.0000,-1.3124 -1.0639,-2.3762 -2.3762 -2.3762c -1.3124,-0.0000 -2.3762,1.0639 -2.3762 2.3762c -0.0000,1.3124 1.0639,2.3762 2.3762 2.3762c 1.3124,0.0000 2.3762,-1.0639 2.3762 -2.3762Z"/></g><g stroke-linejoin="miter" stroke-opacity="1.0" fill-opacity="1.0" stroke="rgb(0,0,0)" stroke-width="0.0" fill="rgb(0,126,156)" stroke-linecap="butt" stroke-miterlimit="10.0"><path d="M 289.5723,35.9269 c 0.0000,-1.3124 -1.0639,-2.3762 -2.3762 -2.3762c -1.3124,-0.0000 -2.3762,1.0639 -2.3762 2.3762c -0.0000,1.3124 1.0639,2.3762 2.3762 2.3762c 1.3124,0.0000 2.3762,-1.0639 2.3762 -2.3762Z"/></g><g stroke-linejoin="miter" stroke-opacity="1.0" fill-opacity="1.0" stroke="rgb(0,0,0)" stroke-width="0.0" fill="rgb(0,126,156)" stroke-linecap="butt" stroke-miterlimit="10.0"><path d="M 278.2341,34.2883 c 0.0000,-1.3124 -1.0639,-2.3762 -2.3762 -2.3762c -1.3124,-0.0000 -2.3762,1.0639 -2.3762 2.3762c -0.0000,1.3124 1.0639,2.3762 2.3762 2.3762c 1.3124,0.0000 2.3762,-1.0639 2.3762 -2.3762Z"/></g><g stroke-linejoin="miter" stroke-opacity="1.0" fill-opacity="1.0" stroke="rgb(0,0,0)" stroke-width="0.0" fill="rgb(0,126,156)" stroke-linecap="butt" stroke-miterlimit="10.0"><path d="M 250.6016,35.1278 c 0.0000,-1.3124 -1.0639,-2.3762 -2.3762 -2.3762c -1.3124,-0.0000 -2.3762,1.0639 -2.3762 2.3762c -0.0000,1.3124 1.0639,2.3762 2.3762 2.3762c 1.3124,0.0000 2.3762,-1.0639 2.3762 -2.3762Z"/></g><g stroke-linejoin="miter" stroke-opacity="1.0" fill-opacity="1.0" stroke="rgb(0,0,0)" stroke-width="0.0" fill="rgb(0,126,156)" stroke-linecap="butt" stroke-miterlimit="10.0"><path d="M 305.7735,50.6673 c 0.0000,-1.3124 -1.0639,-2.3762 -2.3762 -2.3762c -1.3124,-0.0000 -2.3762,1.0639 -2.3762 2.3762c -0.0000,1.3124 1.0639,2.3762 2.3762 2.3762c 1.3124,0.0000 2.3762,-1.0639 2.3762 -2.3762Z"/></g><g stroke-linejoin="miter" stroke-opacity="1.0" fill-opacity="1.0" stroke="rgb(0,0,0)" stroke-width="0.0" fill="rgb(0,126,156)" stroke-linecap="butt" stroke-miterlimit="10.0"><path d="M 295.1593,46.4678 c 0.0000,-1.3124 -1.0639,-2.3762 -2.3762 -2.3762c -1.3124,-0.0000 -2.3762,1.0639 -2.3762 2.3762c -0.0000,1.3124 1.0639,2.3762 2.3762 2.3762c 1.3124,0.0000 2.3762,-1.0639 2.3762 -2.3762Z"/></g><g stroke-linejoin="miter" stroke-opacity="1.0" fill-opacity="1.0" stroke="rgb(0,0,0)" stroke-width="0.0" fill="rgb(0,126,156)" stroke-linecap="butt" stroke-miterlimit="10.0"><path d="M 263.5604,47.0533 c 0.0000,-1.3124 -1.0639,-2.3762 -2.3762 -2.3762c -1.3124,-0.0000 -2.3762,1.0639 -2.3762 2.3762c -0.0000,1.3124 1.0639,2.3762 2.3762 2.3762c 1.3124,0.0000 2.3762,-1.0639 2.3762 -2.3762Z"/></g><g stroke-linejoin="miter" stroke-opacity="1.0" fill-opacity="1.0" stroke="rgb(0,0,0)" stroke-width="0.0" fill="rgb(0,126,156)" stroke-linecap="butt" stroke-miterlimit="10.0"><path d="M 249.8037,51.0905 c 0.0000,-1.3124 -1.0639,-2.3762 -2.3762 -2.3762c -1.3124,-0.0000 -2.3762,1.0639 -2.3762 2.3762c -0.0000,1.3124 1.0639,2.3762 2.3762 2.3762c 1.3124,0.0000 2.3762,-1.0639 2.3762 -2.3762Z"/></g><g stroke-linejoin="miter" stroke-opacity="1.0" fill-opacity="1.0" stroke="rgb(0,0,0)" stroke-width="0.0" fill="rgb(0,126,156)" stroke-linecap="butt" stroke-miterlimit="10.0"><path d="M 318.2915,78.7904 c 0.0000,-1.3124 -1.0639,-2.3762 -2.3762 -2.3762c -1.3124,-0.0000 -2.3762,1.0639 -2.3762 2.3762c -0.0000,1.3124 1.0639,2.3762 2.3762 2.3762c 1.3124,0.0000 2.3762,-1.0639 2.3762 -2.3762Z"/></g><g stroke-linejoin="miter" stroke-opacity="1.0" fill-opacity="1.0" stroke="rgb(0,0,0)" stroke-width="0.0" fill="rgb(0,126,156)" stroke-linecap="butt" stroke-miterlimit="10.0"><path d="M 293.3564,70.5997 c 0.0000,-1.3124 -1.0639,-2.3762 -2.3762 -2.3762c -1.3124,-0.0000 -2.3762,1.0639 -2.3762 2.3762c -0.0000,1.3124 1.0639,2.3762 2.3762 2.3762c 1.3124,0.0000 2.3762,-1.0639 2.3762 -2.3762Z"/></g><g stroke-linejoin="miter" stroke-opacity="1.0" fill-opacity="1.0" stroke="rgb(0,0,0)" stroke-width="0.0" fill="rgb(0,126,156)" stroke-linecap="butt" stroke-miterlimit="10.0"><path d="M 272.6865,76.8155 c 0.0000,-1.3124 -1.0639,-2.3762 -2.3762 -2.3762c -1.3124,-0.0000 -2.3762,1.0639 -2.3762 2.3762c -0.0000,1.3124 1.0639,2.3762 2.3762 2.3762c 1.3124,0.0000 2.3762,-1.0639 2.3762 -2.3762Z"/></g><g stroke-linejoin="miter" stroke-opacity="1.0" fill-opacity="1.0" stroke="rgb(0,0,0)" stroke-width="0.0" fill="rgb(0,126,156)" stroke-linecap="butt" stroke-miterlimit="10.0"><path d="M 249.4794,70.5189 c 0.0000,-1.3124 -1.0639,-2.3762 -2.3762 -2.3762c -1.3124,-0.0000 -2.3762,1.0639 -2.3762 2.3762c -0.0000,1.3124 1.0639,2.3762 2.3762 2.3762c 1.3124,0.0000 2.3762,-1.0639 2.3762 -2.3762Z"/></g><g stroke-linejoin="miter" stroke-opacity="1.0" fill-opacity="1.0" stroke="rgb(0,0,0)" stroke-width="0.0" fill="rgb(0,126,156)" stroke-linecap="butt" stroke-miterlimit="10.0"><path d="M 233.1386,5.9343 c 0.0000,-1.3124 -1.0639,-2.3762 -2.3762 -2.3762c -1.3124,-0.0000 -2.3762,1.0639 -2.3762 2.3762c -0.0000,1.3124 1.0639,2.3762 2.3762 2.3762c 1.3124,0.0000 2.3762,-1.0639 2.3762 -2.3762Z"/></g><g stroke-linejoin="miter" stroke-opacity="1.0" fill-opacity="1.0" stroke="rgb(0,0,0)" stroke-width="0.0" fill="rgb(0,126,156)" stroke-linecap="butt" stroke-miterlimit="10.0"><path d="M 219.0284,12.2194 c 0.0000,-1.3124 -1.0639,-2.3762 -2.3762 -2.3762c -1.3124,-0.0000 -2.3762,1.0639 -2.3762 2.3762c -0.0000,1.3124 1.0639,2.3762 2.3762 2.3762c 1.3124,0.0000 2.3762,-1.0639 2.3762 -2.3762Z"/></g><g stroke-linejoin="miter" stroke-opacity="1.0" fill-opacity="1.0" stroke="rgb(0,0,0)" stroke-width="0.0" fill="rgb(0,126,156)" stroke-linecap="butt" stroke-miterlimit="10.0"><path d="M 194.0654,16.7730 c 0.0000,-1.3124 -1.0639,-2.3762 -2.3762 -2.3762c -1.3124,-0.0000 -2.3762,1.0639 -2.3762 2.3762c -0.0000,1.3124 1.0639,2.3762 2.3762 2.3762c 1.3124,0.0000 2.3762,-1.0639 2.3762 -2.3762Z"/></g><g stroke-linejoin="miter" stroke-opacity="1.0" fill-opacity="1.0" stroke="rgb(0,0,0)" stroke-width="0.0" fill="rgb(0,126,156)" stroke-linecap="butt" stroke-miterlimit="10.0"><path d="M 179.0785,7.1561 c 0.0000,-1.3124 -1.0639,-2.3762 -2.3762 -2.3762c -1.3124,-0.0000 -2.3762,1.0639 -2.3762 2.3762c -0.0000,1.3124 1.0639,2.3762 2.3762 2.3762c 1.3124,0.0000 2.3762,-1.0639 2.3762 -2.3762Z"/></g><g stroke-linejoin="miter" stroke-opacity="1.0" fill-opacity="1.0" stroke="rgb(0,0,0)" stroke-width="0.0" fill="rgb(0,126,156)" stroke-linecap="butt" stroke-miterlimit="10.0"><path d="M 229.7603,36.1428 c 0.0000,-1.3124 -1.0639,-2.3762 -2.3762 -2.3762c -1.3124,-0.0000 -2.3762,1.0639 -2.3762 2.3762c -0.0000,1.3124 1.0639,2.3762 2.3762 2.3762c 1.3124,0.0000 2.3762,-1.0639 2.3762 -2.3762Z"/></g><g stroke-linejoin="miter" stroke-opacity="1.0" fill-opacity="1.0" stroke="rgb(0,0,0)" stroke-width="0.0" fill="rgb(0,126,156)" stroke-linecap="butt" stroke-miterlimit="10.0"><path d="M 218.7568,37.3994 c 0.0000,-1.3124 -1.0639,-2.3762 -2.3762 -2.3762c -1.3124,-0.0000 -2.3762,1.0639 -2.3762 2.3762c -0.0000,1.3124 1.0639,2.3762 2.3762 2.3762c 1.3124,0.0000 2.3762,-1.0639 2.3762 -2.3762Z"/></g><g stroke-linejoin="miter" stroke-opacity="1.0" fill-opacity="1.0" stroke="rgb(0,0,0)" stroke-width="0.0" fill="rgb(0,126,156)" stroke-linecap="butt" stroke-miterlimit="10.0"><path d="M 193.6254,35.1925 c 0.0000,-1.3124 -1.0639,-2.3762 -2.3762 -2.3762c -1.3124,-0.0000 -2.3762,1.0639 -2.3762 2.3762c -0.0000,1.3124 1.0639,2.3762 2.3762 2.3762c 1.3124,0.0000 2.3762,-1.0639 2.3762 -2.3762Z"/></g><g stroke-linejoin="miter" stroke-opacity="1.0" fill-opacity="1.0" stroke="rgb(0,0,0)" stroke-width="0.0" fill="rgb(0,126,156)" stroke-linecap="butt" stroke-miterlimit="10.0"><path d="M 167.3678,24.1835 c 0.0000,-1.3124 -1.0639,-2.3762 -2.3762 -2.3762c -1.3124,-0.0000 -2.3762,1.0639 -2.3762 2.3762c -0.0000,1.3124 1.0639,2.3762 2.3762 2.3762c 1.3124,0.0000 2.3762,-1.0639 2.3762 -2.3762Z"/></g><g stroke-linejoin="miter" stroke-opacity="1.0" fill-opacity="1.0" stroke="rgb(0,0,0)" stroke-width="0.0" fill="rgb(0,126,156)" stroke-linecap="butt" stroke-miterlimit="10.0"><path d="M 231.2152,58.6480 c 0.0000,-1.3124 -1.0639,-2.3762 -2.3762 -2.3762c -1.3124,-0.0000 -2.3762,1.0639 -2.3762 2.3762c -0.0000,1.3124 1.0639,2.3762 2.3762 2.3762c 1.3124,0.0000 2.3762,-1.0639 2.3762 -2.3762Z"/></g><g stroke-linejoin="miter" stroke-opacity="1.0" fill-opacity="1.0" stroke="rgb(0,0,0)" stroke-width="0.0" fill="rgb(0,126,156)" stroke-linecap="butt" stroke-miterlimit="10.0"><path d="M 209.4953,45.5709 c 0.0000,-1.3124 -1.0639,-2.3762 -2.3762 -2.3762c -1.3124,-0.0000 -2.3762,1.0639 -2.3762 2.3762c -0.0000,1.3124 1.0639,2.3762 2.3762 2.3762c 1.3124,0.0000 2.3762,-1.0639 2.3762 -2.3762Z"/></g><g stroke-linejoin="miter" stroke-opacity="1.0" fill-opacity="1.0" stroke="rgb(0,0,0)" stroke-width="0.0" fill="rgb(0,126,156)" stroke-linecap="butt" stroke-miterlimit="10.0"><path d="M 192.2869,54.1750 c 0.0000,-1.3124 -1.0639,-2.3762 -2.3762 -2.3762c -1.3124,-0.0000 -2.3762,1.0639 -2.3762 2.3762c -0.0000,1.3124 1.0639,2.3762 2.3762 2.3762c 1.3124,0.0000 2.3762,-1.0639 2.3762 -2.3762Z"/></g><g stroke-linejoin="miter" stroke-opacity="1.0" fill-opacity="1.0" stroke="rgb(0,0,0)" stroke-width="0.0" fill="rgb(0,126,156)" stroke-linecap="butt" stroke-miterlimit="10.0"><path d="M 169.4494,58.0276 c 0.0000,-1.3124 -1.0639,-2.3762 -2.3762 -2.3762c -1.3124,-0.0000 -2.3762,1.0639 -2.3762 2.3762c -0.0000,1.3124 1.0639,2.3762 2.3762 2.3762c 1.3124,0.0000 2.3762,-1.0639 2.3762 -2.3762Z"/></g><g stroke-linejoin="miter" stroke-opacity="1.0" fill-opacity="1.0" stroke="rgb(0,0,0)" stroke-width="0.0" fill="rgb(0,126,156)" stroke-linecap="butt" stroke-miterlimit="10.0"><path d="M 229.5707,65.8125 c 0.0000,-1.3124 -1.0639,-2.3762 -2.3762 -2.3762c -1.3124,-0.0000 -2.3762,1.0639 -2.3762 2.3762c -0.0000,1.3124 1.0639,2.3762 2.3762 2.3762c 1.3124,0.0000 2.3762,-1.0639 2.3762 -2.3762Z"/></g><g stroke-linejoin="miter" stroke-opacity="1.0" fill-opacity="1.0" stroke="rgb(0,0,0)" stroke-width="0.0" fill="rgb(0,126,156)" stroke-linecap="butt" stroke-miterlimit="10.0"><path d="M 206.6291,64.5707 c 0.0000,-1.3124 -1.0639,-2.3762 -2.3762 -2.3762c -1.3124,-0.0000 -2.3762,1.0639 -2.3762 2.3762c -0.0000,1.3124 1.0639,2.3762 2.3762 2.3762c 1.3124,0.0000 2.3762,-1.0639 2.3762 -2.3762Z"/></g><g stroke-linejoin="miter" stroke-opacity="1.0" fill-opacity="1.0" stroke="rgb(0,0,0)" stroke-width="0.0" fill="rgb(0,126,156)" stroke-linecap="butt" stroke-miterlimit="10.0"><path d="M 185.8670,67.8889 c 0.0000,-1.3124 -1.0639,-2.3762 -2.3762 -2.3762c -1.3124,-0.0000 -2.3762,1.0639 -2.3762 2.3762c -0.0000,1.3124 1.0639,2.3762 2.3762 2.3762c 1.3124,0.0000 2.3762,-1.0639 2.3762 -2.3762Z"/></g><g stroke-linejoin="miter" stroke-opacity="1.0" fill-opacity="1.0" stroke="rgb(0,0,0)" stroke-width="0.0" fill="rgb(0,126,156)" stroke-linecap="butt" stroke-miterlimit="10.0"><path d="M 174.6151,77.5703 c 0.0000,-1.3124 -1.0639,-2.3762 -2.3762 -2.3762c -1.3124,-0.0000 -2.3762,1.0639 -2.3762 2.3762c -0.0000,1.3124 1.0639,2.3762 2.3762 2.3762c 1.3124,0.0000 2.3762,-1.0639 2.3762 -2.3762Z"/></g><g stroke-linejoin="miter" stroke-opacity="1.0" fill-opacity="1.0" stroke="rgb(0,0,0)" stroke-width="0.0" fill="rgb(0,126,156)" stroke-linecap="butt" stroke-miterlimit="10.0"><path d="M 148.9982,3.9624 c 0.0000,-1.3124 -1.0639,-2.3762 -2.3762 -2.3762c -1.3124,-0.0000 -2.3762,1.0639 -2.3762 2.3762c -0.0000,1.3124 1.0639,2.3762 2.3762 2.3762c 1.3124,0.0000 2.3762,-1.0639 2.3762 -2.3762Z"/></g><g stroke-linejoin="miter" stroke-opacity="1.0" fill-opacity="1.0" stroke="rgb(0,0,0)" stroke-width="0.0" fill="rgb(0,126,156)" stroke-linecap="butt" stroke-miterlimit="10.0"><path d="M 128.9983,4.8640 c 0.0000,-1.3124 -1.0639,-2.3762 -2.3762 -2.3762c -1.3124,-0.0000 -2.3762,1.0639 -2.3762 2.3762c -0.0000,1.3124 1.0639,2.3762 2.3762 2.3762c 1.3124,0.0000 2.3762,-1.0639 2.3762 -2.3762Z"/></g><g stroke-linejoin="miter" stroke-opacity="1.0" fill-opacity="1.0" stroke="rgb(0,0,0)" stroke-width="0.0" fill="rgb(0,126,156)" stroke-linecap="butt" stroke-miterlimit="10.0"><path d="M 109.4888,19.0878 c 0.0000,-1.3124 -1.0639,-2.3762 -2.3762 -2.3762c -1.3124,-0.0000 -2.3762,1.0639 -2.3762 2.3762c -0.0000,1.3124 1.0639,2.3762 2.3762 2.3762c 1.3124,0.0000 2.3762,-1.0639 2.3762 -2.3762Z"/></g><g stroke-linejoin="miter" stroke-opacity="1.0" fill-opacity="1.0" stroke="rgb(0,0,0)" stroke-width="0.0" fill="rgb(0,126,156)" stroke-linecap="butt" stroke-miterlimit="10.0"><path d="M 97.5824,14.6887 c 0.0000,-1.3124 -1.0639,-2.3762 -2.3762 -2.3762c -1.3124,-0.0000 -2.3762,1.0639 -2.3762 2.3762c -0.0000,1.3124 1.0639,2.3762 2.3762 2.3762c 1.3124,0.0000 2.3762,-1.0639 2.3762 -2.3762Z"/></g><g stroke-linejoin="miter" stroke-opacity="1.0" fill-opacity="1.0" stroke="rgb(0,0,0)" stroke-width="0.0" fill="rgb(0,126,156)" stroke-linecap="butt" stroke-miterlimit="10.0"><path d="M 147.3828,36.9106 c 0.0000,-1.3124 -1.0639,-2.3762 -2.3762 -2.3762c -1.3124,-0.0000 -2.3762,1.0639 -2.3762 2.3762c -0.0000,1.3124 1.0639,2.3762 2.3762 2.3762c 1.3124,0.0000 2.3762,-1.0639 2.3762 -2.3762Z"/></g><g stroke-linejoin="miter" stroke-opacity="1.0" fill-opacity="1.0" stroke="rgb(0,0,0)" stroke-width="0.0" fill="rgb(0,126,156)" stroke-linecap="butt" stroke-miterlimit="10.0"><path d="M 140.3532,26.4806 c 0.0000,-1.3124 -1.0639,-2.3762 -2.3762 -2.3762c -1.3124,-0.0000 -2.3762,1.0639 -2.3762 2.3762c -0.0000,1.3124 1.0639,2.3762 2.3762 2.3762c 1.3124,0.0000 2.3762,-1.0639 2.3762 -2.3762Z"/></g><g stroke-linejoin="miter" stroke-opacity="1.0" fill-opacity="1.0" stroke="rgb(0,0,0)" stroke-width="0.0" fill="rgb(0,126,156)" stroke-linecap="butt" stroke-miterlimit="10.0"><path d="M 106.9121,32.2514 c 0.0000,-1.3124 -1.0639,-2.3762 -2.3762 -2.3762c -1.3124,-0.0000 -2.3762,1.0639 -2.3762 2.3762c -0.0000,1.3124 1.0639,2.3762 2.3762 2.3762c 1.3124,0.0000 2.3762,-1.0639 2.3762 -2.3762Z"/></g><g stroke-linejoin="miter" stroke-opacity="1.0" fill-opacity="1.0" stroke="rgb(0,0,0)" stroke-width="0.0" fill="rgb(0,126,156)" stroke-linecap="butt" stroke-miterlimit="10.0"><path d="M 88.7212,30.2838 c 0.0000,-1.3124 -1.0639,-2.3762 -2.3762 -2.3762c -1.3124,-0.0000 -2.3762,1.0639 -2.3762 2.3762c -0.0000,1.3124 1.0639,2.3762 2.3762 2.3762c 1.3124,0.0000 2.3762,-1.0639 2.3762 -2.3762Z"/></g><g stroke-linejoin="miter" stroke-opacity="1.0" fill-opacity="1.0" stroke="rgb(0,0,0)" stroke-width="0.0" fill="rgb(0,126,156)" stroke-linecap="butt" stroke-miterlimit="10.0"><path d="M 151.4267,58.6810 c 0.0000,-1.3124 -1.0639,-2.3762 -2.3762 -2.3762c -1.3124,-0.0000 -2.3762,1.0639 -2.3762 2.3762c -0.0000,1.3124 1.0639,2.3762 2.3762 2.3762c 1.3124,0.0000 2.3762,-1.0639 2.3762 -2.3762Z"/></g><g stroke-linejoin="miter" stroke-opacity="1.0" fill-opacity="1.0" stroke="rgb(0,0,0)" stroke-width="0.0" fill="rgb(0,126,156)" stroke-linecap="butt" stroke-miterlimit="10.0"><path d="M 131.4348,48.7210 c 0.0000,-1.3124 -1.0639,-2.3762 -2.3762 -2.3762c -1.3124,-0.0000 -2.3762,1.0639 -2.3762 2.3762c -0.0000,1.3124 1.0639,2.3762 2.3762 2.3762c 1.3124,0.0000 2.3762,-1.0639 2.3762 -2.3762Z"/></g><g stroke-linejoin="miter" stroke-opacity="1.0" fill-opacity="1.0" stroke="rgb(0,0,0)" stroke-width="0.0" fill="rgb(0,126,156)" stroke-linecap="butt" stroke-miterlimit="10.0"><path d="M 112.6941,55.0390 c 0.0000,-1.3124 -1.0639,-2.3762 -2.3762 -2.3762c -1.3124,-0.0000 -2.3762,1.0639 -2.3762 2.3762c -0.0000,1.3124 1.0639,2.3762 2.3762 2.3762c 1.3124,0.0000 2.3762,-1.0639 2.3762 -2.3762Z"/></g><g stroke-linejoin="miter" stroke-opacity="1.0" fill-opacity="1.0" stroke="rgb(0,0,0)" stroke-width="0.0" fill="rgb(0,126,156)" stroke-linecap="butt" stroke-miterlimit="10.0"><path d="M 98.7910,43.9512 c 0.0000,-1.3124 -1.0639,-2.3762 -2.3762 -2.3762c -1.3124,-0.0000 -2.3762,1.0639 -2.3762 2.3762c -0.0000,1.3124 1.0639,2.3762 2.3762 2.3762c 1.3124,0.0000 2.3762,-1.0639 2.3762 -2.3762Z"/></g><g stroke-linejoin="miter" stroke-opacity="1.0" fill-opacity="1.0" stroke="rgb(0,0,0)" stroke-width="0.0" fill="rgb(0,126,156)" stroke-linecap="butt" stroke-miterlimit="10.0"><path d="M 150.9503,74.6041 c 0.0000,-1.3124 -1.0639,-2.3762 -2.3762 -2.3762c -1.3124,-0.0000 -2.3762,1.0639 -2.3762 2.3762c -0.0000,1.3124 1.0639,2.3762 2.3762 2.3762c 1.3124,0.0000 2.3762,-1.0639 2.3762 -2.3762Z"/></g><g stroke-linejoin="miter" stroke-opacity="1.0" fill-opacity="1.0" stroke="rgb(0,0,0)" stroke-width="0.0" fill="rgb(0,126,156)" stroke-linecap="butt" stroke-miterlimit="10.0"><path d="M 126.4655,63.4598 c 0.0000,-1.3124 -1.0639,-2.3762 -2.3762 -2.3762c -1.3124,-0.0000 -2.3762,1.0639 -2.3762 2.3762c -0.0000,1.3124 1.0639,2.3762 2.3762 2.3762c 1.3124,0.0000 2.3762,-1.0639 2.3762 -2.3762Z"/></g><g stroke-linejoin="miter" stroke-opacity="1.0" fill-opacity="1.0" stroke="rgb(0,0,0)" stroke-width="0.0" fill="rgb(0,126,156)" stroke-linecap="butt" stroke-miterlimit="10.0"><path d="M 106.0863,68.1306 c 0.0000,-1.3124 -1.0639,-2.3762 -2.3762 -2.3762c -1.3124,-0.0000 -2.3762,1.0639 -2.3762 2.3762c -0.0000,1.3124 1.0639,2.3762 2.3762 2.3762c 1.3124,0.0000 2.3762,-1.0639 2.3762 -2.3762Z"/></g><g stroke-linejoin="miter" stroke-opacity="1.0" fill-opacity="1.0" stroke="rgb(0,0,0)" stroke-width="0.0" fill="rgb(0,126,156)" stroke-linecap="butt" stroke-miterlimit="10.0"><path d="M 92.5880,74.5853 c 0.0000,-1.3124 -1.0639,-2.3762 -2.3762 -2.3762c -1.3124,-0.0000 -2.3762,1.0639 -2.3762 2.3762c -0.0000,1.3124 1.0639,2.3762 2.3762 2.3762c 1.3124,0.0000 2.3762,-1.0639 2.3762 -2.3762Z"/></g><g stroke-linejoin="miter" stroke-opacity="1.0" fill-opacity="1.0" stroke="rgb(0,0,0)" stroke-width="0.0" fill="rgb(0,126,156)" stroke-linecap="butt" stroke-miterlimit="10.0"><path d="M 73.7314,6.4052 c 0.0000,-1.3124 -1.0639,-2.3762 -2.3762 -2.3762c -1.3124,-0.0000 -2.3762,1.0639 -2.3762 2.3762c -0.0000,1.3124 1.0639,2.3762 2.3762 2.3762c 1.3124,0.0000 2.3762,-1.0639 2.3762 -2.3762Z"/></g><g stroke-linejoin="miter" stroke-opacity="1.0" fill-opacity="1.0" stroke="rgb(0,0,0)" stroke-width="0.0" fill="rgb(0,126,156)" stroke-linecap="butt" stroke-miterlimit="10.0"><path d="M 52.5837,19.0858 c 0.0000,-1.3124 -1.0639,-2.3762 -2.3762 -2.3762c -1.3124,-0.0000 -2.3762,1.0639 -2.3762 2.3762c -0.0000,1.3124 1.0639,2.3762 2.3762 2.3762c 1.3124,0.0000 2.3762,-1.0639 2.3762 -2.3762Z"/></g><g stroke-linejoin="miter" stroke-opacity="1.0" fill-opacity="1.0" stroke="rgb(0,0,0)" stroke-width="0.0" fill="rgb(0,126,156)" stroke-linecap="butt" stroke-miterlimit="10.0"><path d="M 36.7934,16.3625 c 0.0000,-1.3124 -1.0639,-2.3762 -2.3762 -2.3762c -1.3124,-0.0000 -2.3762,1.0639 -2.3762 2.3762c -0.0000,1.3124 1.0639,2.3762 2.3762 2.3762c 1.3124,0.0000 2.3762,-1.0639 2.3762 -2.3762Z"/></g><g stroke-linejoin="miter" stroke-opacity="1.0" fill-opacity="1.0" stroke="rgb(0,0,0)" stroke-width="0.0" fill="rgb(0,126,156)" stroke-linecap="butt" stroke-miterlimit="10.0"><path d="M 8.3964,6.5433 c 0.0000,-1.3124 -1.0639,-2.3762 -2.3762 -2.3762c -1.3124,-0.0000 -2.3762,1.0639 -2.3762 2.3762c -0.0000,1.3124 1.0639,2.3762 2.3762 2.3762c 1.3124,0.0000 2.3762,-1.0639 2.3762 -2.3762Z"/></g><g stroke-linejoin="miter" stroke-opacity="1.0" fill-opacity="1.0" stroke="rgb(0,0,0)" stroke-width="0.0" fill="rgb(0,126,156)" stroke-linecap="butt" stroke-miterlimit="10.0"><path d="M 80.0135,32.6146 c 0.0000,-1.3124 -1.0639,-2.3762 -2.3762 -2.3762c -1.3124,-0.0000 -2.3762,1.0639 -2.3762 2.3762c -0.0000,1.3124 1.0639,2.3762 2.3762 2.3762c 1.3124,0.0000 2.3762,-1.0639 2.3762 -2.3762Z"/></g><g stroke-linejoin="miter" stroke-opacity="1.0" fill-opacity="1.0" stroke="rgb(0,0,0)" stroke-width="0.0" fill="rgb(0,126,156)" stroke-linecap="butt" stroke-miterlimit="10.0"><path d="M 52.7274,28.8825 c 0.0000,-1.3124 -1.0639,-2.3762 -2.3762 -2.3762c -1.3124,-0.0000 -2.3762,1.0639 -2.3762 2.3762c -0.0000,1.3124 1.0639,2.3762 2.3762 2.3762c 1.3124,0.0000 2.3762,-1.0639 2.3762 -2.3762Z"/></g><g stroke-linejoin="miter" stroke-opacity="1.0" fill-opacity="1.0" stroke="rgb(0,0,0)" stroke-width="0.0" fill="rgb(0,126,156)" stroke-linecap="butt" stroke-miterlimit="10.0"><path d="M 34.3478,27.7169 c 0.0000,-1.3124 -1.0639,-2.3762 -2.3762 -2.3762c -1.3124,-0.0000 -2.3762,1.0639 -2.3762 2.3762c -0.0000,1.3124 1.0639,2.3762 2.3762 2.3762c 1.3124,0.0000 2.3762,-1.0639 2.3762 -2.3762Z"/></g><g stroke-linejoin="miter" stroke-opacity="1.0" fill-opacity="1.0" stroke="rgb(0,0,0)" stroke-width="0.0" fill="rgb(0,126,156)" stroke-linecap="butt" stroke-miterlimit="10.0"><path d="M 21.5549,24.5765 c 0.0000,-1.3124 -1.0639,-2.3762 -2.3762 -2.3762c -1.3124,-0.0000 -2.3762,1.0639 -2.3762 2.3762c -0.0000,1.3124 1.0639,2.3762 2.3762 2.3762c 1.3124,0.0000 2.3762,-1.0639 2.3762 -2.3762Z"/></g><g stroke-linejoin="miter" stroke-opacity="1.0" fill-opacity="1.0" stroke="rgb(0,0,0)" stroke-width="0.0" fill="rgb(0,126,156)" stroke-linecap="butt" stroke-miterlimit="10.0"><path d="M 75.3981,52.5539 c 0.0000,-1.3124 -1.0639,-2.3762 -2.3762 -2.3762c -1.3124,-0.0000 -2.3762,1.0639 -2.3762 2.3762c -0.0000,1.3124 1.0639,2.3762 2.3762 2.3762c 1.3124,0.0000 2.3762,-1.0639 2.3762 -2.3762Z"/></g><g stroke-linejoin="miter" stroke-opacity="1.0" fill-opacity="1.0" stroke="rgb(0,0,0)" stroke-width="0.0" fill="rgb(0,126,156)" stroke-linecap="butt" stroke-miterlimit="10.0"><path d="M 46.5000,56.3960 c 0.0000,-1.3124 -1.0639,-2.3762 -2.3762 -2.3762c -1.3124,-0.0000 -2.3762,1.0639 -2.3762 2.3762c -0.0000,1.3124 1.0639,2.3762 2.3762 2.3762c 1.3124,0.0000 2.3762,-1.0639 2.3762 -2.3762Z"/></g><g stroke-linejoin="miter" stroke-opacity="1.0" fill-opacity="1.0" stroke="rgb(0,0,0)" stroke-width="0.0" fill="rgb(0,126,156)" stroke-linecap="butt" stroke-miterlimit="10.0"><path d="M 28.1930,48.3239 c 0.0000,-1.3124 -1.0639,-2.3762 -2.3762 -2.3762c -1.3124,-0.0000 -2.3762,1.0639 -2.3762 2.3762c -0.0000,1.3124 1.0639,2.3762 2.3762 2.3762c 1.3124,0.0000 2.3762,-1.0639 2.3762 -2.3762Z"/></g><g stroke-linejoin="miter" stroke-opacity="1.0" fill-opacity="1.0" stroke="rgb(0,0,0)" stroke-width="0.0" fill="rgb(0,126,156)" stroke-linecap="butt" stroke-miterlimit="10.0"><path d="M 21.1678,52.5117 c 0.0000,-1.3124 -1.0639,-2.3762 -2.3762 -2.3762c -1.3124,-0.0000 -2.3762,1.0639 -2.3762 2.3762c -0.0000,1.3124 1.0639,2.3762 2.3762 2.3762c 1.3124,0.0000 2.3762,-1.0639 2.3762 -2.3762Z"/></g><g stroke-linejoin="miter" stroke-opacity="1.0" fill-opacity="1.0" stroke="rgb(0,0,0)" stroke-width="0.0" fill="rgb(0,126,156)" stroke-linecap="butt" stroke-miterlimit="10.0"><path d="M 79.5158,73.9520 c 0.0000,-1.3124 -1.0639,-2.3762 -2.3762 -2.3762c -1.3124,-0.0000 -2.3762,1.0639 -2.3762 2.3762c -0.0000,1.3124 1.0639,2.3762 2.3762 2.3762c 1.3124,0.0000 2.3762,-1.0639 2.3762 -2.3762Z"/></g><g stroke-linejoin="miter" stroke-opacity="1.0" fill-opacity="1.0" stroke="rgb(0,0,0)" stroke-width="0.0" fill="rgb(0,126,156)" stroke-linecap="butt" stroke-miterlimit="10.0"><path d="M 57.3830,64.8110 c 0.0000,-1.3124 -1.0639,-2.3762 -2.3762 -2.3762c -1.3124,-0.0000 -2.3762,1.0639 -2.3762 2.3762c -0.0000,1.3124 1.0639,2.3762 2.3762 2.3762c 1.3124,0.0000 2.3762,-1.0639 2.3762 -2.3762Z"/></g><g stroke-linejoin="miter" stroke-opacity="1.0" fill-opacity="1.0" stroke="rgb(0,0,0)" stroke-width="0.0" fill="rgb(0,126,156)" stroke-linecap="butt" stroke-miterlimit="10.0"><path d="M 31.9746,77.1373 c 0.0000,-1.3124 -1.0639,-2.3762 -2.3762 -2.3762c -1.3124,-0.0000 -2.3762,1.0639 -2.3762 2.3762c -0.0000,1.3124 1.0639,2.3762 2.3762 2.3762c 1.3124,0.0000 2.3762,-1.0639 2.3762 -2.3762Z"/></g><g stroke-linejoin="miter" stroke-opacity="1.0" fill-opacity="1.0" stroke="rgb(0,0,0)" stroke-width="0.0" fill="rgb(0,126,156)" stroke-linecap="butt" stroke-miterlimit="10.0"><path d="M 19.0538,70.0280 c 0.0000,-1.3124 -1.0639,-2.3762 -2.3762 -2.3762c -1.3124,-0.0000 -2.3762,1.0639 -2.3762 2.3762c -0.0000,1.3124 1.0639,2.3762 2.3762 2.3762c 1.3124,0.0000 2.3762,-1.0639 2.3762 -2.3762Z"/></g><g stroke-linejoin="miter" stroke-opacity="1.0" fill-opacity="1.0" stroke="rgb(0,0,0)" stroke-width="0.0" fill="rgb(0,126,156)" stroke-linecap="butt" stroke-miterlimit="10.0"><path d="M 305.9055,93.4730 c 0.0000,-1.3124 -1.0639,-2.3762 -2.3762 -2.3762c -1.3124,-0.0000 -2.3762,1.0639 -2.3762 2.3762c -0.0000,1.3124 1.0639,2.3762 2.3762 2.3762c 1.3124,0.0000 2.3762,-1.0639 2.3762 -2.3762Z"/></g><g stroke-linejoin="miter" stroke-opacity="1.0" fill-opacity="1.0" stroke="rgb(0,0,0)" stroke-width="0.0" fill="rgb(0,126,156)" stroke-linecap="butt" stroke-miterlimit="10.0"><path d="M 283.3833,92.1783 c 0.0000,-1.3124 -1.0639,-2.3762 -2.3762 -2.3762c -1.3124,-0.0000 -2.3762,1.0639 -2.3762 2.3762c -0.0000,1.3124 1.0639,2.3762 2.3762 2.3762c 1.3124,0.0000 2.3762,-1.0639 2.3762 -2.3762Z"/></g><g stroke-linejoin="miter" stroke-opacity="1.0" fill-opacity="1.0" stroke="rgb(0,0,0)" stroke-width="0.0" fill="rgb(0,126,156)" stroke-linecap="butt" stroke-miterlimit="10.0"><path d="M 277.0018,95.1964 c 0.0000,-1.3124 -1.0639,-2.3762 -2.3762 -2.3762c -1.3124,-0.0000 -2.3762,1.0639 -2.3762 2.3762c -0.0000,1.3124 1.0639,2.3762 2.3762 2.3762c 1.3124,0.0000 2.3762,-1.0639 2.3762 -2.3762Z"/></g><g stroke-linejoin="miter" stroke-opacity="1.0" fill-opacity="1.0" stroke="rgb(0,0,0)" stroke-width="0.0" fill="rgb(0,126,156)" stroke-linecap="butt" stroke-miterlimit="10.0"><path d="M 244.5436,88.3343 c 0.0000,-1.3124 -1.0639,-2.3762 -2.3762 -2.3762c -1.3124,-0.0000 -2.3762,1.0639 -2.3762 2.3762c -0.0000,1.3124 1.0639,2.3762 2.3762 2.3762c 1.3124,0.0000 2.3762,-1.0639 2.3762 -2.3762Z"/></g><g stroke-linejoin="miter" stroke-opacity="1.0" fill-opacity="1.0" stroke="rgb(0,0,0)" stroke-width="0.0" fill="rgb(0,126,156)" stroke-linecap="butt" stroke-miterlimit="10.0"><path d="M 310.3863,117.2034 c 0.0000,-1.3124 -1.0639,-2.3762 -2.3762 -2.3762c -1.3124,-0.0000 -2.3762,1.0639 -2.3762 2.3762c -0.0000,1.3124 1.0639,2.3762 2.3762 2.3762c 1.3124,0.0000 2.3762,-1.0639 2.3762 -2.3762Z"/></g><g stroke-linejoin="miter" stroke-opacity="1.0" fill-opacity="1.0" stroke="rgb(0,0,0)" stroke-width="0.0" fill="rgb(0,126,156)" stroke-linecap="butt" stroke-miterlimit="10.0"><path d="M 296.4711,112.9895 c 0.0000,-1.3124 -1.0639,-2.3762 -2.3762 -2.3762c -1.3124,-0.0000 -2.3762,1.0639 -2.3762 2.3762c -0.0000,1.3124 1.0639,2.3762 2.3762 2.3762c 1.3124,0.0000 2.3762,-1.0639 2.3762 -2.3762Z"/></g><g stroke-linejoin="miter" stroke-opacity="1.0" fill-opacity="1.0" stroke="rgb(0,0,0)" stroke-width="0.0" fill="rgb(0,126,156)" stroke-linecap="butt" stroke-miterlimit="10.0"><path d="M 275.6941,110.6992 c 0.0000,-1.3124 -1.0639,-2.3762 -2.3762 -2.3762c -1.3124,-0.0000 -2.3762,1.0639 -2.3762 2.3762c -0.0000,1.3124 1.0639,2.3762 2.3762 2.3762c 1.3124,0.0000 2.3762,-1.0639 2.3762 -2.3762Z"/></g><g stroke-linejoin="miter" stroke-opacity="1.0" fill-opacity="1.0" stroke="rgb(0,0,0)" stroke-width="0.0" fill="rgb(0,126,156)" stroke-linecap="butt" stroke-miterlimit="10.0"><path d="M 249.0382,116.1902 c 0.0000,-1.3124 -1.0639,-2.3762 -2.3762 -2.3762c -1.3124,-0.0000 -2.3762,1.0639 -2.3762 2.3762c -0.0000,1.3124 1.0639,2.3762 2.3762 2.3762c 1.3124,0.0000 2.3762,-1.0639 2.3762 -2.3762Z"/></g><g stroke-linejoin="miter" stroke-opacity="1.0" fill-opacity="1.0" stroke="rgb(0,0,0)" stroke-width="0.0" fill="rgb(0,126,156)" stroke-linecap="butt" stroke-miterlimit="10.0"><path d="M 313.0349,123.9306 c 0.0000,-1.3124 -1.0639,-2.3762 -2.3762 -2.3762c -1.3124,-0.0000 -2.3762,1.0639 -2.3762 2.3762c -0.0000,1.3124 1.0639,2.3762 2.3762 2.3762c 1.3124,0.0000 2.3762,-1.0639 2.3762 -2.3762Z"/></g><g stroke-linejoin="miter" stroke-opacity="1.0" fill-opacity="1.0" stroke="rgb(0,0,0)" stroke-width="0.0" fill="rgb(0,126,156)" stroke-linecap="butt" stroke-miterlimit="10.0"><path d="M 295.5472,133.0693 c 0.0000,-1.3124 -1.0639,-2.3762 -2.3762 -2.3762c -1.3124,-0.0000 -2.3762,1.0639 -2.3762 2.3762c -0.0000,1.3124 1.0639,2.3762 2.3762 2.3762c 1.3124,0.0000 2.3762,-1.0639 2.3762 -2.3762Z"/></g><g stroke-linejoin="miter" stroke-opacity="1.0" fill-opacity="1.0" stroke="rgb(0,0,0)" stroke-width="0.0" fill="rgb(0,126,156)" stroke-linecap="butt" stroke-miterlimit="10.0"><path d="M 267.5924,131.4417 c 0.0000,-1.3124 -1.0639,-2.3762 -2.3762 -2.3762c -1.3124,-0.0000 -2.3762,1.0639 -2.3762 2.3762c -0.0000,1.3124 1.0639,2.3762 2.3762 2.3762c 1.3124,0.0000 2.3762,-1.0639 2.3762 -2.3762Z"/></g><g stroke-linejoin="miter" stroke-opacity="1.0" fill-opacity="1.0" stroke="rgb(0,0,0)" stroke-width="0.0" fill="rgb(0,126,156)" stroke-linecap="butt" stroke-miterlimit="10.0"><path d="M 256.2053,132.7622 c 0.0000,-1.3124 -1.0639,-2.3762 -2.3762 -2.3762c -1.3124,-0.0000 -2.3762,1.0639 -2.3762 2.3762c -0.0000,1.3124 1.0639,2.3762 2.3762 2.3762c 1.3124,0.0000 2.3762,-1.0639 2.3762 -2.3762Z"/></g><g stroke-linejoin="miter" stroke-opacity="1.0" fill-opacity="1.0" stroke="rgb(0,0,0)" stroke-width="0.0" fill="rgb(0,126,156)" stroke-linecap="butt" stroke-miterlimit="10.0"><path d="M 311.8207,151.0318 c 0.0000,-1.3124 -1.0639,-2.3762 -2.3762 -2.3762c -1.3124,-0.0000 -2.3762,1.0639 -2.3762 2.3762c -0.0000,1.3124 1.0639,2.3762 2.3762 2.3762c 1.3124,0.0000 2.3762,-1.0639 2.3762 -2.3762Z"/></g><g stroke-linejoin="miter" stroke-opacity="1.0" fill-opacity="1.0" stroke="rgb(0,0,0)" stroke-width="0.0" fill="rgb(0,126,156)" stroke-linecap="butt" stroke-miterlimit="10.0"><path d="M 295.1404,151.3357 c 0.0000,-1.3124 -1.0639,-2.3762 -2.3762 -2.3762c -1.3124,-0.0000 -2.3762,1.0639 -2.3762 2.3762c -0.0000,1.3124 1.0639,2.3762 2.3762 2.3762c 1.3124,0.0000 2.3762,-1.0639 2.3762 -2.3762Z"/></g><g stroke-linejoin="miter" stroke-opacity="1.0" fill-opacity="1.0" stroke="rgb(0,0,0)" stroke-width="0.0" fill="rgb(0,126,156)" stroke-linecap="butt" stroke-miterlimit="10.0"><path d="M 270.1057,146.4459 c 0.0000,-1.3124 -1.0639,-2.3762 -2.3762 -2.3762c -1.3124,-0.0000 -2.3762,1.0639 -2.3762 2.3762c -0.0000,1.3124 1.0639,2.3762 2.3762 2.3762c 1.3124,0.0000 2.3762,-1.0639 2.3762 -2.3762Z"/></g><g stroke-linejoin="miter" stroke-opacity="1.0" fill-opacity="1.0" stroke="rgb(0,0,0)" stroke-width="0.0" fill="rgb(0,126,156)" stroke-linecap="butt" stroke-miterlimit="10.0"><path d="M 255.0108,155.0171 c 0.0000,-1.3124 -1.0639,-2.3762 -2.3762 -2.3762c -1.3124,-0.0000 -2.3762,1.0639 -2.3762 2.3762c -0.0000,1.3124 1.0639,2.3762 2.3762 2.3762c 1.3124,0.0000 2.3762,-1.0639 2.3762 -2.3762Z"/></g><g stroke-linejoin="miter" stroke-opacity="1.0" fill-opacity="1.0" stroke="rgb(0,0,0)" stroke-width="0.0" fill="rgb(0,126,156)" stroke-linecap="butt" stroke-miterlimit="10.0"><path d="M 227.7003,84.5722 c 0.0000,-1.3124 -1.0639,-2.3762 -2.3762 -2.3762c -1.3124,-0.0000 -2.3762,1.0639 -2.3762 2.3762c -0.0000,1.3124 1.0639,2.3762 2.3762 2.3762c 1.3124,0.0000 2.3762,-1.0639 2.3762 -2.3762Z"/></g><g stroke-linejoin="miter" stroke-opacity="1.0" fill-opacity="1.0" stroke="rgb(0,0,0)" stroke-width="0.0" fill="rgb(0,126,156)" stroke-linecap="butt" stroke-miterlimit="10.0"><path d="M 208.9657,84.6195 c 0.0000,-1.3124 -1.0639,-2.3762 -2.3762 -2.3762c -1.3124,-0.0000 -2.3762,1.0639 -2.3762 2.3762c -0.0000,1.3124 1.0639,2.3762 2.3762 2.3762c 1.3124,0.0000 2.3762,-1.0639 2.3762 -2.3762Z"/></g><g stroke-linejoin="miter" stroke-opacity="1.0" fill-opacity="1.0" stroke="rgb(0,0,0)" stroke-width="0.0" fill="rgb(0,126,156)" stroke-linecap="butt" stroke-miterlimit="10.0"><path d="M 196.8966,84.4003 c 0.0000,-1.3124 -1.0639,-2.3762 -2.3762 -2.3762c -1.3124,-0.0000 -2.3762,1.0639 -2.3762 2.3762c -0.0000,1.3124 1.0639,2.3762 2.3762 2.3762c 1.3124,0.0000 2.3762,-1.0639 2.3762 -2.3762Z"/></g><g stroke-linejoin="miter" stroke-opacity="1.0" fill-opacity="1.0" stroke="rgb(0,0,0)" stroke-width="0.0" fill="rgb(0,126,156)" stroke-linecap="butt" stroke-miterlimit="10.0"><path d="M 168.9895,97.2872 c 0.0000,-1.3124 -1.0639,-2.3762 -2.3762 -2.3762c -1.3124,-0.0000 -2.3762,1.0639 -2.3762 2.3762c -0.0000,1.3124 1.0639,2.3762 2.3762 2.3762c 1.3124,0.0000 2.3762,-1.0639 2.3762 -2.3762Z"/></g><g stroke-linejoin="miter" stroke-opacity="1.0" fill-opacity="1.0" stroke="rgb(0,0,0)" stroke-width="0.0" fill="rgb(0,126,156)" stroke-linecap="butt" stroke-miterlimit="10.0"><path d="M 236.3323,117.1079 c 0.0000,-1.3124 -1.0639,-2.3762 -2.3762 -2.3762c -1.3124,-0.0000 -2.3762,1.0639 -2.3762 2.3762c -0.0000,1.3124 1.0639,2.3762 2.3762 2.3762c 1.3124,0.0000 2.3762,-1.0639 2.3762 -2.3762Z"/></g><g stroke-linejoin="miter" stroke-opacity="1.0" fill-opacity="1.0" stroke="rgb(0,0,0)" stroke-width="0.0" fill="rgb(0,126,156)" stroke-linecap="butt" stroke-miterlimit="10.0"><path d="M 206.5187,103.7258 c 0.0000,-1.3124 -1.0639,-2.3762 -2.3762 -2.3762c -1.3124,-0.0000 -2.3762,1.0639 -2.3762 2.3762c -0.0000,1.3124 1.0639,2.3762 2.3762 2.3762c 1.3124,0.0000 2.3762,-1.0639 2.3762 -2.3762Z"/></g><g stroke-linejoin="miter" stroke-opacity="1.0" fill-opacity="1.0" stroke="rgb(0,0,0)" stroke-width="0.0" fill="rgb(0,126,156)" stroke-linecap="butt" stroke-miterlimit="10.0"><path d="M 185.6266,104.2732 c 0.0000,-1.3124 -1.0639,-2.3762 -2.3762 -2.3762c -1.3124,-0.0000 -2.3762,1.0639 -2.3762 2.3762c -0.0000,1.3124 1.0639,2.3762 2.3762 2.3762c 1.3124,0.0000 2.3762,-1.0639 2.3762 -2.3762Z"/></g><g stroke-linejoin="miter" stroke-opacity="1.0" fill-opacity="1.0" stroke="rgb(0,0,0)" stroke-width="0.0" fill="rgb(0,126,156)" stroke-linecap="butt" stroke-miterlimit="10.0"><path d="M 168.5271,108.3768 c 0.0000,-1.3124 -1.0639,-2.3762 -2.3762 -2.3762c -1.3124,-0.0000 -2.3762,1.0639 -2.3762 2.3762c -0.0000,1.3124 1.0639,2.3762 2.3762 2.3762c 1.3124,0.0000 2.3762,-1.0639 2.3762 -2.3762Z"/></g><g stroke-linejoin="miter" stroke-opacity="1.0" fill-opacity="1.0" stroke="rgb(0,0,0)" stroke-width="0.0" fill="rgb(0,126,156)" stroke-linecap="butt" stroke-miterlimit="10.0"><path d="M 232.1828,124.4047 c 0.0000,-1.3124 -1.0639,-2.3762 -2.3762 -2.3762c -1.3124,-0.0000 -2.3762,1.0639 -2.3762 2.3762c -0.0000,1.3124 1.0639,2.3762 2.3762 2.3762c 1.3124,0.0000 2.3762,-1.0639 2.3762 -2.3762Z"/></g><g stroke-linejoin="miter" stroke-opacity="1.0" fill-opacity="1.0" stroke="rgb(0,0,0)" stroke-width="0.0" fill="rgb(0,126,156)" stroke-linecap="butt" stroke-miterlimit="10.0"><path d="M 215.8974,137.2205 c 0.0000,-1.3124 -1.0639,-2.3762 -2.3762 -2.3762c -1.3124,-0.0000 -2.3762,1.0639 -2.3762 2.3762c -0.0000,1.3124 1.0639,2.3762 2.3762 2.3762c 1.3124,0.0000 2.3762,-1.0639 2.3762 -2.3762Z"/></g><g stroke-linejoin="miter" stroke-opacity="1.0" fill-opacity="1.0" stroke="rgb(0,0,0)" stroke-width="0.0" fill="rgb(0,126,156)" stroke-linecap="butt" stroke-miterlimit="10.0"><path d="M 197.1603,135.9769 c 0.0000,-1.3124 -1.0639,-2.3762 -2.3762 -2.3762c -1.3124,-0.0000 -2.3762,1.0639 -2.3762 2.3762c -0.0000,1.3124 1.0639,2.3762 2.3762 2.3762c 1.3124,0.0000 2.3762,-1.0639 2.3762 -2.3762Z"/></g><g stroke-linejoin="miter" stroke-opacity="1.0" fill-opacity="1.0" stroke="rgb(0,0,0)" stroke-width="0.0" fill="rgb(0,126,156)" stroke-linecap="butt" stroke-miterlimit="10.0"><path d="M 172.7207,127.8623 c 0.0000,-1.3124 -1.0639,-2.3762 -2.3762 -2.3762c -1.3124,-0.0000 -2.3762,1.0639 -2.3762 2.3762c -0.0000,1.3124 1.0639,2.3762 2.3762 2.3762c 1.3124,0.0000 2.3762,-1.0639 2.3762 -2.3762Z"/></g><g stroke-linejoin="miter" stroke-opacity="1.0" fill-opacity="1.0" stroke="rgb(0,0,0)" stroke-width="0.0" fill="rgb(0,126,156)" stroke-linecap="butt" stroke-miterlimit="10.0"><path d="M 224.8262,153.4422 c 0.0000,-1.3124 -1.0639,-2.3762 -2.3762 -2.3762c -1.3124,-0.0000 -2.3762,1.0639 -2.3762 2.3762c -0.0000,1.3124 1.0639,2.3762 2.3762 2.3762c 1.3124,0.0000 2.3762,-1.0639 2.3762 -2.3762Z"/></g><g stroke-linejoin="miter" stroke-opacity="1.0" fill-opacity="1.0" stroke="rgb(0,0,0)" stroke-width="0.0" fill="rgb(0,126,156)" stroke-linecap="butt" stroke-miterlimit="10.0"><path d="M 206.0932,148.4501 c 0.0000,-1.3124 -1.0639,-2.3762 -2.3762 -2.3762c -1.3124,-0.0000 -2.3762,1.0639 -2.3762 2.3762c -0.0000,1.3124 1.0639,2.3762 2.3762 2.3762c 1.3124,0.0000 2.3762,-1.0639 2.3762 -2.3762Z"/></g><g stroke-linejoin="miter" stroke-opacity="1.0" fill-opacity="1.0" stroke="rgb(0,0,0)" stroke-width="0.0" fill="rgb(0,126,156)" stroke-linecap="butt" stroke-miterlimit="10.0"><path d="M 187.4848,146.3042 c 0.0000,-1.3124 -1.0639,-2.3762 -2.3762 -2.3762c -1.3124,-0.0000 -2.3762,1.0639 -2.3762 2.3762c -0.0000,1.3124 1.0639,2.3762 2.3762 2.3762c 1.3124,0.0000 2.3762,-1.0639 2.3762 -2.3762Z"/></g><g stroke-linejoin="miter" stroke-opacity="1.0" fill-opacity="1.0" stroke="rgb(0,0,0)" stroke-width="0.0" fill="rgb(0,126,156)" stroke-linecap="butt" stroke-miterlimit="10.0"><path d="M 170.5192,154.6821 c 0.0000,-1.3124 -1.0639,-2.3762 -2.3762 -2.3762c -1.3124,-0.0000 -2.3762,1.0639 -2.3762 2.3762c -0.0000,1.3124 1.0639,2.3762 2.3762 2.3762c 1.3124,0.0000 2.3762,-1.0639 2.3762 -2.3762Z"/></g><g stroke-linejoin="miter" stroke-opacity="1.0" fill-opacity="1.0" stroke="rgb(0,0,0)" stroke-width="0.0" fill="rgb(0,126,156)" stroke-linecap="butt" stroke-miterlimit="10.0"><path d="M 147.0952,94.8147 c 0.0000,-1.3124 -1.0639,-2.3762 -2.3762 -2.3762c -1.3124,-0.0000 -2.3762,1.0639 -2.3762 2.3762c -0.0000,1.3124 1.0639,2.3762 2.3762 2.3762c 1.3124,0.0000 2.3762,-1.0639 2.3762 -2.3762Z"/></g><g stroke-linejoin="miter" stroke-opacity="1.0" fill-opacity="1.0" stroke="rgb(0,0,0)" stroke-width="0.0" fill="rgb(0,126,156)" stroke-linecap="butt" stroke-miterlimit="10.0"><path d="M 133.5734,91.3867 c 0.0000,-1.3124 -1.0639,-2.3762 -2.3762 -2.3762c -1.3124,-0.0000 -2.3762,1.0639 -2.3762 2.3762c -0.0000,1.3124 1.0639,2.3762 2.3762 2.3762c 1.3124,0.0000 2.3762,-1.0639 2.3762 -2.3762Z"/></g><g stroke-linejoin="miter" stroke-opacity="1.0" fill-opacity="1.0" stroke="rgb(0,0,0)" stroke-width="0.0" fill="rgb(0,126,156)" stroke-linecap="butt" stroke-miterlimit="10.0"><path d="M 113.7711,82.9978 c 0.0000,-1.3124 -1.0639,-2.3762 -2.3762 -2.3762c -1.3124,-0.0000 -2.3762,1.0639 -2.3762 2.3762c -0.0000,1.3124 1.0639,2.3762 2.3762 2.3762c 1.3124,0.0000 2.3762,-1.0639 2.3762 -2.3762Z"/></g><g stroke-linejoin="miter" stroke-opacity="1.0" fill-opacity="1.0" stroke="rgb(0,0,0)" stroke-width="0.0" fill="rgb(0,126,156)" stroke-linecap="butt" stroke-miterlimit="10.0"><path d="M 90.7678,97.6099 c 0.0000,-1.3124 -1.0639,-2.3762 -2.3762 -2.3762c -1.3124,-0.0000 -2.3762,1.0639 -2.3762 2.3762c -0.0000,1.3124 1.0639,2.3762 2.3762 2.3762c 1.3124,0.0000 2.3762,-1.0639 2.3762 -2.3762Z"/></g><g stroke-linejoin="miter" stroke-opacity="1.0" fill-opacity="1.0" stroke="rgb(0,0,0)" stroke-width="0.0" fill="rgb(0,126,156)" stroke-linecap="butt" stroke-miterlimit="10.0"><path d="M 151.4035,106.8568 c 0.0000,-1.3124 -1.0639,-2.3762 -2.3762 -2.3762c -1.3124,-0.0000 -2.3762,1.0639 -2.3762 2.3762c -0.0000,1.3124 1.0639,2.3762 2.3762 2.3762c 1.3124,0.0000 2.3762,-1.0639 2.3762 -2.3762Z"/></g><g stroke-linejoin="miter" stroke-opacity="1.0" fill-opacity="1.0" stroke="rgb(0,0,0)" stroke-width="0.0" fill="rgb(0,126,156)" stroke-linecap="butt" stroke-miterlimit="10.0"><path d="M 130.2163,111.8576 c 0.0000,-1.3124 -1.0639,-2.3762 -2.3762 -2.3762c -1.3124,-0.0000 -2.3762,1.0639 -2.3762 2.3762c -0.0000,1.3124 1.0639,2.3762 2.3762 2.3762c 1.3124,0.0000 2.3762,-1.0639 2.3762 -2.3762Z"/></g><g stroke-linejoin="miter" stroke-opacity="1.0" fill-opacity="1.0" stroke="rgb(0,0,0)" stroke-width="0.0" fill="rgb(0,126,156)" stroke-linecap="butt" stroke-miterlimit="10.0"><path d="M 116.0117,112.3741 c 0.0000,-1.3124 -1.0639,-2.3762 -2.3762 -2.3762c -1.3124,-0.0000 -2.3762,1.0639 -2.3762 2.3762c -0.0000,1.3124 1.0639,2.3762 2.3762 2.3762c 1.3124,0.0000 2.3762,-1.0639 2.3762 -2.3762Z"/></g><g stroke-linejoin="miter" stroke-opacity="1.0" fill-opacity="1.0" stroke="rgb(0,0,0)" stroke-width="0.0" fill="rgb(0,126,156)" stroke-linecap="butt" stroke-miterlimit="10.0"><path d="M 95.2818,112.9754 c 0.0000,-1.3124 -1.0639,-2.3762 -2.3762 -2.3762c -1.3124,-0.0000 -2.3762,1.0639 -2.3762 2.3762c -0.0000,1.3124 1.0639,2.3762 2.3762 2.3762c 1.3124,0.0000 2.3762,-1.0639 2.3762 -2.3762Z"/></g><g stroke-linejoin="miter" stroke-opacity="1.0" fill-opacity="1.0" stroke="rgb(0,0,0)" stroke-width="0.0" fill="rgb(0,126,156)" stroke-linecap="butt" stroke-miterlimit="10.0"><path d="M 158.0369,123.5531 c 0.0000,-1.3124 -1.0639,-2.3762 -2.3762 -2.3762c -1.3124,-0.0000 -2.3762,1.0639 -2.3762 2.3762c -0.0000,1.3124 1.0639,2.3762 2.3762 2.3762c 1.3124,0.0000 2.3762,-1.0639 2.3762 -2.3762Z"/></g><g stroke-linejoin="miter" stroke-opacity="1.0" fill-opacity="1.0" stroke="rgb(0,0,0)" stroke-width="0.0" fill="rgb(0,126,156)" stroke-linecap="butt" stroke-miterlimit="10.0"><path d="M 131.8449,132.3800 c 0.0000,-1.3124 -1.0639,-2.3762 -2.3762 -2.3762c -1.3124,-0.0000 -2.3762,1.0639 -2.3762 2.3762c -0.0000,1.3124 1.0639,2.3762 2.3762 2.3762c 1.3124,0.0000 2.3762,-1.0639 2.3762 -2.3762Z"/></g><g stroke-linejoin="miter" stroke-opacity="1.0" fill-opacity="1.0" stroke="rgb(0,0,0)" stroke-width="0.0" fill="rgb(0,126,156)" stroke-linecap="butt" stroke-miterlimit="10.0"><path d="M 111.0193,122.9680 c 0.0000,-1.3124 -1.0639,-2.3762 -2.3762 -2.3762c -1.3124,-0.0000 -2.3762,1.0639 -2.3762 2.3762c -0.0000,1.3124 1.0639,2.3762 2.3762 2.3762c 1.3124,0.0000 2.3762,-1.0639 2.3762 -2.3762Z"/></g><g stroke-linejoin="miter" stroke-opacity="1.0" fill-opacity="1.0" stroke="rgb(0,0,0)" stroke-width="0.0" fill="rgb(0,126,156)" stroke-linecap="butt" stroke-miterlimit="10.0"><path d="M 91.1679,133.5709 c 0.0000,-1.3124 -1.0639,-2.3762 -2.3762 -2.3762c -1.3124,-0.0000 -2.3762,1.0639 -2.3762 2.3762c -0.0000,1.3124 1.0639,2.3762 2.3762 2.3762c 1.3124,0.0000 2.3762,-1.0639 2.3762 -2.3762Z"/></g><g stroke-linejoin="miter" stroke-opacity="1.0" fill-opacity="1.0" stroke="rgb(0,0,0)" stroke-width="0.0" fill="rgb(0,126,156)" stroke-linecap="butt" stroke-miterlimit="10.0"><path d="M 146.2375,150.5424 c 0.0000,-1.3124 -1.0639,-2.3762 -2.3762 -2.3762c -1.3124,-0.0000 -2.3762,1.0639 -2.3762 2.3762c -0.0000,1.3124 1.0639,2.3762 2.3762 2.3762c 1.3124,0.0000 2.3762,-1.0639 2.3762 -2.3762Z"/></g><g stroke-linejoin="miter" stroke-opacity="1.0" fill-opacity="1.0" stroke="rgb(0,0,0)" stroke-width="0.0" fill="rgb(0,126,156)" stroke-linecap="butt" stroke-miterlimit="10.0"><path d="M 131.0612,145.6814 c 0.0000,-1.3124 -1.0639,-2.3762 -2.3762 -2.3762c -1.3124,-0.0000 -2.3762,1.0639 -2.3762 2.3762c -0.0000,1.3124 1.0639,2.3762 2.3762 2.3762c 1.3124,0.0000 2.3762,-1.0639 2.3762 -2.3762Z"/></g><g stroke-linejoin="miter" stroke-opacity="1.0" fill-opacity="1.0" stroke="rgb(0,0,0)" stroke-width="0.0" fill="rgb(0,126,156)" stroke-linecap="butt" stroke-miterlimit="10.0"><path d="M 105.3017,146.7218 c 0.0000,-1.3124 -1.0639,-2.3762 -2.3762 -2.3762c -1.3124,-0.0000 -2.3762,1.0639 -2.3762 2.3762c -0.0000,1.3124 1.0639,2.3762 2.3762 2.3762c 1.3124,0.0000 2.3762,-1.0639 2.3762 -2.3762Z"/></g><g stroke-linejoin="miter" stroke-opacity="1.0" fill-opacity="1.0" stroke="rgb(0,0,0)" stroke-width="0.0" fill="rgb(0,126,156)" stroke-linecap="butt" stroke-miterlimit="10.0"><path d="M 85.4430,157.0717 c 0.0000,-1.3124 -1.0639,-2.3762 -2.3762 -2.3762c -1.3124,-0.0000 -2.3762,1.0639 -2.3762 2.3762c -0.0000,1.3124 1.0639,2.3762 2.3762 2.3762c 1.3124,0.0000 2.3762,-1.0639 2.3762 -2.3762Z"/></g><g stroke-linejoin="miter" stroke-opacity="1.0" fill-opacity="1.0" stroke="rgb(0,0,0)" stroke-width="0.0" fill="rgb(0,126,156)" stroke-linecap="butt" stroke-miterlimit="10.0"><path d="M 69.6867,89.1579 c 0.0000,-1.3124 -1.0639,-2.3762 -2.3762 -2.3762c -1.3124,-0.0000 -2.3762,1.0639 -2.3762 2.3762c -0.0000,1.3124 1.0639,2.3762 2.3762 2.3762c 1.3124,0.0000 2.3762,-1.0639 2.3762 -2.3762Z"/></g><g stroke-linejoin="miter" stroke-opacity="1.0" fill-opacity="1.0" stroke="rgb(0,0,0)" stroke-width="0.0" fill="rgb(0,126,156)" stroke-linecap="butt" stroke-miterlimit="10.0"><path d="M 55.0339,90.7921 c 0.0000,-1.3124 -1.0639,-2.3762 -2.3762 -2.3762c -1.3124,-0.0000 -2.3762,1.0639 -2.3762 2.3762c -0.0000,1.3124 1.0639,2.3762 2.3762 2.3762c 1.3124,0.0000 2.3762,-1.0639 2.3762 -2.3762Z"/></g><g stroke-linejoin="miter" stroke-opacity="1.0" fill-opacity="1.0" stroke="rgb(0,0,0)" stroke-width="0.0" fill="rgb(0,126,156)" stroke-linecap="butt" stroke-miterlimit="10.0"><path d="M 28.2669,93.7457 c 0.0000,-1.3124 -1.0639,-2.3762 -2.3762 -2.3762c -1.3124,-0.0000 -2.3762,1.0639 -2.3762 2.3762c -0.0000,1.3124 1.0639,2.3762 2.3762 2.3762c 1.3124,0.0000 2.3762,-1.0639 2.3762 -2.3762Z"/></g><g stroke-linejoin="miter" stroke-opacity="1.0" fill-opacity="1.0" stroke="rgb(0,0,0)" stroke-width="0.0" fill="rgb(0,126,156)" stroke-linecap="butt" stroke-miterlimit="10.0"><path d="M 9.7438,94.8836 c 0.0000,-1.3124 -1.0639,-2.3762 -2.3762 -2.3762c -1.3124,-0.0000 -2.3762,1.0639 -2.3762 2.3762c -0.0000,1.3124 1.0639,2.3762 2.3762 2.3762c 1.3124,0.0000 2.3762,-1.0639 2.3762 -2.3762Z"/></g><g stroke-linejoin="miter" stroke-opacity="1.0" fill-opacity="1.0" stroke="rgb(0,0,0)" stroke-width="0.0" fill="rgb(0,126,156)" stroke-linecap="butt" stroke-miterlimit="10.0"><path d="M 80.4784,110.9406 c 0.0000,-1.3124 -1.0639,-2.3762 -2.3762 -2.3762c -1.3124,-0.0000 -2.3762,1.0639 -2.3762 2.3762c -0.0000,1.3124 1.0639,2.3762 2.3762 2.3762c 1.3124,0.0000 2.3762,-1.0639 2.3762 -2.3762Z"/></g><g stroke-linejoin="miter" stroke-opacity="1.0" fill-opacity="1.0" stroke="rgb(0,0,0)" stroke-width="0.0" fill="rgb(0,126,156)" stroke-linecap="butt" stroke-miterlimit="10.0"><path d="M 48.4415,106.0972 c 0.0000,-1.3124 -1.0639,-2.3762 -2.3762 -2.3762c -1.3124,-0.0000 -2.3762,1.0639 -2.3762 2.3762c -0.0000,1.3124 1.0639,2.3762 2.3762 2.3762c 1.3124,0.0000 2.3762,-1.0639 2.3762 -2.3762Z"/></g><g stroke-linejoin="miter" stroke-opacity="1.0" fill-opacity="1.0" stroke="rgb(0,0,0)" stroke-width="0.0" fill="rgb(0,126,156)" stroke-linecap="butt" stroke-miterlimit="10.0"><path d="M 30.0083,116.8192 c 0.0000,-1.3124 -1.0639,-2.3762 -2.3762 -2.3762c -1.3124,-0.0000 -2.3762,1.0639 -2.3762 2.3762c -0.0000,1.3124 1.0639,2.3762 2.3762 2.3762c 1.3124,0.0000 2.3762,-1.0639 2.3762 -2.3762Z"/></g><g stroke-linejoin="miter" stroke-opacity="1.0" fill-opacity="1.0" stroke="rgb(0,0,0)" stroke-width="0.0" fill="rgb(0,126,156)" stroke-linecap="butt" stroke-miterlimit="10.0"><path d="M 16.1720,113.1816 c 0.0000,-1.3124 -1.0639,-2.3762 -2.3762 -2.3762c -1.3124,-0.0000 -2.3762,1.0639 -2.3762 2.3762c -0.0000,1.3124 1.0639,2.3762 2.3762 2.3762c 1.3124,0.0000 2.3762,-1.0639 2.3762 -2.3762Z"/></g><g stroke-linejoin="miter" stroke-opacity="1.0" fill-opacity="1.0" stroke="rgb(0,0,0)" stroke-width="0.0" fill="rgb(0,126,156)" stroke-linecap="butt" stroke-miterlimit="10.0"><path d="M 69.0795,131.9339 c 0.0000,-1.3124 -1.0639,-2.3762 -2.3762 -2.3762c -1.3124,-0.0000 -2.3762,1.0639 -2.3762 2.3762c -0.0000,1.3124 1.0639,2.3762 2.3762 2.3762c 1.3124,0.0000 2.3762,-1.0639 2.3762 -2.3762Z"/></g><g stroke-linejoin="miter" stroke-opacity="1.0" fill-opacity="1.0" stroke="rgb(0,0,0)" stroke-width="0.0" fill="rgb(0,126,156)" stroke-linecap="butt" stroke-miterlimit="10.0"><path d="M 48.9270,123.7379 c 0.0000,-1.3124 -1.0639,-2.3762 -2.3762 -2.3762c -1.3124,-0.0000 -2.3762,1.0639 -2.3762 2.3762c -0.0000,1.3124 1.0639,2.3762 2.3762 2.3762c 1.3124,0.0000 2.3762,-1.0639 2.3762 -2.3762Z"/></g><g stroke-linejoin="miter" stroke-opacity="1.0" fill-opacity="1.0" stroke="rgb(0,0,0)" stroke-width="0.0" fill="rgb(0,126,156)" stroke-linecap="butt" stroke-miterlimit="10.0"><path d="M 33.7898,135.8771 c 0.0000,-1.3124 -1.0639,-2.3762 -2.3762 -2.3762c -1.3124,-0.0000 -2.3762,1.0639 -2.3762 2.3762c -0.0000,1.3124 1.0639,2.3762 2.3762 2.3762c 1.3124,0.0000 2.3762,-1.0639 2.3762 -2.3762Z"/></g><g stroke-linejoin="miter" stroke-opacity="1.0" fill-opacity="1.0" stroke="rgb(0,0,0)" stroke-width="0.0" fill="rgb(0,126,156)" stroke-linecap="butt" stroke-miterlimit="10.0"><path d="M 19.8439,123.4888 c 0.0000,-1.3124 -1.0639,-2.3762 -2.3762 -2.3762c -1.3124,-0.0000 -2.3762,1.0639 -2.3762 2.3762c -0.0000,1.3124 1.0639,2.3762 2.3762 2.3762c 1.3124,0.0000 2.3762,-1.0639 2.3762 -2.3762Z"/></g><g stroke-linejoin="miter" stroke-opacity="1.0" fill-opacity="1.0" stroke="rgb(0,0,0)" stroke-width="0.0" fill="rgb(0,126,156)" stroke-linecap="butt" stroke-miterlimit="10.0"><path d="M 76.6827,151.1499 c 0.0000,-1.3124 -1.0639,-2.3762 -2.3762 -2.3762c -1.3124,-0.0000 -2.3762,1.0639 -2.3762 2.3762c -0.0000,1.3124 1.0639,2.3762 2.3762 2.3762c 1.3124,0.0000 2.3762,-1.0639 2.3762 -2.3762Z"/></g><g stroke-linejoin="miter" stroke-opacity="1.0" fill-opacity="1.0" stroke="rgb(0,0,0)" stroke-width="0.0" fill="rgb(0,126,156)" stroke-linecap="butt" stroke-miterlimit="10.0"><path d="M 48.0453,149.0993 c 0.0000,-1.3124 -1.0639,-2.3762 -2.3762 -2.3762c -1.3124,-0.0000 -2.3762,1.0639 -2.3762 2.3762c -0.0000,1.3124 1.0639,2.3762 2.3762 2.3762c 1.3124,0.0000 2.3762,-1.0639 2.3762 -2.3762Z"/></g><g stroke-linejoin="miter" stroke-opacity="1.0" fill-opacity="1.0" stroke="rgb(0,0,0)" stroke-width="0.0" fill="rgb(0,126,156)" stroke-linecap="butt" stroke-miterlimit="10.0"><path d="M 40.1572,157.8216 c 0.0000,-1.3124 -1.0639,-2.3762 -2.3762 -2.3762c -1.3124,-0.0000 -2.3762,1.0639 -2.3762 2.3762c -0.0000,1.3124 1.0639,2.3762 2.3762 2.3762c 1.3124,0.0000 2.3762,-1.0639 2.3762 -2.3762Z"/></g><g stroke-linejoin="miter" stroke-opacity="1.0" fill-opacity="1.0" stroke="rgb(0,0,0)" stroke-width="0.0" fill="rgb(0,126,156)" stroke-linecap="butt" stroke-miterlimit="10.0"><path d="M 14.7447,157.3541 c 0.0000,-1.3124 -1.0639,-2.3762 -2.3762 -2.3762c -1.3124,-0.0000 -2.3762,1.0639 -2.3762 2.3762c -0.0000,1.3124 1.0639,2.3762 2.3762 2.3762c 1.3124,0.0000 2.3762,-1.0639 2.3762 -2.3762Z"/></g><g stroke-linejoin="miter" stroke-opacity="1.0" fill-opacity="1.0" stroke="rgb(0,0,0)" stroke-width="0.0" fill="rgb(0,126,156)" stroke-linecap="butt" stroke-miterlimit="10.0"><path d="M 307.8188,169.2669 c 0.0000,-1.3124 -1.0639,-2.3762 -2.3762 -2.3762c -1.3124,-0.0000 -2.3762,1.0639 -2.3762 2.3762c -0.0000,1.3124 1.0639,2.3762 2.3762 2.3762c 1.3124,0.0000 2.3762,-1.0639 2.3762 -2.3762Z"/></g><g stroke-linejoin="miter" stroke-opacity="1.0" fill-opacity="1.0" stroke="rgb(0,0,0)" stroke-width="0.0" fill="rgb(0,126,156)" stroke-linecap="butt" stroke-miterlimit="10.0"><path d="M 295.9347,170.1099 c 0.0000,-1.3124 -1.0639,-2.3762 -2.3762 -2.3762c -1.3124,-0.0000 -2.3762,1.0639 -2.3762 2.3762c -0.0000,1.3124 1.0639,2.3762 2.3762 2.3762c 1.3124,0.0000 2.3762,-1.0639 2.3762 -2.3762Z"/></g><g stroke-linejoin="miter" stroke-opacity="1.0" fill-opacity="1.0" stroke="rgb(0,0,0)" stroke-width="0.0" fill="rgb(0,126,156)" stroke-linecap="butt" stroke-miterlimit="10.0"><path d="M 266.3477,163.5556 c 0.0000,-1.3124 -1.0639,-2.3762 -2.3762 -2.3762c -1.3124,-0.0000 -2.3762,1.0639 -2.3762 2.3762c -0.0000,1.3124 1.0639,2.3762 2.3762 2.3762c 1.3124,0.0000 2.3762,-1.0639 2.3762 -2.3762Z"/></g><g stroke-linejoin="miter" stroke-opacity="1.0" fill-opacity="1.0" stroke="rgb(0,0,0)" stroke-width="0.0" fill="rgb(0,126,156)" stroke-linecap="butt" stroke-miterlimit="10.0"><path d="M 254.0215,174.0309 c 0.0000,-1.3124 -1.0639,-2.3762 -2.3762 -2.3762c -1.3124,-0.0000 -2.3762,1.0639 -2.3762 2.3762c -0.0000,1.3124 1.0639,2.3762 2.3762 2.3762c 1.3124,0.0000 2.3762,-1.0639 2.3762 -2.3762Z"/></g><g stroke-linejoin="miter" stroke-opacity="1.0" fill-opacity="1.0" stroke="rgb(0,0,0)" stroke-width="0.0" fill="rgb(0,126,156)" stroke-linecap="butt" stroke-miterlimit="10.0"><path d="M 314.0252,195.8281 c 0.0000,-1.3124 -1.0639,-2.3762 -2.3762 -2.3762c -1.3124,-0.0000 -2.3762,1.0639 -2.3762 2.3762c -0.0000,1.3124 1.0639,2.3762 2.3762 2.3762c 1.3124,0.0000 2.3762,-1.0639 2.3762 -2.3762Z"/></g><g stroke-linejoin="miter" stroke-opacity="1.0" fill-opacity="1.0" stroke="rgb(0,0,0)" stroke-width="0.0" fill="rgb(0,126,156)" stroke-linecap="butt" stroke-miterlimit="10.0"><path d="M 285.1153,195.3002 c 0.0000,-1.3124 -1.0639,-2.3762 -2.3762 -2.3762c -1.3124,-0.0000 -2.3762,1.0639 -2.3762 2.3762c -0.0000,1.3124 1.0639,2.3762 2.3762 2.3762c 1.3124,0.0000 2.3762,-1.0639 2.3762 -2.3762Z"/></g><g stroke-linejoin="miter" stroke-opacity="1.0" fill-opacity="1.0" stroke="rgb(0,0,0)" stroke-width="0.0" fill="rgb(0,126,156)" stroke-linecap="butt" stroke-miterlimit="10.0"><path d="M 269.5488,187.9616 c 0.0000,-1.3124 -1.0639,-2.3762 -2.3762 -2.3762c -1.3124,-0.0000 -2.3762,1.0639 -2.3762 2.3762c -0.0000,1.3124 1.0639,2.3762 2.3762 2.3762c 1.3124,0.0000 2.3762,-1.0639 2.3762 -2.3762Z"/></g><g stroke-linejoin="miter" stroke-opacity="1.0" fill-opacity="1.0" stroke="rgb(0,0,0)" stroke-width="0.0" fill="rgb(0,126,156)" stroke-linecap="butt" stroke-miterlimit="10.0"><path d="M 257.3427,190.8645 c 0.0000,-1.3124 -1.0639,-2.3762 -2.3762 -2.3762c -1.3124,-0.0000 -2.3762,1.0639 -2.3762 2.3762c -0.0000,1.3124 1.0639,2.3762 2.3762 2.3762c 1.3124,0.0000 2.3762,-1.0639 2.3762 -2.3762Z"/></g><g stroke-linejoin="miter" stroke-opacity="1.0" fill-opacity="1.0" stroke="rgb(0,0,0)" stroke-width="0.0" fill="rgb(0,126,156)" stroke-linecap="butt" stroke-miterlimit="10.0"><path d="M 312.5803,202.0492 c 0.0000,-1.3124 -1.0639,-2.3762 -2.3762 -2.3762c -1.3124,-0.0000 -2.3762,1.0639 -2.3762 2.3762c -0.0000,1.3124 1.0639,2.3762 2.3762 2.3762c 1.3124,0.0000 2.3762,-1.0639 2.3762 -2.3762Z"/></g><g stroke-linejoin="miter" stroke-opacity="1.0" fill-opacity="1.0" stroke="rgb(0,0,0)" stroke-width="0.0" fill="rgb(0,126,156)" stroke-linecap="butt" stroke-miterlimit="10.0"><path d="M 292.1863,213.4400 c 0.0000,-1.3124 -1.0639,-2.3762 -2.3762 -2.3762c -1.3124,-0.0000 -2.3762,1.0639 -2.3762 2.3762c -0.0000,1.3124 1.0639,2.3762 2.3762 2.3762c 1.3124,0.0000 2.3762,-1.0639 2.3762 -2.3762Z"/></g><g stroke-linejoin="miter" stroke-opacity="1.0" fill-opacity="1.0" stroke="rgb(0,0,0)" stroke-width="0.0" fill="rgb(0,126,156)" stroke-linecap="butt" stroke-miterlimit="10.0"><path d="M 276.4288,215.8310 c 0.0000,-1.3124 -1.0639,-2.3762 -2.3762 -2.3762c -1.3124,-0.0000 -2.3762,1.0639 -2.3762 2.3762c -0.0000,1.3124 1.0639,2.3762 2.3762 2.3762c 1.3124,0.0000 2.3762,-1.0639 2.3762 -2.3762Z"/></g><g stroke-linejoin="miter" stroke-opacity="1.0" fill-opacity="1.0" stroke="rgb(0,0,0)" stroke-width="0.0" fill="rgb(0,126,156)" stroke-linecap="butt" stroke-miterlimit="10.0"><path d="M 255.3902,204.3112 c 0.0000,-1.3124 -1.0639,-2.3762 -2.3762 -2.3762c -1.3124,-0.0000 -2.3762,1.0639 -2.3762 2.3762c -0.0000,1.3124 1.0639,2.3762 2.3762 2.3762c 1.3124,0.0000 2.3762,-1.0639 2.3762 -2.3762Z"/></g><g stroke-linejoin="miter" stroke-opacity="1.0" fill-opacity="1.0" stroke="rgb(0,0,0)" stroke-width="0.0" fill="rgb(0,126,156)" stroke-linecap="butt" stroke-miterlimit="10.0"><path d="M 305.7925,237.1947 c 0.0000,-1.3124 -1.0639,-2.3762 -2.3762 -2.3762c -1.3124,-0.0000 -2.3762,1.0639 -2.3762 2.3762c -0.0000,1.3124 1.0639,2.3762 2.3762 2.3762c 1.3124,0.0000 2.3762,-1.0639 2.3762 -2.3762Z"/></g><g stroke-linejoin="miter" stroke-opacity="1.0" fill-opacity="1.0" stroke="rgb(0,0,0)" stroke-width="0.0" fill="rgb(0,126,156)" stroke-linecap="butt" stroke-miterlimit="10.0"><path d="M 293.9004,224.8253 c 0.0000,-1.3124 -1.0639,-2.3762 -2.3762 -2.3762c -1.3124,-0.0000 -2.3762,1.0639 -2.3762 2.3762c -0.0000,1.3124 1.0639,2.3762 2.3762 2.3762c 1.3124,0.0000 2.3762,-1.0639 2.3762 -2.3762Z"/></g><g stroke-linejoin="miter" stroke-opacity="1.0" fill-opacity="1.0" stroke="rgb(0,0,0)" stroke-width="0.0" fill="rgb(0,126,156)" stroke-linecap="butt" stroke-miterlimit="10.0"><path d="M 265.4997,230.6623 c 0.0000,-1.3124 -1.0639,-2.3762 -2.3762 -2.3762c -1.3124,-0.0000 -2.3762,1.0639 -2.3762 2.3762c -0.0000,1.3124 1.0639,2.3762 2.3762 2.3762c 1.3124,0.0000 2.3762,-1.0639 2.3762 -2.3762Z"/></g><g stroke-linejoin="miter" stroke-opacity="1.0" fill-opacity="1.0" stroke="rgb(0,0,0)" stroke-width="0.0" fill="rgb(0,126,156)" stroke-linecap="butt" stroke-miterlimit="10.0"><path d="M 254.3606,224.5631 c 0.0000,-1.3124 -1.0639,-2.3762 -2.3762 -2.3762c -1.3124,-0.0000 -2.3762,1.0639 -2.3762 2.3762c -0.0000,1.3124 1.0639,2.3762 2.3762 2.3762c 1.3124,0.0000 2.3762,-1.0639 2.3762 -2.3762Z"/></g><g stroke-linejoin="miter" stroke-opacity="1.0" fill-opacity="1.0" stroke="rgb(0,0,0)" stroke-width="0.0" fill="rgb(0,126,156)" stroke-linecap="butt" stroke-miterlimit="10.0"><path d="M 235.2103,163.7536 c 0.0000,-1.3124 -1.0639,-2.3762 -2.3762 -2.3762c -1.3124,-0.0000 -2.3762,1.0639 -2.3762 2.3762c -0.0000,1.3124 1.0639,2.3762 2.3762 2.3762c 1.3124,0.0000 2.3762,-1.0639 2.3762 -2.3762Z"/></g><g stroke-linejoin="miter" stroke-opacity="1.0" fill-opacity="1.0" stroke="rgb(0,0,0)" stroke-width="0.0" fill="rgb(0,126,156)" stroke-linecap="butt" stroke-miterlimit="10.0"><path d="M 212.0964,163.5448 c 0.0000,-1.3124 -1.0639,-2.3762 -2.3762 -2.3762c -1.3124,-0.0000 -2.3762,1.0639 -2.3762 2.3762c -0.0000,1.3124 1.0639,2.3762 2.3762 2.3762c 1.3124,0.0000 2.3762,-1.0639 2.3762 -2.3762Z"/></g><g stroke-linejoin="miter" stroke-opacity="1.0" fill-opacity="1.0" stroke="rgb(0,0,0)" stroke-width="0.0" fill="rgb(0,126,156)" stroke-linecap="butt" stroke-miterlimit="10.0"><path d="M 189.9018,171.4079 c 0.0000,-1.3124 -1.0639,-2.3762 -2.3762 -2.3762c -1.3124,-0.0000 -2.3762,1.0639 -2.3762 2.3762c -0.0000,1.3124 1.0639,2.3762 2.3762 2.3762c 1.3124,0.0000 2.3762,-1.0639 2.3762 -2.3762Z"/></g><g stroke-linejoin="miter" stroke-opacity="1.0" fill-opacity="1.0" stroke="rgb(0,0,0)" stroke-width="0.0" fill="rgb(0,126,156)" stroke-linecap="butt" stroke-miterlimit="10.0"><path d="M 167.8909,171.6919 c 0.0000,-1.3124 -1.0639,-2.3762 -2.3762 -2.3762c -1.3124,-0.0000 -2.3762,1.0639 -2.3762 2.3762c -0.0000,1.3124 1.0639,2.3762 2.3762 2.3762c 1.3124,0.0000 2.3762,-1.0639 2.3762 -2.3762Z"/></g><g stroke-linejoin="miter" stroke-opacity="1.0" fill-opacity="1.0" stroke="rgb(0,0,0)" stroke-width="0.0" fill="rgb(0,126,156)" stroke-linecap="butt" stroke-miterlimit="10.0"><path d="M 224.2269,194.8524 c 0.0000,-1.3124 -1.0639,-2.3762 -2.3762 -2.3762c -1.3124,-0.0000 -2.3762,1.0639 -2.3762 2.3762c -0.0000,1.3124 1.0639,2.3762 2.3762 2.3762c 1.3124,0.0000 2.3762,-1.0639 2.3762 -2.3762Z"/></g><g stroke-linejoin="miter" stroke-opacity="1.0" fill-opacity="1.0" stroke="rgb(0,0,0)" stroke-width="0.0" fill="rgb(0,126,156)" stroke-linecap="butt" stroke-miterlimit="10.0"><path d="M 206.5380,192.6630 c 0.0000,-1.3124 -1.0639,-2.3762 -2.3762 -2.3762c -1.3124,-0.0000 -2.3762,1.0639 -2.3762 2.3762c -0.0000,1.3124 1.0639,2.3762 2.3762 2.3762c 1.3124,0.0000 2.3762,-1.0639 2.3762 -2.3762Z"/></g><g stroke-linejoin="miter" stroke-opacity="1.0" fill-opacity="1.0" stroke="rgb(0,0,0)" stroke-width="0.0" fill="rgb(0,126,156)" stroke-linecap="butt" stroke-miterlimit="10.0"><path d="M 184.7266,186.2015 c 0.0000,-1.3124 -1.0639,-2.3762 -2.3762 -2.3762c -1.3124,-0.0000 -2.3762,1.0639 -2.3762 2.3762c -0.0000,1.3124 1.0639,2.3762 2.3762 2.3762c 1.3124,0.0000 2.3762,-1.0639 2.3762 -2.3762Z"/></g><g stroke-linejoin="miter" stroke-opacity="1.0" fill-opacity="1.0" stroke="rgb(0,0,0)" stroke-width="0.0" fill="rgb(0,126,156)" stroke-linecap="butt" stroke-miterlimit="10.0"><path d="M 165.6154,183.7818 c 0.0000,-1.3124 -1.0639,-2.3762 -2.3762 -2.3762c -1.3124,-0.0000 -2.3762,1.0639 -2.3762 2.3762c -0.0000,1.3124 1.0639,2.3762 2.3762 2.3762c 1.3124,0.0000 2.3762,-1.0639 2.3762 -2.3762Z"/></g><g stroke-linejoin="miter" stroke-opacity="1.0" fill-opacity="1.0" stroke="rgb(0,0,0)" stroke-width="0.0" fill="rgb(0,126,156)" stroke-linecap="butt" stroke-miterlimit="10.0"><path d="M 233.8350,204.5338 c 0.0000,-1.3124 -1.0639,-2.3762 -2.3762 -2.3762c -1.3124,-0.0000 -2.3762,1.0639 -2.3762 2.3762c -0.0000,1.3124 1.0639,2.3762 2.3762 2.3762c 1.3124,0.0000 2.3762,-1.0639 2.3762 -2.3762Z"/></g><g stroke-linejoin="miter" stroke-opacity="1.0" fill-opacity="1.0" stroke="rgb(0,0,0)" stroke-width="0.0" fill="rgb(0,126,156)" stroke-linecap="butt" stroke-miterlimit="10.0"><path d="M 210.6757,202.5839 c 0.0000,-1.3124 -1.0639,-2.3762 -2.3762 -2.3762c -1.3124,-0.0000 -2.3762,1.0639 -2.3762 2.3762c -0.0000,1.3124 1.0639,2.3762 2.3762 2.3762c 1.3124,0.0000 2.3762,-1.0639 2.3762 -2.3762Z"/></g><g stroke-linejoin="miter" stroke-opacity="1.0" fill-opacity="1.0" stroke="rgb(0,0,0)" stroke-width="0.0" fill="rgb(0,126,156)" stroke-linecap="butt" stroke-miterlimit="10.0"><path d="M 197.8352,202.0485 c 0.0000,-1.3124 -1.0639,-2.3762 -2.3762 -2.3762c -1.3124,-0.0000 -2.3762,1.0639 -2.3762 2.3762c -0.0000,1.3124 1.0639,2.3762 2.3762 2.3762c 1.3124,0.0000 2.3762,-1.0639 2.3762 -2.3762Z"/></g><g stroke-linejoin="miter" stroke-opacity="1.0" fill-opacity="1.0" stroke="rgb(0,0,0)" stroke-width="0.0" fill="rgb(0,126,156)" stroke-linecap="butt" stroke-miterlimit="10.0"><path d="M 169.3016,211.4425 c 0.0000,-1.3124 -1.0639,-2.3762 -2.3762 -2.3762c -1.3124,-0.0000 -2.3762,1.0639 -2.3762 2.3762c -0.0000,1.3124 1.0639,2.3762 2.3762 2.3762c 1.3124,0.0000 2.3762,-1.0639 2.3762 -2.3762Z"/></g><g stroke-linejoin="miter" stroke-opacity="1.0" fill-opacity="1.0" stroke="rgb(0,0,0)" stroke-width="0.0" fill="rgb(0,126,156)" stroke-linecap="butt" stroke-miterlimit="10.0"><path d="M 227.7355,236.1077 c 0.0000,-1.3124 -1.0639,-2.3762 -2.3762 -2.3762c -1.3124,-0.0000 -2.3762,1.0639 -2.3762 2.3762c -0.0000,1.3124 1.0639,2.3762 2.3762 2.3762c 1.3124,0.0000 2.3762,-1.0639 2.3762 -2.3762Z"/></g><g stroke-linejoin="miter" stroke-opacity="1.0" fill-opacity="1.0" stroke="rgb(0,0,0)" stroke-width="0.0" fill="rgb(0,126,156)" stroke-linecap="butt" stroke-miterlimit="10.0"><path d="M 209.3534,227.3405 c 0.0000,-1.3124 -1.0639,-2.3762 -2.3762 -2.3762c -1.3124,-0.0000 -2.3762,1.0639 -2.3762 2.3762c -0.0000,1.3124 1.0639,2.3762 2.3762 2.3762c 1.3124,0.0000 2.3762,-1.0639 2.3762 -2.3762Z"/></g><g stroke-linejoin="miter" stroke-opacity="1.0" fill-opacity="1.0" stroke="rgb(0,0,0)" stroke-width="0.0" fill="rgb(0,126,156)" stroke-linecap="butt" stroke-miterlimit="10.0"><path d="M 199.5869,227.2922 c 0.0000,-1.3124 -1.0639,-2.3762 -2.3762 -2.3762c -1.3124,-0.0000 -2.3762,1.0639 -2.3762 2.3762c -0.0000,1.3124 1.0639,2.3762 2.3762 2.3762c 1.3124,0.0000 2.3762,-1.0639 2.3762 -2.3762Z"/></g><g stroke-linejoin="miter" stroke-opacity="1.0" fill-opacity="1.0" stroke="rgb(0,0,0)" stroke-width="0.0" fill="rgb(0,126,156)" stroke-linecap="butt" stroke-miterlimit="10.0"><path d="M 169.4305,221.3995 c 0.0000,-1.3124 -1.0639,-2.3762 -2.3762 -2.3762c -1.3124,-0.0000 -2.3762,1.0639 -2.3762 2.3762c -0.0000,1.3124 1.0639,2.3762 2.3762 2.3762c 1.3124,0.0000 2.3762,-1.0639 2.3762 -2.3762Z"/></g><g stroke-linejoin="miter" stroke-opacity="1.0" fill-opacity="1.0" stroke="rgb(0,0,0)" stroke-width="0.0" fill="rgb(0,126,156)" stroke-linecap="butt" stroke-miterlimit="10.0"><path d="M 148.7480,177.0548 c 0.0000,-1.3124 -1.0639,-2.3762 -2.3762 -2.3762c -1.3124,-0.0000 -2.3762,1.0639 -2.3762 2.3762c -0.0000,1.3124 1.0639,2.3762 2.3762 2.3762c 1.3124,0.0000 2.3762,-1.0639 2.3762 -2.3762Z"/></g><g stroke-linejoin="miter" stroke-opacity="1.0" fill-opacity="1.0" stroke="rgb(0,0,0)" stroke-width="0.0" fill="rgb(0,126,156)" stroke-linecap="butt" stroke-miterlimit="10.0"><path d="M 134.0630,176.2636 c 0.0000,-1.3124 -1.0639,-2.3762 -2.3762 -2.3762c -1.3124,-0.0000 -2.3762,1.0639 -2.3762 2.3762c -0.0000,1.3124 1.0639,2.3762 2.3762 2.3762c 1.3124,0.0000 2.3762,-1.0639 2.3762 -2.3762Z"/></g><g stroke-linejoin="miter" stroke-opacity="1.0" fill-opacity="1.0" stroke="rgb(0,0,0)" stroke-width="0.0" fill="rgb(0,126,156)" stroke-linecap="butt" stroke-miterlimit="10.0"><path d="M 114.7272,172.4976 c 0.0000,-1.3124 -1.0639,-2.3762 -2.3762 -2.3762c -1.3124,-0.0000 -2.3762,1.0639 -2.3762 2.3762c -0.0000,1.3124 1.0639,2.3762 2.3762 2.3762c 1.3124,0.0000 2.3762,-1.0639 2.3762 -2.3762Z"/></g><g stroke-linejoin="miter" stroke-opacity="1.0" fill-opacity="1.0" stroke="rgb(0,0,0)" stroke-width="0.0" fill="rgb(0,126,156)" stroke-linecap="butt" stroke-miterlimit="10.0"><path d="M 100.8673,162.5013 c 0.0000,-1.3124 -1.0639,-2.3762 -2.3762 -2.3762c -1.3124,-0.0000 -2.3762,1.0639 -2.3762 2.3762c -0.0000,1.3124 1.0639,2.3762 2.3762 2.3762c 1.3124,0.0000 2.3762,-1.0639 2.3762 -2.3762Z"/></g><g stroke-linejoin="miter" stroke-opacity="1.0" fill-opacity="1.0" stroke="rgb(0,0,0)" stroke-width="0.0" fill="rgb(0,126,156)" stroke-linecap="butt" stroke-miterlimit="10.0"><path d="M 156.6048,196.6332 c 0.0000,-1.3124 -1.0639,-2.3762 -2.3762 -2.3762c -1.3124,-0.0000 -2.3762,1.0639 -2.3762 2.3762c -0.0000,1.3124 1.0639,2.3762 2.3762 2.3762c 1.3124,0.0000 2.3762,-1.0639 2.3762 -2.3762Z"/></g><g stroke-linejoin="miter" stroke-opacity="1.0" fill-opacity="1.0" stroke="rgb(0,0,0)" stroke-width="0.0" fill="rgb(0,126,156)" stroke-linecap="butt" stroke-miterlimit="10.0"><path d="M 135.5898,185.4795 c 0.0000,-1.3124 -1.0639,-2.3762 -2.3762 -2.3762c -1.3124,-0.0000 -2.3762,1.0639 -2.3762 2.3762c -0.0000,1.3124 1.0639,2.3762 2.3762 2.3762c 1.3124,0.0000 2.3762,-1.0639 2.3762 -2.3762Z"/></g><g stroke-linejoin="miter" stroke-opacity="1.0" fill-opacity="1.0" stroke="rgb(0,0,0)" stroke-width="0.0" fill="rgb(0,126,156)" stroke-linecap="butt" stroke-miterlimit="10.0"><path d="M 114.6898,182.5900 c 0.0000,-1.3124 -1.0639,-2.3762 -2.3762 -2.3762c -1.3124,-0.0000 -2.3762,1.0639 -2.3762 2.3762c -0.0000,1.3124 1.0639,2.3762 2.3762 2.3762c 1.3124,0.0000 2.3762,-1.0639 2.3762 -2.3762Z"/></g><g stroke-linejoin="miter" stroke-opacity="1.0" fill-opacity="1.0" stroke="rgb(0,0,0)" stroke-width="0.0" fill="rgb(0,126,156)" stroke-linecap="butt" stroke-miterlimit="10.0"><path d="M 93.8905,194.6580 c 0.0000,-1.3124 -1.0639,-2.3762 -2.3762 -2.3762c -1.3124,-0.0000 -2.3762,1.0639 -2.3762 2.3762c -0.0000,1.3124 1.0639,2.3762 2.3762 2.3762c 1.3124,0.0000 2.3762,-1.0639 2.3762 -2.3762Z"/></g><g stroke-linejoin="miter" stroke-opacity="1.0" fill-opacity="1.0" stroke="rgb(0,0,0)" stroke-width="0.0" fill="rgb(0,126,156)" stroke-linecap="butt" stroke-miterlimit="10.0"><path d="M 151.6237,211.7281 c 0.0000,-1.3124 -1.0639,-2.3762 -2.3762 -2.3762c -1.3124,-0.0000 -2.3762,1.0639 -2.3762 2.3762c -0.0000,1.3124 1.0639,2.3762 2.3762 2.3762c 1.3124,0.0000 2.3762,-1.0639 2.3762 -2.3762Z"/></g><g stroke-linejoin="miter" stroke-opacity="1.0" fill-opacity="1.0" stroke="rgb(0,0,0)" stroke-width="0.0" fill="rgb(0,126,156)" stroke-linecap="butt" stroke-miterlimit="10.0"><path d="M 130.1986,208.6572 c 0.0000,-1.3124 -1.0639,-2.3762 -2.3762 -2.3762c -1.3124,-0.0000 -2.3762,1.0639 -2.3762 2.3762c -0.0000,1.3124 1.0639,2.3762 2.3762 2.3762c 1.3124,0.0000 2.3762,-1.0639 2.3762 -2.3762Z"/></g><g stroke-linejoin="miter" stroke-opacity="1.0" fill-opacity="1.0" stroke="rgb(0,0,0)" stroke-width="0.0" fill="rgb(0,126,156)" stroke-linecap="butt" stroke-miterlimit="10.0"><path d="M 105.4747,206.2522 c 0.0000,-1.3124 -1.0639,-2.3762 -2.3762 -2.3762c -1.3124,-0.0000 -2.3762,1.0639 -2.3762 2.3762c -0.0000,1.3124 1.0639,2.3762 2.3762 2.3762c 1.3124,0.0000 2.3762,-1.0639 2.3762 -2.3762Z"/></g><g stroke-linejoin="miter" stroke-opacity="1.0" fill-opacity="1.0" stroke="rgb(0,0,0)" stroke-width="0.0" fill="rgb(0,126,156)" stroke-linecap="butt" stroke-miterlimit="10.0"><path d="M 96.0914,202.0537 c 0.0000,-1.3124 -1.0639,-2.3762 -2.3762 -2.3762c -1.3124,-0.0000 -2.3762,1.0639 -2.3762 2.3762c -0.0000,1.3124 1.0639,2.3762 2.3762 2.3762c 1.3124,0.0000 2.3762,-1.0639 2.3762 -2.3762Z"/></g><g stroke-linejoin="miter" stroke-opacity="1.0" fill-opacity="1.0" stroke="rgb(0,0,0)" stroke-width="0.0" fill="rgb(0,126,156)" stroke-linecap="butt" stroke-miterlimit="10.0"><path d="M 149.9856,223.0180 c 0.0000,-1.3124 -1.0639,-2.3762 -2.3762 -2.3762c -1.3124,-0.0000 -2.3762,1.0639 -2.3762 2.3762c -0.0000,1.3124 1.0639,2.3762 2.3762 2.3762c 1.3124,0.0000 2.3762,-1.0639 2.3762 -2.3762Z"/></g><g stroke-linejoin="miter" stroke-opacity="1.0" fill-opacity="1.0" stroke="rgb(0,0,0)" stroke-width="0.0" fill="rgb(0,126,156)" stroke-linecap="butt" stroke-miterlimit="10.0"><path d="M 136.2469,228.7843 c 0.0000,-1.3124 -1.0639,-2.3762 -2.3762 -2.3762c -1.3124,-0.0000 -2.3762,1.0639 -2.3762 2.3762c -0.0000,1.3124 1.0639,2.3762 2.3762 2.3762c 1.3124,0.0000 2.3762,-1.0639 2.3762 -2.3762Z"/></g><g stroke-linejoin="miter" stroke-opacity="1.0" fill-opacity="1.0" stroke="rgb(0,0,0)" stroke-width="0.0" fill="rgb(0,126,156)" stroke-linecap="butt" stroke-miterlimit="10.0"><path d="M 116.0489,226.3014 c 0.0000,-1.3124 -1.0639,-2.3762 -2.3762 -2.3762c -1.3124,-0.0000 -2.3762,1.0639 -2.3762 2.3762c -0.0000,1.3124 1.0639,2.3762 2.3762 2.3762c 1.3124,0.0000 2.3762,-1.0639 2.3762 -2.3762Z"/></g><g stroke-linejoin="miter" stroke-opacity="1.0" fill-opacity="1.0" stroke="rgb(0,0,0)" stroke-width="0.0" fill="rgb(0,126,156)" stroke-linecap="butt" stroke-miterlimit="10.0"><path d="M 90.1515,228.8811 c 0.0000,-1.3124 -1.0639,-2.3762 -2.3762 -2.3762c -1.3124,-0.0000 -2.3762,1.0639 -2.3762 2.3762c -0.0000,1.3124 1.0639,2.3762 2.3762 2.3762c 1.3124,0.0000 2.3762,-1.0639 2.3762 -2.3762Z"/></g><g stroke-linejoin="miter" stroke-opacity="1.0" fill-opacity="1.0" stroke="rgb(0,0,0)" stroke-width="0.0" fill="rgb(0,126,156)" stroke-linecap="butt" stroke-miterlimit="10.0"><path d="M 67.4947,175.6737 c 0.0000,-1.3124 -1.0639,-2.3762 -2.3762 -2.3762c -1.3124,-0.0000 -2.3762,1.0639 -2.3762 2.3762c -0.0000,1.3124 1.0639,2.3762 2.3762 2.3762c 1.3124,0.0000 2.3762,-1.0639 2.3762 -2.3762Z"/></g><g stroke-linejoin="miter" stroke-opacity="1.0" fill-opacity="1.0" stroke="rgb(0,0,0)" stroke-width="0.0" fill="rgb(0,126,156)" stroke-linecap="butt" stroke-miterlimit="10.0"><path d="M 58.2940,165.0724 c 0.0000,-1.3124 -1.0639,-2.3762 -2.3762 -2.3762c -1.3124,-0.0000 -2.3762,1.0639 -2.3762 2.3762c -0.0000,1.3124 1.0639,2.3762 2.3762 2.3762c 1.3124,0.0000 2.3762,-1.0639 2.3762 -2.3762Z"/></g><g stroke-linejoin="miter" stroke-opacity="1.0" fill-opacity="1.0" stroke="rgb(0,0,0)" stroke-width="0.0" fill="rgb(0,126,156)" stroke-linecap="butt" stroke-miterlimit="10.0"><path d="M 31.7491,171.8153 c 0.0000,-1.3124 -1.0639,-2.3762 -2.3762 -2.3762c -1.3124,-0.0000 -2.3762,1.0639 -2.3762 2.3762c -0.0000,1.3124 1.0639,2.3762 2.3762 2.3762c 1.3124,0.0000 2.3762,-1.0639 2.3762 -2.3762Z"/></g><g stroke-linejoin="miter" stroke-opacity="1.0" fill-opacity="1.0" stroke="rgb(0,0,0)" stroke-width="0.0" fill="rgb(0,126,156)" stroke-linecap="butt" stroke-miterlimit="10.0"><path d="M 7.0073,176.7551 c 0.0000,-1.3124 -1.0639,-2.3762 -2.3762 -2.3762c -1.3124,-0.0000 -2.3762,1.0639 -2.3762 2.3762c -0.0000,1.3124 1.0639,2.3762 2.3762 2.3762c 1.3124,0.0000 2.3762,-1.0639 2.3762 -2.3762Z"/></g><g stroke-linejoin="miter" stroke-opacity="1.0" fill-opacity="1.0" stroke="rgb(0,0,0)" stroke-width="0.0" fill="rgb(0,126,156)" stroke-linecap="butt" stroke-miterlimit="10.0"><path d="M 72.6699,190.3004 c 0.0000,-1.3124 -1.0639,-2.3762 -2.3762 -2.3762c -1.3124,-0.0000 -2.3762,1.0639 -2.3762 2.3762c -0.0000,1.3124 1.0639,2.3762 2.3762 2.3762c 1.3124,0.0000 2.3762,-1.0639 2.3762 -2.3762Z"/></g><g stroke-linejoin="miter" stroke-opacity="1.0" fill-opacity="1.0" stroke="rgb(0,0,0)" stroke-width="0.0" fill="rgb(0,126,156)" stroke-linecap="butt" stroke-miterlimit="10.0"><path d="M 55.1410,188.0273 c 0.0000,-1.3124 -1.0639,-2.3762 -2.3762 -2.3762c -1.3124,-0.0000 -2.3762,1.0639 -2.3762 2.3762c -0.0000,1.3124 1.0639,2.3762 2.3762 2.3762c 1.3124,0.0000 2.3762,-1.0639 2.3762 -2.3762Z"/></g><g stroke-linejoin="miter" stroke-opacity="1.0" fill-opacity="1.0" stroke="rgb(0,0,0)" stroke-width="0.0" fill="rgb(0,126,156)" stroke-linecap="butt" stroke-miterlimit="10.0"><path d="M 27.6094,195.7569 c 0.0000,-1.3124 -1.0639,-2.3762 -2.3762 -2.3762c -1.3124,-0.0000 -2.3762,1.0639 -2.3762 2.3762c -0.0000,1.3124 1.0639,2.3762 2.3762 2.3762c 1.3124,0.0000 2.3762,-1.0639 2.3762 -2.3762Z"/></g><g stroke-linejoin="miter" stroke-opacity="1.0" fill-opacity="1.0" stroke="rgb(0,0,0)" stroke-width="0.0" fill="rgb(0,126,156)" stroke-linecap="butt" stroke-miterlimit="10.0"><path d="M 7.6571,195.9073 c 0.0000,-1.3124 -1.0639,-2.3762 -2.3762 -2.3762c -1.3124,-0.0000 -2.3762,1.0639 -2.3762 2.3762c -0.0000,1.3124 1.0639,2.3762 2.3762 2.3762c 1.3124,0.0000 2.3762,-1.0639 2.3762 -2.3762Z"/></g><g stroke-linejoin="miter" stroke-opacity="1.0" fill-opacity="1.0" stroke="rgb(0,0,0)" stroke-width="0.0" fill="rgb(0,126,156)" stroke-linecap="butt" stroke-miterlimit="10.0"><path d="M 73.9674,208.8049 c 0.0000,-1.3124 -1.0639,-2.3762 -2.3762 -2.3762c -1.3124,-0.0000 -2.3762,1.0639 -2.3762 2.3762c -0.0000,1.3124 1.0639,2.3762 2.3762 2.3762c 1.3124,0.0000 2.3762,-1.0639 2.3762 -2.3762Z"/></g><g stroke-linejoin="miter" stroke-opacity="1.0" fill-opacity="1.0" stroke="rgb(0,0,0)" stroke-width="0.0" fill="rgb(0,126,156)" stroke-linecap="butt" stroke-miterlimit="10.0"><path d="M 49.0272,213.9431 c 0.0000,-1.3124 -1.0639,-2.3762 -2.3762 -2.3762c -1.3124,-0.0000 -2.3762,1.0639 -2.3762 2.3762c -0.0000,1.3124 1.0639,2.3762 2.3762 2.3762c 1.3124,0.0000 2.3762,-1.0639 2.3762 -2.3762Z"/></g><g stroke-linejoin="miter" stroke-opacity="1.0" fill-opacity="1.0" stroke="rgb(0,0,0)" stroke-width="0.0" fill="rgb(0,126,156)" stroke-linecap="butt" stroke-miterlimit="10.0"><path d="M 36.3302,206.8381 c 0.0000,-1.3124 -1.0639,-2.3762 -2.3762 -2.3762c -1.3124,-0.0000 -2.3762,1.0639 -2.3762 2.3762c -0.0000,1.3124 1.0639,2.3762 2.3762 2.3762c 1.3124,0.0000 2.3762,-1.0639 2.3762 -2.3762Z"/></g><g stroke-linejoin="miter" stroke-opacity="1.0" fill-opacity="1.0" stroke="rgb(0,0,0)" stroke-width="0.0" fill="rgb(0,126,156)" stroke-linecap="butt" stroke-miterlimit="10.0"><path d="M 15.4316,207.9347 c 0.0000,-1.3124 -1.0639,-2.3762 -2.3762 -2.3762c -1.3124,-0.0000 -2.3762,1.0639 -2.3762 2.3762c -0.0000,1.3124 1.0639,2.3762 2.3762 2.3762c 1.3124,0.0000 2.3762,-1.0639 2.3762 -2.3762Z"/></g><g stroke-linejoin="miter" stroke-opacity="1.0" fill-opacity="1.0" stroke="rgb(0,0,0)" stroke-width="0.0" fill="rgb(0,126,156)" stroke-linecap="butt" stroke-miterlimit="10.0"><path d="M 80.6295,221.9448 c 0.0000,-1.3124 -1.0639,-2.3762 -2.3762 -2.3762c -1.3124,-0.0000 -2.3762,1.0639 -2.3762 2.3762c -0.0000,1.3124 1.0639,2.3762 2.3762 2.3762c 1.3124,0.0000 2.3762,-1.0639 2.3762 -2.3762Z"/></g><g stroke-linejoin="miter" stroke-opacity="1.0" fill-opacity="1.0" stroke="rgb(0,0,0)" stroke-width="0.0" fill="rgb(0,126,156)" stroke-linecap="butt" stroke-miterlimit="10.0"><path d="M 53.8649,228.9074 c 0.0000,-1.3124 -1.0639,-2.3762 -2.3762 -2.3762c -1.3124,-0.0000 -2.3762,1.0639 -2.3762 2.3762c -0.0000,1.3124 1.0639,2.3762 2.3762 2.3762c 1.3124,0.0000 2.3762,-1.0639 2.3762 -2.3762Z"/></g><g stroke-linejoin="miter" stroke-opacity="1.0" fill-opacity="1.0" stroke="rgb(0,0,0)" stroke-width="0.0" fill="rgb(0,126,156)" stroke-linecap="butt" stroke-miterlimit="10.0"><path d="M 26.0669,236.9034 c 0.0000,-1.3124 -1.0639,-2.3762 -2.3762 -2.3762c -1.3124,-0.0000 -2.3762,1.0639 -2.3762 2.3762c -0.0000,1.3124 1.0639,2.3762 2.3762 2.3762c 1.3124,0.0000 2.3762,-1.0639 2.3762 -2.3762Z"/></g><g stroke-linejoin="miter" stroke-opacity="1.0" fill-opacity="1.0" stroke="rgb(0,0,0)" stroke-width="0.0" fill="rgb(0,126,156)" stroke-linecap="butt" stroke-miterlimit="10.0"><path d="M 19.7668,223.4015 c 0.0000,-1.3124 -1.0639,-2.3762 -2.3762 -2.3762c -1.3124,-0.0000 -2.3762,1.0639 -2.3762 2.3762c -0.0000,1.3124 1.0639,2.3762 2.3762 2.3762c 1.3124,0.0000 2.3762,-1.0639 2.3762 -2.3762Z"/></g></svg>